<svg width="67" height="67" viewBox="0 0 67 67" fill="none" xmlns="http://www.w3.org/2000/svg">
<path d="M16.8833 15.5957C16.8833 13.4634 18.6117 11.735 20.744 11.735H49.7956C51.9278 11.735 53.6562 13.4634 53.6562 15.5957V54.9437C53.6562 57.0762 51.9278 58.8046 49.7956 58.8046H20.744C18.6117 58.8046 16.8833 57.0762 16.8833 54.9437V15.5957Z" fill="#0C0D0F"/>
<path d="M14.3091 13.0215C14.3091 10.8893 16.0375 9.16089 18.1697 9.16089H47.2214C49.3536 9.16089 51.0821 10.8893 51.0821 13.0215V52.3694C51.0821 54.5019 49.3536 56.2303 47.2214 56.2303H18.1697C16.0375 56.2303 14.3091 54.5019 14.3091 52.3694V13.0215Z" fill="white"/>
<path fill-rule="evenodd" clip-rule="evenodd" d="M18.1696 8.19556H47.2213C49.8865 8.19556 52.0471 10.3562 52.0471 13.0214V52.3693C52.0471 55.0347 49.8865 57.1954 47.2213 57.1954H18.1696C15.5043 57.1954 13.3438 55.0347 13.3438 52.3693V13.0214C13.3438 10.3561 15.5043 8.19556 18.1696 8.19556ZM18.1696 9.16072C16.0374 9.16072 14.3089 10.8892 14.3089 13.0214V52.3693C14.3089 54.5018 16.0374 56.2302 18.1696 56.2302H47.2213C49.3534 56.2302 51.0819 54.5018 51.0819 52.3693V13.0214C51.0819 10.8892 49.3534 9.16072 47.2213 9.16072H18.1696Z" fill="#0C0D0F"/>
<path d="M18.7681 15.4128C18.7681 14.3467 19.6323 13.4824 20.6984 13.4824H45.1989C46.265 13.4824 47.1293 14.3467 47.1293 15.4128V19.936C47.1293 21.0021 46.265 21.8663 45.1989 21.8663H20.6984C19.6323 21.8663 18.7681 21.0021 18.7681 19.936V15.4128Z" fill="#0C0D0F"/>
<path fill-rule="evenodd" clip-rule="evenodd" d="M20.4684 25.2764H24.6057C25.6718 25.2764 26.536 26.1406 26.536 27.2067V28.072C26.536 29.1381 25.6718 30.0024 24.6057 30.0024H20.4684C19.4023 30.0024 18.5381 29.1381 18.5381 28.072V27.2067C18.5381 26.1406 19.4023 25.2764 20.4684 25.2764ZM20.4684 26.2415C19.9354 26.2415 19.5033 26.6736 19.5033 27.2067V28.072C19.5033 28.6051 19.9354 29.0372 20.4684 29.0372H24.6057C25.1387 29.0372 25.5708 28.6051 25.5708 28.072V27.2067C25.5708 26.6736 25.1387 26.2415 24.6057 26.2415H20.4684Z" fill="#0C0D0F"/>
<path fill-rule="evenodd" clip-rule="evenodd" d="M20.4684 32.079H24.6057C25.6718 32.079 26.536 32.9432 26.536 34.0093V34.8747C26.536 35.9407 25.6718 36.805 24.6057 36.805H20.4684C19.4023 36.805 18.5381 35.9407 18.5381 34.8747V34.0093C18.5381 32.9432 19.4023 32.079 20.4684 32.079ZM20.4684 33.0441C19.9354 33.0441 19.5033 33.4762 19.5033 34.0093V34.8747C19.5033 35.4077 19.9354 35.8398 20.4684 35.8398H24.6057C25.1387 35.8398 25.5708 35.4077 25.5708 34.8747V34.0093C25.5708 33.4762 25.1387 33.0441 24.6057 33.0441H20.4684Z" fill="#0C0D0F"/>
<path fill-rule="evenodd" clip-rule="evenodd" d="M20.4684 39.2496H24.6057C25.6718 39.2496 26.536 40.1138 26.536 41.1799V42.0453C26.536 43.1114 25.6718 43.9756 24.6057 43.9756H20.4684C19.4023 43.9756 18.5381 43.1114 18.5381 42.0453V41.1799C18.5381 40.1138 19.4023 39.2496 20.4684 39.2496ZM20.4684 40.2148C19.9354 40.2148 19.5033 40.6469 19.5033 41.1799V42.0453C19.5033 42.5783 19.9354 43.0105 20.4684 43.0105H24.6057C25.1387 43.0105 25.5708 42.5783 25.5708 42.0453V41.1799C25.5708 40.6469 25.1387 40.2148 24.6057 40.2148H20.4684Z" fill="#0C0D0F"/>
<path fill-rule="evenodd" clip-rule="evenodd" d="M20.4684 46.4204H24.6057C25.6718 46.4204 26.536 47.2847 26.536 48.3507V49.2161C26.536 50.2822 25.6718 51.1464 24.6057 51.1464H20.4684C19.4023 51.1464 18.5381 50.2822 18.5381 49.2161V48.3507C18.5381 47.2847 19.4023 46.4204 20.4684 46.4204ZM20.4684 47.3856C19.9354 47.3856 19.5033 47.8177 19.5033 48.3507V49.2161C19.5033 49.7491 19.9354 50.1813 20.4684 50.1813H24.6057C25.1387 50.1813 25.5708 49.7491 25.5708 49.2161V48.3507C25.5708 47.8177 25.1387 47.3856 24.6057 47.3856H20.4684Z" fill="#0C0D0F"/>
<path fill-rule="evenodd" clip-rule="evenodd" d="M31.1324 25.2764H35.2697C36.3358 25.2764 37.2 26.1406 37.2 27.2067V28.072C37.2 29.1381 36.3358 30.0024 35.2697 30.0024H31.1324C30.0663 30.0024 29.2021 29.1381 29.2021 28.072V27.2067C29.2021 26.1406 30.0663 25.2764 31.1324 25.2764ZM31.1324 26.2415C30.5994 26.2415 30.1673 26.6736 30.1673 27.2067V28.072C30.1673 28.6051 30.5994 29.0372 31.1324 29.0372H35.2697C35.8027 29.0372 36.2348 28.6051 36.2348 28.072V27.2067C36.2348 26.6736 35.8027 26.2415 35.2697 26.2415H31.1324Z" fill="#0C0D0F"/>
<path fill-rule="evenodd" clip-rule="evenodd" d="M31.1324 32.079H35.2697C36.3358 32.079 37.2 32.9432 37.2 34.0093V34.8747C37.2 35.9407 36.3358 36.805 35.2697 36.805H31.1324C30.0663 36.805 29.2021 35.9407 29.2021 34.8747V34.0093C29.2021 32.9432 30.0663 32.079 31.1324 32.079ZM31.1324 33.0441C30.5994 33.0441 30.1673 33.4762 30.1673 34.0093V34.8747C30.1673 35.4077 30.5994 35.8398 31.1324 35.8398H35.2697C35.8027 35.8398 36.2348 35.4077 36.2348 34.8747V34.0093C36.2348 33.4762 35.8027 33.0441 35.2697 33.0441H31.1324Z" fill="#0C0D0F"/>
<path fill-rule="evenodd" clip-rule="evenodd" d="M31.1324 39.2496H35.2697C36.3358 39.2496 37.2 40.1138 37.2 41.1799V42.0453C37.2 43.1114 36.3358 43.9756 35.2697 43.9756H31.1324C30.0663 43.9756 29.2021 43.1114 29.2021 42.0453V41.1799C29.2021 40.1138 30.0663 39.2496 31.1324 39.2496ZM31.1324 40.2148C30.5994 40.2148 30.1673 40.6469 30.1673 41.1799V42.0453C30.1673 42.5783 30.5994 43.0105 31.1324 43.0105H35.2697C35.8027 43.0105 36.2348 42.5783 36.2348 42.0453V41.1799C36.2348 40.6469 35.8027 40.2148 35.2697 40.2148H31.1324Z" fill="#0C0D0F"/>
<path fill-rule="evenodd" clip-rule="evenodd" d="M31.1324 46.4204H35.2697C36.3358 46.4204 37.2 47.2847 37.2 48.3507V49.2161C37.2 50.2822 36.3358 51.1464 35.2697 51.1464H31.1324C30.0663 51.1464 29.2021 50.2822 29.2021 49.2161V48.3507C29.2021 47.2847 30.0663 46.4204 31.1324 46.4204ZM31.1324 47.3856C30.5994 47.3856 30.1673 47.8177 30.1673 48.3507V49.2161C30.1673 49.7491 30.5994 50.1813 31.1324 50.1813H35.2697C35.8027 50.1813 36.2348 49.7491 36.2348 49.2161V48.3507C36.2348 47.8177 35.8027 47.3856 35.2697 47.3856H31.1324Z" fill="#0C0D0F"/>
<path fill-rule="evenodd" clip-rule="evenodd" d="M41.5212 25.2764H45.6584C46.7245 25.2764 47.5887 26.1406 47.5887 27.2067V28.072C47.5887 29.1381 46.7245 30.0024 45.6584 30.0024H41.5212C40.4551 30.0024 39.5908 29.1381 39.5908 28.072V27.2067C39.5908 26.1406 40.4551 25.2764 41.5212 25.2764ZM41.5212 26.2415C40.9881 26.2415 40.556 26.6736 40.556 27.2067V28.072C40.556 28.6051 40.9881 29.0372 41.5212 29.0372H45.6584C46.1914 29.0372 46.6236 28.6051 46.6236 28.072V27.2067C46.6236 26.6736 46.1914 26.2415 45.6584 26.2415H41.5212Z" fill="#0C0D0F"/>
<path fill-rule="evenodd" clip-rule="evenodd" d="M40.9694 32.079H45.1066C46.1727 32.079 47.0369 32.9432 47.0369 34.0093V49.216C47.0369 50.282 46.1727 51.1463 45.1066 51.1463H40.9694C39.9033 51.1463 39.0391 50.282 39.0391 49.216V34.0093C39.0391 32.9432 39.9033 32.079 40.9694 32.079ZM40.9694 33.0441C40.4363 33.0441 40.0042 33.4762 40.0042 34.0093V49.216C40.0042 49.749 40.4363 50.1811 40.9694 50.1811H45.1066C45.6397 50.1811 46.0718 49.749 46.0718 49.216V34.0093C46.0718 33.4762 45.6397 33.0441 45.1066 33.0441H40.9694Z" fill="#0C0D0F"/>
<path fill-rule="evenodd" clip-rule="evenodd" d="M41.5439 40.6205C41.5439 40.354 41.76 40.1379 42.0265 40.1379H44.049C44.3155 40.1379 44.5316 40.354 44.5316 40.6205C44.5316 40.887 44.3155 41.1031 44.049 41.1031H42.0265C41.76 41.1031 41.5439 40.887 41.5439 40.6205Z" fill="#0C0D0F"/>
<path fill-rule="evenodd" clip-rule="evenodd" d="M41.5439 42.4134C41.5439 42.1469 41.76 41.9308 42.0265 41.9308H44.049C44.3155 41.9308 44.5316 42.1469 44.5316 42.4134C44.5316 42.6799 44.3155 42.896 44.049 42.896H42.0265C41.76 42.896 41.5439 42.6799 41.5439 42.4134Z" fill="#0C0D0F"/>
<path fill-rule="evenodd" clip-rule="evenodd" d="M41.5439 16.3685C41.5439 15.6223 42.1489 15.0173 42.8951 15.0173H43.3183C44.0646 15.0173 44.6695 15.6223 44.6695 16.3685V18.7453C44.6695 19.4915 44.0646 20.0965 43.3183 20.0965H42.8951C42.1489 20.0965 41.5439 19.4915 41.5439 18.7453V16.3685ZM42.8951 15.9825C42.6819 15.9825 42.5091 16.1553 42.5091 16.3685V18.7453C42.5091 18.9585 42.6819 19.1313 42.8951 19.1313H43.3183C43.5315 19.1313 43.7043 18.9585 43.7043 18.7453V16.3685C43.7043 16.1553 43.5315 15.9825 43.3183 15.9825H42.8951Z" fill="white"/>
</svg>
