<svg width="82" height="44" viewBox="0 0 82 44" fill="none" xmlns="http://www.w3.org/2000/svg">
<g clip-path="url(#clip0_549_3718)">
<path d="M80.4302 9.9132C74.2552 1.2196 57.3259 0.726526 47.817 0.233456C35.0908 -0.41532 20.7431 0.0258473 8.73045 4.82679C5.44838 6.15029 1.08957 8.23935 0.220405 11.9763C0.103652 12.1709 0.0128432 12.4045 -0.000129472 12.7029C-0.05202 18.7495 0.220405 24.7702 0.0258158 30.8168C-0.0131021 31.0503 0.0128432 31.2969 0.116624 31.5304C0.129597 31.5823 0.168515 31.6083 0.181487 31.6602C0.220405 31.7121 0.259323 31.777 0.298241 31.8289C0.363104 31.9197 0.44094 32.0105 0.531748 32.0754C12.5833 43.3641 31.4196 44.8952 47.0905 43.6755C56.9367 42.91 76.3957 41.2231 81.5588 30.8038C81.5718 30.7778 81.5847 30.7389 81.5977 30.713C81.6107 30.687 81.6237 30.6481 81.6366 30.6092C81.6756 30.4924 81.7015 30.3756 81.7145 30.2718C81.7145 30.2069 81.7534 30.155 81.7534 30.0772C81.8831 25.2503 81.8961 20.4882 81.7793 15.6743C82.2334 13.9745 81.8961 12.0671 80.3913 9.93915L80.4302 9.9132ZM6.31754 9.16062C7.00509 8.49886 8.28938 8.13555 9.14558 7.77223C14.3087 5.5664 20.0556 4.55431 25.5949 3.85363C37.88 2.32252 50.8007 2.43929 62.9431 4.94357C67.7559 5.94269 74.9947 7.17536 77.9784 11.5092C78.5232 12.3007 78.8086 13.0403 78.8994 13.741C78.8994 14.0524 78.8994 14.3638 78.9124 14.6622C78.3286 19.6448 67.5224 22.3697 63.8641 23.3039C46.9997 27.5859 30.2391 28.7407 13.7249 22.5643C11.0655 21.4355 7.3813 19.9563 5.60405 17.6855C4.00841 15.6354 4.39759 10.9772 6.31754 9.14764V9.16062ZM74.9038 22.3827C75.4228 22.1102 75.9287 21.8377 76.4216 21.5393V32.5295C75.9417 32.9188 75.4357 33.2691 74.9038 33.6065V22.4086C74.9038 22.4086 74.9038 22.4086 74.9038 22.3957V22.3827ZM73.866 34.2164C72.5299 34.943 71.1158 35.5269 69.7278 36.0459C70.078 32.2311 70.4283 28.4293 70.7785 24.6145C70.7915 24.4458 70.7396 24.329 70.6618 24.2382C71.7126 23.8489 72.7763 23.4077 73.8271 22.9147V34.0087C73.8271 34.0866 73.8401 34.1515 73.866 34.2164ZM2.93169 19.3205C3.73599 20.1249 4.65705 20.8645 5.64297 21.5393V32.5036C4.70894 31.8159 3.80085 31.0893 2.93169 30.2977C3.03547 26.6386 2.98358 22.9795 2.93169 19.3075V19.3205ZM6.71969 22.2399C7.43319 22.6811 8.17263 23.0963 8.8991 23.4726C8.8991 23.5115 8.87315 23.5505 8.88612 23.6024C9.08071 27.3912 9.2753 31.1801 9.48286 34.9819C8.53586 34.4629 7.62778 33.9049 6.73267 33.2951V22.2399H6.71969ZM9.97582 24.0176C10.9099 24.4717 11.8179 24.874 12.6093 25.2113C12.6482 25.2243 12.7001 25.2373 12.739 25.2503C12.8039 25.2892 12.8687 25.3281 12.9466 25.3541C13.9325 25.7174 14.9054 26.0547 15.8913 26.3791C15.9432 30.2069 15.9951 34.0217 16.047 37.8495C14.153 37.2007 12.3239 36.4352 10.5596 35.5399C10.365 31.6991 10.1574 27.8583 9.96285 24.0176H9.97582ZM25.1408 40.1072C25.3743 40.0683 25.5689 39.9126 25.556 39.6012C25.4911 38.4723 25.4262 37.3305 25.3614 36.2016C25.3224 35.5139 24.2457 35.5009 24.2846 36.2016C24.3495 37.3305 24.4144 38.4723 24.4792 39.6012C24.4792 39.8088 24.609 39.9515 24.7516 40.0294C22.1701 39.5882 19.6275 39.0043 17.1627 38.2258C17.1108 34.385 17.0589 30.5443 17.007 26.7035C19.5107 27.4691 22.0144 28.066 24.5181 28.5331C24.4792 28.6109 24.4403 28.6888 24.4403 28.7926V30.7908C24.4403 31.4915 25.517 31.4915 25.517 30.7908V28.7926C25.517 28.7926 25.517 28.7407 25.5041 28.7147C31.3028 29.7009 37.1405 29.9344 42.9912 29.5971C42.8874 29.6879 42.8096 29.8177 42.7966 29.9863C42.576 33.6714 42.3685 37.3435 42.148 41.0285C36.6216 41.2231 30.8099 41.0285 25.1408 40.0943V40.1072ZM45.6246 40.8728C44.8333 40.9247 44.029 40.9636 43.2247 41.0026C43.4452 37.3305 43.6528 33.6714 43.8733 29.9993C43.8733 29.7917 43.7955 29.649 43.6528 29.5711C48.777 29.2467 53.9141 28.4812 59.0513 27.4042C59.0124 31.3098 58.9735 35.2284 58.9345 39.1341C54.5498 40.0424 50.0742 40.6003 45.6246 40.8858V40.8728ZM60.0242 38.8875C60.0632 34.9819 60.1021 31.0763 60.141 27.1706C61.6328 26.8463 63.1377 26.4959 64.6295 26.1196C65.9527 25.7823 67.7559 25.2762 69.7018 24.5885C69.7018 24.5885 69.7018 24.6015 69.7018 24.6145C69.3386 28.559 68.9753 32.5036 68.6121 36.4481C68.0024 36.6558 67.4057 36.8504 66.8478 37.045C64.6165 37.7846 62.3334 38.3815 60.0242 38.9005V38.8875ZM77.5113 31.5434V20.8386C78.0432 20.4753 78.5362 20.099 78.9902 19.7097C79.0162 23.0185 78.9902 26.3272 78.9124 29.6619C78.5362 30.3496 78.0692 30.9725 77.5113 31.5434Z" fill="#0C0D0F"/>
<path d="M15.0482 11.7556C16.6438 12.0281 18.2265 12.3006 19.8221 12.5601C17.7465 13.9095 16.9552 15.233 19.4459 16.1154C22.6631 17.2572 27.956 15.791 31.8348 14.5972C38.36 15.7002 44.8853 16.8031 51.4105 17.919C48.816 18.9051 46.0658 19.6707 44.6777 20.0599C44.068 20.2286 44.3274 21.1758 44.9371 21.0072C46.2085 20.6438 50.243 19.7096 53.8104 18.3342C55.5098 18.6197 57.2093 18.9051 58.9216 19.2036C59.5443 19.3074 59.8038 18.3601 59.1811 18.2563C57.9487 18.0487 56.7163 17.8411 55.4839 17.6335C56.8071 17.0237 57.9617 16.3619 58.7789 15.6223C60.1281 15.8688 61.4772 16.0894 62.8134 16.3489C63.4231 16.4657 63.6956 15.5185 63.0729 15.4017C61.8924 15.1811 60.7119 14.9865 59.5314 14.7659C59.8297 14.3118 59.9984 13.8447 59.9724 13.3516C59.7519 8.34304 47.7911 9.51084 45.028 9.93903C42.9264 10.2634 40.8897 10.7954 38.853 11.3793C35.2206 10.8603 31.5753 10.3672 27.93 9.91308C29.4219 9.36811 30.9137 8.83611 32.4186 8.34304C33.0153 8.14841 32.7558 7.2012 32.1591 7.39583C31.5364 7.60344 28.7603 8.48577 25.8285 9.66655C24.3885 9.49786 22.9485 9.30323 21.5086 9.13455C20.8859 9.06967 20.8859 10.0428 21.5086 10.1207C22.3388 10.2115 23.1691 10.3283 23.9993 10.4191C22.9745 10.8603 21.9756 11.3274 21.1064 11.8075C19.1735 11.4831 17.2276 11.1458 15.2947 10.8214C14.672 10.7176 14.4125 11.6648 15.0352 11.7686L15.0482 11.7556ZM22.1313 15.246C18.1097 15.3109 19.3292 14.0523 21.3918 12.8455C24.0642 13.2997 26.7365 13.7538 29.4219 14.208C27.0479 14.7919 24.635 15.2071 22.1442 15.259L22.1313 15.246ZM53.1099 17.2313C46.7014 16.1413 40.2929 15.0644 33.8715 13.9744C33.9882 13.9355 34.118 13.8966 34.2347 13.8576C35.6358 13.4294 37.1925 12.8975 38.84 12.3655C44.7555 13.2218 50.6451 14.1691 56.5217 15.2201C55.7304 15.9337 54.498 16.6085 53.0969 17.2313H53.1099ZM53.9791 10.8862C57.0925 12.0281 57.819 13.2218 57.2352 14.3507C51.8516 13.3905 46.4549 12.4952 41.0454 11.6907C45.4431 10.4062 50.204 9.48489 53.9791 10.8862ZM25.4523 10.8733C25.6339 10.7954 25.8155 10.7305 25.9971 10.6657C29.5516 11.0939 33.1061 11.561 36.6606 12.067C34.9871 12.586 33.3266 13.118 31.6532 13.5981C28.6954 13.0921 25.7376 12.599 22.7669 12.093C23.8436 11.548 24.8944 11.0939 25.4393 10.8733H25.4523Z" fill="#0C0D0F"/>
<path d="M66.4327 9.16051C68.3007 9.48489 70.2466 9.79631 71.8163 10.9252C73.6066 12.2227 74.5925 14.727 72.7633 16.4657C72.3093 16.9069 72.9968 17.5946 73.4509 17.1534C75.0595 15.6093 75.0595 13.2089 73.7752 11.4572C72.1147 9.21241 69.2737 8.64148 66.6921 8.20032C66.0695 8.09651 65.81 9.04373 66.4327 9.14753V9.16051Z" fill="#0C0D0F"/>
<path d="M14.6332 19.5151C15.2429 19.6319 15.5154 18.6977 14.8927 18.5679C13.4138 18.2825 12.0127 17.7764 10.7155 16.9849C9.54795 16.2713 6.5383 14.2341 7.91339 12.5084C8.30257 12.0153 7.61502 11.3276 7.22585 11.8206C4.2162 15.5965 11.9868 18.9961 14.6462 19.5151H14.6332Z" fill="#0C0D0F"/>
</g>
<defs>
<clipPath id="clip0_549_3718">
<rect width="82" height="44" fill="white"/>
</clipPath>
</defs>
</svg>
