<svg width="109" height="94" viewBox="0 0 109 94" fill="none" xmlns="http://www.w3.org/2000/svg">
<g clip-path="url(#clip0_549_3470)">
<path d="M108.977 61.8702C108.977 61.383 108.7 60.9191 108.067 60.8031C92.7241 57.8105 78.2338 51.4889 66.6691 40.7364C55.0584 29.9492 47.4101 15.9025 42.5723 0.904749C42.3535 0.231995 41.7776 -0.023188 41.2362 0.0232088C41.1556 0.0232088 41.0864 1.03852e-05 40.9943 0.0116096C27.5867 1.87908 14.3173 4.66289 0.909759 6.54197C0.149535 6.64636 -0.0923547 7.24952 0.0228308 7.84108C0.0228308 7.93387 -0.000206318 8.02666 0.0228308 8.13106C3.20195 26.6666 9.52563 44.7266 20.6525 60.0027C31.5145 74.8961 46.1661 86.0661 62.7068 93.8608C62.9026 93.9536 63.0984 93.9884 63.2827 93.9884C63.5131 94.0116 63.7549 93.9884 63.9968 93.8608C80.2495 85.8806 95.7996 75.8936 108.62 62.9605C108.954 62.6241 109.034 62.2298 108.965 61.8818L108.977 61.8702ZM21.9772 57.4509C11.7717 43.0099 5.87425 26.2026 2.75273 8.86181C15.3655 7.04073 27.8632 4.4889 40.4644 2.66783C45.452 17.6656 53.2155 31.747 64.8492 42.5575C76.1604 53.0664 90.1785 59.562 105.095 62.8097C92.9314 74.6061 78.4526 83.8275 63.3403 91.309C47.0185 83.5027 32.4936 72.3675 21.9657 57.4509H21.9772Z" fill="white"/>
<path d="M37.5731 32.153C27.6211 33.4985 22.4493 44.1002 26.1467 53.1476C30.1321 62.9025 43.678 69.8853 53.6185 65.9763C53.63 65.9763 53.6415 65.9647 53.653 65.9531C53.6761 65.9531 53.7106 65.9531 53.7336 65.9299C61.3935 61.6034 62.5914 52.4169 59.205 44.7498C55.6803 36.7347 46.3387 30.9699 37.5731 32.1646V32.153ZM53.2959 65.06C44.5994 68.4238 33.0463 63.0069 28.3122 55.2239C22.1613 45.0861 28.8421 32.385 40.8674 33.0114C55.2426 33.7537 69.2376 56.001 53.2959 65.06Z" fill="white"/>
<path d="M28.8997 24.8223C32.7814 24.5207 34.371 20.4494 33.1846 17.0624C33.1846 17.0392 33.1615 17.0276 33.15 17.0044C33.15 16.9812 33.15 16.9696 33.1385 16.9464C31.618 13.7103 27.7824 10.3001 24.0273 11.9472C21.332 13.1303 20.6639 16.3665 21.2974 19.0111C22.1037 22.3981 25.352 25.0891 28.8997 24.8107V24.8223ZM22.1268 18.3151C21.7582 16.1345 22.4032 13.5015 24.7184 12.7243C27.9206 11.6456 30.996 14.6962 32.2746 17.3756C33.5416 21.0758 30.973 24.7759 26.8954 23.6392C24.3729 22.9316 22.5645 20.9018 22.1268 18.3151Z" fill="white"/>
<path d="M73.9374 76.6128C76.7019 75.5573 79.0056 73.365 77.7501 70.1984C76.5636 67.1942 73.039 65.0136 69.8714 65.0716C66.554 65.1296 64.4922 68.3193 65.0566 71.4743C65.7708 75.4877 70.2284 77.7031 73.9374 76.6244V76.6128ZM70.9771 66.1387C73.1657 66.4867 75.3657 67.8786 76.4945 69.8156C78.1071 72.5763 76.3218 74.6757 73.684 75.6848C70.5625 76.6012 66.7268 74.8381 66.0242 71.4511C65.3561 68.2381 67.7635 65.6283 70.9771 66.1387Z" fill="white"/>
<path d="M7.90174 13.5595C7.752 12.9563 6.83052 13.2115 6.98026 13.8147C8.88082 21.6789 11.8065 29.0908 15.7804 36.1315C16.0914 36.6767 16.9208 36.1895 16.6098 35.6444C12.6819 28.6848 9.79079 21.3426 7.91326 13.5595H7.90174Z" fill="white"/>
<path d="M13.2001 16.9233C13.1195 16.3201 12.1635 16.3085 12.2441 16.9233C12.7394 20.7162 14.0295 24.2076 16.1719 27.3858C16.5175 27.8961 17.3468 27.409 17.0012 26.8986C14.974 23.8828 13.6839 20.5422 13.2116 16.9233H13.2001Z" fill="white"/>
<path d="M60.5298 85.3354C53.5841 81.7165 47.3065 77.1348 41.7315 71.602C41.2938 71.1612 40.6142 71.8455 41.0519 72.2863C46.6845 77.8771 53.0197 82.5168 60.046 86.1706C60.5989 86.4606 61.0827 85.6254 60.5298 85.3354Z" fill="white"/>
<path d="M58.4678 79.8606C55.7494 78.7587 53.3651 77.1232 51.3033 75.0237C50.8656 74.5829 50.186 75.2673 50.6237 75.7081C52.8007 77.9351 55.3348 79.6286 58.2029 80.8001C58.7788 81.0321 59.0207 80.0926 58.4563 79.8722L58.4678 79.8606Z" fill="white"/>
<path d="M92.5513 64.6656C93.1503 64.8396 93.4037 63.9117 92.8047 63.7377C85.6287 61.6498 79.0055 58.4832 72.8431 54.2379C72.3363 53.8899 71.8525 54.7251 72.3593 55.0731C78.5793 59.3648 85.3062 62.5545 92.5513 64.6656Z" fill="white"/>
<path d="M45.9472 23.094C46.3619 23.558 47.0415 22.8736 46.6268 22.4097C42.8257 18.1644 40.0958 13.2927 38.4486 7.82947C38.2643 7.23791 37.3429 7.49309 37.5272 8.08465C39.2204 13.6987 42.0424 18.7443 45.9472 23.094Z" fill="white"/>
<path d="M52.8932 42.1515C52.3172 42.3139 51.7643 42.4995 51.1884 42.6619C49.3915 40.8292 47.2836 40.0173 45.049 41.9543C44.0239 42.8475 43.6438 43.9146 43.6438 45.0397C40.1767 46.1996 36.7442 47.4524 33.3462 48.7979C33.3462 47.6379 33.5074 46.4548 33.853 45.2833C34.0258 44.6801 33.0928 44.425 32.9315 45.0281C32.5399 46.4084 32.3556 47.8235 32.3786 49.2038C31.1692 49.691 29.9713 50.1666 28.7733 50.6653C28.2089 50.9089 28.4623 51.8369 29.0267 51.5933C30.1555 51.1177 31.2959 50.6653 32.4362 50.213C32.6205 52.092 33.2425 53.9015 34.3137 55.479C33.519 55.8618 32.7242 56.2562 31.9294 56.6389C31.3765 56.9057 31.8603 57.7409 32.4132 57.4741C33.2425 57.0681 34.0719 56.6737 34.9012 56.2678C35.3734 56.8477 35.9148 57.3929 36.5253 57.8916C38.9327 59.8403 42.9642 61.3598 45.9935 59.9795C49.069 58.576 49.0229 55.2818 47.825 52.5328C47.514 51.8253 47.1108 51.1757 46.7077 50.5493C48.9077 49.4822 51.0963 48.4151 53.2963 47.348C54.1026 48.8327 54.8052 50.4102 55.4042 51.9064C55.6346 52.4748 56.5676 52.2312 56.3257 51.6513C55.911 50.6189 55.1623 48.7863 54.1602 46.9304C54.9089 46.5708 55.6461 46.2112 56.3948 45.8517C56.9477 45.5849 56.4639 44.7497 55.911 45.0165C55.1738 45.3761 54.4366 45.7357 53.6879 46.0952C53.1466 45.1673 52.5591 44.2742 51.9141 43.4854C52.3287 43.3694 52.7434 43.2302 53.1581 43.1142C53.7571 42.9403 53.5036 42.0123 52.9047 42.1863L52.8932 42.1515ZM48.5967 42.1863C49.1266 42.4067 49.5989 42.6967 50.0366 43.0099C48.2512 43.5434 46.4658 44.1002 44.7035 44.6801C45.049 43.5434 46.3506 42.7083 48.5967 42.1863ZM33.3807 49.807C36.8017 48.4499 40.2458 47.1856 43.7359 46.014C43.9778 47.4408 44.6804 48.8907 45.3255 50.1086C41.9621 51.7441 38.5986 53.3679 35.2237 55.0034C34.1525 53.4839 33.5305 51.6977 33.3807 49.7954V49.807ZM43.6092 59.4691C42.1809 59.7011 40.4071 58.9704 39.1746 58.3556C37.8269 57.6945 36.7211 56.8129 35.8342 55.7922C39.1515 54.1799 42.4689 52.5792 45.7862 50.9669C47.2951 53.6115 50.4512 58.3672 43.6092 59.4691ZM51.8565 45.0165C52.1905 45.4805 52.513 45.9793 52.8125 46.4896C50.601 47.5567 48.3894 48.6355 46.1778 49.7026C45.6941 48.8907 45.2564 48.0555 45.0951 47.0464C44.8417 46.5708 44.715 46.13 44.6459 45.7125C46.7192 45.0281 48.7926 44.3786 50.8889 43.7638C51.246 44.1466 51.58 44.5525 51.845 45.0281L51.8565 45.0165Z" fill="white"/>
</g>
<defs>
<clipPath id="clip0_549_3470">
<rect width="109" height="94" fill="white"/>
</clipPath>
</defs>
</svg>
