<svg width="62" height="69" viewBox="0 0 62 69" fill="none" xmlns="http://www.w3.org/2000/svg">
<g clip-path="url(#clip0_549_3463)">
<path d="M60.7956 11.2886C60.7255 11.0656 60.5715 10.8426 60.3334 10.6475C56.0759 7.19125 51.6363 3.9719 47.4628 0.404136C47.0847 0.0696583 46.6505 -0.0278977 46.2444 0.0278486C46.1464 0.0278486 46.0483 -2.45702e-05 45.9363 0.013912C31.049 2.16015 19.2848 14.717 11.246 26.5073C6.23219 33.8519 -2.81502 47.7188 0.854283 57.3908C0.854283 57.6695 0.980328 57.9483 1.20441 58.2131C1.37247 58.5057 1.61055 58.7008 1.86264 58.7845C5.20983 61.5997 8.59903 64.3034 12.0863 66.9513C12.6465 67.5506 13.3467 68.0662 14.229 68.4425C19.4949 70.6445 25.8812 65.92 29.7465 62.9794C42.5331 53.2516 54.8014 38.3116 60.3054 23.1208C61.5238 19.762 63.1484 14.5219 60.7956 11.2747V11.2886ZM43.7935 12.4035C42.9392 12.9052 42.1129 13.4348 41.3006 13.9644C38.7377 11.9715 36.1748 9.97857 33.6119 7.99957C35.0824 7.07976 36.609 6.27144 38.1915 5.56067C40.8245 7.45604 43.4714 9.33748 46.1043 11.2329C45.278 11.637 44.4938 12.0412 43.7935 12.4035ZM47.3228 10.6615C44.6898 8.78002 42.0569 6.88464 39.424 5.00321C40.2503 4.66873 41.0906 4.37606 41.9309 4.11127C44.3537 6.04845 46.7766 7.9717 49.1994 9.90888C48.5552 10.1458 47.925 10.3967 47.3228 10.6615ZM50.4879 9.46291C48.093 7.5536 45.6982 5.64429 43.3033 3.73498C44.1717 3.49806 45.054 3.31688 45.9363 3.14964C48.2751 5.1147 50.67 6.9822 53.0788 8.8497C52.2105 8.98907 51.3422 9.18418 50.4739 9.46291H50.4879ZM26.4974 13.3791C26.5394 13.4766 26.5954 13.5603 26.6935 13.6439C27.5338 14.2292 28.36 14.8285 29.2003 15.4138C29.8166 15.8459 30.4048 14.8424 29.7886 14.4104C28.9623 13.8251 28.15 13.2397 27.3237 12.6683C28.9903 11.2189 30.7409 9.86707 32.5755 8.65459C35.1525 10.6475 37.7294 12.6544 40.2923 14.6473C38.4156 15.9155 36.623 17.2674 34.9144 18.6889C34.4802 18.3405 34.0461 17.9921 33.6119 17.6576C33.0377 17.1977 32.1974 18.006 32.7856 18.4799C33.1918 18.8144 33.6119 19.1349 34.0181 19.4694C30.1807 22.8142 26.7495 26.591 23.7104 30.8974C21.3155 28.7511 18.9347 26.6049 16.5399 24.4447C19.4529 20.5704 22.7721 16.7378 26.4834 13.393L26.4974 13.3791ZM14.8873 26.7025C15.2094 26.2565 15.5315 25.8105 15.8676 25.3645C18.2485 27.4968 20.6293 29.6431 22.9961 31.7754C23.0242 31.7893 23.0382 31.8032 23.0662 31.8172C20.6433 35.3013 18.1084 39.2314 15.9096 43.3567C13.3187 41.2522 10.7278 39.1339 8.13687 37.0295C10.4757 32.9321 13.0946 29.225 14.8873 26.7025ZM2.96903 51.5374C5.50393 53.5582 8.03883 55.5791 10.5597 57.5999C10.5177 57.8647 10.4617 58.1155 10.4197 58.3803C10.3917 58.5615 10.3637 58.7566 10.3356 58.9378C7.88478 56.9866 5.43391 55.0216 2.98304 53.0705C2.94102 52.5688 2.94102 52.067 2.96903 51.5514V51.5374ZM3.93538 46.3112C6.47028 48.7501 9.00518 51.189 11.5401 53.614C11.26 54.5199 11.0219 55.4118 10.8258 56.3177C8.37495 54.3666 5.93809 52.4154 3.48722 50.4643C3.36117 50.3528 3.20712 50.325 3.06707 50.3389C3.22112 49.0289 3.51523 47.6909 3.93538 46.3112ZM11.9322 52.3876C9.39732 49.9487 6.86242 47.5237 4.34152 45.0848C5.16781 42.7295 6.30222 40.3464 7.56266 38.0608C10.1676 40.1791 12.7585 42.2975 15.3634 44.4159C14.019 47.0359 12.8425 49.7118 11.9462 52.3876H11.9322ZM3.75331 56.3177C3.52923 55.802 3.36117 55.2724 3.23513 54.7289C5.55995 56.5825 7.89878 58.45 10.2236 60.3036C10.1956 60.7216 10.1956 61.1537 10.2236 61.5718C8.05284 59.8576 5.89607 58.1155 3.76732 56.3038L3.75331 56.3177ZM52.8127 31.4548C46.9446 41.517 39.2839 51.0636 30.3207 58.5615C27.0436 61.307 19.761 67.9129 15.2654 65.0559C9.67741 61.516 16.4558 50.0462 18.5706 45.7956C24.8728 33.1412 33.0517 22.3682 45.3761 15.0794C50.0397 12.5847 59.0589 9.25386 58.5968 17.9085C58.3447 22.4657 55.0535 27.6362 52.8267 31.4548H52.8127Z" fill="white"/>
<path d="M24.9147 59.2443C23.7103 60.3035 22.4639 61.4463 20.8953 61.9202C19.0327 62.4776 16.6378 61.9202 16.3997 59.6346C16.3297 58.9656 15.2653 58.9656 15.3353 59.6346C15.5314 61.516 16.8899 62.8818 18.7806 63.1605C21.4975 63.5508 23.7663 61.6554 25.657 59.9969C26.1612 59.551 25.4189 58.7984 24.9147 59.2583V59.2443Z" fill="white"/>
<path d="M46.8745 17.142C46.3564 17.574 47.0986 18.3127 47.6168 17.8806C48.6112 17.0584 49.6895 16.3894 50.908 15.9434C52.1124 15.4975 55.1375 14.5359 55.6417 16.473C55.8097 17.1281 56.8321 16.8493 56.664 16.1943C55.5436 11.9436 48.8212 15.5253 46.8745 17.142Z" fill="white"/>
<path d="M33.5 32.2632C32.2116 31.9984 30.9091 31.7336 29.6207 31.4688C28.9624 31.3294 28.6683 32.3468 29.3406 32.4862C30.4049 32.7091 31.4833 32.9321 32.5477 33.1412C31.2172 34.3955 30.1108 35.6219 29.3406 36.6114C27.856 36.4441 26.3715 36.2908 24.887 36.1236C24.2148 36.0539 24.2148 37.0992 24.887 37.1828C26.1334 37.3221 27.3799 37.4615 28.6263 37.5869C26.7637 40.207 23.4585 45.2381 25.3912 48.3738C27.87 52.4155 34.8445 48.3738 37.8136 47.3565C38.4578 47.1335 38.1777 46.1161 37.5335 46.3391C35.4047 47.0638 32.3937 48.8338 30.1389 48.8338C22.6322 48.8338 27.814 40.5694 29.8588 37.7263C32.6878 38.0329 35.5308 38.3534 38.3598 38.6601C39.032 38.7297 39.032 37.6845 38.3598 37.6009C35.7689 37.3221 33.1779 37.0295 30.587 36.7507C31.3293 35.8309 32.4497 34.6324 33.7801 33.406C37.2674 34.1167 40.7546 34.8414 44.2419 35.5522C44.9001 35.6916 45.1942 34.6742 44.522 34.5348C41.2588 33.8659 38.0096 33.1969 34.7465 32.528C39.7463 28.1797 46.9448 24.0685 49.7038 30.4514C49.9699 31.0786 50.8802 30.535 50.6141 29.9218C47.393 22.4657 39.06 27.3017 33.5 32.2771V32.2632Z" fill="white"/>
</g>
<defs>
<clipPath id="clip0_549_3463">
<rect width="62" height="69" fill="white"/>
</clipPath>
</defs>
</svg>
