<svg width="236" height="198" viewBox="0 0 236 198" fill="none" xmlns="http://www.w3.org/2000/svg">
<g clip-path="url(#clip0_549_3663)">
<path d="M69.2393 168.803C69.908 168.629 69.6358 167.591 68.9671 167.765C55.4854 171.357 42.8313 163.322 40.1621 149.604C40.0323 148.926 38.9949 149.198 39.1247 149.876C41.8826 164.115 55.2205 172.541 69.227 168.81L69.2393 168.803Z" fill="#0C0D0F"/>
<path d="M79.6899 162.737C78.492 163.608 77.287 164.468 76.0891 165.339C75.5357 165.741 76.0745 166.674 76.6279 166.273C77.8258 165.401 79.0308 164.541 80.2287 163.67C80.7821 163.268 80.2433 162.335 79.6899 162.737Z" fill="#0C0D0F"/>
<path d="M62.7938 121.771C68.9099 120.351 75.1465 121.662 80.1962 125.394C80.7412 125.8 81.2815 124.866 80.7242 124.467C75.4558 120.583 68.8888 119.267 62.5164 120.752C61.8406 120.913 62.1127 121.951 62.7886 121.79L62.7938 121.771Z" fill="#0C0D0F"/>
<path d="M88.4088 131.998C87.7874 131.063 87.1731 130.141 86.5517 129.206C86.1746 128.638 85.2351 129.164 85.6193 129.745C86.2407 130.679 86.855 131.602 87.4764 132.536C87.8535 133.104 88.7929 132.578 88.4088 131.998Z" fill="#0C0D0F"/>
<path d="M121.044 59.1609C120.963 59.0769 120.869 58.9999 120.763 58.93C100.906 45.8693 72.2175 55.8181 67.3578 78.254C65.1706 84.6085 63.6209 91.2171 64.7553 97.9133C65.7252 103.673 68.3696 108.99 72.1532 113.305C69.9451 112.795 67.6994 112.504 65.4671 112.434C44.5458 113.085 28.352 131.472 30.9778 151.092C30.9034 151.332 30.8889 151.618 30.9713 151.931C31.1791 152.744 31.3817 153.577 31.6037 154.415C31.6629 154.659 31.7221 154.903 31.8006 155.152C33.7256 162.538 36.1016 170.138 41.3189 175.803C48.8046 183.924 60.4638 187.573 71.2288 185.14C93.3662 180.135 106.4 154.093 96.5654 133.461C96.5442 133.424 96.5371 133.412 96.5158 133.375C95.2047 129.744 93.1098 126.484 90.4635 123.657C109.699 127.254 130.711 114.435 134.121 94.3911C134.125 94.3401 134.123 94.3084 134.126 94.2574C137.823 81.4809 131.319 67.0138 121.044 59.1609ZM70.2562 104.806C70.7054 103.941 71.1669 103.069 71.6232 102.216C72.2853 103.193 72.9964 104.141 73.7546 105.029C73.1014 105.881 72.4554 106.745 71.8022 107.597C71.2337 106.698 70.7143 105.77 70.2633 104.819L70.2562 104.806ZM70.9697 101.169C70.5482 101.969 70.1268 102.769 69.7054 103.569C68.2283 100.132 67.4316 96.4009 67.487 92.5869C68.2176 95.7506 69.4247 98.6064 70.9819 101.162L70.9697 101.169ZM36.7255 133.481C42.2153 122.846 53.5686 115.963 65.442 115.592C69.8995 115.72 74.2369 116.801 78.1633 118.643C79.5404 119.584 81.0067 120.424 82.5286 121.133C91.4455 127.2 96.9106 137.601 93.9687 149.221C89.0779 168.515 66.7486 181.799 48.3135 171.798C41.7832 168.25 37.2336 162.183 35.088 155.35C34.7927 154.243 34.5096 153.13 34.2336 152.029C33.0208 145.82 33.7463 139.229 36.7307 133.462L36.7255 133.481ZM85.3915 174.114C85.3554 172.465 85.3387 170.821 85.3026 169.172C85.3007 169.14 85.2794 169.103 85.2775 169.072C86.9993 167.521 88.5974 165.812 90.0296 163.987C90.0897 165.507 90.1376 167.035 90.1976 168.556C88.7891 170.564 87.169 172.433 85.3793 174.121L85.3915 174.114ZM81.055 177.567C81.0007 176.141 80.934 174.723 80.8797 173.297C80.8676 172.993 80.6613 172.834 80.4238 172.791C81.7553 171.924 83.03 170.959 84.2571 169.939C84.297 171.652 84.3176 173.359 84.3575 175.071C83.3197 175.965 82.2147 176.799 81.0744 177.572L81.055 177.567ZM50.5827 179.099C50.4583 178.091 50.3145 177.077 50.1901 176.068C51.296 176.51 52.4121 176.913 53.5613 177.232C53.5191 178.321 53.4892 179.402 53.447 180.491C52.4696 180.073 51.5026 179.616 50.5827 179.099ZM41.1528 170.529C43.5196 172.617 46.1921 174.299 49.0559 175.577C49.1765 176.522 49.3093 177.461 49.4299 178.406C46.1775 176.371 43.3316 173.708 41.165 170.522L41.1528 170.529ZM66.3523 182.7C62.3081 183.004 58.2575 182.363 54.4896 180.937C54.528 179.785 54.5734 178.645 54.6118 177.493C60.6488 178.969 67.1415 178.74 73.1816 176.481C75.485 175.626 77.6957 174.497 79.8052 173.164C79.7949 173.203 79.7845 173.242 79.7812 173.293C79.849 174.94 79.9167 176.587 79.9844 178.234C75.9385 180.718 71.3188 182.321 66.3329 182.694L66.3523 182.7ZM91.2166 167.034C91.1699 165.735 91.1161 164.424 91.0694 163.125C91.0669 162.979 91.0102 162.88 90.929 162.796C93.41 159.416 95.3478 155.661 96.5747 151.694C96.0069 157.114 94.1362 162.402 91.2166 167.034ZM85.6997 119.089C85.2119 118.896 84.7364 118.696 84.2661 118.476C82.8187 117.527 81.3137 116.677 79.7582 115.938C76.8821 113.931 74.4058 111.399 72.4359 108.525C73.1239 107.62 73.812 106.715 74.4878 105.818C81.5563 113.443 92.4461 117.175 103.113 116.698C102.14 118.128 101.154 119.565 100.18 120.994C98.8168 121.127 97.4408 121.152 96.061 121.113C96.839 119.911 97.6047 118.716 98.3827 117.513C98.7543 116.939 97.8273 116.41 97.4557 116.984C96.5731 118.345 95.7026 119.699 94.8199 121.06C91.7416 120.856 88.6682 120.208 85.6926 119.077L85.6997 119.089ZM101.58 120.841C102.519 119.464 103.445 118.094 104.384 116.717C104.414 116.684 104.412 116.652 104.422 116.613C106.659 116.435 108.871 116.075 111.041 115.526C110.256 116.716 109.49 117.911 108.705 119.101C106.4 119.925 104.004 120.506 101.573 120.829L101.58 120.841ZM110.412 118.46C111.132 117.356 111.865 116.245 112.579 115.129C112.579 115.129 112.579 115.129 112.584 115.11C116.057 114.071 119.358 112.509 122.331 110.432C118.959 113.885 114.87 116.606 110.405 118.447L110.412 118.46ZM125.272 103.315C113.29 115.767 90.089 118.192 77.7154 104.92C70.3238 96.9904 68.3662 85.8087 71.4196 76.1382C71.8413 75.027 72.27 73.9281 72.6865 72.8362C74.7942 68.214 78.1328 64.1089 82.6684 61.1137C93.6193 53.8744 108.394 54.5617 119.19 61.6723C131.835 71.1367 137.014 91.1002 125.265 103.303L125.272 103.315Z" fill="#0C0D0F"/>
<path d="M78.7399 74.7932C79.0199 74.1731 78.0858 73.6318 77.8129 74.2642C71.8002 87.5917 77.8365 101.985 91.4822 107.204C92.1319 107.451 92.3992 106.413 91.7566 106.178C78.7678 101.218 73.0175 87.4619 78.7347 74.8125L78.7399 74.7932Z" fill="#0C0D0F"/>
<path d="M103.436 108.276C101.958 108.294 100.473 108.3 98.9954 108.319C98.31 108.321 98.2924 109.396 98.99 109.386C100.468 109.368 101.953 109.362 103.431 109.343C104.116 109.34 104.134 108.266 103.436 108.276Z" fill="#0C0D0F"/>
<path d="M113.262 65.0616C119.084 67.496 123.382 72.022 125.432 78.0093C125.655 78.6502 126.687 78.3981 126.469 77.7379C124.334 71.4889 119.885 66.6734 113.795 64.1153C113.17 63.8541 112.63 64.7881 113.267 65.0423L113.262 65.0616Z" fill="#0C0D0F"/>
<path d="M127.381 84.8411C127.353 85.9542 127.313 87.0744 127.285 88.1875C127.256 88.8751 128.335 88.8742 128.351 88.1937C128.379 87.0806 128.42 85.9604 128.448 84.8473C128.476 84.1597 127.397 84.1606 127.381 84.8411Z" fill="#0C0D0F"/>
<path d="M192.445 41.5134C192.445 41.5134 192.273 41.4983 192.183 41.4846C192.144 41.4742 192.099 41.4515 192.048 41.4482C171.353 38.8087 152.7 54.6368 152.13 74.1049C152.022 74.3146 151.974 74.5715 151.999 74.8686C152.05 75.4117 152.097 75.9741 152.156 76.5295C152.209 77.6124 152.305 78.6863 152.467 79.7881C153.206 86.8762 154.431 94.1258 158.377 100.083C164.622 109.51 175.757 115 187.015 114.099C209.277 112.314 226.166 89.0397 219.747 67.2702C219.708 67.1455 219.664 67.0402 219.607 66.942C217.083 54.1555 205.158 43.8987 192.438 41.5011L192.445 41.5134ZM202.287 105.478C202.508 103.877 202.741 102.269 202.962 100.668C202.984 100.508 202.938 100.371 202.861 100.268C204.852 99.0693 206.722 97.6621 208.471 96.1288C208.285 97.6769 208.099 99.2249 207.913 100.773C206.198 102.533 204.312 104.112 202.275 105.485L202.287 105.478ZM209.631 95.4753C209.643 95.3539 209.618 95.2538 209.556 95.175C212.491 92.3832 214.958 89.0923 216.786 85.4013C215.366 90.5922 212.699 95.4066 209.16 99.4474C209.315 98.1298 209.483 96.8052 209.638 95.4876L209.631 95.4753ZM160.313 58.133C167.356 48.2053 179.824 43.1682 191.768 44.5896C208.942 47.9028 222.064 65.1632 214.601 82.3244C207.008 99.7726 184.253 109.882 167.538 98.5263C160.595 93.8089 156.461 86.2247 155.453 78.2445C155.393 77.5748 155.321 76.9123 155.262 76.2426C154.899 69.9196 156.492 63.4989 160.294 58.1278L160.313 58.133ZM167.127 104.953C167.149 104.056 167.183 103.152 167.205 102.255C168.224 102.83 169.263 103.326 170.33 103.758C170.131 104.773 169.937 105.769 169.738 106.785C168.841 106.222 167.966 105.614 167.127 104.953ZM159.624 95.9246C161.56 98.2288 163.75 100.124 166.139 101.627C166.113 102.46 166.092 103.274 166.066 104.108C163.44 101.826 161.223 99.0619 159.612 95.9316L159.624 95.9246ZM197.467 108.179C197.629 106.759 197.803 105.333 197.965 103.913C198.045 103.229 196.978 103.223 196.898 103.907C196.709 105.506 196.533 107.098 196.336 108.685C192.781 110.148 188.935 110.993 184.921 111.068C179.898 111.152 174.999 109.805 170.701 107.375C170.903 106.309 171.112 105.255 171.327 104.181C180.968 107.734 192.453 106.179 201.868 100.841C201.615 102.641 201.356 104.46 201.103 106.26C199.934 106.984 198.723 107.634 197.462 108.198L197.467 108.179Z" fill="#0C0D0F"/>
<path d="M187.118 97.7328C187.8 97.6668 187.805 96.5995 187.124 96.6655C173.241 98.0336 162.023 88.2363 161.477 74.2585C161.455 73.5676 160.376 73.5685 160.41 74.2523C160.976 88.7751 172.637 99.1684 187.118 97.7328Z" fill="#0C0D0F"/>
<path d="M198.366 93.4164C197.048 94.0793 195.717 94.7493 194.406 95.4246C193.783 95.7348 194.335 96.6609 194.945 96.3578C196.263 95.6948 197.594 95.0248 198.905 94.3496C199.527 94.0393 198.976 93.1132 198.366 93.4164Z" fill="#0C0D0F"/>
<path d="M188.15 50.2799C194.408 49.843 200.377 52.0782 204.792 56.5526C205.273 57.0447 206.026 56.2821 205.546 55.79C200.949 51.1422 194.698 48.7588 188.168 49.2055C187.491 49.2522 187.474 50.3266 188.162 50.2728L188.15 50.2799Z" fill="#0C0D0F"/>
<path d="M211.851 64.3306C211.396 63.3162 210.922 62.2966 210.467 61.2821C210.188 60.6573 209.256 61.1956 209.535 61.8204C209.99 62.8349 210.464 63.8545 210.919 64.8689C211.198 65.4938 212.13 64.9555 211.851 64.3306Z" fill="#0C0D0F"/>
<path d="M45.5893 143.819C51.215 143.108 56.8337 142.386 62.4594 141.675C61.8477 143.109 61.2412 144.524 60.6295 145.957C60.3689 146.582 61.2959 147.111 61.5565 146.486C62.269 144.831 62.9693 143.182 63.6819 141.526C63.7258 141.517 63.789 141.514 63.8329 141.505C65.4489 142.405 67.0526 143.313 68.6614 144.201C67.5544 146.052 66.428 147.898 65.321 149.748C64.9636 150.348 65.9029 150.87 66.248 150.277C67.355 148.427 68.4814 146.581 69.5884 144.73C71.6908 145.907 73.8002 147.096 75.9026 148.272C76.507 148.611 77.0351 147.684 76.4306 147.345C74.3282 146.169 72.2259 144.992 70.1429 143.821C71.2796 141.937 72.4216 140.033 73.5583 138.149C73.9157 137.55 72.9764 137.028 72.6313 137.62C71.4946 139.504 70.3526 141.408 69.2159 143.292C67.5277 142.351 65.8324 141.398 64.1442 140.457C64.8619 138.782 65.5796 137.107 66.2851 135.439C66.5457 134.814 65.6187 134.285 65.3581 134.91C64.7464 136.344 64.1399 137.758 63.5282 139.192C61.68 134.971 59.8124 130.744 57.9642 126.523C57.6852 125.898 56.7652 126.43 57.0318 127.062C58.1656 129.649 59.2994 132.236 60.4384 134.804C60.9093 135.874 61.3873 136.957 61.8582 138.028C62.5424 139.581 63.1687 140.071 61.4953 140.742C59.3377 141.595 56.0838 141.427 53.7654 141.718C50.9499 142.083 48.1397 142.428 45.3242 142.793C44.6375 142.878 44.9219 143.909 45.5964 143.831L45.5893 143.819Z" fill="#0C0D0F"/>
<path d="M91.9674 74.5566C90.0573 78.2462 91.1342 81.783 92.6925 85.3037C91.6724 85.86 90.7804 86.7515 90.0861 88.1838C89.7868 88.7987 90.7138 89.3277 91.0131 88.7128C91.5716 87.5554 92.3202 86.8121 93.1615 86.3427C94.8115 89.9088 96.7145 93.4599 96.2701 97.1382C95.7344 97.9387 95.4038 98.9809 95.333 100.332C95.3256 100.63 95.5127 100.784 95.7379 100.835C95.9527 100.923 96.2038 100.877 96.3396 100.602C96.8321 99.6133 97.1156 98.6311 97.2726 97.6564C100.469 93.3057 111.618 98.166 115.226 99.2591C115.647 99.3928 115.933 98.9819 115.878 98.6041C115.784 97.9873 115.697 97.3828 115.602 96.7661C115.504 96.086 114.467 96.3575 114.565 97.0375C114.616 97.3521 114.659 97.6543 114.698 97.9759C110.468 96.5707 101.444 93.038 97.3752 95.9926C97.3705 93.9161 96.7945 91.8419 95.9372 89.7337C95.409 88.4506 94.7808 87.1924 94.1964 85.9253C97.2537 85.0443 101.305 86.8477 104.332 87.4737C106.582 87.9428 108.666 87.8692 110.781 86.9428C111.406 86.6643 110.874 85.7433 110.243 86.0096C105.586 88.0593 98.5341 83.4374 93.7203 84.8741C93.0574 83.3576 92.4946 81.8161 92.2862 80.1519C91.2736 72.1084 100.394 67.9886 105.626 74.1038C106.077 74.6294 106.83 73.8668 106.38 73.3411C102.378 68.6769 94.9744 68.7439 91.9551 74.5637L91.9674 74.5566Z" fill="#0C0D0F"/>
<path d="M180.187 83.3484C180.63 82.5852 181.066 81.8098 181.508 81.0467C189.985 85.0756 204.299 80.2332 199.764 68.9512C199.51 68.3123 198.473 68.5837 198.727 69.2227C202.82 79.4006 189.617 83.929 182.031 80.1391C184.936 75.0564 187.836 69.9931 190.741 64.9105C191.086 64.3183 190.152 63.777 189.814 64.3815C186.909 69.4641 184.016 74.5397 181.104 79.6101C173.458 74.725 173.882 60.4989 185.103 61.9443C185.787 62.0242 185.78 60.9639 185.108 60.877C173.344 59.3687 171.713 74.6196 180.003 80.1965C180.189 80.3189 180.386 80.4341 180.564 80.5442C180.134 81.3002 179.691 82.0633 179.26 82.8194C178.915 83.4116 179.849 83.9528 180.187 83.3484Z" fill="#0C0D0F"/>
</g>
<defs>
<clipPath id="clip0_549_3663">
<rect width="211" height="106" fill="white" transform="translate(0.0107422 105.644) rotate(-30)"/>
</clipPath>
</defs>
</svg>
