<svg width="211" height="106" viewBox="0 0 211 106" fill="none" xmlns="http://www.w3.org/2000/svg">
<g clip-path="url(#clip0_549_3421)">
<path d="M28.3741 89.3117C29.0399 89.496 29.3232 88.4609 28.6574 88.2766C15.1857 84.6469 8.24442 71.3614 12.7917 58.1469C13.0183 57.4946 11.9842 57.2111 11.7575 57.8633C7.02616 71.5741 14.3641 85.5401 28.3599 89.3117H28.3741Z" fill="white"/>
<path d="M40.4575 89.2833C38.9843 89.4392 37.511 89.581 36.0378 89.737C35.3578 89.8079 35.3578 90.8855 36.0378 90.8146C37.511 90.6586 38.9843 90.5168 40.4575 90.3608C41.1375 90.2899 41.1375 89.2124 40.4575 89.2833Z" fill="white"/>
<path d="M46.3079 45.3577C52.3142 47.1867 57.0597 51.4403 59.5671 57.1969C59.8362 57.8208 60.7712 57.282 60.4879 56.6581C57.8672 50.6605 52.8383 46.2368 46.577 44.3368C45.9112 44.1383 45.6279 45.1734 46.2937 45.3719L46.3079 45.3577Z" fill="white"/>
<path d="M63.3777 67.0227C63.3069 65.9026 63.2361 64.7966 63.1652 63.6765C63.1227 62.996 62.0461 62.9818 62.0886 63.6765C62.1595 64.7966 62.2303 65.9026 62.3011 67.0227C62.3436 67.7033 63.4202 67.7175 63.3777 67.0227Z" fill="white"/>
<path d="M128.059 20.2613C128.031 20.1479 127.988 20.0345 127.931 19.9211C117.265 -1.31864 87.4455 -7.04684 72.0189 9.95343C66.9475 14.363 62.3011 19.3114 59.9354 25.6776C57.8956 31.1506 57.5272 37.0773 58.6463 42.7062C56.9889 41.1608 55.1899 39.7854 53.2917 38.6086C34.8477 28.7119 11.63 36.5385 4.09374 54.8432C3.90958 55.0134 3.75376 55.2544 3.66876 55.5663C3.44211 56.3745 3.20129 57.1969 2.97464 58.0334C2.90381 58.2745 2.83298 58.5155 2.77631 58.7707C0.750601 66.1295 -0.991796 73.8994 0.693938 81.4141C3.11629 92.1899 11.3891 101.179 21.9285 104.454C43.6022 111.189 67.9108 95.1533 69.7099 72.3681C69.7099 72.3256 69.7099 72.3114 69.7099 72.2688C70.3898 68.4689 70.2057 64.5982 69.3274 60.8266C84.1873 73.5591 108.793 72.9636 121.769 57.3103C121.798 57.2678 121.812 57.2394 121.84 57.1969C131.43 47.9807 133.031 32.1998 128.059 20.2613ZM61.2529 34.3975C62.0745 33.8729 62.9103 33.3483 63.7319 32.8379C63.8169 34.0147 63.9585 35.1915 64.171 36.34C63.1794 36.7512 62.1878 37.1765 61.1962 37.5877C61.1537 36.5243 61.1679 35.4609 61.2529 34.4117V34.3975ZM63.6894 31.6043C62.9244 32.0864 62.1595 32.5685 61.3945 33.0505C61.8337 29.3357 63.0094 25.706 64.9643 22.4307C64.0152 25.5358 63.6327 28.6126 63.7035 31.6043H63.6894ZM17.8771 42.4652C27.949 35.9997 41.2224 35.7161 51.6909 41.3309C55.4874 43.6704 58.703 46.7755 61.182 50.3344C61.9045 51.8373 62.7544 53.2977 63.7177 54.6731C68.4066 64.3855 67.9391 76.1255 59.5813 84.7177C45.6988 98.9815 19.7186 99.3218 8.75429 81.4425C4.87286 75.1046 3.96624 67.5757 5.52449 60.5856C5.82197 59.4796 6.13362 58.3737 6.44526 57.2819C8.49931 51.2985 12.4232 45.9532 17.8913 42.451L17.8771 42.4652ZM39.7066 101.987C40.4999 100.541 41.3074 99.1091 42.1007 97.6629C42.1148 97.6345 42.1148 97.592 42.129 97.5636C44.3955 97.0816 46.6337 96.401 48.7869 95.5361C48.0786 96.8831 47.3562 98.23 46.6479 99.577C44.4239 100.612 42.0865 101.42 39.6925 101.987H39.7066ZM34.2245 102.81C34.8902 101.548 35.5419 100.286 36.2077 99.024C36.3493 98.7547 36.2502 98.5136 36.066 98.3577C37.6526 98.2726 39.2392 98.0741 40.8116 97.8047C39.9899 99.3076 39.1542 100.796 38.3325 102.299C36.9868 102.555 35.6127 102.725 34.2386 102.824L34.2245 102.81ZM7.06856 88.9005C7.4652 87.9647 7.84768 87.0147 8.24432 86.0789C8.98095 87.0147 9.7459 87.9221 10.5817 88.7729C10.0009 89.6945 9.43425 90.6161 8.85345 91.5377C8.21599 90.687 7.60686 89.8079 7.06856 88.9005ZM3.18712 76.7635C4.1929 79.7552 5.66614 82.5484 7.5077 85.0864C7.13939 85.9655 6.78524 86.8445 6.41693 87.7236C4.61787 84.3349 3.48461 80.6059 3.20129 76.7635H3.18712ZM18.9254 99.9031C15.2706 98.145 12.0833 95.5644 9.53341 92.4451C10.1425 91.4668 10.7517 90.5027 11.3608 89.5243C15.8514 93.8205 21.5885 96.8689 27.949 97.9323C30.3713 98.3435 32.8504 98.4711 35.3436 98.3718C35.3152 98.4002 35.2869 98.4285 35.2586 98.4711C34.4936 99.9315 33.7286 101.392 32.9637 102.852C28.2181 102.98 23.4159 102.058 18.9112 99.889L18.9254 99.9031ZM48.2911 98.7688C48.9002 97.6204 49.5094 96.4577 50.1185 95.3092C50.1893 95.1816 50.1893 95.0682 50.161 94.9548C53.9999 93.2675 57.5556 90.9847 60.6012 88.1632C57.3997 92.5727 53.1358 96.2167 48.2911 98.7688ZM67.4858 54.4887C67.16 54.0776 66.8484 53.6664 66.5509 53.241C65.7718 51.6955 64.8935 50.2068 63.916 48.7889C62.4286 45.6129 61.5503 42.1816 61.2812 38.7078C62.3295 38.2683 63.3777 37.8288 64.4118 37.3892C66.7209 47.527 74.2854 56.2044 83.7624 61.1244C82.2041 61.8758 80.6317 62.6273 79.0735 63.3788C77.8269 62.8116 76.6228 62.1452 75.447 61.4221C76.7219 60.7699 77.9827 60.1177 79.2576 59.4655C79.8668 59.1535 79.3284 58.2319 78.7193 58.5439C77.2744 59.2811 75.8437 60.0184 74.3987 60.7557C71.8347 59.0401 69.4974 56.9417 67.4858 54.4746V54.4887ZM80.3626 63.9459C81.8641 63.2228 83.3515 62.4997 84.8531 61.7766C84.8956 61.7624 84.9098 61.7341 84.9381 61.7057C86.9638 62.6699 89.0604 63.4639 91.2136 64.0735C89.9387 64.7116 88.6779 65.3638 87.403 66.0018C84.9948 65.5623 82.6291 64.8676 80.3626 63.9318V63.9459ZM89.202 66.2996C90.3778 65.7041 91.5677 65.1086 92.7435 64.4989C92.7435 64.4989 92.7435 64.4989 92.7577 64.4847C96.285 65.3213 99.9256 65.619 103.538 65.3071C98.8915 66.6115 93.9901 66.9235 89.202 66.2854V66.2996ZM109.643 60.6139C93.041 65.4063 71.7356 55.9066 67.6558 38.2258C65.2193 27.6626 69.1149 17.0002 76.5944 10.1519C77.5152 9.40046 78.436 8.66317 79.3426 7.92587C83.479 4.9767 88.4229 3.09093 93.8484 2.76482C106.952 1.97082 119.404 9.95343 125.197 21.5091C131.416 36.0281 125.92 55.9066 109.643 60.5998V60.6139Z" fill="white"/>
<path d="M83.6064 12.6474C84.1589 12.2504 83.6206 11.3146 83.0681 11.7258C71.1972 20.2613 69.2281 35.7445 78.4359 47.0874C78.8751 47.6262 79.6259 46.8606 79.1867 46.336C70.4181 35.546 72.3163 20.7576 83.5923 12.6616L83.6064 12.6474Z" fill="white"/>
<path d="M88.253 53.9925C86.964 53.2694 85.6749 52.5321 84.3858 51.809C83.7908 51.4687 83.2383 52.3903 83.8475 52.7306C85.1366 53.4537 86.4257 54.191 87.7147 54.9141C88.3097 55.2544 88.8622 54.3328 88.253 53.9925Z" fill="white"/>
<path d="M118.37 21.4807C122.194 26.5 123.653 32.5685 122.435 38.7788C122.308 39.4452 123.328 39.7429 123.469 39.0623C124.744 32.5827 123.299 26.1881 119.304 20.9278C118.894 20.389 117.959 20.9278 118.384 21.4666L118.37 21.4807Z" fill="white"/>
<path d="M120.707 45.6696C120.126 46.6195 119.531 47.5695 118.95 48.5195C118.582 49.1008 119.517 49.6396 119.871 49.0583C120.452 48.1083 121.047 47.1583 121.627 46.2084C121.996 45.627 121.061 45.0882 120.707 45.6696Z" fill="white"/>
<path d="M198.718 40.6787C198.718 40.6787 198.576 40.5794 198.505 40.5227C198.477 40.4944 198.449 40.4518 198.406 40.4235C181.804 27.7902 157.736 32.1715 147.508 48.7464C147.31 48.874 147.14 49.0725 147.013 49.3419C146.786 49.8381 146.545 50.3486 146.318 50.859C145.823 51.8231 145.369 52.8015 144.958 53.8365C142.055 60.3445 139.49 67.2354 139.93 74.3673C140.624 85.6535 147.523 95.9756 157.722 100.825C177.894 110.41 204.157 98.6979 209.484 76.6359C209.512 76.5083 209.526 76.3948 209.526 76.2814C213.734 63.9459 208.535 49.1008 198.718 40.6645V40.6787ZM175.259 100.995C176.251 99.7188 177.257 98.4427 178.248 97.1666C178.347 97.039 178.376 96.8973 178.362 96.7696C180.685 96.7271 183.008 96.4435 185.289 95.9898C184.354 97.2375 183.419 98.4853 182.484 99.733C180.118 100.399 177.696 100.825 175.245 100.995H175.259ZM186.62 96.004C186.691 95.9047 186.719 95.8055 186.705 95.7062C190.643 94.7563 194.426 93.1399 197.854 90.8571C194.029 94.6428 189.312 97.4786 184.226 99.2084C185.019 98.145 185.827 97.0816 186.62 96.0182V96.004ZM162.581 39.0056C173.644 33.9296 186.96 35.8012 196.593 43.004C209.81 54.4604 212.544 75.9695 197.5 87.0998C182.2 98.4144 157.439 95.7913 148.642 77.6C144.987 70.0428 145.199 61.408 148.316 53.9925C148.599 53.3828 148.868 52.7731 149.152 52.1634C151.999 46.5061 156.589 41.7421 162.567 38.9914L162.581 39.0056ZM145.072 82.9596C145.539 82.1939 146.021 81.4283 146.488 80.6626C147.083 81.6693 147.735 82.6193 148.443 83.5267C147.763 84.3066 147.098 85.0722 146.418 85.852C145.922 84.9162 145.468 83.9521 145.072 82.9596ZM143.089 71.3898C143.613 74.3531 144.562 77.0896 145.879 79.5851C145.44 80.294 145.015 80.9887 144.576 81.6977C143.443 78.4082 142.904 74.9061 143.074 71.3898H143.089ZM169.735 100.924C170.584 99.7755 171.449 98.6271 172.299 97.4786C172.709 96.9256 171.789 96.3868 171.378 96.9398C170.414 98.2301 169.465 99.5203 168.502 100.796C164.691 100.286 160.938 99.0949 157.424 97.1525C153.033 94.7137 149.463 91.0982 146.956 86.8446C147.664 86.0222 148.372 85.214 149.095 84.3916C155.668 92.2892 166.391 96.6846 177.214 96.7696C176.095 98.2017 174.962 99.6479 173.843 101.08C172.469 101.123 171.094 101.08 169.72 100.938L169.735 100.924Z" fill="white"/>
<path d="M165.995 86.7028C166.618 86.9863 167.156 86.0647 166.533 85.7811C153.826 80.0246 149.01 65.931 155.526 53.553C155.852 52.9433 154.917 52.4045 154.606 53.0142C147.834 65.8742 152.736 80.7052 165.995 86.7028Z" fill="white"/>
<path d="M177.895 88.5885C176.421 88.5034 174.934 88.4184 173.461 88.3475C172.766 88.3049 172.781 89.3825 173.461 89.4251C174.934 89.5101 176.421 89.5952 177.895 89.6661C178.589 89.7086 178.574 88.6311 177.895 88.5885Z" fill="white"/>
<path d="M190.615 46.1233C196.253 48.874 200.305 53.794 201.891 59.8767C202.061 60.5431 203.095 60.2595 202.925 59.5931C201.268 53.2694 197.047 48.08 191.168 45.2017C190.559 44.904 190.006 45.8256 190.63 46.1233H190.615Z" fill="white"/>
<path d="M204.115 70.1421C204.228 69.0361 204.328 67.916 204.441 66.8101C204.512 66.1295 203.435 66.1295 203.364 66.8101C203.251 67.916 203.152 69.0361 203.039 70.1421C202.968 70.8226 204.044 70.8226 204.115 70.1421Z" fill="white"/>
<path d="M20.3844 55.8499C25.6116 58.0476 30.8388 60.2311 36.066 62.4288C34.8194 63.3646 33.587 64.2862 32.3404 65.222C31.8021 65.6332 32.3404 66.5548 32.8787 66.1436C34.3236 65.066 35.7543 63.9885 37.1993 62.9109C37.2418 62.925 37.2984 62.9534 37.3409 62.9676C38.29 64.5556 39.225 66.1436 40.1741 67.7175C38.29 68.7667 36.3918 69.8017 34.5078 70.851C33.8986 71.1912 34.4511 72.1129 35.0461 71.7726C36.9301 70.7233 38.8283 69.6883 40.7124 68.6391C41.9448 70.7092 43.1772 72.7934 44.4097 74.8635C44.7638 75.459 45.6846 74.9202 45.3304 74.3247C44.098 72.2546 42.8656 70.1845 41.6473 68.1286C43.5739 67.0652 45.5146 65.9877 47.4412 64.9242C48.0503 64.584 47.4978 63.6623 46.9029 64.0026C44.9763 65.066 43.0356 66.1436 41.109 67.207C40.1174 65.5481 39.1258 63.875 38.1342 62.2161C39.5933 61.1244 41.0524 60.0326 42.4973 58.9408C43.0356 58.5297 42.4973 57.608 41.959 58.0192C40.7124 58.955 39.48 59.8766 38.2334 60.8124C38.7433 56.2327 39.2391 51.6388 39.7491 47.0591C39.8199 46.3785 38.7575 46.3785 38.6725 47.0591C38.3609 49.8665 38.0492 52.6738 37.7517 55.4671C37.6242 56.6297 37.4967 57.8065 37.3693 58.9692C37.1851 60.6565 37.4826 61.3937 35.6977 61.1385C33.4028 60.7982 30.6688 59.0259 28.5156 58.1185C25.8949 57.0267 23.2884 55.9208 20.6677 54.829C20.0303 54.5596 19.7611 55.5947 20.3844 55.8641V55.8499Z" fill="white"/>
<path d="M95.1802 19.0562C91.6812 21.2964 90.8454 24.8978 90.4346 28.726C89.273 28.6977 88.0548 29.0238 86.7374 29.917C86.1707 30.2999 86.709 31.2215 87.2757 30.8387C88.3381 30.1155 89.358 29.8462 90.3213 29.8603C89.9672 33.7737 89.8397 37.8004 87.6156 40.7638C86.7515 41.1891 85.9441 41.9264 85.2074 43.0607C85.0516 43.3159 85.1366 43.5428 85.3066 43.6987C85.4483 43.8831 85.6891 43.9681 85.9441 43.798C86.8648 43.1883 87.6015 42.4794 88.2248 41.7137C93.1686 39.5444 100.393 49.3277 102.971 52.0784C103.269 52.4045 103.722 52.1918 103.864 51.8373C104.09 51.256 104.317 50.6888 104.544 50.1075C104.799 49.4695 103.765 49.1859 103.51 49.8239C103.396 50.1217 103.283 50.4053 103.156 50.703C100.195 47.371 94.1461 39.7996 89.1455 40.3242C90.1796 38.5235 90.718 36.4393 91.0296 34.1848C91.2138 32.8095 91.2988 31.4058 91.4262 30.0163C94.5144 30.7819 97.1209 34.3692 99.4299 36.4251C101.144 37.9564 102.986 38.9347 105.28 39.1899C105.96 39.2608 105.96 38.1974 105.28 38.1123C100.223 37.5594 96.4268 30.0305 91.5396 28.8678C91.7237 27.2231 92.007 25.6067 92.6587 24.0612C95.8035 16.5891 105.762 17.5816 107.235 25.4933C107.363 26.1739 108.397 25.8903 108.269 25.2097C107.136 19.1696 100.691 15.5257 95.166 19.0562H95.1802Z" fill="white"/>
<path d="M167.185 70.7801C167.95 70.3405 168.715 69.8868 169.48 69.4473C174.806 77.1747 189.623 80.138 191.337 68.1003C191.437 67.4197 190.402 67.1362 190.303 67.8167C188.759 78.6776 175.061 75.9979 170.386 68.9227C175.443 65.9735 180.486 63.0385 185.544 60.0894C186.139 59.7491 185.6 58.8133 185.005 59.1677C179.948 62.1169 174.905 65.0661 169.848 68.0011C165.669 59.9476 173.149 47.839 182.144 54.7014C182.696 55.1126 183.22 54.191 182.682 53.7798C173.248 46.5912 164.21 58.9834 168.601 67.9585C168.7 68.157 168.814 68.3555 168.913 68.5399C168.162 68.9794 167.397 69.4189 166.646 69.8585C166.051 70.1988 166.59 71.1346 167.185 70.7801Z" fill="white"/>
</g>
<defs>
<clipPath id="clip0_549_3421">
<rect width="211" height="106" fill="white"/>
</clipPath>
</defs>
</svg>
