<svg width="53" height="53" viewBox="0 0 53 53" fill="none" xmlns="http://www.w3.org/2000/svg">
<g clip-path="url(#clip0_549_4282)">
<path fill-rule="evenodd" clip-rule="evenodd" d="M39.3046 0.0955637C39.1529 0.146147 38.5572 0.320378 37.9784 0.488989C37.3995 0.651979 36.8994 0.803729 36.86 0.809349C36.8319 0.82059 36.7814 0.831831 36.7589 0.837451C36.5959 0.882414 35.9777 1.06227 35.4438 1.2365C35.0954 1.34328 34.5728 1.50627 34.2862 1.5962C33.9883 1.68613 33.7523 1.78167 33.7523 1.81539C33.7523 1.84912 33.7186 1.84912 33.6736 1.83226C33.5949 1.80415 33.1173 1.94466 30.6727 2.74837C30.0264 2.96195 29.4195 3.14742 29.3127 3.16428C29.1666 3.19238 28.9081 3.09122 27.9527 2.61911C25.6767 1.48941 25.0304 1.21964 23.8166 0.876794C22.524 0.50585 21.563 0.444026 20.6582 0.6576C20.085 0.798109 19.8827 0.888035 19.1578 1.36577C18.2979 1.92218 17.3032 3.02377 16.9942 3.77128C16.9211 3.93989 16.8649 3.98485 16.7356 3.98485C16.0838 3.98485 14.7687 4.47944 13.7909 5.08644C12.8243 5.68782 11.6273 6.93554 10.6101 8.40808C10.4528 8.63289 10.3291 8.82398 10.3291 8.83522C10.3291 8.85209 10.228 9.04318 10.0931 9.25113C9.96383 9.4647 9.75028 9.85251 9.60979 10.1167C9.47491 10.3808 9.28384 10.7349 9.18269 10.9035C9.08153 11.0665 8.83426 11.5386 8.63195 11.9433C8.21047 12.7863 8.30038 12.7526 7.55857 12.3423C7.13147 12.1007 6.77181 12.0669 6.58073 12.2412C6.51892 12.2974 6.22669 12.8144 5.92322 13.3933C5.61975 13.9666 5.18141 14.7984 4.93976 15.2424C4.153 16.6475 3.64722 17.5917 3.33251 18.2268C3.16954 18.5641 2.90541 19.053 2.74806 19.3116C2.24228 20.1546 2.18046 20.2951 2.18046 20.6773C2.18046 21.0595 2.24228 21.1494 2.59632 21.3967L2.74244 21.4979L2.50079 21.7902C2.23104 22.1161 1.77584 22.8018 1.57352 23.2009C1.21948 23.909 0.404614 26.4663 0.348416 27.0564C0.342797 27.1745 0.314698 27.3037 0.292219 27.3375C0.213542 27.4667 0.0112305 29.1135 0.0112305 29.6362C0.0112305 31.4684 0.472051 33.0028 1.48923 34.599C2.11302 35.5713 2.55698 36.0884 3.57416 37.0213C5.28819 38.6007 7.21015 40.0338 9.50301 41.4614C9.66037 41.557 10.138 41.8605 10.5595 42.1246C10.981 42.3944 11.5936 42.7653 11.9083 42.9452C12.223 43.125 12.7119 43.4117 12.9929 43.5803C13.6111 43.9344 14.8305 44.6088 15.2858 44.8336C15.4656 44.9236 15.6623 45.0191 15.7072 45.0528C15.7578 45.0809 16.1231 45.2776 16.5221 45.48C16.9211 45.6879 17.4381 45.9577 17.6685 46.0814C18.8543 46.7165 23.7828 49.195 25.1822 49.8582C25.5306 50.0212 26.0476 50.2629 26.3286 50.4034C27.711 51.0554 29.6049 51.8759 30.4535 52.1907C31.5662 52.601 31.7011 52.6516 31.7011 52.6178C31.7011 52.6066 31.9652 52.6909 32.2912 52.8033C32.8138 52.9888 32.9206 53.0169 33.269 52.9775C33.4882 52.9551 33.7242 52.8988 33.8029 52.8483C33.9153 52.7696 34.6009 51.8029 34.6009 51.713C34.6009 51.7017 34.6908 51.5331 34.8088 51.3308C34.9156 51.1397 35.2134 50.6226 35.4607 50.1955C35.708 49.7627 36.1969 48.9196 36.5453 48.3239C36.8937 47.7281 37.4389 46.7895 37.7536 46.2387C38.0683 45.6879 38.6471 44.6875 39.0405 44.0074C40.378 41.6862 40.5691 41.3715 40.7714 40.9837C40.8838 40.7701 41.2266 40.1856 41.5132 39.691C41.8054 39.1908 42.255 38.4152 42.5079 37.9712C42.7608 37.5215 43.3059 36.5717 43.7161 35.8579C45.0817 33.4636 45.166 33.3175 45.166 33.2838C45.166 33.2726 45.2672 33.0871 45.3965 32.8791C45.61 32.5419 45.9753 31.9012 46.3518 31.238C46.4249 31.1031 46.6272 30.749 46.807 30.4511C46.9812 30.1476 47.3465 29.5125 47.6163 29.0348C47.886 28.5514 48.1951 28.0119 48.3019 27.8377C48.403 27.6634 48.4873 27.5061 48.4873 27.4948C48.4873 27.478 48.5772 27.3262 48.684 27.152C48.7964 26.9777 48.9875 26.6574 49.1055 26.4382C49.2179 26.219 49.926 24.9769 50.6678 23.6786C52.8033 19.913 52.7359 20.0422 52.7471 19.7331C52.7471 19.5814 52.8145 19.2891 52.8876 19.0699C53.0056 18.7383 53.0225 18.5978 52.9944 18.1594C52.9438 17.4119 52.7359 17.0185 51.8704 16.1024C51.4096 15.6134 50.3362 14.8715 49.7349 14.6298C49.5551 14.5568 49.4371 14.4724 49.4202 14.3938C49.3977 14.2814 49.1729 13.0561 49.0212 12.2187C48.9875 12.022 48.9257 11.6791 48.8751 11.4656C48.8301 11.2464 48.7458 10.8136 48.6953 10.4989C48.6391 10.1841 48.5154 9.53215 48.4143 9.0488C48.3187 8.56545 48.1333 7.63809 47.9984 6.98613C47.6612 5.2944 47.5994 5.18199 47.043 5.13703C46.7115 5.11455 45.4414 5.20447 45.0649 5.28316C44.8907 5.31688 44.8851 5.31126 44.7839 4.95718C44.7277 4.76608 44.6378 4.55813 44.576 4.50193C44.3568 4.30521 44.1713 4.31083 41.9122 4.52441C41.2097 4.59185 41.1872 4.58623 41.1816 4.21529C41.1816 4.10288 41.1367 3.79938 41.0973 3.55209C41.0467 3.30479 40.9681 2.87202 40.9231 2.58538C40.822 2.04021 40.659 1.30956 40.4904 0.651979C40.3274 0.00563793 40.024 -0.140491 39.3159 0.084323L39.3046 0.0955637ZM39.6306 0.651979C39.6474 0.680081 39.6924 0.949858 39.7261 1.24212C39.8048 1.89408 40.0352 3.04063 40.2712 3.94551C40.3611 4.31645 40.4342 4.61995 40.4286 4.63119C40.4061 4.64806 39.5688 4.74922 38.8213 4.81667C38.4729 4.85039 37.8379 4.91783 37.4051 4.96842C36.978 5.02462 36.0901 5.12017 35.4438 5.18761C34.7976 5.25505 33.8759 5.3506 33.3926 5.40118C31.51 5.60914 30.757 5.67096 28.835 5.82271C26.7107 5.9857 26.677 5.9857 26.1038 6.13745C25.849 6.20115 25.598 6.17679 25.3507 6.06439C25.1372 5.97446 24.845 5.84519 24.6876 5.77213C24.5303 5.70468 24.4179 5.626 24.4347 5.60352C24.4909 5.51359 25.7554 5.06396 27.7504 4.43448C28.4529 4.21529 29.3464 3.93427 29.7454 3.79938C30.1444 3.67011 30.7963 3.46778 31.1953 3.34413C33.0948 2.76523 38.8494 0.871173 39.2878 0.680081C39.5013 0.584535 39.6025 0.578915 39.6418 0.646359L39.6306 0.651979ZM22.7713 1.47255C23.4569 1.60744 24.2549 1.88284 26.0364 2.60786C26.9411 2.96757 27.7953 3.31603 27.9358 3.36661C28.2112 3.4734 28.2505 3.5296 28.0876 3.58019C28.0258 3.59705 27.7616 3.67573 27.4975 3.76004C25.8902 4.26587 25.1203 4.49068 24.3392 4.67616C23.8615 4.78856 23.367 4.94031 23.2377 5.01338L23.0129 5.14265L22.6252 4.97966C21.681 4.58623 19.4219 4.03544 18.4103 3.95113C18.1631 3.93427 17.9439 3.90617 17.9327 3.88931C17.9214 3.87807 18.0844 3.61391 18.2923 3.30479C18.888 2.42239 19.804 1.75357 20.7482 1.50065C21.2427 1.36577 22.1475 1.35452 22.76 1.47255H22.7713ZM18.8318 4.83353C19.3264 4.91783 20.9617 5.33936 21.5518 5.53607C22.968 6.0138 26.1207 7.37393 28.3742 8.48114C30.4985 9.52653 35.6855 12.2018 36.4666 12.6514C36.6465 12.7526 37.2478 13.0786 37.7929 13.3765C38.3436 13.6687 39.1585 14.1015 39.6025 14.3432C40.0464 14.5849 40.9175 15.0457 41.5357 15.3717C42.1538 15.6977 42.8282 16.0686 43.0474 16.1867C43.2666 16.3159 43.7442 16.5688 44.1039 16.7599C44.4748 16.951 45.2054 17.3444 45.7336 17.6367C47.9253 18.8282 50.3194 20.0085 50.9994 20.2333L51.6737 20.4581L51.286 21.0876L50.9038 21.7171H50.6397C49.8361 21.7396 49.7518 21.7508 49.6618 21.8464C49.527 21.9756 49.5438 22.1499 49.6843 22.296C49.7742 22.3859 49.881 22.414 50.1395 22.414H50.4767L50.3756 22.6051C50.28 22.7906 49.4933 24.1395 48.4199 25.9436C47.8354 26.9215 47.6893 27.2138 47.7455 27.27C47.768 27.2981 47.7567 27.2981 47.723 27.2812C47.6893 27.2644 47.4926 27.5285 47.2678 27.9163C47.0543 28.2761 46.7677 28.7763 46.6272 29.0179C46.4811 29.254 46.3069 29.5575 46.2394 29.6868C46.1664 29.8216 45.8011 30.4624 45.4189 31.1031C45.0312 31.7494 44.531 32.6037 44.295 33.0028C44.0589 33.4018 43.7161 33.9863 43.5307 34.3011C43.3452 34.6158 42.9575 35.2678 42.6709 35.7511C42.3955 36.2345 41.9628 36.9539 41.7324 37.3529C41.4963 37.752 41.0917 38.4433 40.8332 38.8929C40.0352 40.2811 40.0015 40.3542 39.5126 41.1579C39.0517 41.9223 37.9165 43.8726 37.3827 44.8393C37.2365 45.1034 37.068 45.3901 37.0061 45.4744C36.9499 45.5587 36.624 46.1151 36.2812 46.7108C35.9384 47.3066 35.6124 47.8742 35.5506 47.981C35.4888 48.0766 35.3539 48.3239 35.2472 48.5262C35.0729 48.8634 34.2749 50.2236 33.9434 50.7463C33.786 50.9992 33.7973 50.9935 33.3196 50.8137C32.9431 50.6732 32.7183 50.7294 32.7183 50.9654C32.7183 51.1565 32.8194 51.2689 33.1903 51.4488C33.3308 51.5219 33.4432 51.5893 33.4432 51.6062C33.4432 51.7073 33.0386 52.4211 32.9768 52.4211C32.9431 52.4211 32.7126 52.3424 32.4654 52.2525C32.2237 52.157 31.7517 51.9771 31.4201 51.8478C31.0885 51.7186 30.7064 51.5724 30.5771 51.5162C30.4423 51.4544 30.1725 51.342 29.9758 51.2577C29.7791 51.1734 29.3295 50.9823 28.9811 50.8306C28.6327 50.6788 28.3011 50.5552 28.2393 50.5552C28.1831 50.5552 28.1382 50.5327 28.1382 50.499C28.1382 50.4652 28.037 50.4034 27.9134 50.3528C27.6829 50.2629 26.958 49.9257 25.3901 49.1782C24.4291 48.7229 18.9611 45.9802 18.8712 45.9127C18.8431 45.8903 18.4328 45.6654 17.9664 45.4238C17.4999 45.1821 16.9099 44.8617 16.657 44.7212C16.3985 44.5751 16.1793 44.4571 16.1681 44.4571C16.14 44.4571 14.1618 43.3667 13.3188 42.8777C12.4815 42.3944 11.6779 41.8998 10.7506 41.2872C10.4359 41.0792 10.0931 40.86 9.99193 40.7982C9.81772 40.6914 8.51393 39.809 7.29444 38.9716C5.80521 37.9375 3.68094 36.0996 2.84921 35.1048C2.25352 34.391 1.60162 33.3119 1.2532 32.4576C0.792378 31.3279 0.651884 29.6924 0.882294 28.3042C1.14642 26.7417 1.43303 25.9998 2.99533 22.7512C3.43367 21.8295 3.37185 21.8801 3.78209 22.1274C3.97878 22.2454 4.52952 22.5489 5.01282 22.8074C5.49612 23.066 6.00752 23.347 6.15925 23.4257C6.86172 23.8135 8.70501 24.4823 9.59855 24.679C11.0091 24.9938 12.6838 24.6116 13.9145 23.7011C14.6563 23.1503 15.5555 22.2342 15.7971 21.7789C16.3704 20.6886 16.4547 19.216 16.0051 18.2662C15.5218 17.2658 14.4091 16.1417 12.8917 15.1244C11.942 14.4893 9.32318 13.0561 9.12649 13.0561C9.09277 13.0561 9.05905 13.0393 9.05905 13.0224C9.05905 12.9325 9.60979 11.9377 9.94135 11.4262C10.1493 11.1115 10.4752 10.5663 10.6607 10.2178C11.262 9.105 12.178 7.8348 12.9198 7.05919C13.3132 6.6489 14.3079 5.82833 14.7238 5.58104C15.9938 4.81667 17.2527 4.58623 18.8374 4.84477L18.8318 4.83353ZM44.2444 5.50797C44.3343 6.00256 44.6434 7.41327 44.9188 8.57107C45.0143 8.98697 45.1492 9.56025 45.2166 9.84689C45.2841 10.1335 45.4021 10.6562 45.4864 11.0215C45.8854 12.702 46.7733 17.3613 46.7115 17.4288C46.7002 17.4344 46.4586 17.2995 46.1664 17.1309C45.5707 16.7824 45.6212 16.8892 45.3627 15.5178C45.1548 14.4275 44.576 11.9096 44.2444 10.6225C44.1657 10.3246 44.0084 10.2684 43.452 10.3246C41.3727 10.5663 39.5069 9.37478 39.0855 7.54816C39.0349 7.35707 38.9843 7.16036 38.9562 7.12663C38.8157 6.90182 38.1582 6.88496 36.7813 7.07043C36.2868 7.13788 35.6462 7.21656 35.3652 7.25028C35.0842 7.27838 34.702 7.33459 34.5222 7.36269C34.3424 7.39079 33.9827 7.43013 33.7354 7.44699C32.988 7.50882 31.5269 7.71677 30.5659 7.91348L29.6611 8.09334L28.5596 7.5594C27.9527 7.26714 27.4525 7.01423 27.4525 6.99737C27.4525 6.9805 27.8291 6.91868 28.2843 6.85686C28.7395 6.80065 29.6105 6.68825 30.2287 6.60956C30.8469 6.52526 31.6168 6.42971 31.9484 6.39599C32.7464 6.31168 34.5672 6.12059 35.663 5.99694C36.1463 5.94074 36.9499 5.86205 37.4445 5.81709C38.3043 5.73841 41.0749 5.41805 42.9406 5.18199C44.2725 5.019 44.1489 4.98528 44.2332 5.49673L44.2444 5.50797ZM47.3577 6.65452C47.4196 7.06481 47.5039 7.58188 47.5488 7.81794C47.6387 8.25071 47.7343 8.7734 48.0883 10.7742C48.285 11.8871 48.6559 13.916 49.1167 16.3609C49.3247 17.4793 49.5045 18.6315 49.5101 18.8507C49.5101 18.9463 49.4933 18.9406 49.2516 18.8395C49.0268 18.7439 47.4083 17.8447 47.3521 17.7885C47.3465 17.7772 47.324 17.5412 47.3015 17.2658C47.2847 16.9904 47.1611 16.2597 47.0374 15.6415C46.9082 15.0232 46.7283 14.1465 46.644 13.68C46.5035 12.9437 45.9978 10.2909 45.7336 8.94201C45.655 8.54296 45.3234 7.13788 45.166 6.51964C45.0593 6.11497 45.0649 6.10373 45.4864 6.09811C45.6943 6.09811 46.054 6.06439 46.2844 6.01942C46.5204 5.96884 46.8351 5.93512 46.9868 5.9295H47.2566L47.3634 6.66014L47.3577 6.65452ZM38.5797 8.04275C38.7426 8.82398 39.5182 9.75134 40.3611 10.1841C40.9287 10.4764 41.9122 10.8248 42.0976 10.7911C42.1707 10.7855 42.2662 10.7967 42.3112 10.8248C42.3955 10.8754 42.8057 10.9091 43.4239 10.9148C43.8117 10.9204 43.7667 10.8586 43.8904 11.5555C43.9241 11.7522 44.0252 12.258 44.1095 12.6739C44.1994 13.0898 44.3175 13.7025 44.3793 14.0341C44.4411 14.3657 44.576 15.0176 44.6827 15.4785C44.7839 15.9394 44.8626 16.3159 44.8513 16.3272C44.8401 16.344 44.3006 16.063 43.6543 15.6977C43.008 15.3436 42.3168 14.9614 42.1145 14.849C41.9178 14.7422 41.575 14.5455 41.3615 14.4275C40.6758 14.0284 38.5628 12.8594 37.7086 12.4042C35.9665 11.4768 33.9321 10.3752 32.9093 9.80755C32.5946 9.63332 31.9877 9.30733 31.5606 9.08252C31.1335 8.85771 30.8019 8.66661 30.8132 8.65537C30.8244 8.63851 31.1616 8.59917 31.555 8.57107C32.4373 8.498 33.0498 8.42494 34.4154 8.23947C34.9943 8.16078 36.0676 8.02027 36.7982 7.93035C37.5288 7.84604 38.1357 7.76173 38.1526 7.75049C38.1694 7.73925 38.2537 7.72801 38.3436 7.72801C38.4954 7.72801 38.5122 7.75611 38.5797 8.04275ZM8.93542 13.8879C9.8402 14.3881 11.1496 15.1637 11.6835 15.5122C11.9195 15.664 12.1387 15.8045 12.1668 15.8213C12.4927 15.9787 13.6111 16.8723 14.0944 17.3613C15.134 18.3955 15.3981 18.9069 15.3981 19.8624C15.3981 21.1438 15.0441 21.8295 13.8359 22.8974C13.2739 23.3976 12.9873 23.5549 12.2904 23.7629C11.6217 23.9596 10.8068 24.0214 10.2336 23.9147C9.10963 23.7067 7.10899 22.9761 5.70967 22.2679C4.98472 21.8913 3.05152 20.8235 2.97847 20.7504C2.96161 20.7391 3.0459 20.593 3.15268 20.43C3.26507 20.2727 3.6135 19.6488 3.91697 19.053C5.48488 16.018 5.87826 15.2424 6.21545 14.4949C6.42338 14.0509 6.69313 13.4889 6.83362 13.2528L7.07527 12.8201L7.65973 13.1685C7.98006 13.354 8.55327 13.68 8.93542 13.8935V13.8879ZM50.0552 15.6977C50.1339 15.6977 51.2972 16.8442 51.4995 17.114C51.8255 17.5524 52.0334 17.9908 52.0727 18.328C52.1008 18.5641 52.0784 18.7383 51.921 19.2104C51.8198 19.5364 51.7074 19.8005 51.6793 19.8005C51.6512 19.8005 51.3084 19.6938 50.9319 19.5533L50.2351 19.306L50.207 19.0587C50.0665 18.0189 49.9091 16.9623 49.808 16.4789C49.7461 16.1642 49.6731 15.7651 49.6562 15.6021L49.6113 15.2986L49.8192 15.4897C49.9316 15.5965 50.0384 15.6864 50.0552 15.6864V15.6977Z" fill="#0C0D0F"/>
<path fill-rule="evenodd" clip-rule="evenodd" d="M37.793 2.11326C37.3434 2.23129 35.8767 2.69778 35.7418 2.7596C35.6912 2.77646 35.6294 2.80457 35.5901 2.81019C35.5282 2.82705 32.561 3.77689 31.9091 3.98484C31.7124 4.05229 30.965 4.26586 30.2569 4.47381C29.5432 4.67053 28.8857 4.87848 28.7901 4.92906C28.5204 5.06957 28.5766 5.49672 28.8688 5.49672C28.9306 5.49672 30.1557 5.10329 31.5888 4.62556C33.0274 4.14221 34.4605 3.68134 34.7752 3.59142C35.236 3.46215 37.9897 2.59661 38.2538 2.48983C38.2988 2.47859 38.3381 2.58537 38.355 2.78771C38.4056 3.14741 38.6472 3.95112 38.8383 4.34455C38.9394 4.56374 39.0013 4.61432 39.1193 4.61432C39.2598 4.61432 39.271 4.59184 39.2654 4.37265C39.2541 4.06915 38.8945 2.58537 38.8214 2.50669C38.7877 2.47297 38.7596 2.40552 38.7596 2.34932C38.7596 2.18633 38.5292 1.98961 38.3494 1.99523C38.2594 1.99523 38.0122 2.05144 37.793 2.10764V2.11326Z" fill="#0C0D0F"/>
<path fill-rule="evenodd" clip-rule="evenodd" d="M18.0564 6.81749C17.8597 6.87369 17.7586 7.03668 17.8429 7.16595C17.9328 7.3177 19.0624 7.40762 19.1916 7.27273C19.2928 7.17157 19.2422 6.91303 19.1017 6.85683C18.9444 6.795 18.2194 6.7669 18.0564 6.81186V6.81749Z" fill="#0C0D0F"/>
<path fill-rule="evenodd" clip-rule="evenodd" d="M15.7577 7.55935C15.3811 7.74483 15.0327 8.09891 15.0327 8.29C15.0327 8.46423 15.2125 8.60474 15.3811 8.54292C15.5666 8.48109 16.241 7.80103 16.241 7.67176C16.241 7.45819 16.0499 7.41322 15.7577 7.55935Z" fill="#0C0D0F"/>
<path fill-rule="evenodd" clip-rule="evenodd" d="M20.9899 7.55384C20.7538 7.68873 20.9056 7.94165 21.3383 8.1215C21.6867 8.27325 22.6421 8.57675 22.7545 8.57675C23.0074 8.57675 23.086 8.21704 22.8556 8.07091C22.7095 7.97537 21.58 7.59318 21.2765 7.53136C21.1753 7.5145 21.0461 7.52574 20.9843 7.55384H20.9899Z" fill="#0C0D0F"/>
<path fill-rule="evenodd" clip-rule="evenodd" d="M24.5024 9.1556C24.3619 9.32421 24.553 9.54902 25.0531 9.80194C25.5758 10.0661 25.8567 10.083 25.8848 9.85814C25.9129 9.67267 25.7668 9.52092 25.3173 9.26801C24.9182 9.04319 24.6316 9.00947 24.5024 9.16122V9.1556Z" fill="#0C0D0F"/>
<path fill-rule="evenodd" clip-rule="evenodd" d="M13.5603 9.67271C13.3748 9.84132 12.9814 10.4877 12.9814 10.6282C12.9814 10.6844 13.0376 10.7799 13.0995 10.8417C13.2849 11.0104 13.476 10.8867 13.757 10.4034C14.0099 9.98183 14.0604 9.74578 13.9312 9.61651C13.8244 9.50972 13.7233 9.52658 13.5547 9.67833L13.5603 9.67271Z" fill="#0C0D0F"/>
<path fill-rule="evenodd" clip-rule="evenodd" d="M27.6883 10.7181C27.5703 10.8361 27.5703 10.926 27.6827 10.9654C27.7333 10.9878 27.7614 11.0272 27.7445 11.0497C27.6996 11.1171 28.7786 11.5948 28.9753 11.5948C29.172 11.5948 29.2506 11.46 29.1663 11.3026C29.1045 11.1958 28.2166 10.7237 27.9469 10.6562C27.8401 10.6338 27.7614 10.6506 27.6883 10.7181Z" fill="#0C0D0F"/>
<path fill-rule="evenodd" clip-rule="evenodd" d="M22.6082 11.7578C21.709 11.8646 20.5289 12.0388 20.1636 12.1119C19.9163 12.1681 19.2082 12.2974 18.6013 12.4098C17.9325 12.5278 17.4717 12.6402 17.4436 12.6908C17.3537 12.8313 17.3818 12.9718 17.5167 13.0449C17.6797 13.1292 18.4383 13.028 20.7986 12.584C21.2313 12.4997 21.9226 12.3761 22.3384 12.3086C22.7543 12.2412 23.1308 12.1512 23.1702 12.1231C23.2769 12.0276 23.2601 11.8477 23.1252 11.7747C23.0072 11.7129 22.951 11.7129 22.6082 11.7578Z" fill="#0C0D0F"/>
<path fill-rule="evenodd" clip-rule="evenodd" d="M12.0598 12.0894C12.0036 12.1344 11.835 12.4042 11.6776 12.6964C11.3854 13.2416 11.3517 13.472 11.5596 13.5451C11.7563 13.6182 11.953 13.4439 12.2228 12.91C12.3745 12.6177 12.4925 12.3311 12.4925 12.2693C12.4925 12.0388 12.2509 11.9377 12.0598 12.0838V12.0894Z" fill="#0C0D0F"/>
<path fill-rule="evenodd" clip-rule="evenodd" d="M31.0773 12.3873C30.9143 12.4772 30.9424 12.7133 31.1504 12.8819C31.3471 13.0561 32.3193 13.6182 32.516 13.6744C32.7801 13.753 32.9431 13.399 32.7408 13.191C32.4879 12.9381 31.4257 12.3199 31.2459 12.3255C31.2178 12.3255 31.1391 12.348 31.0829 12.3873H31.0773Z" fill="#0C0D0F"/>
<path fill-rule="evenodd" clip-rule="evenodd" d="M20.7708 13.146C20.1695 13.236 20.0459 13.2922 20.0459 13.4664C20.0459 13.6856 20.1976 13.7249 20.8046 13.6856C21.6475 13.6238 21.9679 13.5451 22.0465 13.3708C22.2039 13.0336 21.8723 12.9774 20.7652 13.146H20.7708Z" fill="#0C0D0F"/>
<path fill-rule="evenodd" clip-rule="evenodd" d="M34.112 14.124C34.0839 14.1914 34.067 14.287 34.0895 14.3376C34.1401 14.4556 34.5784 14.7759 35.0955 15.0682C35.545 15.3155 35.7586 15.3211 35.8373 15.0851C35.8935 14.9052 35.5619 14.6073 34.9156 14.2645C34.3761 13.9835 34.2075 13.9554 34.112 14.124Z" fill="#0C0D0F"/>
<path fill-rule="evenodd" clip-rule="evenodd" d="M37.2929 15.9843C37.1918 16.0798 37.2592 16.3609 37.4053 16.4789C37.6526 16.67 38.445 17.0297 38.6304 17.0297C38.8665 17.0297 38.9732 16.8892 38.8889 16.6981C38.7484 16.3946 37.4559 15.8157 37.2873 15.9843H37.2929Z" fill="#0C0D0F"/>
<path fill-rule="evenodd" clip-rule="evenodd" d="M40.4003 17.5861C40.2823 17.7041 40.316 17.9177 40.479 18.0469C40.5633 18.1144 40.8611 18.283 41.1365 18.4291C41.5917 18.6596 41.6704 18.6764 41.7996 18.6146C41.957 18.5415 42.0076 18.3504 41.9064 18.2043C41.8839 18.1706 41.6254 17.9907 41.3219 17.8221C40.7824 17.513 40.5352 17.4456 40.4003 17.5861Z" fill="#0C0D0F"/>
<path fill-rule="evenodd" clip-rule="evenodd" d="M43.6598 19.1767C43.3395 19.4015 43.5306 19.6263 44.4578 20.1041L45.0929 20.4357L45.2277 20.3008C45.4244 20.1041 45.3177 19.9467 44.7332 19.5758C44.0083 19.1205 43.8284 19.0587 43.6654 19.1711L43.6598 19.1767Z" fill="#0C0D0F"/>
<path fill-rule="evenodd" clip-rule="evenodd" d="M46.9249 20.7785C46.672 21.037 47.0204 21.3799 47.7341 21.5878C48.3017 21.7508 48.431 21.734 48.4029 21.4754C48.386 21.3068 48.3354 21.2618 47.869 21.037C47.2733 20.7392 47.026 20.6773 46.9193 20.7841L46.9249 20.7785Z" fill="#0C0D0F"/>
<path fill-rule="evenodd" clip-rule="evenodd" d="M4.84977 24.3306C4.73737 24.4711 4.34961 25.3985 4.34961 25.5502C4.34961 25.702 4.50696 25.8031 4.64746 25.7582C4.79919 25.7076 5.32183 24.7353 5.32745 24.5048C5.33869 24.2238 5.03522 24.117 4.84977 24.3362V24.3306Z" fill="#0C0D0F"/>
<path fill-rule="evenodd" clip-rule="evenodd" d="M3.72045 27.1239C3.58557 27.3374 3.37764 28.085 3.41698 28.2086C3.47318 28.3885 3.65301 28.4503 3.7935 28.3266C4.00705 28.1412 4.26556 27.2812 4.16441 27.0958C4.08011 26.944 3.83284 26.9553 3.72607 27.1183L3.72045 27.1239Z" fill="#0C0D0F"/>
<path fill-rule="evenodd" clip-rule="evenodd" d="M3.04019 29.7374C2.92217 30.0353 2.92779 30.8109 3.05143 30.9233C3.23688 31.0806 3.33242 30.9176 3.42795 30.2882C3.47853 29.9678 3.49539 29.6587 3.47853 29.6193C3.46167 29.5688 3.37737 29.5294 3.29308 29.5294C3.17506 29.5294 3.11886 29.58 3.04581 29.743L3.04019 29.7374Z" fill="#0C0D0F"/>
<path fill-rule="evenodd" clip-rule="evenodd" d="M3.37751 32.4464C3.27073 32.6824 3.36627 32.9972 3.67536 33.4018C3.99006 33.8121 4.1418 33.8964 4.35535 33.7897C4.58014 33.6772 4.5408 33.3737 4.25981 32.9691C3.79337 32.2946 3.52362 32.1373 3.37751 32.452V32.4464Z" fill="#0C0D0F"/>
<path fill-rule="evenodd" clip-rule="evenodd" d="M5.74896 35.2115C5.60285 35.3577 5.68715 35.5038 6.17045 35.9478C6.66499 36.4143 6.8111 36.4817 6.94597 36.3188C7.05837 36.1783 6.96845 36.0377 6.50201 35.5713C6.06367 35.1497 5.9007 35.071 5.75458 35.2172L5.74896 35.2115Z" fill="#0C0D0F"/>
<path fill-rule="evenodd" clip-rule="evenodd" d="M8.14867 37.2855C8.00256 37.4541 8.13743 37.6677 8.64883 38.0611C9.28386 38.5557 9.3794 38.6119 9.53675 38.5276C9.81774 38.3759 9.60981 38.0724 8.78932 37.4935C8.33412 37.1731 8.26668 37.1506 8.14867 37.2855Z" fill="#0C0D0F"/>
<path fill-rule="evenodd" clip-rule="evenodd" d="M11.0262 39.2863C10.97 39.3369 10.9307 39.4044 10.9307 39.4381C10.9307 39.5561 11.2847 39.8259 12.1333 40.3317C12.5267 40.5678 12.7627 40.5678 12.7908 40.3261C12.8077 40.1856 12.7627 40.135 12.4592 39.9271C12.1164 39.6966 11.2229 39.1908 11.1555 39.1908C11.1386 39.1908 11.0768 39.2358 11.0262 39.2863Z" fill="#0C0D0F"/>
<path fill-rule="evenodd" clip-rule="evenodd" d="M14.2965 41.3884C14.1897 41.6244 14.3583 41.7987 15.0608 42.1752C15.7183 42.5293 15.8756 42.5574 15.9993 42.3214C16.1004 42.1359 15.988 42.0066 15.3193 41.6132C14.6224 41.2029 14.4089 41.1523 14.2965 41.3884Z" fill="#0C0D0F"/>
<path fill-rule="evenodd" clip-rule="evenodd" d="M17.6629 43.3892C17.4381 43.614 17.5955 43.8163 18.2473 44.1648C18.7475 44.4233 18.9273 44.4402 19.0285 44.2322C19.1128 44.0412 19.0847 44.0018 18.444 43.5971C17.9326 43.2712 17.809 43.2431 17.6629 43.3892Z" fill="#0C0D0F"/>
<path fill-rule="evenodd" clip-rule="evenodd" d="M30.487 44.4907C29.5597 44.6762 29.3968 44.7437 29.4979 44.9066C29.5878 45.0472 30.0543 45.0415 30.9703 44.8898C31.7908 44.7549 32.0156 44.6706 31.9819 44.4907C31.965 44.3615 31.9257 44.3502 31.6334 44.339C31.4536 44.339 30.931 44.4064 30.487 44.4907Z" fill="#0C0D0F"/>
<path fill-rule="evenodd" clip-rule="evenodd" d="M20.4839 44.8449C20.3322 44.9067 20.4052 45.1484 20.6357 45.3507C20.9279 45.6149 21.8214 46.0814 21.99 46.0589C22.1474 46.0364 22.2485 45.8791 22.2036 45.7442C22.1586 45.6374 21.6697 45.3114 21.0852 45.0135C20.6806 44.7999 20.6188 44.7831 20.4895 44.8449H20.4839Z" fill="#0C0D0F"/>
<path fill-rule="evenodd" clip-rule="evenodd" d="M34.0782 45.1484C32.589 45.3563 29.914 45.7666 28.8575 45.9521C28.6776 45.9802 28.3236 46.042 28.0819 46.0813C27.6099 46.1544 27.5031 46.2443 27.593 46.486C27.6211 46.5591 27.6886 46.6378 27.7448 46.6602C27.8403 46.694 28.6383 46.6097 29.3408 46.4973C29.5206 46.4691 30.1051 46.3848 30.6389 46.3118C31.5437 46.1937 33.6961 45.7947 34.185 45.6542C34.303 45.6205 34.466 45.5418 34.5447 45.4743C34.6571 45.3844 34.6739 45.3395 34.6177 45.2495C34.5503 45.1371 34.3929 45.109 34.0782 45.154V45.1484Z" fill="#0C0D0F"/>
<path fill-rule="evenodd" clip-rule="evenodd" d="M23.5468 46.4917C23.4794 46.5367 23.4738 46.5816 23.5244 46.7165C23.5693 46.8514 23.7042 46.9469 24.1538 47.1718C24.8394 47.509 25.0923 47.5764 25.2215 47.4415C25.407 47.2561 25.2665 47.1043 24.564 46.7615C23.8953 46.4355 23.7211 46.3849 23.5525 46.4973L23.5468 46.4917Z" fill="#0C0D0F"/>
<path fill-rule="evenodd" clip-rule="evenodd" d="M26.7391 48.0092C26.6829 48.1159 26.6941 48.1665 26.7896 48.2902C26.902 48.4475 27.7057 48.914 28.1833 49.1051C28.4138 49.1951 28.4362 49.1951 28.5655 49.0939C28.7004 48.9871 28.7004 48.9759 28.5992 48.8297C28.5093 48.6892 27.8349 48.2508 27.7787 48.2958C27.7675 48.3014 27.7338 48.2846 27.7169 48.2508C27.6551 48.1497 27.0931 47.8743 26.9526 47.8743C26.8683 47.8743 26.784 47.9305 26.7391 48.0035V48.0092Z" fill="#0C0D0F"/>
<path fill-rule="evenodd" clip-rule="evenodd" d="M29.8972 49.3412C29.7792 49.4592 29.8185 49.6728 29.9927 49.8245C30.0883 49.9032 30.4198 50.0999 30.7346 50.2573C31.2291 50.5046 31.3246 50.5327 31.4707 50.4821C31.6 50.4315 31.6337 50.3809 31.6337 50.246C31.6337 50.0212 31.5438 49.9425 30.8301 49.5772C30.2344 49.2625 30.0208 49.2175 29.8916 49.3412H29.8972Z" fill="#0C0D0F"/>
<path fill-rule="evenodd" clip-rule="evenodd" d="M39.5071 6.55336C39.3779 6.87934 39.7432 7.70554 40.2546 8.25071C40.7772 8.81837 41.2886 9.15559 41.8674 9.33544C42.3226 9.47595 42.4406 9.48719 43.1937 9.47033C43.9299 9.45347 44.0254 9.44223 44.1041 9.33544C44.3289 9.02632 44.1041 8.85209 43.6096 8.94202C42.5643 9.14997 41.5752 8.85209 40.7547 8.10458C40.4456 7.82356 40.3276 7.64371 40.0691 7.12664C39.76 6.50278 39.5914 6.32855 39.5071 6.55336Z" fill="#0C0D0F"/>
<path fill-rule="evenodd" clip-rule="evenodd" d="M7.16496 14.079C7.08067 14.1576 6.7772 14.6747 6.49059 15.2424C6.19274 15.8044 5.7825 16.5969 5.57457 16.9959C4.9283 18.2155 4.21459 19.6993 4.18649 19.896C4.15277 20.1208 4.28202 20.2557 4.48434 20.2052C4.65293 20.1602 4.59673 20.2614 5.67011 18.2493C7.07505 15.6021 7.67074 14.3544 7.59207 14.1576C7.57521 14.1127 7.50777 14.0509 7.44033 14.0171C7.3448 13.9609 7.2886 13.9722 7.1762 14.0846L7.16496 14.079Z" fill="#0C0D0F"/>
<path fill-rule="evenodd" clip-rule="evenodd" d="M6.09166 18.4123C5.97926 18.5416 5.72076 18.9631 5.52968 19.3509C5.20936 19.9748 5.18126 20.0647 5.23746 20.194C5.32737 20.3907 5.54654 20.4019 5.72076 20.2108C5.79381 20.1322 6.02984 19.7331 6.23777 19.3172C6.66488 18.4798 6.71545 18.2156 6.45132 18.1875C6.33331 18.1763 6.24339 18.2212 6.09166 18.4123Z" fill="#0C0D0F"/>
<path fill-rule="evenodd" clip-rule="evenodd" d="M11.3013 18.5135C11.1946 18.5641 10.9754 18.7271 10.8124 18.8901C10.582 19.1149 10.4921 19.2498 10.4134 19.5308C10.2223 20.1996 10.3628 20.8179 10.8237 21.2731C11.2508 21.7003 11.9027 21.8408 12.5321 21.6441C13.0041 21.4979 13.4593 21.0595 13.5773 20.638C13.6841 20.2671 13.6279 19.5701 13.4593 19.2329C13.1615 18.6147 11.9813 18.2269 11.3013 18.5191V18.5135ZM12.4927 19.2891C12.7119 19.4015 12.9817 19.8006 12.9817 20.0085C12.9817 20.4244 12.6388 20.8347 12.1893 20.9584C11.7116 21.0933 11.2283 20.6998 11.2283 20.1828C11.2283 19.868 11.5093 19.4746 11.8521 19.3172C12.1612 19.1823 12.2679 19.1767 12.4927 19.2891Z" fill="#0C0D0F"/>
</g>
<defs>
<clipPath id="clip0_549_4282">
<rect width="53" height="53" fill="white"/>
</clipPath>
</defs>
</svg>
