<svg width="20" height="20" viewBox="0 0 20 20" fill="none" xmlns="http://www.w3.org/2000/svg">
<path opacity="0.4" d="M9.99984 18.3334C14.6022 18.3334 18.3332 14.6024 18.3332 10.0001C18.3332 5.39771 14.6022 1.66675 9.99984 1.66675C5.39746 1.66675 1.6665 5.39771 1.6665 10.0001C1.6665 14.6024 5.39746 18.3334 9.99984 18.3334Z" fill="#0C0D0F"/>
<path d="M13.0924 13.2764C12.984 13.2764 12.8757 13.2514 12.7757 13.1847L10.1924 11.6431C9.55068 11.2597 9.07568 10.4181 9.07568 9.67641V6.25977C9.07568 5.9181 9.35902 5.63477 9.70068 5.63477C10.0424 5.63477 10.3257 5.9181 10.3257 6.25977V9.67641C10.3257 9.97642 10.5757 10.4181 10.834 10.5681L13.4173 12.1097C13.7173 12.2847 13.809 12.6681 13.634 12.9681C13.509 13.1681 13.3007 13.2764 13.0924 13.2764Z" fill="#0C0D0F"/>
</svg>
