<svg width="36" height="36" viewBox="0 0 36 36" fill="none" xmlns="http://www.w3.org/2000/svg">
<path opacity="0.4" d="M27 30.7514H25.5V30.3764C25.5 28.7264 24.15 27.3764 22.5 27.3764H19.125V23.9414C18.75 23.9864 18.375 24.0014 18 24.0014C17.625 24.0014 17.25 23.9864 16.875 23.9414V27.3764H13.5C11.85 27.3764 10.5 28.7264 10.5 30.3764V30.7514H9C8.385 30.7514 7.875 31.2614 7.875 31.8764C7.875 32.4914 8.385 33.0014 9 33.0014H27C27.615 33.0014 28.125 32.4914 28.125 31.8764C28.125 31.2614 27.615 30.7514 27 30.7514Z" fill="#FFBB00"/>
<path opacity="0.4" d="M8.27895 17.46C7.28895 17.085 6.41895 16.47 5.72895 15.78C4.33395 14.235 3.41895 12.39 3.41895 10.23C3.41895 8.07 5.11395 6.375 7.27395 6.375H8.11395C7.72395 7.17 7.49895 8.055 7.49895 9V13.5C7.49895 14.91 7.76895 16.245 8.27895 17.46Z" fill="#FFBB00"/>
<path opacity="0.4" d="M32.5807 10.23C32.5807 12.39 31.6657 14.235 30.2707 15.78C29.5807 16.47 28.7107 17.085 27.7207 17.46C28.2307 16.245 28.5007 14.91 28.5007 13.5V9C28.5007 8.055 28.2757 7.17 27.8857 6.375H28.7257C30.8857 6.375 32.5807 8.07 32.5807 10.23Z" fill="#FFBB00"/>
<path d="M22.5 3H13.5C10.185 3 7.5 5.685 7.5 9V13.5C7.5 19.305 12.195 24 18 24C23.805 24 28.5 19.305 28.5 13.5V9C28.5 5.685 25.815 3 22.5 3ZM22.26 12.675L21.33 13.815C21.18 13.98 21.075 14.31 21.09 14.535L21.18 16.005C21.24 16.905 20.595 17.37 19.755 17.04L18.39 16.5C18.18 16.425 17.82 16.425 17.61 16.5L16.245 17.04C15.405 17.37 14.76 16.905 14.82 16.005L14.91 14.535C14.925 14.31 14.82 13.98 14.67 13.815L13.74 12.675C13.155 11.985 13.41 11.22 14.28 10.995L15.705 10.635C15.93 10.575 16.2 10.365 16.32 10.17L17.115 8.94C17.61 8.175 18.39 8.175 18.885 8.94L19.68 10.17C19.8 10.365 20.07 10.575 20.295 10.635L21.72 10.995C22.59 11.22 22.845 11.985 22.26 12.675Z" fill="#FFBB00"/>
<path opacity="0.4" d="M22.2595 12.6759L21.3295 13.8159C21.1795 13.9809 21.0745 14.3109 21.0895 14.5359L21.1795 16.0059C21.2395 16.9059 20.5945 17.3709 19.7545 17.0409L18.3895 16.5009C18.1795 16.4259 17.8195 16.4259 17.6095 16.5009L16.2445 17.0409C15.4045 17.3709 14.7596 16.9059 14.8196 16.0059L14.9096 14.5359C14.9246 14.3109 14.8196 13.9809 14.6696 13.8159L13.7396 12.6759C13.1546 11.9859 13.4096 11.2209 14.2796 10.9959L15.7045 10.6359C15.9295 10.5759 16.1995 10.3659 16.3195 10.1709L17.1145 8.94093C17.6095 8.17594 18.3895 8.17594 18.8845 8.94093L19.6795 10.1709C19.7995 10.3659 20.0695 10.5759 20.2945 10.6359L21.7195 10.9959C22.5895 11.2209 22.8445 11.9859 22.2595 12.6759Z" fill="#FFBB00"/>
</svg>
