<svg width="16" height="16" viewBox="0 0 16 16" fill="none" xmlns="http://www.w3.org/2000/svg">
<g clip-path="url(#clip0_549_3968)">
<path d="M11.3335 15.1666H4.66683C1.72683 15.1666 0.833496 14.2733 0.833496 11.3333V4.66658C0.833496 1.72659 1.72683 0.833252 4.66683 0.833252H5.66683C6.8335 0.833252 7.20016 1.21325 7.66683 1.83325L8.66683 3.16659C8.88683 3.45992 8.92016 3.49992 9.3335 3.49992H11.3335C14.2735 3.49992 15.1668 4.39325 15.1668 7.33325V11.3333C15.1668 14.2733 14.2735 15.1666 11.3335 15.1666ZM4.66683 1.83325C2.28683 1.83325 1.8335 2.28659 1.8335 4.66658V11.3333C1.8335 13.7133 2.28683 14.1666 4.66683 14.1666H11.3335C13.7135 14.1666 14.1668 13.7133 14.1668 11.3333V7.33325C14.1668 4.95325 13.7135 4.49992 11.3335 4.49992H9.3335C8.48016 4.49992 8.20016 4.20659 7.86683 3.76659L6.86683 2.43325C6.52016 1.97325 6.42016 1.83325 5.66683 1.83325H4.66683Z" fill="#949494"/>
</g>
<defs>
<clipPath id="clip0_549_3968">
<rect width="16" height="16" fill="white"/>
</clipPath>
</defs>
</svg>
