<svg width="40" height="40" viewBox="0 0 40 40" fill="none" xmlns="http://www.w3.org/2000/svg">
<path opacity="0.4" d="M4.58303 31.0847C3.8997 31.0847 3.33303 30.518 3.33303 29.8347V20.3347C3.2497 15.818 4.93303 11.5513 8.06636 8.3513C11.1997 5.16797 15.3997 3.41797 19.9163 3.41797C29.1497 3.41797 36.6663 10.9346 36.6663 20.168V29.668C36.6663 30.3513 36.0997 30.918 35.4163 30.918C34.733 30.918 34.1663 30.3513 34.1663 29.668V20.168C34.1663 12.318 27.783 5.91797 19.9163 5.91797C16.0664 5.91797 12.4997 7.4013 9.8497 10.1013C7.18303 12.818 5.76636 16.4346 5.83303 20.3013V29.818C5.83303 30.518 5.28303 31.0847 4.58303 31.0847Z" fill="white"/>
<path d="M9.90016 20.7487H9.6835C6.1835 20.7487 3.3335 23.5987 3.3335 27.0987V30.232C3.3335 33.732 6.1835 36.582 9.6835 36.582H9.90016C13.4002 36.582 16.2502 33.732 16.2502 30.232V27.0987C16.2502 23.5987 13.4002 20.7487 9.90016 20.7487Z" fill="white"/>
<path d="M30.3167 20.7487H30.1C26.6 20.7487 23.75 23.5987 23.75 27.0987V30.232C23.75 33.732 26.6 36.582 30.1 36.582H30.3167C33.8167 36.582 36.6667 33.732 36.6667 30.232V27.0987C36.6667 23.5987 33.8167 20.7487 30.3167 20.7487Z" fill="white"/>
</svg>
