<svg width="109" height="94" viewBox="0 0 109 94" fill="none" xmlns="http://www.w3.org/2000/svg">
<path d="M108.981 61.8618C108.981 61.3747 108.705 60.9107 108.071 60.7947C92.7285 57.8021 78.2382 51.4805 66.6735 40.7281C55.0628 29.9408 47.4145 15.8942 42.5767 0.896387C42.3579 0.223633 41.782 -0.0315499 41.2406 0.014847C41.16 0.014847 41.0908 -0.00835143 40.9987 0.00324778C27.5911 1.87072 14.3217 4.65453 0.914153 6.5336C0.153929 6.638 -0.0879602 7.24116 0.0272253 7.83272C0.0272253 7.92551 0.00418821 8.0183 0.0272253 8.1227C3.20634 26.6582 9.53003 44.7182 20.6569 59.9944C31.5189 74.8877 46.1705 86.0578 62.7112 93.8525C62.907 93.9453 63.1028 93.98 63.2871 93.98C63.5175 94.0032 63.7593 93.98 64.0012 93.8525C80.2539 85.8722 95.8039 75.8853 108.624 62.9522C108.958 62.6158 109.039 62.2214 108.97 61.8734L108.981 61.8618ZM21.9816 57.4425C11.7761 43.0015 5.87865 26.1943 2.75712 8.85345C15.3699 7.03237 27.8676 4.48054 40.4688 2.65947C45.4564 17.6572 53.2199 31.7387 64.8536 42.5492C76.1648 53.058 90.1829 59.5536 105.099 62.8014C92.9358 74.5978 78.457 83.8191 63.3447 91.3006C47.0229 83.4944 32.498 72.3591 21.9701 57.4425H21.9816Z" fill="#0C0D0F"/>
<path d="M37.5775 32.1446C27.6255 33.4901 22.4537 44.0918 26.1511 53.1392C30.1365 62.8941 43.6823 69.8768 53.6229 65.9679C53.6344 65.9679 53.6459 65.9563 53.6574 65.9447C53.6805 65.9447 53.715 65.9447 53.738 65.9215C61.3979 61.595 62.5958 52.4084 59.2094 44.7413C55.6847 36.7263 46.3431 30.9615 37.5775 32.1562V32.1446ZM53.3003 65.0516C44.6038 68.4153 33.0507 62.9985 28.3166 55.2154C22.1657 45.0777 28.8465 32.3766 40.8718 33.0029C55.247 33.7453 69.242 55.9926 53.3003 65.0516Z" fill="#0C0D0F"/>
<path d="M28.9041 24.814C32.7858 24.5124 34.3754 20.4411 33.189 17.0541C33.189 17.0309 33.1659 17.0193 33.1544 16.9961C33.1544 16.9729 33.1544 16.9613 33.1429 16.9381C31.6224 13.702 27.7868 10.2918 24.0317 11.9389C21.3364 13.122 20.6683 16.3582 21.3018 19.0028C22.1081 22.3898 25.3563 25.0808 28.9041 24.8024V24.814ZM22.1312 18.3068C21.7626 16.1262 22.4076 13.4932 24.7228 12.716C27.925 11.6373 31.0004 14.6879 32.279 17.3673C33.546 21.0674 30.9774 24.7676 26.8998 23.6309C24.3773 22.9233 22.5689 20.8935 22.1312 18.3068Z" fill="#0C0D0F"/>
<path d="M73.9418 76.6044C76.7063 75.5488 79.01 73.3566 77.7545 70.19C76.568 67.1858 73.0434 65.0051 69.8758 65.0631C66.5584 65.1211 64.4966 68.3109 65.061 71.4659C65.7752 75.4792 70.2328 77.6947 73.9418 76.616V76.6044ZM70.9815 66.1303C73.1701 66.4782 75.3701 67.8702 76.4989 69.8072C78.1115 72.5678 76.3262 74.6673 73.6884 75.6764C70.5669 76.5928 66.7312 74.8297 66.0286 71.4427C65.3605 68.2297 67.7679 65.6199 70.9815 66.1303Z" fill="#0C0D0F"/>
<path d="M7.90614 13.5512C7.7564 12.9481 6.83491 13.2033 6.98465 13.8064C8.88521 21.6707 11.8109 29.0826 15.7848 36.1233C16.0958 36.6685 16.9252 36.1813 16.6142 35.6361C12.6863 28.6766 9.79518 21.3343 7.91766 13.5512H7.90614Z" fill="#0C0D0F"/>
<path d="M13.2045 16.915C13.1239 16.3118 12.1678 16.3002 12.2485 16.915C12.7438 20.7079 14.0338 24.1993 16.1763 27.3775C16.5219 27.8878 17.3512 27.4007 17.0056 26.8903C14.9784 23.8745 13.6883 20.5339 13.216 16.915H13.2045Z" fill="#0C0D0F"/>
<path d="M60.5342 85.3271C53.5885 81.7082 47.3109 77.1265 41.7359 71.5937C41.2982 71.1529 40.6186 71.8372 41.0563 72.278C46.6889 77.8688 53.0241 82.5085 60.0504 86.1623C60.6033 86.4522 61.087 85.6171 60.5342 85.3271Z" fill="#0C0D0F"/>
<path d="M58.4722 79.8522C55.7538 78.7502 53.3695 77.1147 51.3077 75.0153C50.87 74.5745 50.1904 75.2589 50.6281 75.6996C52.8051 77.9267 55.3392 79.6202 58.2073 80.7917C58.7832 81.0237 59.0251 80.0841 58.4607 79.8638L58.4722 79.8522Z" fill="#0C0D0F"/>
<path d="M92.5557 64.6573C93.1547 64.8313 93.4081 63.9034 92.8091 63.7294C85.6331 61.6415 79.0099 58.4749 72.8475 54.2296C72.3407 53.8816 71.8569 54.7168 72.3637 55.0648C78.5837 59.3565 85.3106 62.5462 92.5557 64.6573Z" fill="#0C0D0F"/>
<path d="M45.9516 23.0858C46.3663 23.5498 47.0459 22.8654 46.6312 22.4014C42.8301 18.1561 40.1002 13.2845 38.453 7.82123C38.2687 7.22967 37.3473 7.48485 37.5316 8.07641C39.2248 13.6904 42.0468 18.7361 45.9516 23.0858Z" fill="#0C0D0F"/>
<path d="M52.8976 42.1432C52.3216 42.3055 51.7687 42.4911 51.1928 42.6535C49.3959 40.8208 47.288 40.0089 45.0534 41.946C44.0283 42.8391 43.6482 43.9062 43.6482 45.0314C40.1811 46.1913 36.7486 47.444 33.3506 48.7895C33.3506 47.6296 33.5118 46.4465 33.8574 45.2749C34.0302 44.6718 33.0972 44.4166 32.9359 45.0198C32.5443 46.4001 32.36 47.8152 32.383 49.1955C31.1736 49.6826 29.9756 50.1582 28.7777 50.657C28.2133 50.9006 28.4667 51.8285 29.0311 51.5849C30.1599 51.1093 31.3003 50.657 32.4406 50.2046C32.6249 52.0837 33.2469 53.8932 34.3181 55.4706C33.5234 55.8534 32.7286 56.2478 31.9338 56.6306C31.3809 56.8973 31.8647 57.7325 32.4176 57.4657C33.2469 57.0597 34.0762 56.6654 34.9056 56.2594C35.3778 56.8393 35.9192 57.3845 36.5297 57.8833C38.9371 59.8319 42.9686 61.3514 45.9979 59.9711C49.0734 58.5676 49.0273 55.2735 47.8294 52.5244C47.5184 51.8169 47.1152 51.1673 46.7121 50.541C48.9121 49.4739 51.1007 48.4067 53.3007 47.3396C54.107 48.8243 54.8096 50.4018 55.4086 51.8981C55.639 52.4664 56.572 52.2229 56.3301 51.6429C55.9154 50.6106 55.1667 48.7779 54.1646 46.922C54.9133 46.5624 55.6505 46.2029 56.3992 45.8433C56.9521 45.5765 56.4683 44.7414 55.9154 45.0082C55.1782 45.3677 54.441 45.7273 53.6923 46.0869C53.151 45.1589 52.5635 44.2658 51.9185 43.4771C52.3331 43.3611 52.7478 43.2219 53.1625 43.1059C53.7614 42.9319 53.508 42.004 52.9091 42.1779L52.8976 42.1432ZM48.6011 42.1779C49.131 42.3983 49.6032 42.6883 50.041 43.0015C48.2556 43.5351 46.4702 44.0918 44.7079 44.6718C45.0534 43.5351 46.355 42.6999 48.6011 42.1779ZM33.3851 49.7986C36.8061 48.4415 40.2502 47.1772 43.7403 46.0057C43.9822 47.4324 44.6848 48.8823 45.3299 50.1002C41.9665 51.7357 38.603 53.3596 35.2281 54.9951C34.1569 53.4756 33.5349 51.6893 33.3851 49.787V49.7986ZM43.6136 59.4608C42.1853 59.6928 40.4114 58.962 39.179 58.3472C37.8313 57.6861 36.7255 56.8046 35.8386 55.7838C39.1559 54.1715 42.4733 52.5708 45.7906 50.9585C47.2995 53.6032 50.4556 58.3588 43.6136 59.4608ZM51.8609 45.0082C52.1949 45.4721 52.5174 45.9709 52.8169 46.4813C50.6054 47.5484 48.3938 48.6271 46.1822 49.6942C45.6985 48.8823 45.2608 48.0472 45.0995 47.038C44.8461 46.5625 44.7194 46.1217 44.6503 45.7041C46.7236 45.0198 48.797 44.3702 50.8933 43.7554C51.2504 44.1382 51.5844 44.5442 51.8494 45.0198L51.8609 45.0082Z" fill="#0C0D0F"/>
</svg>
