<svg width="179" height="226" viewBox="0 0 179 226" fill="none" xmlns="http://www.w3.org/2000/svg">
<path fill-rule="evenodd" clip-rule="evenodd" d="M0.17238 145.727C0.313485 145.992 0.580018 146.381 0.799515 146.568C1.16012 146.88 1.48936 146.895 10.6299 147.005C24.7874 147.176 43.1155 147.488 43.2095 147.581C43.2879 147.659 41.9866 148.22 40.1209 148.921C39.2899 149.233 36.8127 150.215 34.6491 151.103C32.4698 151.991 29.146 153.347 27.2333 154.111C25.3362 154.859 22.7806 155.919 21.589 156.448C20.3818 156.963 19.1275 157.508 18.814 157.617C18.5004 157.726 17.4656 158.225 16.5406 158.693C15.6156 159.16 14.6592 159.55 14.4083 159.55C13.4833 159.55 13.2325 160.578 13.7655 162.059C13.891 162.37 14.1732 163.165 14.3927 163.82C15.0668 165.752 16.1173 168.261 17.2461 170.723C17.4656 171.191 17.6538 171.643 17.6538 171.705C17.6538 171.768 17.8106 172.142 17.9673 172.516C18.375 173.373 19.2686 175.43 19.7076 176.552C19.8801 177.004 20.2093 177.752 20.4445 178.204C20.664 178.671 20.8522 179.123 20.8522 179.248C20.8522 179.341 21.0873 179.965 21.3695 180.588C22.1064 182.224 22.8276 183.985 24.0819 187.18C24.3484 187.866 24.7247 188.754 24.9129 189.144C25.0853 189.549 25.2264 189.907 25.2264 189.985C25.2264 190.063 25.7752 191.513 26.465 193.211C27.7506 196.375 29.4439 200.707 30.855 204.432C31.294 205.585 31.9838 207.315 32.3758 208.281C32.7834 209.247 33.5203 211.148 34.022 212.473C34.5394 213.813 35.2919 215.715 35.6996 216.743C36.1072 217.741 36.8128 219.517 37.2517 220.67C38.1611 222.977 39.0548 224.956 39.384 225.377C39.6976 225.766 40.2777 226.031 40.7637 226.031C40.9989 226.031 42.9273 225.314 45.0282 224.426C48.8537 222.821 59.7032 218.442 62.4312 217.413C63.8893 216.868 66.6017 215.761 70.678 214.063C71.9323 213.548 73.4374 212.925 74.0489 212.707C74.9739 212.348 78.3918 210.977 83.1423 209.045C83.7538 208.795 84.4593 208.515 84.7415 208.421C85.0081 208.328 87.8302 207.19 90.9659 205.897C96.2024 203.777 97.1588 203.388 98.9618 202.671C99.2754 202.546 100.953 201.86 102.662 201.159C104.387 200.458 106.237 199.71 106.785 199.507C107.334 199.289 108.745 198.744 109.905 198.245C111.066 197.762 112.994 196.967 114.201 196.484C118.136 194.879 123.781 192.557 124.361 192.276C124.659 192.136 125.035 191.996 125.207 191.964C125.364 191.933 125.866 191.746 126.336 191.544C127.794 190.92 127.763 190.936 132.733 188.894C139.051 186.292 141.121 185.45 142.328 184.921C143.065 184.624 144.288 184.141 145.025 183.861C145.762 183.58 146.891 183.128 147.549 182.863C149.65 181.96 154.071 180.152 156.392 179.217C157.63 178.718 158.822 178.235 159.01 178.141C159.198 178.048 160.296 177.612 161.456 177.144C163.337 176.38 164.983 175.71 166.426 175.071C167.006 174.822 168.182 174.339 169.546 173.793C171.757 172.905 173.607 171.923 173.795 171.518C173.952 171.191 173.873 170.77 173.34 169.134C172.979 168.059 172.478 166.609 172.227 165.924C171.976 165.238 171.49 163.913 171.145 162.994C170.816 162.074 170.361 160.937 170.157 160.485C169.938 160.017 169.201 158.209 168.511 156.464C167.806 154.703 166.786 152.256 166.269 151.025C165.736 149.794 164.983 147.971 164.592 147.005C164.2 146.038 163.463 144.262 162.961 143.077C162.444 141.877 161.973 140.724 161.895 140.475C161.832 140.241 160.797 137.763 159.621 134.942C158.446 132.122 157.191 129.114 156.846 128.241C156.501 127.369 156.141 126.589 156.078 126.48C156 126.402 155.921 126.231 155.921 126.091C155.921 125.95 155.78 125.545 155.608 125.156C155.435 124.766 154.84 123.301 154.244 121.867C153.664 120.449 153.115 119.062 153.021 118.797C152.848 118.408 152.864 118.221 153.146 117.8C153.319 117.504 154.463 115.462 155.686 113.249C158.477 108.231 160.672 104.335 161.863 102.278C162.647 100.922 165.658 95.5615 167.915 91.4785C168.292 90.824 168.637 90.185 168.731 90.0604C169.326 89.1409 172.791 83.032 172.791 82.9385C172.791 82.8761 173.293 81.9878 173.92 80.9437C174.532 79.9151 175.566 78.0606 176.209 76.8295C176.852 75.5984 177.542 74.2737 177.761 73.8997C178.843 72.0296 179.031 71.6244 179.031 71.1102C179.031 70.3621 178.702 69.9258 177.636 69.3336C177.166 69.0686 174.829 67.7907 172.462 66.4973C167.743 63.9259 163.4 61.4792 160.202 59.5935C159.057 58.9234 157.991 58.3312 157.85 58.2845C157.677 58.2221 157.332 58.004 157.019 57.7702C156.721 57.552 156.392 57.4118 156.313 57.4741C156.235 57.5364 156.094 57.4741 156.015 57.3494C155.874 57.1157 152.456 55.1209 146.891 52.0041C145.103 51.0067 143.441 50.0405 143.191 49.9003C142.955 49.7288 142.266 49.3236 141.654 48.9964C141.043 48.6847 140.29 48.2639 139.976 48.0769C139.475 47.7808 136.276 45.9887 132.733 44.0095C132.122 43.6511 130.083 42.5134 128.202 41.4381C126.321 40.3628 124.753 39.4901 124.706 39.4901C124.659 39.4901 124.235 39.2408 123.765 38.9135C123.279 38.6174 121.445 37.5577 119.689 36.6071C111.834 32.2903 110.235 31.3864 109.999 31.1838C109.858 31.0591 109.137 30.6695 108.4 30.2955C107.663 29.9059 106.942 29.5475 106.801 29.4384C105.876 28.8618 100.702 25.9943 100.075 25.6826C99.6517 25.4956 99.0716 25.1839 98.7894 24.9813C98.5071 24.7787 96.955 23.8905 95.3401 22.9866C93.7252 22.0983 92.3142 21.3035 92.2201 21.2256C92.1261 21.1477 91.5616 20.8204 90.9502 20.5243C90.3387 20.2126 89.3667 19.6672 88.7552 19.3243C88.1437 18.9659 85.839 17.6724 83.6127 16.4101C81.3864 15.179 79.3325 14.0102 79.066 13.8699C78.2037 13.3868 72.6692 10.2544 69.6276 8.55575C68.0441 7.66746 66.3978 6.71682 65.9275 6.4519C64.83 5.79736 57.9472 2.1663 56.1912 1.30917C55.4386 0.935163 54.6077 0.467634 54.3568 0.280622C53.62 -0.327151 53.181 -0.0778221 52.1305 1.51175C50.7038 3.72468 49.23 6.20257 48.0855 8.36876C46.9567 10.5038 46.5333 11.283 45.1693 13.7608C44.699 14.5868 43.5388 16.6906 42.551 18.4516C40.7794 21.6464 39.5251 23.8749 37.8632 26.6488C37.3772 27.4748 36.7814 28.4878 36.5619 28.9085C36.0915 29.7189 35.825 30.202 33.6144 33.9266C32.8304 35.2668 31.4037 37.6824 30.4473 39.2875C29.5066 40.8927 28.5973 42.4043 28.4248 42.6381C28.268 42.8718 27.8447 43.5731 27.4998 44.2277C27.1392 44.8666 26.1201 46.6432 25.2264 48.1548C24.3328 49.6821 23.3137 51.4431 22.9531 52.082C22.5925 52.721 22.1848 53.4378 22.0124 53.6716C20.7738 55.4949 18.1555 60.4507 18.1555 61.0117C18.1555 61.7597 18.7042 62.4454 19.786 63.0065C20.6797 63.4896 27.782 67.4323 29.7888 68.57C30.2121 68.8037 32.1406 69.8946 34.0847 71.0011C36.0288 72.092 37.9729 73.214 38.4433 73.4945C38.898 73.775 39.8387 74.3049 40.4972 74.6633C41.1713 75.0373 41.7201 75.3958 41.7201 75.4893C41.7201 75.5828 40.9518 75.614 39.9798 75.5516C35.3233 75.3179 8.07428 75.1308 5.20514 75.3179C4.15468 75.3802 3.15127 75.3802 2.93177 75.3023C2.33599 75.0685 1.52072 75.4893 1.41097 76.0659C1.16011 77.375 1.0974 80.1489 1.03469 91.8214C0.987654 103.182 0.783835 114.325 0.532981 120.153C0.407554 122.725 0.141022 133.213 0.0312741 140.07C-0.0471176 144.262 -0.0157608 145.259 0.17238 145.68L0.17238 145.727ZM3.4178 96.0914C3.48052 91.9928 3.59026 87.9565 3.65298 87.1306L3.74705 85.6189L5.26785 85.6189C7.43147 85.6189 7.77639 85.4319 7.58825 84.4813C7.46282 83.8423 7.05518 83.6709 5.28353 83.5462C3.7784 83.4527 3.74705 83.4216 3.74705 83.032L3.74705 82.6112L7.07086 82.6112C9.95569 82.6112 10.426 82.58 10.6769 82.3307C11.0375 81.9722 10.8807 81.2865 10.3633 80.9437C9.90865 80.6632 8.34081 80.4294 5.76956 80.258L3.88815 80.1333L3.79408 79.5256C3.74705 79.1983 3.70001 78.5593 3.70001 78.1074L3.70001 77.2814L4.65639 77.4061C7.32172 77.6866 15.8194 77.8736 35.9504 78.0918C40.215 78.1386 45.9689 78.2165 48.744 78.2632C51.5191 78.2944 57.5552 78.3879 62.1333 78.4347C66.7114 78.4814 71.4933 78.5749 72.7476 78.6061C74.0175 78.6372 80.1948 78.7308 86.4818 78.7931C92.7845 78.8399 97.9741 78.9178 98.0211 78.9489C98.0682 78.9645 101.784 78.9957 106.268 79.0113C117.98 79.0269 132.811 79.1827 137.515 79.3074C139.741 79.3541 142.109 79.432 142.767 79.4476C143.441 79.4632 144.037 79.4944 144.069 79.5411C144.116 79.5723 144.084 80.1489 144.006 80.7723C143.849 82.0502 143.724 88.2838 143.582 100.782C143.535 105.146 143.441 110.569 143.394 112.829C143.112 124.548 143.034 129.083 143.065 137.155L143.065 145.976L140.98 145.898C138.126 145.805 132.137 145.664 125.239 145.54C122.087 145.508 117.666 145.415 115.393 145.384C107.24 145.228 101.376 145.134 94.4308 145.056C90.5425 144.994 87.2031 144.916 87.0149 144.885C86.8268 144.854 82.2016 144.792 76.7456 144.714C71.2738 144.667 65.8961 144.589 64.783 144.542C63.6698 144.495 58.4332 144.418 53.1653 144.371C47.8817 144.324 41.8925 144.246 39.8544 144.199C37.8162 144.153 31.6702 144.075 26.2142 144.028C13.2481 143.903 3.52755 143.779 3.40213 143.701C3.26102 143.623 3.32373 105.021 3.46484 96.0758L3.4178 96.0914ZM17.0737 160.672C19.0335 160.048 27.7193 156.713 30.3689 155.576C30.6511 155.451 31.4821 155.124 32.219 154.843C33.8182 154.204 41.9239 150.916 42.7078 150.558C43.0057 150.433 43.335 150.324 43.429 150.324C43.5231 150.324 44.2757 150.028 45.0596 149.669C45.8749 149.295 47.3173 148.703 48.2893 148.329L50.061 147.643L55.1251 147.643C57.9002 147.643 60.2519 147.69 60.299 147.768C60.3617 147.815 59.3112 148.314 57.9472 148.875C48.5715 152.646 36.6873 157.617 34.6335 158.63C32.5796 159.643 32.3914 159.861 32.0465 162.666C31.8741 164.038 31.5605 165.581 31.2783 166.469C30.6355 168.401 29.1931 171.191 27.9231 172.936C27.3744 173.684 26.8727 174.557 26.8256 174.838C26.7002 175.461 27.1235 176.957 28.0015 179.045C28.3621 179.871 29.0833 181.601 29.6007 182.895C30.949 186.12 32.5796 189.954 32.9715 190.796C33.1597 191.201 33.3008 191.544 33.3008 191.606C33.3008 191.668 33.7084 192.541 34.2101 193.585C34.7118 194.645 35.4801 196.312 35.9191 197.325C36.3581 198.323 36.7814 199.211 36.8441 199.32C36.9225 199.398 37.3301 200.271 37.7691 201.253C38.1924 202.219 38.7255 203.185 38.9293 203.403C39.1645 203.637 39.8073 203.917 40.6069 204.12C42.3629 204.572 44.6049 205.538 46.3766 206.629C47.4584 207.299 48.5088 208.188 50.3275 209.995C53.5573 213.174 53.3378 213.128 57.0379 211.585C58.4646 210.977 61.7414 209.684 64.2813 208.655C66.8212 207.626 69.2827 206.645 69.753 206.442C70.2077 206.239 70.9603 205.959 71.4306 205.819C71.8853 205.678 72.3399 205.523 72.434 205.445C72.5124 205.382 73.7353 204.868 75.1307 204.338C76.5104 203.808 78.8622 202.889 80.3516 202.281C81.841 201.689 83.8792 200.879 84.8983 200.489C87.1403 199.616 93.882 196.905 95.5126 196.188C96.1554 195.907 97.1745 195.502 97.786 195.299C98.3974 195.081 100.357 194.318 102.16 193.57C103.963 192.853 105.625 192.183 105.86 192.12C106.252 191.996 108.714 190.998 110.58 190.188C111.003 190.001 114.483 188.614 118.325 187.102C122.166 185.575 126.336 183.923 127.591 183.409C128.829 182.895 130.93 182.037 132.216 181.539C133.517 181.024 135.477 180.245 136.59 179.793C140.666 178.173 147.643 175.461 147.722 175.461C147.753 175.461 149.227 174.869 150.951 174.136C152.692 173.419 154.542 172.703 155.059 172.547C156.596 172.11 156.705 171.845 156.69 169.118C156.69 167.326 156.752 166.609 157.003 165.737C157.709 163.383 158.618 161.887 160.641 159.815C161.393 159.035 161.926 158.365 161.926 158.163C161.926 157.96 161.66 157.056 161.315 156.137C161.001 155.217 160.546 153.924 160.311 153.285C159.716 151.617 158.712 149.14 158.54 148.937C158.461 148.859 158.383 148.656 158.383 148.501C158.383 148.22 157.442 145.758 156.643 143.997C156.423 143.498 155.89 142.173 155.467 141.067C155.043 139.961 154.401 138.34 154.071 137.467C152.519 133.478 151.751 131.436 150.356 127.602C150.199 127.182 149.76 126.558 149.368 126.169L148.631 125.483L149.336 124.314C149.713 123.675 150.246 122.787 150.497 122.319L150.967 121.493L151.296 122.304C151.5 122.74 151.657 123.192 151.657 123.301C151.657 123.41 151.72 123.566 151.829 123.675C151.908 123.753 152.19 124.299 152.409 124.828C152.629 125.374 153.538 127.634 154.448 129.846C155.357 132.059 156.36 134.584 156.721 135.457C157.913 138.464 160.108 143.919 160.421 144.667C160.594 145.088 162.02 148.625 163.604 152.537C165.172 156.448 166.739 160.282 167.069 161.061C167.382 161.825 167.602 162.511 167.539 162.589C167.476 162.651 166.912 162.869 166.316 163.087C164.795 163.633 164.137 164.053 164.027 164.521C163.902 165.004 164.341 165.596 164.811 165.596C165.187 165.596 167.821 164.646 168.119 164.412C168.276 164.272 168.417 164.412 168.715 165.004C168.934 165.472 169.013 165.83 168.919 165.924C168.84 165.986 167.806 166.375 166.645 166.781C164.168 167.607 163.306 168.043 162.977 168.651C162.757 169.04 162.757 169.149 162.961 169.523C163.086 169.773 163.353 170.007 163.541 170.053C163.745 170.084 165.219 169.679 166.849 169.118C168.464 168.573 169.875 168.121 169.985 168.121C170.22 168.121 171.286 170.271 171.145 170.459C171.082 170.552 170.941 170.63 170.847 170.63C170.722 170.63 169.436 171.113 167.947 171.721C166.457 172.329 164.56 173.077 163.714 173.373C162.883 173.684 160.986 174.432 159.496 175.009C158.038 175.617 155.937 176.443 154.887 176.864C153.82 177.284 152.315 177.908 151.516 178.219C150.748 178.547 149.995 178.827 149.885 178.827C149.775 178.827 149.666 178.905 149.666 179.014C149.666 179.092 149.603 179.154 149.509 179.092C149.431 179.03 148.803 179.263 148.129 179.575C147.439 179.887 146.797 180.167 146.702 180.167C146.577 180.167 145.527 180.573 144.335 181.071C143.159 181.554 140.854 182.489 139.224 183.144C137.609 183.798 135.398 184.671 134.332 185.108C133.266 185.544 131.557 186.214 130.538 186.619C129.503 187.024 126.869 188.068 124.643 188.957C122.417 189.861 119.751 190.905 118.748 191.294C117.713 191.684 116.051 192.354 115.032 192.79C114.029 193.211 113.135 193.554 113.041 193.554C112.947 193.554 112.461 193.741 111.944 193.959C111.426 194.193 110.203 194.676 109.231 195.066C107.648 195.689 106.127 196.328 104.606 197.014C103.759 197.388 99.4479 199.102 98.3817 199.507C97.833 199.71 96.1241 200.395 94.5876 201.019C93.0511 201.642 91.1697 202.39 90.3701 202.686C89.5705 202.982 87.5793 203.793 85.9017 204.478C83.2051 205.601 80.1791 206.816 73.8608 209.372C72.7946 209.808 70.8662 210.572 69.5649 211.102C68.2636 211.6 66.8996 212.161 66.5389 212.333C66.1627 212.504 65.4571 212.785 64.9711 212.987C63.027 213.735 62.1176 214.094 57.273 216.104C54.498 217.257 51.6445 218.426 50.9546 218.707C50.2648 218.987 49.0889 219.47 48.3364 219.798C45.2634 221.076 41.6887 222.416 41.5163 222.338C41.3908 222.307 40.7637 220.935 40.0895 219.268C39.4154 217.616 38.2081 214.717 37.3929 212.816C36.5776 210.93 35.7623 208.967 35.5428 208.468C35.339 207.969 34.7275 206.52 34.1945 205.289C33.6771 204.058 33.0656 202.608 32.8461 202.11C32.6423 201.611 31.78 199.585 30.9334 197.637C30.0867 195.674 29.3969 194.037 29.3969 193.975C29.3969 193.928 29.1931 193.461 28.9579 192.931C28.1896 191.185 27.7506 190.172 25.7909 185.45C23.3137 179.466 18.908 168.355 17.7008 165.113C17.544 164.692 17.0893 163.679 16.6974 162.853C16.2898 162.012 15.9762 161.279 15.9919 161.202C16.0075 161.124 16.4779 160.905 17.0423 160.734L17.0737 160.672ZM22.5768 59.0325C23.3921 57.7079 24.8188 55.1833 25.8536 53.2197C26.2298 52.534 26.6688 51.6924 26.8413 51.3807C27.0294 51.0691 27.5311 50.1029 27.9858 49.2925C28.4248 48.4509 29.7732 46.0043 30.9804 43.8537C33.3478 39.568 34.8686 36.8097 35.2135 36.1551C36.0602 34.5656 40.3874 26.7735 43.1468 21.9269C47.7406 13.8232 50.3118 9.53755 50.5313 9.53755C50.6254 9.53755 50.8292 9.63106 50.9703 9.77131C51.425 10.1609 54.2785 11.5479 54.6234 11.5479C55.2505 11.5479 55.5484 10.8778 55.2662 10.1453C55.1408 9.84924 54.2001 9.17912 52.6009 8.29083C51.9894 7.96356 51.4877 7.62069 51.4877 7.57396C51.4877 7.51161 51.6131 7.32461 51.7386 7.1376C51.9581 6.85708 52.1305 6.91942 55.0781 8.44665C56.8027 9.33494 58.3392 10.0518 58.543 10.0518C58.9663 10.0518 59.468 9.35054 59.3269 8.91418C59.1388 8.36874 58.3705 7.79214 55.862 6.38957C54.5136 5.62596 53.3534 4.95584 53.2907 4.87791C53.1496 4.73765 54.0746 2.52473 54.2628 2.52473C54.3255 2.52473 54.6234 2.71173 54.9056 2.92991C55.5484 3.41301 63.466 8.11938 65.1122 9.00767C68.6085 10.8934 69.9725 11.657 70.3488 11.9063C70.584 12.0622 71.1954 12.405 71.6971 12.6855C73.8294 13.8387 75.9616 15.0231 78.0155 16.2231C79.2071 16.9088 80.8376 17.8283 81.6372 18.2646C82.4211 18.701 84.5848 19.9009 86.4348 20.9451C88.2848 21.9892 90.1349 23.0178 90.5582 23.2359C90.9815 23.4697 91.8438 23.9528 92.5023 24.3424C95.4499 26.0255 100.028 28.6124 101.737 29.5475C102.192 29.7812 103.65 30.6228 105.014 31.3864C106.378 32.1344 107.82 32.9604 108.243 33.1941C108.667 33.4279 110.093 34.2539 111.442 35.0019C112.79 35.7655 114.374 36.6382 114.969 36.9655C115.565 37.2928 116.255 37.6668 116.49 37.8382C116.725 37.994 118.058 38.7577 119.453 39.5369C120.833 40.2849 122.793 41.3914 123.796 41.9836C124.784 42.5758 125.631 43.0589 125.678 43.0589C125.709 43.0589 126.791 43.6511 128.077 44.3523C129.362 45.0536 130.711 45.8016 131.071 46.0043C131.447 46.2068 132.811 46.9705 134.097 47.7185C135.383 48.4665 138.189 50.0093 140.321 51.1782C142.438 52.3625 144.947 53.7495 145.887 54.2794C147.377 55.1365 152.566 58.0196 158.853 61.4792C159.966 62.1026 161.707 63.0532 162.694 63.6142C163.698 64.1908 164.544 64.6584 164.576 64.6584C164.607 64.6584 165.219 64.9856 165.909 65.4064C166.614 65.8272 167.241 66.1544 167.288 66.1544C167.335 66.1544 168.872 67.0427 170.69 68.118C172.509 69.1933 174.485 70.331 175.065 70.6426C175.645 70.9543 176.178 71.3128 176.225 71.453C176.256 71.5777 176.131 71.9205 175.896 72.2166C175.472 72.7621 171.819 78.9334 170.816 80.8034C170.518 81.3489 169.969 82.2995 169.64 82.8917C169.279 83.4995 168.151 85.4942 167.116 87.3332C163.714 93.3642 162.977 94.6888 162.067 96.2005C161.189 97.6966 158.273 102.73 157.097 104.818C156.768 105.426 156.282 106.221 156.031 106.611C155.78 107.016 155.576 107.343 155.576 107.39C155.576 107.421 155.043 108.372 154.369 109.509C152.566 112.626 152.598 112.579 151.061 115.275C150.293 116.647 149.509 117.971 149.336 118.205C149.18 118.439 149.007 118.751 148.944 118.922C148.788 119.327 146.483 123.441 146.279 123.644C146.185 123.738 146.138 122.101 146.154 119.296L146.201 114.777L146.624 114.73C146.859 114.699 147.141 114.59 147.251 114.496C147.737 114.091 150.904 109.057 152.425 106.283C152.519 106.081 152.817 105.613 153.052 105.239C153.287 104.865 153.789 104.039 154.165 103.4C156.956 98.5069 157.724 97.229 160.452 92.6006C161.127 91.4474 162.067 89.9045 162.553 89.1721C163.024 88.4396 163.714 87.302 164.09 86.663C164.67 85.6033 164.733 85.3696 164.717 84.4345C164.686 83.1566 164.309 82.3307 163.055 80.7255C161.111 78.2632 160.358 76.2529 159.935 72.466C159.778 71.0634 159.778 70.3465 159.935 69.2245L160.139 67.8063L159.496 66.8869C158.728 65.7648 158.555 65.6557 154.306 63.5207C152.441 62.6013 150.528 61.6195 150.042 61.3234C149.556 61.0273 149.117 60.8091 149.086 60.8091C149.054 60.8091 148.129 60.3104 147.032 59.7026C145.934 59.0793 144.445 58.2689 143.692 57.8793C142.94 57.4897 140.337 56.056 137.876 54.7001C135.414 53.3443 133.031 52.0197 132.576 51.7548C132.106 51.5054 131.275 51.0379 130.726 50.7106C130.177 50.3834 127.857 49.0899 125.584 47.812C120.269 44.851 118.246 43.7134 116.569 42.716C115.832 42.2797 114.342 41.4381 113.292 40.8771C111.301 39.8018 110.877 39.568 106.801 37.2304C105.5 36.498 103.038 35.111 101.329 34.1292C99.6046 33.1786 96.2024 31.2461 93.7723 29.8436C91.3265 28.4566 89.2883 27.319 89.2569 27.319C89.2256 27.319 88.3789 26.8358 87.3912 26.2592C86.4034 25.667 83.8949 24.2645 81.794 23.1269C79.7088 22.0048 77.5765 20.836 77.0748 20.5243C74.9425 19.2931 72.1048 17.7815 68.7496 16.0829C65.8177 14.6024 65.5826 14.5868 63.5914 15.7556C59.6718 18.062 56.9751 18.9503 53.0712 19.1997C50.1394 19.3867 49.9042 19.4802 48.9478 20.8983C47.8974 22.4411 42.1277 32.8513 39.7132 37.5421C38.7882 39.3499 37.9416 40.9706 37.8475 41.142C37.7691 41.3134 37.2204 42.3576 36.6716 43.464C36.1386 44.5705 35.5585 45.6926 35.4017 45.9731C35.0254 46.6744 35.0724 47.0951 35.6212 48.373C37.4242 52.4872 37.8005 56.3521 36.8911 61.6818L36.6403 63.1779L37.1106 63.8947C37.3615 64.2999 37.7691 64.7363 38.0043 64.8454C39.384 65.5622 43.0057 67.5726 46.5961 69.5985C48.8694 70.9076 51.1741 72.201 51.7386 72.5127C52.2873 72.8088 53.0242 73.2296 53.3378 73.4322C53.6513 73.6348 54.6704 74.1958 55.5641 74.7101C56.4734 75.2088 57.2103 75.6607 57.2103 75.7386C57.2103 75.8165 56.5518 75.8789 55.7209 75.8945C54.9056 75.8945 54.0903 75.9256 53.8708 75.9412C53.6513 75.9724 53.4475 75.9256 53.4005 75.8477C53.3534 75.7854 52.2873 75.7075 51.033 75.7075C48.8067 75.7075 48.7283 75.6919 47.7092 75.1932C47.1605 74.9127 46.5804 74.5854 46.4549 74.4919C46.3138 74.3984 45.3731 73.853 44.354 73.2919C41.3752 71.6712 32.705 66.8246 30.8863 65.7804C29.977 65.2661 28.7697 64.596 28.1896 64.2999C27.6095 64.0194 26.8413 63.5831 26.465 63.3493C26.0887 63.1 25.0069 62.461 24.0192 61.9156C22.0594 60.8403 21.8242 60.7 21.8242 60.4818C21.8242 60.4039 22.1535 59.7806 22.5454 59.1104L22.5768 59.0325ZM29.3655 174.76C32.0152 172.251 34.4923 166.22 34.4923 162.339L34.4923 160.781L35.2763 160.516C36.6089 160.08 39.7446 158.848 43.4917 157.306C45.4359 156.495 47.7563 155.56 48.6342 155.217C53.8238 153.113 55.909 152.256 56.8811 151.82C58.4803 151.103 58.5116 151.088 60.1578 150.433C60.9888 150.106 62.1647 149.607 62.7761 149.342C63.3876 149.093 64.4537 148.641 65.1749 148.345L66.4919 147.799L74.9426 147.924C79.5834 147.971 83.4089 148.064 83.4559 148.08C83.4716 148.111 83.0169 148.391 82.4525 148.734C80.2732 149.997 78.1409 152.319 76.9337 154.734C75.3816 157.82 74.8485 160.391 74.9739 164.116C75.115 168.37 75.8989 171.191 77.9685 174.853C80.6495 179.575 84.6161 182.832 89.5862 184.391C91.1854 184.889 91.5616 184.936 93.7723 184.983C95.7164 185.014 96.4533 184.967 97.3626 184.734C99.4322 184.157 101.282 183.191 102.803 181.882C103.54 181.227 105.39 179.123 105.39 178.921C105.39 178.858 105.484 178.671 105.625 178.531C106.096 178.017 106.973 176.053 107.428 174.464C108.4 171.082 108.588 168.23 108.024 165.627C107.883 165.02 107.648 163.851 107.507 163.025C107.209 161.326 106.55 159.518 105.531 157.493C104.528 155.498 103.665 154.329 101.956 152.568C100.357 150.932 99.1657 150.012 97.2059 148.875C96.5003 148.469 96.1711 148.204 96.3749 148.204C100.216 148.127 123.263 148.36 123.389 148.469C123.436 148.516 123.201 148.828 122.871 149.171C120.959 151.15 120.096 154.828 120.974 157.321C122.119 160.625 124.424 162.744 127.638 163.508C130.256 164.116 133.862 163.383 134.63 162.09C134.787 161.841 135.116 161.498 135.383 161.357C135.931 161.046 137.233 159.55 137.593 158.833C137.97 158.1 138.362 156.776 138.471 155.903C138.722 154.048 137.813 150.885 136.637 149.436C136.323 149.046 136.041 148.625 136.041 148.532C136.041 148.376 136.637 148.329 138.346 148.36C139.632 148.391 141.544 148.407 142.626 148.391C145.323 148.345 145.276 148.391 145.574 145.508C145.699 144.277 145.84 141.441 145.903 139.228C145.95 137.015 146.028 134.428 146.06 133.446C146.091 132.48 146.122 131.187 146.122 130.579C146.138 129.597 146.201 129.363 146.702 128.646C147.016 128.195 147.377 127.821 147.518 127.821C147.643 127.821 147.941 128.335 148.192 128.989C148.443 129.628 149.399 132.091 150.356 134.428C153.005 141.051 153.664 142.734 154.416 144.807C155.733 148.36 158.148 154.578 158.9 156.23C159.496 157.586 159.574 157.898 159.386 158.069C156.157 161.139 155.404 162.355 154.667 165.814C154.354 167.311 154.291 168.931 154.573 169.617C154.714 169.975 154.698 170.131 154.51 170.303C154.385 170.443 152.974 171.051 151.359 171.674C149.76 172.313 145.715 173.949 142.375 175.321C139.036 176.692 136.01 177.923 135.634 178.048C135.257 178.173 134.113 178.625 133.109 179.03C132.075 179.466 129.738 180.401 127.888 181.134C126.038 181.866 124.126 182.63 123.671 182.801C123.201 182.988 121.884 183.518 120.723 183.985C119.563 184.437 118.105 185.045 117.509 185.31C116.898 185.575 116.333 185.793 116.224 185.793C116.145 185.793 115.471 186.043 114.719 186.37C112.367 187.352 108.071 189.097 105.218 190.219C103.681 190.827 101.047 191.887 99.3224 192.572C97.5978 193.274 95.8262 193.99 95.3715 194.162C94.9011 194.318 93.1295 195.019 91.4205 195.72C89.6959 196.406 87.7675 197.17 87.1247 197.435C86.4662 197.684 83.5814 198.853 80.6965 200.053C77.796 201.237 75.4129 202.219 75.3816 202.219C75.3345 202.219 74.9426 202.39 74.4879 202.593C74.0332 202.795 73.5785 202.982 73.5002 202.998C73.4061 203.014 71.1014 203.933 68.389 205.055C65.6766 206.177 63.4033 207.081 63.3406 207.081C63.2779 207.081 61.7414 207.704 59.9384 208.437C57.0222 209.637 54.059 210.759 53.8238 210.759C53.7768 210.759 53.4945 210.323 53.181 209.793C52.2559 208.156 51.5504 207.299 50.2021 206.193C48.1325 204.51 46.4236 203.559 43.6799 202.671C42.4883 202.281 41.7671 202.094 41.1243 202.063C40.9989 202.047 40.7951 201.798 40.6383 201.486C40.3561 200.957 37.5496 194.427 36.4051 191.653C36.0915 190.874 35.4958 189.549 35.0881 188.723C34.6962 187.881 33.7868 185.98 33.0656 184.453C31.7016 181.539 29.6164 177.238 29.0833 176.256C28.66 175.477 28.6757 175.399 29.3655 174.729L29.3655 174.76ZM39.87 42.8251C41.0929 40.581 42.3315 38.3525 42.5824 37.9005C42.8489 37.433 44.4011 34.3785 46.0316 31.1215C50.3118 22.5347 50.6411 21.849 50.6411 21.6152C50.6411 21.4282 50.9703 21.4126 52.2716 21.4905C56.1755 21.7554 61.8041 20.0724 64.7359 17.7192L65.9902 16.7218L66.6173 17.127C68.828 18.4984 75.1777 22.0983 78.9405 24.1242C79.6304 24.5138 80.3829 24.9502 80.6181 25.0904C81.1355 25.4489 85.3687 27.7709 87.5166 28.8929C88.3946 29.3605 89.4607 29.9215 89.8684 30.1553C90.2917 30.389 92.8159 31.7604 95.5126 33.2253C98.1936 34.6746 101.878 36.6694 103.681 37.6668C105.484 38.6486 107.601 39.8018 108.4 40.2226C109.184 40.6277 110.203 41.1888 110.674 41.4537C111.128 41.7186 112.085 42.2173 112.774 42.5758C113.464 42.9498 114.311 43.4173 114.625 43.6199C114.938 43.8381 115.283 44.0251 115.361 44.0251C115.44 44.0251 115.894 44.2588 116.365 44.5393C116.835 44.8354 117.713 45.3497 118.325 45.6614C118.936 45.9731 119.736 46.4094 120.128 46.6276C120.535 46.8458 121.178 47.2198 121.554 47.438C121.962 47.6562 122.809 48.1081 123.451 48.4665C125.066 49.3236 129.205 51.5833 135.492 55.043C138.409 56.6637 141.137 58.1598 141.56 58.3936C144.413 59.952 150.763 63.6142 153.679 65.3908C154.651 65.9674 155.921 66.7154 156.486 67.0427C157.599 67.6972 157.693 67.8843 157.364 68.757C156.878 69.9569 157.332 73.8841 158.32 76.923C158.916 78.7463 160.578 82.0657 161.503 83.2813C161.926 83.8267 162.255 84.3566 162.255 84.4345C162.255 84.6059 160.75 87.302 159.731 88.9695C159.402 89.5149 158.524 91.0266 157.787 92.3201C157.05 93.6135 156.407 94.7044 156.36 94.7512C156.298 94.7979 155.765 95.655 155.2 96.6836C154.62 97.681 153.805 99.0991 153.381 99.7848C152.049 101.951 149.964 105.457 148.568 107.904C147.831 109.198 147 110.616 146.734 111.083L146.248 111.925L146.373 99.5355C146.514 84.9644 146.467 78.4347 146.232 77.936C145.824 77.0477 145.683 77.0321 135.869 76.9853C130.883 76.9698 125.207 76.9074 123.263 76.8451C121.304 76.7983 119.704 76.8139 119.673 76.8763C119.642 76.9386 119.485 76.9386 119.312 76.8607C119.156 76.7828 117.713 76.6892 116.098 76.6737C114.483 76.6581 112.069 76.5957 110.752 76.5178L108.353 76.4243L109.451 75.162C112.163 72.0608 113.966 67.9933 114.421 63.9415C114.656 61.9156 114.515 58.6118 114.17 57.2404C113.355 54.0768 112.006 51.6145 110.046 49.7133C105.5 45.2874 98.9775 44.4926 92.6748 47.5782C88.4573 49.6197 84.8199 53.3132 82.6877 57.6767C81.0885 60.9182 80.383 63.7857 80.3516 67.1362C80.3359 68.9128 80.4457 70.253 80.7279 71.3283C80.8063 71.64 80.916 72.1075 80.9631 72.3725C81.0258 72.7309 81.8724 74.9127 82.3428 75.9724C82.4055 76.1127 81.9351 76.1438 80.5241 76.0971C79.4736 76.0659 74.7231 76.0036 70.0039 75.9568L61.3651 75.8945L60.1578 75.2243C59.0133 74.601 51.911 70.627 44.4481 66.4038C41.2184 64.5804 39.0548 63.287 38.6941 62.9753C38.5217 62.835 38.553 62.6013 38.8509 61.9156C39.7603 59.7026 39.8544 59.2507 39.8857 57.1936C39.9171 54.9651 39.823 53.9677 39.337 52.0665C38.9607 50.6483 38.1611 48.5912 37.7534 48.0146C37.5967 47.812 37.5183 47.4847 37.534 47.2977C37.5653 47.0951 38.6158 45.1004 39.8387 42.8563L39.87 42.8251ZM77.0121 160.937C77.702 156.932 79.0503 154.423 81.8567 151.898C83.7224 150.199 85.8077 149.389 89.0531 149.062C92.2672 148.75 96.8453 150.511 99.7928 153.254C101.125 154.469 103.477 157.57 104.261 159.113C105.155 160.874 106.033 163.181 106.315 164.552C106.503 165.394 106.44 170.131 106.237 171.331C105.578 174.978 103.65 178.391 101.063 180.401C99.2284 181.819 97.5351 182.583 95.2147 182.972C93.7723 183.206 91.1854 183.097 89.8057 182.692C89.2569 182.536 88.6298 182.396 88.4103 182.396C88.2065 182.38 88.034 182.334 88.034 182.256C88.034 182.178 87.4539 181.835 86.7641 181.445C84.2712 180.074 82.0605 178.032 80.43 175.554C79.9753 174.884 79.5363 174.245 79.4579 174.152C79.16 173.793 77.9528 170.833 77.5765 169.477C76.7299 166.547 76.5418 163.617 76.9964 160.921L77.0121 160.937ZM82.4839 63.1935C83.5813 59.0793 85.4314 55.8222 88.2378 53.0638C90.4641 50.8665 93.349 49.1834 96.2024 48.3419C98.1466 47.7964 101.69 47.7964 103.509 48.3574C107.648 49.6353 110.595 52.721 111.944 57.2092C112.445 58.9078 112.539 59.6871 112.524 62.1026C112.524 63.8792 112.445 64.5181 111.991 66.2479C111.316 68.8505 110.579 70.6271 109.278 72.7465C108.165 74.601 107.099 75.8945 106.409 76.2217C106.048 76.4087 104.653 76.4243 99.4792 76.3776C95.8575 76.3464 92.9257 76.2373 92.8473 76.1438C92.7532 76.0659 92.8786 75.723 93.2079 75.2867C93.6782 74.6322 93.8193 74.5698 94.9795 74.3205C97.1588 73.8685 98.4758 72.8244 99.1343 71.0634C99.5733 69.9258 99.5733 69.1777 99.1657 67.9933L98.8678 67.1206L100.106 65.3129C100.781 64.3311 101.69 63.022 102.113 62.3831C102.552 61.7597 102.96 61.261 103.038 61.261C103.101 61.261 103.32 61.5883 103.509 62.0091C103.838 62.7571 104.669 63.4272 105.249 63.4272C106.017 63.4272 106.143 61.7441 105.547 59.4689L105.155 57.9416L105.86 56.7884C106.268 56.1495 106.832 55.2144 107.162 54.7157C107.836 53.6404 107.914 52.8301 107.381 52.534C106.707 52.16 106.331 52.3937 105.202 53.9833C103.665 56.165 103.681 56.1339 103.132 55.604C102.772 55.2768 102.709 55.1209 102.85 54.8872C102.928 54.7157 102.944 54.5287 102.897 54.4664C102.85 54.4196 102.881 54.3729 102.975 54.3729C103.101 54.3729 103.383 53.9521 103.634 53.4534C104.12 52.4872 104.073 52.0197 103.462 51.895C103.179 51.8327 103.07 51.9262 101.878 53.5002L101.063 54.5755L99.636 54.6066C98.5072 54.6378 98.0054 54.7469 97.2372 55.0742C94.274 56.43 92.8943 60.4662 94.3524 63.5363C94.5092 63.848 94.5562 64.222 94.4935 64.4402C94.4308 64.6428 93.7253 65.8116 92.91 67.0583C92.1261 68.2739 91.2951 69.5829 91.0756 69.9569C90.8561 70.331 90.5896 70.6271 90.4642 70.6271C89.9781 70.6271 89.0217 68.679 89.0217 67.6661C89.0217 67.0895 88.473 66.8869 87.987 67.2609C87.6891 67.4947 87.595 67.7752 87.5323 68.5855C87.4696 69.4271 87.5323 69.7543 87.9086 70.5647C88.1594 71.0946 88.5514 71.7803 88.7709 72.0764C89.2883 72.7621 89.2883 72.7932 88.7238 73.8218C88.2849 74.601 88.2849 74.6633 88.5671 74.9438C88.8493 75.2243 88.8963 75.2088 89.6175 74.4296C90.3387 73.6504 90.3701 73.6192 90.8875 73.8218C91.5773 74.1023 91.6244 74.227 91.2167 74.8659C91.0286 75.162 90.8875 75.5828 90.8875 75.7854L90.8875 76.175L87.7988 76.175C84.2555 76.175 84.5691 76.2996 83.5813 74.5075C82.8758 73.214 82.3428 71.6556 82.1233 70.3465C81.8724 68.7414 82.0605 64.7363 82.4525 63.209L82.4839 63.1935ZM93.1295 69.7543C93.7253 68.944 94.4778 67.8843 94.8384 67.37C95.199 66.8713 95.5439 66.4505 95.6537 66.4505C95.8889 66.4505 96.5003 67.5102 96.3906 67.7596C96.3592 67.8843 95.6223 68.944 94.76 70.1439C93.1295 72.4348 92.91 72.5906 92.1261 72.0452C91.6871 71.7491 91.6714 71.7491 93.1295 69.7543ZM96.2652 70.9232C97.0491 69.7232 97.3156 69.5518 97.3156 70.2219C97.3156 71.0634 96.3435 72.3101 95.685 72.3101C95.3872 72.3101 95.3872 72.3257 96.2808 70.9232L96.2652 70.9232ZM95.8889 58.5494C96.03 58.3001 96.3279 57.8949 96.5787 57.6767C97.2999 57.0066 99.3224 56.4456 99.3224 56.9131C99.3224 56.991 98.7894 57.9105 98.1152 58.9546C97.4567 59.9987 96.7355 61.1675 96.5003 61.5727C96.0143 62.4454 95.8105 62.3208 95.6223 61.0896C95.4656 60.0455 95.5753 59.2195 95.8889 58.565L95.8889 58.5494ZM97.9741 62.8506C98.9775 61.4013 100.012 59.7961 100.686 58.7053C101.314 57.6611 101.611 57.5676 102.003 58.2533C102.239 58.6585 102.192 58.7676 100.969 60.6844C100.263 61.7909 99.4008 63.1467 99.0716 63.6921C98.7423 64.2376 98.3504 64.861 98.2093 65.0635C97.9114 65.5778 97.7546 65.5466 97.347 64.9077C96.955 64.2999 96.955 64.3155 97.9741 62.8506ZM123.028 152.287C123.734 150.807 124.878 149.623 126.242 148.953C127.308 148.438 127.402 148.423 129.409 148.438C131.353 148.454 131.526 148.485 132.357 148.921C133.674 149.638 135.179 151.212 135.884 152.584C136.417 153.659 136.48 153.861 136.48 155.264C136.465 156.838 136.151 158.038 135.351 159.363C134.897 160.111 134.191 160.874 133.956 160.874C133.831 160.874 133.203 161.124 132.514 161.451C129.723 162.729 126.807 162.277 124.627 160.235C123.044 158.739 122.417 157.165 122.495 154.859C122.526 153.659 122.621 153.254 123.044 152.303L123.028 152.287Z" fill="#0C0D0F"/>
<path fill-rule="evenodd" clip-rule="evenodd" d="M4.79727 140.709C5.00109 141.55 6.02019 141.706 6.47486 141.005C6.72571 140.615 6.77275 140.179 6.74139 138.028C6.72571 135.223 6.58461 134.693 5.91044 134.522C5.39305 134.381 5.04813 134.646 4.87566 135.27C4.73456 135.768 4.65617 140.241 4.78159 140.693L4.79727 140.709Z" fill="#0C0D0F"/>
<path fill-rule="evenodd" clip-rule="evenodd" d="M5.20523 130.345C5.51879 130.626 5.59719 130.626 6.00482 130.392C6.36543 130.205 6.47517 129.987 6.50653 129.504C6.56924 128.771 6.31839 128.397 5.73829 128.397C4.89166 128.397 4.53106 129.722 5.2209 130.345L5.20523 130.345Z" fill="#0C0D0F"/>
<path fill-rule="evenodd" clip-rule="evenodd" d="M7.88597 118.439C7.94868 120.465 8.04275 122.724 8.05843 123.457C8.07411 124.189 8.19954 125 8.30928 125.249C8.45039 125.483 9.07752 126.137 9.75169 126.683C12.4797 128.911 13.9692 130.797 15.5057 133.992C16.1014 135.176 16.6345 136.345 16.6815 136.594C17.1676 138.324 17.5125 138.932 18.2023 139.321L18.8922 139.727L27.4839 139.851C32.2031 139.914 37.1732 140.007 38.5215 140.038C43.4916 140.179 49.2142 140.288 55.2033 140.366C58.5898 140.412 63.0895 140.49 65.2218 140.537C67.3384 140.584 71.9478 140.662 75.4127 140.708C78.8777 140.755 83.2519 140.833 85.102 140.88C86.952 140.927 91.2322 141.005 94.6187 141.051C104.371 141.192 117.791 141.456 119.547 141.55C120.425 141.597 122.887 141.643 124.988 141.675L128.845 141.706L129.331 141.129C129.582 140.818 130.005 139.976 130.24 139.275C130.914 137.296 132.027 135.737 133.862 134.225C134.74 133.509 137.75 131.888 138.471 131.763C139.428 131.592 139.553 131.218 139.741 127.166C139.835 125.14 139.961 121.743 140.008 119.639C140.055 117.519 140.133 114.2 140.18 112.268C140.306 107.218 140.447 102.902 140.603 100.221C140.745 97.5406 140.65 97.0887 139.788 95.9043C139.239 95.1718 138.926 94.9692 137.107 94.0965C133.627 92.4602 132.937 91.8992 130.757 89.0317C129.77 87.7226 128.97 86.3201 128.17 84.3876C128.045 84.0915 127.669 83.7799 127.01 83.4682L126.038 83.0007L121.915 83.063C114.248 83.2188 91.5928 83.0786 75.9301 82.8137C73.3902 82.7669 68.9062 82.689 65.99 82.6422C63.0739 82.5955 57.0063 82.502 52.5223 82.4396C48.0226 82.3617 39.0075 82.2994 32.4853 82.2994C21.1812 82.2994 20.5541 82.315 19.8799 82.6111C19.1587 82.9228 18.7668 83.4526 17.1989 86.1487C16.6188 87.1149 15.3959 88.6889 14.565 89.4992C13.781 90.2473 11.3979 92.055 10.0496 92.8965C9.17159 93.4732 8.34064 94.0965 8.24657 94.2991C7.7919 95.2186 7.7135 96.9172 7.74486 105.722C7.76054 110.709 7.82325 116.444 7.90165 118.47L7.88597 118.439ZM11.2725 94.8601C13.4048 93.8628 16.1955 91.6187 17.685 89.7018C19.4096 87.5045 19.6447 87.1305 20.3973 85.3227C20.8206 84.3253 20.9304 84.1851 21.2439 84.2786C21.9338 84.4812 35.7464 84.5591 74.2369 84.637C95.5908 84.6682 113.213 84.7149 113.401 84.7305C113.793 84.7461 125.003 85.1824 125.568 85.198C125.834 85.198 125.96 85.2915 125.96 85.5253C125.96 86.2266 126.634 87.7226 127.496 88.9694C129.817 92.3044 134.128 95.9199 137.28 97.1666L138.095 97.4783L138.095 98.8964C138.095 101.125 137.781 111.987 137.593 116.054C137.515 118.08 137.389 121.992 137.327 124.766C137.264 127.524 137.17 129.846 137.107 129.893C137.06 129.955 136.59 130.127 136.072 130.298C133.548 131.109 131.4 132.745 129.723 135.192C128.562 136.859 128.218 137.576 128.061 138.698L127.935 139.462L121.272 139.368C117.603 139.321 110.877 139.228 106.346 139.181C101.799 139.134 96.7353 139.057 95.0577 139.01C93.3958 138.963 89.147 138.885 85.6194 138.838C74.7856 138.698 67.4324 138.589 63.7167 138.511C59.9852 138.433 52.4753 138.308 41.3123 138.184C27.6407 138.012 22.4198 137.919 20.7579 137.825L19.049 137.732L18.7824 135.909C18.3905 133.166 17.1049 130.657 14.7845 128.148C13.734 127.01 11.8056 125.358 11.0844 124.984L10.614 124.735L10.5199 115.805C10.4572 110.896 10.3318 105.348 10.2377 103.447C10.0653 100.237 9.81441 96.2471 9.76737 95.7952C9.75169 95.7017 10.4415 95.2653 11.2882 94.8601L11.2725 94.8601Z" fill="#0C0D0F"/>
<path fill-rule="evenodd" clip-rule="evenodd" d="M23.9566 114.122C24.0977 114.605 24.4113 115.4 24.6465 115.883C25.2266 117.005 27.0766 118.86 28.1898 119.421C28.6758 119.67 29.1775 119.997 29.3343 120.138C29.742 120.543 31.1687 120.87 32.8933 120.979C34.2573 121.073 34.5239 121.041 35.5586 120.667C37.5498 119.919 39.2431 118.47 40.3249 116.631C41.5321 114.59 41.83 112.626 41.2499 110.335C40.7952 108.559 40.1054 107.405 38.7257 106.112C35.2451 102.87 29.6636 102.824 26.4181 106.05C24.1448 108.278 23.2354 111.364 23.9723 114.138L23.9566 114.122ZM25.8067 110.585C26.7317 107.421 30.181 105.442 33.5675 106.127C35.982 106.611 38.1456 108.278 39.2117 110.413C39.7448 111.488 39.7918 111.675 39.7918 113.249C39.7761 115.229 39.4782 116.055 38.3337 117.27C36.7659 118.938 33.3323 119.81 31.0276 119.109C30.5729 118.969 29.9928 118.86 29.742 118.86C29.4284 118.86 28.9737 118.579 28.2055 117.862C26.0732 115.868 25.1168 112.984 25.8067 110.6L25.8067 110.585Z" fill="#0C0D0F"/>
<path fill-rule="evenodd" clip-rule="evenodd" d="M27.0608 114.418C27.2332 115.12 27.6409 115.696 27.876 115.587C28.0015 115.556 28.0799 115.603 28.0485 115.727C28.0015 116.039 28.7383 116.055 29.0519 115.743C29.3028 115.509 29.3341 115.197 29.3028 113.904C29.2557 112.517 29.2871 112.252 29.7574 111.068C30.3375 109.665 30.3846 109.307 30.071 109.011C29.2871 108.231 27.9544 109.759 27.2175 112.33C26.8883 113.483 26.8569 113.639 27.0451 114.418L27.0608 114.418Z" fill="#0C0D0F"/>
<path fill-rule="evenodd" clip-rule="evenodd" d="M31.9213 109.026C32.2819 109.338 33.0031 109.4 33.4892 109.151C33.9909 108.886 33.9282 108.013 33.3637 107.811C32.0938 107.328 31.0277 108.231 31.9213 109.026Z" fill="#0C0D0F"/>
<path fill-rule="evenodd" clip-rule="evenodd" d="M55.3758 113.966C55.5796 115.462 56.2381 118.127 56.7241 119.374C57.1788 120.496 58.5271 123.036 58.8093 123.27C58.9348 123.364 59.217 123.769 59.4678 124.158C60.095 125.14 62.3683 127.353 63.5285 128.132C66.8053 130.298 69.9567 131.046 73.5627 130.517C74.5191 130.361 75.3971 130.158 75.4754 130.08C75.5695 129.987 75.7577 129.909 75.9144 129.909C76.3378 129.909 78.9404 128.537 79.9751 127.789C81.6214 126.574 83.2049 124.688 84.8354 122.054C85.6821 120.683 86.6855 118.143 86.6855 117.333C86.6855 117.114 86.8893 116.226 87.1245 115.353C87.7203 113.172 87.8457 109.712 87.4537 107C86.7482 102.263 84.0829 97.494 80.6179 94.7356C76.9492 91.8214 72.622 90.8552 68.2948 91.9461C65.6608 92.6006 63.701 93.7227 61.5217 95.7954C58.5271 98.6472 56.6614 102.091 55.6737 106.58C55.2974 108.356 55.1406 112.19 55.3601 113.998L55.3758 113.966ZM57.2415 108.06C58.4801 103.058 59.7187 100.58 62.2272 97.9771C65.1434 94.985 69.0473 93.4577 72.7317 93.9097C76.5886 94.3616 79.5518 96.1382 82.2171 99.5823C84.3337 102.309 85.8545 107.265 85.8545 111.379C85.8545 114.621 85.635 115.681 84.4435 118.361C83.1265 121.306 82.86 121.79 81.6214 123.301C80.1946 125.047 78.1721 126.558 76.1653 127.431C74.3936 128.195 73.1394 128.46 71.1325 128.428C67.8558 128.397 65.3159 127.493 62.87 125.436C62.3997 125.031 61.945 124.766 61.8823 124.828C61.8353 124.891 61.8039 124.86 61.8353 124.782C61.8509 124.688 61.6001 124.267 61.2395 123.831C59.2327 121.4 57.7589 117.909 57.1945 114.231C57.069 113.421 57.1317 108.59 57.2572 108.044L57.2415 108.06Z" fill="#0C0D0F"/>
<path fill-rule="evenodd" clip-rule="evenodd" d="M64.7045 119.436C65.0024 120.138 66.3037 121.275 67.4012 121.821L68.3262 122.273L68.3732 123.364C68.4202 124.361 68.4516 124.47 68.8122 124.517C69.1728 124.564 69.3139 124.423 69.4237 123.847C69.7372 122.288 69.6745 122.366 70.38 122.366L71.0385 122.366L71.0385 123.177C71.0385 124.143 71.3207 124.579 71.9636 124.579C72.6064 124.579 72.8259 124.221 72.9513 122.865C73.0767 121.712 73.0924 121.696 73.939 121.026C75.6637 119.67 76.4005 118.065 76.181 116.226C76.0399 115.073 75.5382 114.075 74.6916 113.312L74.0331 112.688L74.2996 109.837C74.4564 108.263 74.6289 106.626 74.6916 106.19C74.7857 105.457 74.8327 105.426 75.0836 105.66C75.5853 106.159 76.4946 106.626 76.965 106.626C77.6235 106.626 78.0938 106.346 78.0938 105.956C78.0938 105.426 77.5764 104.289 77.3726 104.398C77.2785 104.445 77.2472 104.413 77.3256 104.304C77.404 104.18 76.9963 103.634 76.2438 102.871C75.0836 101.686 75.0365 101.608 75.1306 101C75.1776 100.642 75.256 99.4732 75.2874 98.3823C75.3187 96.5122 75.3031 96.372 74.9581 96.0914C74.5348 95.7798 73.8606 95.8265 73.5471 96.2161C73.4216 96.3408 73.2649 97.3693 73.1551 98.4914L72.967 100.533L72.3712 100.58C71.8538 100.626 71.7441 100.564 71.5873 100.128C71.4932 99.8316 71.4618 99.5823 71.5559 99.5044C71.8068 99.3485 71.7284 97.868 71.4305 97.4628C71.1169 97.0109 70.6779 96.9953 70.3957 97.4161C70.3017 97.5875 70.1449 98.3823 70.0822 99.1771L69.9567 100.626L69.3609 100.876C68.483 101.234 67.2287 102.247 66.6643 103.026C65.8803 104.133 65.5668 105.317 65.6765 106.798C65.802 108.59 66.4604 110.024 67.8401 111.364C68.7181 112.252 68.8906 112.501 68.8906 113C68.8749 113.935 68.4673 119.779 68.4046 119.842C68.2164 120.044 66.8838 119.187 66.1469 118.423C65.3002 117.504 65.1905 117.442 64.7358 117.613C64.4066 117.753 64.3752 118.72 64.7045 119.436ZM67.6363 105.161C67.8715 104.632 69.0944 103.447 69.408 103.447C69.4864 103.447 69.5334 103.883 69.455 104.491C69.408 105.083 69.3139 106.517 69.2512 107.686C69.1885 109.089 69.0787 109.805 68.969 109.759C68.6397 109.665 67.5266 107.889 67.3698 107.218C67.1973 106.47 67.2444 105.956 67.6363 105.161ZM70.38 116.756C70.5839 115.104 70.772 113.701 70.8034 113.67C70.8974 113.546 71.8852 114.029 72.0106 114.262C72.1987 114.574 71.5402 119.904 71.3051 120.06C70.9915 120.278 70.0194 120.216 70.0194 119.982C70.0194 119.888 70.1762 118.423 70.38 116.771L70.38 116.756ZM71.2894 108.029C71.4305 106.486 71.5559 104.803 71.5716 104.289C71.6186 103.385 71.6343 103.369 72.1047 103.4C72.3712 103.416 72.6377 103.525 72.7004 103.603C72.7945 103.759 72.4182 111.691 72.2928 111.785C72.1674 111.909 71.0229 111.239 71.0229 111.052C71.0229 110.927 71.1483 109.556 71.2737 108.029L71.2894 108.029ZM73.6568 116.881C73.7822 115.54 73.9704 115.478 74.2526 116.678C74.4407 117.52 74.2369 118.314 73.7039 118.782C73.4844 118.99 73.4007 118.927 73.453 118.595C73.5 118.314 73.6098 117.535 73.6725 116.865L73.6568 116.881Z" fill="#0C0D0F"/>
<path fill-rule="evenodd" clip-rule="evenodd" d="M102.113 117.675C102.537 119.125 103.211 120.34 104.277 121.462C106.127 123.441 108.181 124.392 110.721 124.423C111.756 124.439 112.336 124.392 112.508 124.236C112.665 124.112 113.292 123.847 113.951 123.628C115.534 123.099 116.49 122.506 117.4 121.54C119.94 118.844 120.473 114.122 118.529 111.146C117.792 109.992 116.051 108.434 114.844 107.826C111.865 106.346 108.432 106.486 105.829 108.216C104.7 108.948 103.509 110.164 103.618 110.429C103.65 110.553 103.603 110.631 103.477 110.6C103.352 110.585 102.991 111.146 102.615 111.894C102.004 113.109 101.957 113.312 101.91 114.995C101.863 116.257 101.91 117.036 102.098 117.691L102.113 117.675ZM103.728 114.278C104.34 111.644 106.409 109.556 108.918 108.964C110.329 108.637 112.289 108.824 113.433 109.416C115.989 110.694 117.745 113.904 117.478 116.849C117.306 118.704 115.895 120.839 113.935 122.132C113.12 122.678 113.073 122.678 111.223 122.678C109.827 122.662 109.122 122.6 108.432 122.351C107.93 122.163 107.428 122.039 107.319 122.023C107.193 122.023 106.66 121.602 106.096 121.088C105.045 120.122 104.152 118.86 103.963 118.096C103.916 117.862 103.807 117.675 103.744 117.675C103.54 117.675 103.54 115.135 103.744 114.278L103.728 114.278Z" fill="#0C0D0F"/>
<path fill-rule="evenodd" clip-rule="evenodd" d="M25.3991 59.6248C25.5245 59.8118 25.791 59.9209 26.1359 59.9209C26.9199 59.9209 27.547 59.1884 28.8326 56.7262C30.0085 54.4821 30.1653 53.812 29.6009 53.3133C29.1305 52.8925 28.5034 53.1107 28.033 53.8587C25.2423 58.2846 24.9444 58.8923 25.3834 59.6248L25.3991 59.6248Z" fill="#0C0D0F"/>
<path fill-rule="evenodd" clip-rule="evenodd" d="M29.6949 51.0533C29.836 51.2871 29.9301 51.4118 29.9457 51.3183C29.9457 51.2404 30.0712 51.2715 30.1966 51.3806C30.7297 51.8325 31.9683 50.8663 31.9683 49.9781C31.9683 49.682 31.8899 49.3547 31.7644 49.2456C31.4038 48.8872 30.6513 49.0118 30.1339 49.4949C29.5068 50.0871 29.397 50.5235 29.6949 51.0533Z" fill="#0C0D0F"/>
<path fill-rule="evenodd" clip-rule="evenodd" d="M47.4739 183.238C47.709 185.014 48.3205 186.323 49.4493 187.539C50.9858 189.159 52.7104 190.032 55.0779 190.344C57.3826 190.656 58.8407 190.5 60.675 189.689C63.8578 188.287 65.943 183.253 64.8455 179.684C64.4692 178.484 63.4972 176.817 62.6662 175.975C60.8162 174.105 57.2258 172.999 54.874 173.575C54.4507 173.7 53.9333 173.809 53.6982 173.856C52.6634 174.059 51.0799 174.978 50.0765 175.944C48.054 177.877 47.1133 180.51 47.4895 183.222L47.4739 183.238ZM49.904 179.747C51.7854 175.944 56.9593 174.697 60.7221 177.097C64.3438 179.419 64.9552 183.923 62.0077 186.666C60.5496 188.022 58.9347 188.848 57.3199 189.05C56.9436 189.097 56.4105 189.191 56.144 189.253C55.8148 189.315 55.266 189.237 54.5605 189.004C52.5066 188.318 50.9701 187.024 50.0451 185.232C49.3866 183.97 49.3239 183.674 49.3709 182.131C49.418 180.962 49.5277 180.542 49.904 179.731L49.904 179.747Z" fill="#0C0D0F"/>
<path fill-rule="evenodd" clip-rule="evenodd" d="M51.1587 184.063C51.3938 185.045 51.6604 185.497 52.4913 186.323C53.1655 186.993 53.4477 187.165 53.9024 187.165C55.0469 187.165 55.1723 186.463 54.1846 185.17C53.4007 184.126 53.0087 182.957 53.0087 181.632C53.0087 181.118 52.9303 180.604 52.8049 180.495C52.3659 180.058 51.5663 180.354 51.4252 180.993C51.3938 181.118 51.3311 181.321 51.2684 181.461C51.0959 181.913 51.0332 183.533 51.143 184.063L51.1587 184.063Z" fill="#0C0D0F"/>
<path fill-rule="evenodd" clip-rule="evenodd" d="M53.1965 179.217C53.5257 179.513 53.5571 179.513 54.1529 179.201C54.9054 178.796 55.0936 178.079 54.5291 177.783C53.9177 177.471 52.8516 178.079 52.8516 178.749C52.8516 178.827 53.0083 179.03 53.2122 179.217L53.1965 179.217Z" fill="#0C0D0F"/>
<path fill-rule="evenodd" clip-rule="evenodd" d="M54.2787 48.1235C54.7177 50.1495 56.1601 52.6585 57.5084 53.7806C59.0919 55.074 60.3776 55.6195 62.0395 55.713C66.304 55.9312 69.9414 53.5936 71.1173 49.869C72.8576 44.4145 69.0634 38.851 63.1997 38.2433C60.9733 38.0095 58.1199 39.116 56.4423 40.8146C55.2821 41.999 54.6236 43.2613 54.2787 44.8821C53.9651 46.3937 53.9651 46.7677 54.263 48.108L54.2787 48.1235ZM55.8779 45.5522C56.9126 41.1263 61.3339 39.1004 65.379 41.2354C68.8596 43.0431 70.5058 47.5469 68.9066 50.8975C67.8091 53.1728 65.9591 54.4039 63.6543 54.4039C61.7729 54.4039 59.3742 53.4533 57.9945 52.1754C57.5398 51.739 57.1008 51.3962 57.0381 51.3962C56.8343 51.3962 56.1758 50.0404 55.9563 49.1365C55.7054 48.0924 55.6741 46.5184 55.8936 45.5678L55.8779 45.5522Z" fill="#0C0D0F"/>
<path fill-rule="evenodd" clip-rule="evenodd" d="M57.6965 49.5106C58.1355 50.695 58.8724 51.256 59.5622 50.882C59.8758 50.7106 59.8915 50.6015 59.7974 49.2301C59.7033 47.8119 59.719 47.7029 60.2521 46.5652C60.7694 45.412 60.7851 45.3652 60.5186 44.9445C59.9228 44.0406 58.9037 44.5393 58.0257 46.1444C57.3986 47.2665 57.3045 48.3885 57.6965 49.5106Z" fill="#0C0D0F"/>
<path fill-rule="evenodd" clip-rule="evenodd" d="M61.4437 44.3522C61.8984 44.8041 63.0115 44.8041 63.4662 44.3522C64.3442 43.4795 62.5569 42.3574 61.4751 43.1211C61.0204 43.4327 61.0047 43.9314 61.4437 44.3522Z" fill="#0C0D0F"/>
<path fill-rule="evenodd" clip-rule="evenodd" d="M84.0205 162.479C84.1773 163.633 85.0553 165.222 86.0587 166.157C86.8426 166.89 88.9278 167.996 89.2101 167.825C89.5079 167.638 89.9469 168.448 90.6681 170.505C91.6402 173.295 92.2517 175.071 92.2517 175.18C92.2517 175.227 91.8597 175.258 91.3894 175.258C90.7779 175.258 90.2605 175.103 89.5393 174.76C88.7554 174.37 88.4418 174.292 88.191 174.432C87.6736 174.713 87.799 175.367 88.5202 176.084C89.2414 176.801 90.3703 177.253 92.0165 177.409L93.1453 177.534L93.4119 178.25C93.5686 178.64 93.8195 179.092 93.9606 179.232C94.2115 179.497 94.2742 179.497 94.4937 179.263C94.7132 179.045 94.7288 178.858 94.5877 178.266C94.3212 177.113 94.3526 176.988 95.0111 176.77C95.3246 176.645 95.6225 176.599 95.6382 176.63C95.6539 176.645 95.842 177.035 96.0615 177.471C96.4535 178.328 96.9081 178.515 97.4726 178.063C97.8802 177.767 97.8802 177.487 97.5196 176.209L97.206 175.071L97.7234 174.121C98.4289 172.843 98.6955 171.487 98.4603 170.381C98.0683 168.588 96.8454 167.186 95.2619 166.718C94.8699 166.594 94.5093 166.422 94.4937 166.329C92.7534 160.765 92.4084 159.534 92.5966 159.534C92.6907 159.534 93.0669 159.612 93.4275 159.737C94.3212 159.986 95.3717 159.69 95.6539 159.082C95.842 158.677 95.795 158.599 94.9797 157.867C94.3996 157.352 93.647 156.885 92.7847 156.526C92.0635 156.23 91.405 155.919 91.3423 155.856C91.2639 155.794 90.9347 154.999 90.6368 154.126C89.7902 151.711 89.4452 151.01 88.9749 150.807C88.6456 150.636 88.4732 150.651 88.1126 150.885C87.5638 151.259 87.5795 151.742 88.1596 153.519C88.9435 155.841 88.9435 155.809 88.3321 155.981C87.8774 156.121 87.7049 156.074 87.407 155.809C87.2032 155.622 87.0935 155.373 87.1248 155.264C87.2503 154.999 86.435 153.394 86.1528 153.3C86.0273 153.254 85.7922 153.254 85.6354 153.3C85.2591 153.394 85.2591 153.955 85.6197 155.17C86.1214 156.916 86.1214 156.931 85.3689 157.789C84.2557 159.051 83.7853 160.703 84.0205 162.479ZM85.9333 160.999C86.1998 160.266 86.7015 159.643 86.8897 159.83C86.9524 159.908 87.0935 160.235 87.1719 160.547C87.4227 161.404 88.4889 164.381 88.7867 165.098C89.116 165.877 88.9592 165.923 87.752 165.238C85.949 164.209 85.3061 162.729 85.9176 160.999L85.9333 160.999ZM89.3668 158.568C89.994 158.505 89.8529 158.287 91.0287 161.544C92.3928 165.347 92.6593 166.22 92.5495 166.329C92.4868 166.391 92.1419 166.375 91.8127 166.298L91.2012 166.142L89.994 162.542C89.3198 160.563 88.7867 158.864 88.8024 158.77C88.8338 158.677 89.0846 158.583 89.3825 158.552L89.3668 158.568ZM92.4398 168.542C93.553 168.682 93.5216 168.604 94.1801 170.957C94.5407 172.173 94.9013 173.388 94.9954 173.638C95.0738 173.887 95.1208 174.167 95.0424 174.261C94.8543 174.557 93.9136 174.978 93.7725 174.838C93.7098 174.775 93.4903 174.105 93.2864 173.357C93.0983 172.625 92.7063 171.3 92.4398 170.427C92.1733 169.555 91.9694 168.76 91.9851 168.666C92.0165 168.573 92.2203 168.51 92.4398 168.542ZM95.7793 169.414C96.5946 169.835 97.0963 171.565 96.6416 172.266C96.5632 172.406 96.4691 172.484 96.4535 172.438C96.4535 172.375 95.6695 169.882 95.4814 169.29C95.4657 169.274 95.6225 169.321 95.7793 169.43L95.7793 169.414Z" fill="#0C0D0F"/>
</svg>
