<svg width="16" height="16" viewBox="0 0 16 16" fill="none" xmlns="http://www.w3.org/2000/svg">
<path d="M8.10673 7.24665C8.04007 7.23998 7.96007 7.23998 7.88673 7.24665C6.30004 7.19331 5.04004 5.89331 5.04004 4.29331C5.04004 2.65998 6.36004 1.33331 8.00007 1.33331C9.6334 1.33331 10.9601 2.65998 10.9601 4.29331C10.9534 5.89331 9.6934 7.19331 8.10673 7.24665Z" stroke="#949494" stroke-linecap="round" stroke-linejoin="round"/>
<path d="M4.77348 9.70669C3.16014 10.7867 3.16014 12.5467 4.77348 13.62C6.60681 14.8467 9.6135 14.8467 11.4468 13.62C13.0602 12.54 13.0602 10.78 11.4468 9.70669C9.62016 8.48669 6.61348 8.48669 4.77348 9.70669Z" stroke="#949494" stroke-linecap="round" stroke-linejoin="round"/>
</svg>
