<svg width="36" height="36" viewBox="0 0 36 36" fill="none" xmlns="http://www.w3.org/2000/svg">
<path opacity="0.4" d="M16.4412 3.08792L8.19117 6.17792C6.61617 6.77792 5.32617 8.63792 5.32617 10.3329V22.4829C5.32617 23.6979 6.12117 25.3029 7.09617 26.0229L15.3462 32.1879C16.8012 33.2829 19.1862 33.2829 20.6412 32.1879L28.8912 26.0229C29.8662 25.2879 30.6612 23.6979 30.6612 22.4829V10.3329C30.6612 8.65292 29.3712 6.77792 27.7962 6.19292L19.5462 3.10292C18.7062 2.77292 17.2962 2.77292 16.4412 3.08792Z" fill="#FFBB00"/>
<path d="M15.9875 21.3467C15.7025 21.3467 15.4175 21.2417 15.1925 21.0167L12.7774 18.6017C12.3424 18.1667 12.3424 17.4467 12.7774 17.0117C13.2124 16.5767 13.9324 16.5767 14.3674 17.0117L15.9875 18.6317L21.6425 12.9766C22.0775 12.5416 22.7975 12.5416 23.2325 12.9766C23.6675 13.4116 23.6675 14.1316 23.2325 14.5666L16.7825 21.0167C16.5575 21.2417 16.2725 21.3467 15.9875 21.3467Z" fill="#FFBB00"/>
</svg>
