<svg width="40" height="40" viewBox="0 0 40 40" fill="none" xmlns="http://www.w3.org/2000/svg">
<path d="M35.1517 11.6326C33.735 10.0659 31.3683 9.28255 27.935 9.28255H27.535V9.21589C27.535 6.41589 27.535 2.94922 21.2683 2.94922H18.735C12.4684 2.94922 12.4684 6.43255 12.4684 9.21589V9.29922H12.0684C8.61836 9.29922 6.26836 10.0826 4.85169 11.6492C3.20169 13.4826 3.25169 15.9492 3.41836 17.6325L3.43502 17.7492L3.60169 19.4992C3.61836 19.5158 3.65169 19.5492 3.68502 19.5658C4.23502 19.9325 4.80169 20.2992 5.40169 20.6325C5.63502 20.7825 5.88502 20.9158 6.13502 21.0492C8.98502 22.6158 12.1184 23.6658 15.3017 24.1825C15.4517 25.7492 16.135 27.5825 19.785 27.5825C23.435 27.5825 24.1517 25.7658 24.2683 24.1492C27.6683 23.5992 30.9517 22.4158 33.9183 20.6825C34.0183 20.6325 34.085 20.5825 34.1683 20.5325C34.935 20.0992 35.6517 19.6325 36.3517 19.1158C36.385 19.0992 36.4183 19.0658 36.435 19.0325L36.5017 18.4325L36.585 17.6492C36.6017 17.5492 36.6017 17.4658 36.6183 17.3492C36.7517 15.6659 36.7183 13.3659 35.1517 11.6326ZM21.8183 23.0492C21.8183 24.8158 21.8183 25.0825 19.7683 25.0825C17.7183 25.0825 17.7183 24.7658 17.7183 23.0658V20.9658H21.8183V23.0492ZM14.8517 9.28255V9.21589C14.8517 6.38255 14.8517 5.33255 18.735 5.33255H21.2683C25.1517 5.33255 25.1517 6.39922 25.1517 9.21589V9.29922H14.8517V9.28255Z" fill="white"/>
<path opacity="0.4" d="M34.1668 20.4973C34.0835 20.5473 34.0002 20.5973 33.9168 20.6473C30.9502 22.3807 27.6668 23.5473 24.2668 24.114C24.1335 25.714 23.4335 27.5473 19.7835 27.5473C16.1334 27.5473 15.4334 25.7307 15.3001 24.1473C12.1168 23.6473 8.98343 22.5973 6.13343 21.014C5.88343 20.8807 5.63343 20.7473 5.4001 20.5973C4.8001 20.264 4.23343 19.8973 3.68343 19.5307C3.6501 19.514 3.61676 19.4807 3.6001 19.464L4.61676 30.314C4.96676 33.6307 6.33343 37.0473 13.6668 37.0473H26.3668C33.7002 37.0473 35.0668 33.6307 35.4168 30.2973L36.4668 18.9973C36.4502 19.0307 36.4168 19.064 36.3835 19.0807C35.6668 19.5973 34.9335 20.0807 34.1668 20.4973Z" fill="white"/>
</svg>
