<svg width="36" height="36" viewBox="0 0 36 36" fill="none" xmlns="http://www.w3.org/2000/svg">
<path d="M26.43 16.1274C25.785 16.1274 25.275 15.6024 25.275 14.9723C25.275 14.4173 24.72 13.2623 23.79 12.2573C22.875 11.2823 21.87 10.7123 21.03 10.7123C20.385 10.7123 19.875 10.1873 19.875 9.55734C19.875 8.92734 20.4 8.40234 21.03 8.40234C22.53 8.40234 24.105 9.21234 25.485 10.6673C26.775 12.0323 27.6 13.7273 27.6 14.9573C27.6 15.6024 27.075 16.1274 26.43 16.1274Z" fill="white"/>
<path d="M31.8446 16.125C31.1996 16.125 30.6897 15.6 30.6897 14.97C30.6897 9.645 26.3547 5.325 21.0446 5.325C20.3996 5.325 19.8896 4.8 19.8896 4.17C19.8896 3.54 20.3996 3 21.0296 3C27.6297 3 32.9997 8.37 32.9997 14.97C32.9997 15.6 32.4746 16.125 31.8446 16.125Z" fill="white"/>
<path opacity="0.4" d="M17.685 21.315L12.78 26.22C12.24 25.74 11.715 25.245 11.205 24.735C9.66 23.175 8.265 21.54 7.02 19.83C5.79 18.12 4.8 16.41 4.08 14.715C3.36 13.005 3 11.37 3 9.81C3 8.79 3.18 7.815 3.54 6.915C3.9 6 4.47 5.16 5.265 4.41C6.225 3.465 7.275 3 8.385 3C8.805 3 9.225 3.09 9.6 3.27C9.99 3.45 10.335 3.72 10.605 4.11L14.085 9.015C14.355 9.39 14.55 9.735 14.685 10.065C14.82 10.38 14.895 10.695 14.895 10.98C14.895 11.34 14.79 11.7 14.58 12.045C14.385 12.39 14.1 12.75 13.74 13.11L12.6 14.295C12.435 14.46 12.36 14.655 12.36 14.895C12.36 15.015 12.375 15.12 12.405 15.24C12.45 15.36 12.495 15.45 12.525 15.54C12.795 16.035 13.26 16.68 13.92 17.46C14.595 18.24 15.315 19.035 16.095 19.83C16.635 20.355 17.16 20.865 17.685 21.315Z" fill="white"/>
<path d="M32.9544 27.4936C32.9544 27.9136 32.8794 28.3486 32.7294 28.7686C32.6844 28.8886 32.6394 29.0086 32.5794 29.1286C32.3244 29.6686 31.9944 30.1786 31.5594 30.6586C30.8244 31.4686 30.0144 32.0536 29.0994 32.4286C29.0844 32.4286 29.0694 32.4436 29.0544 32.4436C28.1694 32.8036 27.2094 32.9986 26.1744 32.9986C24.6444 32.9986 23.0094 32.6386 21.2844 31.9036C19.5594 31.1686 17.8344 30.1786 16.1244 28.9336C15.5394 28.4986 14.9544 28.0636 14.3994 27.5986L19.3044 22.6936C19.7244 23.0086 20.0994 23.2486 20.4144 23.4136C20.4894 23.4436 20.5794 23.4886 20.6844 23.5336C20.8044 23.5786 20.9244 23.5936 21.0594 23.5936C21.3144 23.5936 21.5094 23.5036 21.6744 23.3386L22.8144 22.2136C23.1894 21.8386 23.5494 21.5536 23.8944 21.3736C24.2394 21.1636 24.5844 21.0586 24.9594 21.0586C25.2444 21.0586 25.5444 21.1186 25.8744 21.2536C26.2044 21.3886 26.5494 21.5836 26.9244 21.8386L31.8894 25.3636C32.2794 25.6336 32.5494 25.9486 32.7144 26.3236C32.8644 26.6986 32.9544 27.0736 32.9544 27.4936Z" fill="white"/>
</svg>
