<svg width="28" height="28" viewBox="0 0 28 28" fill="none" xmlns="http://www.w3.org/2000/svg">
<path d="M20.5568 12.5435C20.0552 12.5435 19.6585 12.1352 19.6585 11.6452C19.6585 11.2135 19.2268 10.3152 18.5035 9.53349C17.7918 8.77516 17.0102 8.33182 16.3568 8.33182C15.8552 8.33182 15.4585 7.92349 15.4585 7.43349C15.4585 6.94349 15.8668 6.53516 16.3568 6.53516C17.5235 6.53516 18.7485 7.16516 19.8218 8.29682C20.8252 9.35849 21.4668 10.6768 21.4668 11.6335C21.4668 12.1352 21.0585 12.5435 20.5568 12.5435Z" fill="#0C0D0F"/>
<path d="M24.7681 12.5416C24.2664 12.5416 23.8697 12.1333 23.8697 11.6433C23.8697 7.50158 20.4981 4.14158 16.3681 4.14158C15.8664 4.14158 15.4697 3.73325 15.4697 3.24325C15.4697 2.75325 15.8664 2.33325 16.3564 2.33325C21.4897 2.33325 25.6664 6.50992 25.6664 11.6433C25.6664 12.1333 25.2581 12.5416 24.7681 12.5416Z" fill="#0C0D0F"/>
<path opacity="0.4" d="M13.7552 16.5783L9.94016 20.3933C9.52016 20.0199 9.11183 19.6349 8.71516 19.2383C7.5135 18.0249 6.4285 16.7533 5.46016 15.4233C4.5035 14.0933 3.7335 12.7633 3.1735 11.4449C2.6135 10.1149 2.3335 8.84325 2.3335 7.62992C2.3335 6.83659 2.4735 6.07825 2.7535 5.37825C3.0335 4.66659 3.47683 4.01325 4.09516 3.42992C4.84183 2.69492 5.6585 2.33325 6.52183 2.33325C6.8485 2.33325 7.17516 2.40325 7.46683 2.54325C7.77016 2.68325 8.0385 2.89325 8.2485 3.19659L10.9552 7.01159C11.1652 7.30325 11.3168 7.57159 11.4218 7.82825C11.5268 8.07325 11.5852 8.31825 11.5852 8.53992C11.5852 8.81992 11.5035 9.09992 11.3402 9.36825C11.1885 9.63659 10.9668 9.91659 10.6868 10.1966L9.80016 11.1183C9.67183 11.2466 9.6135 11.3983 9.6135 11.5849C9.6135 11.6783 9.62516 11.7599 9.6485 11.8533C9.6835 11.9466 9.7185 12.0166 9.74183 12.0866C9.95183 12.4716 10.3135 12.9733 10.8268 13.5799C11.3518 14.1866 11.9118 14.8049 12.5185 15.4233C12.9385 15.8316 13.3468 16.2283 13.7552 16.5783Z" fill="#0C0D0F"/>
<path d="M25.6314 21.3839C25.6314 21.7106 25.573 22.0489 25.4564 22.3756C25.4214 22.4689 25.3864 22.5622 25.3397 22.6556C25.1414 23.0756 24.8847 23.4722 24.5464 23.8456C23.9747 24.4756 23.3447 24.9306 22.633 25.2222C22.6214 25.2222 22.6097 25.2339 22.598 25.2339C21.9097 25.5139 21.163 25.6656 20.358 25.6656C19.168 25.6656 17.8964 25.3856 16.5547 24.8139C15.213 24.2422 13.8714 23.4722 12.5414 22.5039C12.0864 22.1656 11.6314 21.8272 11.1997 21.4656L15.0147 17.6506C15.3414 17.8956 15.633 18.0822 15.878 18.2106C15.9364 18.2339 16.0064 18.2689 16.088 18.3039C16.1814 18.3389 16.2747 18.3506 16.3797 18.3506C16.578 18.3506 16.7297 18.2806 16.858 18.1522L17.7447 17.2772C18.0364 16.9856 18.3164 16.7639 18.5847 16.6239C18.853 16.4606 19.1214 16.3789 19.413 16.3789C19.6347 16.3789 19.868 16.4256 20.1247 16.5306C20.3814 16.6356 20.6497 16.7872 20.9414 16.9856L24.803 19.7272C25.1064 19.9372 25.3164 20.1822 25.4447 20.4739C25.5614 20.7656 25.6314 21.0572 25.6314 21.3839Z" fill="#0C0D0F"/>
</svg>
