<svg width="36" height="36" viewBox="0 0 36 36" fill="none" xmlns="http://www.w3.org/2000/svg">
<path d="M28.5 22.5C25.185 22.5 22.5 25.185 22.5 28.5C22.5 29.625 22.815 30.69 23.37 31.59C24.405 33.33 26.31 34.5 28.5 34.5C30.69 34.5 32.595 33.33 33.63 31.59C34.185 30.69 34.5 29.625 34.5 28.5C34.5 25.185 31.815 22.5 28.5 22.5ZM31.605 27.855L28.41 30.81C28.2 31.005 27.915 31.11 27.645 31.11C27.36 31.11 27.075 31.005 26.85 30.78L25.365 29.295C24.93 28.86 24.93 28.14 25.365 27.705C25.8 27.27 26.52 27.27 26.955 27.705L27.675 28.425L30.075 26.205C30.525 25.785 31.245 25.815 31.665 26.265C32.085 26.715 32.055 27.42 31.605 27.855Z" fill="#FFBB00"/>
<path d="M33 11.3077V13.4977H3V11.3077C3 7.87266 5.79003 5.09766 9.22503 5.09766H26.775C30.21 5.09766 33 7.87266 33 11.3077Z" fill="#FFBB00"/>
<path opacity="0.4" d="M3 13.5V24.69C3 28.125 5.77501 30.9 9.21001 30.9H18.6C19.47 30.9 20.22 30.165 20.145 29.295C19.935 27 20.67 24.51 22.71 22.53C23.55 21.705 24.585 21.075 25.71 20.715C27.585 20.115 29.4 20.19 31.005 20.73C31.98 21.06 33 20.355 33 19.32V13.5H3ZM12 25.875H9C8.385 25.875 7.875 25.365 7.875 24.75C7.875 24.135 8.385 23.625 9 23.625H12C12.615 23.625 13.125 24.135 13.125 24.75C13.125 25.365 12.615 25.875 12 25.875Z" fill="#FFBB00"/>
<path d="M13.125 24.75C13.125 25.365 12.615 25.875 12 25.875H9C8.385 25.875 7.875 25.365 7.875 24.75C7.875 24.135 8.385 23.625 9 23.625H12C12.615 23.625 13.125 24.135 13.125 24.75Z" fill="#FFBB00"/>
</svg>
