<svg width="28" height="28" viewBox="0 0 28 28" fill="none" xmlns="http://www.w3.org/2000/svg">
<path opacity="0.4" d="M14.0002 25.6666C20.4434 25.6666 25.6668 20.4432 25.6668 13.9999C25.6668 7.55659 20.4434 2.33325 14.0002 2.33325C7.55684 2.33325 2.3335 7.55659 2.3335 13.9999C2.3335 20.4432 7.55684 25.6666 14.0002 25.6666Z" fill="#0C0D0F"/>
<path d="M18.3289 18.587C18.1772 18.587 18.0256 18.552 17.8856 18.4586L14.2689 16.3003C13.3706 15.7636 12.7056 14.5853 12.7056 13.547V8.76367C12.7056 8.28534 13.1022 7.88867 13.5806 7.88867C14.0589 7.88867 14.4556 8.28534 14.4556 8.76367V13.547C14.4556 13.967 14.8056 14.5853 15.1672 14.7953L18.7839 16.9536C19.2039 17.1986 19.3322 17.7353 19.0872 18.1553C18.9122 18.4353 18.6206 18.587 18.3289 18.587Z" fill="#0C0D0F"/>
</svg>
