<svg width="30" height="30" viewBox="0 0 30 30" fill="none" xmlns="http://www.w3.org/2000/svg">
<path d="M27.2006 19.9L19.2006 5.5C18.1256 3.5625 16.6381 2.5 15.0006 2.5C13.3631 2.5 11.8756 3.5625 10.8006 5.5L2.80058 19.9C1.78808 21.7375 1.67558 23.5 2.48808 24.8875C3.30058 26.275 4.90058 27.0375 7.00058 27.0375H23.0006C25.1006 27.0375 26.7006 26.275 27.5131 24.8875C28.3256 23.5 28.2131 21.725 27.2006 19.9ZM14.0631 11.25C14.0631 10.7375 14.4881 10.3125 15.0006 10.3125C15.5131 10.3125 15.9381 10.7375 15.9381 11.25V17.5C15.9381 18.0125 15.5131 18.4375 15.0006 18.4375C14.4881 18.4375 14.0631 18.0125 14.0631 17.5V11.25ZM15.8881 22.1375C15.8256 22.1875 15.7631 22.2375 15.7006 22.2875C15.6256 22.3375 15.5506 22.375 15.4756 22.4C15.4006 22.4375 15.3256 22.4625 15.2381 22.475C15.1631 22.4875 15.0756 22.5 15.0006 22.5C14.9256 22.5 14.8381 22.4875 14.7506 22.475C14.6756 22.4625 14.6006 22.4375 14.5256 22.4C14.4506 22.375 14.3756 22.3375 14.3006 22.2875C14.2381 22.2375 14.1756 22.1875 14.1131 22.1375C13.8881 21.9 13.7506 21.575 13.7506 21.25C13.7506 20.925 13.8881 20.6 14.1131 20.3625C14.1756 20.3125 14.2381 20.2625 14.3006 20.2125C14.3756 20.1625 14.4506 20.125 14.5256 20.1C14.6006 20.0625 14.6756 20.0375 14.7506 20.025C14.9131 19.9875 15.0881 19.9875 15.2381 20.025C15.3256 20.0375 15.4006 20.0625 15.4756 20.1C15.5506 20.125 15.6256 20.1625 15.7006 20.2125C15.7631 20.2625 15.8256 20.3125 15.8881 20.3625C16.1131 20.6 16.2506 20.925 16.2506 21.25C16.2506 21.575 16.1131 21.9 15.8881 22.1375Z" fill="#FFBB00"/>
</svg>
