<svg width="32" height="33" viewBox="0 0 32 33" fill="none" xmlns="http://www.w3.org/2000/svg">
<path d="M21.3333 3.55273H10.6667C6 3.55273 4 6.2194 4 10.2194V23.5527C4 27.5527 6 30.2194 10.6667 30.2194H21.3333C26 30.2194 28 27.5527 28 23.5527V10.2194C28 6.2194 26 3.55273 21.3333 3.55273ZM10.6667 17.2194H16C16.5467 17.2194 17 17.6727 17 18.2194C17 18.7661 16.5467 19.2194 16 19.2194H10.6667C10.12 19.2194 9.66667 18.7661 9.66667 18.2194C9.66667 17.6727 10.12 17.2194 10.6667 17.2194ZM21.3333 24.5527H10.6667C10.12 24.5527 9.66667 24.0994 9.66667 23.5527C9.66667 23.0061 10.12 22.5527 10.6667 22.5527H21.3333C21.88 22.5527 22.3333 23.0061 22.3333 23.5527C22.3333 24.0994 21.88 24.5527 21.3333 24.5527ZM24.6667 13.2194H22C19.9733 13.2194 18.3333 11.5794 18.3333 9.55273V6.88607C18.3333 6.3394 18.7867 5.88607 19.3333 5.88607C19.88 5.88607 20.3333 6.3394 20.3333 6.88607V9.55273C20.3333 10.4727 21.08 11.2194 22 11.2194H24.6667C25.2133 11.2194 25.6667 11.6727 25.6667 12.2194C25.6667 12.7661 25.2133 13.2194 24.6667 13.2194Z" fill="#0C0D0F"/>
</svg>
