<svg width="40" height="40" viewBox="0 0 40 40" fill="none" xmlns="http://www.w3.org/2000/svg">
<path opacity="0.4" d="M30.0665 22.5833C29.3665 23.2667 28.9665 24.25 29.0665 25.3C29.2165 27.1 30.8665 28.4167 32.6665 28.4167H35.8332V30.4C35.8332 33.85 33.0165 36.6667 29.5665 36.6667H10.4332C6.98317 36.6667 4.1665 33.85 4.1665 30.4V19.1833C4.1665 15.7333 6.98317 12.9167 10.4332 12.9167H29.5665C33.0165 12.9167 35.8332 15.7333 35.8332 19.1833V21.5833H32.4665C31.5332 21.5833 30.6832 21.95 30.0665 22.5833Z" fill="#0C0D0F"/>
<path d="M24.7498 6.58598V12.9193H10.4332C6.98317 12.9193 4.1665 15.736 4.1665 19.186V13.0693C4.1665 11.086 5.38317 9.31926 7.23317 8.61926L20.4665 3.61926C22.5332 2.8526 24.7498 4.36931 24.7498 6.58598Z" fill="#0C0D0F"/>
<path d="M37.5979 23.282V26.7153C37.5979 27.632 36.8645 28.382 35.9312 28.4153H32.6645C30.8645 28.4153 29.2145 27.0987 29.0645 25.2987C28.9645 24.2487 29.3645 23.2653 30.0645 22.582C30.6812 21.9487 31.5312 21.582 32.4645 21.582H35.9312C36.8645 21.6153 37.5979 22.3653 37.5979 23.282Z" fill="#0C0D0F"/>
<path d="M23.3332 21.25H11.6665C10.9832 21.25 10.4165 20.6833 10.4165 20C10.4165 19.3167 10.9832 18.75 11.6665 18.75H23.3332C24.0165 18.75 24.5832 19.3167 24.5832 20C24.5832 20.6833 24.0165 21.25 23.3332 21.25Z" fill="#0C0D0F"/>
</svg>
