<svg width="25" height="25" viewBox="0 0 25 25" fill="none" xmlns="http://www.w3.org/2000/svg">
<path opacity="0.4" d="M21.457 4.27242V6.56409C21.457 7.39742 20.9362 8.43909 20.4154 8.95992L15.9362 12.9183C15.3112 13.4391 14.8945 14.4808 14.8945 15.3141V19.7933C14.8945 20.4183 14.4779 21.2516 13.957 21.5641L12.4987 22.5016C11.1445 23.335 9.26953 22.3975 9.26953 20.7308V15.21C9.26953 14.4808 8.85286 13.5433 8.4362 13.0225L7.39453 11.9287L13.457 2.18909H19.3737C20.5195 2.18909 21.457 3.12659 21.457 4.27242Z" fill="#FFBB00"/>
<path d="M11.7721 2.18909L6.3763 10.8454L4.48047 8.85575C3.95964 8.33492 3.54297 7.39742 3.54297 6.77242V4.37659C3.54297 3.12659 4.48047 2.18909 5.6263 2.18909H11.7721Z" fill="#FFBB00"/>
</svg>
