<svg width="69" height="41" viewBox="0 0 69 41" fill="none" xmlns="http://www.w3.org/2000/svg">
<g clip-path="url(#clip0_1381_2000)">
<path fill-rule="evenodd" clip-rule="evenodd" d="M31.6082 0.01336C31.3935 0.0267789 30.9373 0.0804543 30.6018 0.120711C30.2663 0.160967 29.8772 0.214643 29.7363 0.228062C28.4548 0.389088 27.3813 0.831909 26.6835 1.50956C25.5563 2.6032 24.5164 5.19974 23.785 8.72219C23.6307 9.46023 23.6039 9.78228 23.6307 10.2385C23.671 10.9698 23.7112 11.0369 24.0266 11.151C24.3822 11.2718 28.2133 11.2718 31.9705 11.151C33.5003 11.1107 35.2514 11.0504 35.862 11.0302C36.4726 11.0101 38.2103 10.9967 39.7199 10.99C42.4976 10.9833 43.1551 10.9363 43.343 10.7551C43.504 10.5941 43.5309 9.99698 43.4034 9.43339C43.2357 8.68864 42.1756 5.54863 41.7596 4.54893C41.3973 3.69012 41.0752 3.05944 40.9679 3.01247C40.941 2.99905 40.9075 2.93196 40.9075 2.85816C40.9075 2.79106 40.7397 2.47572 40.5318 2.16708C39.371 0.395797 38.3646 0.0469071 34.1645 0.01336C32.9769 -5.88123e-05 31.8229 -5.88123e-05 31.6082 0.01336ZM36.9154 1.08687C38.4921 1.31499 38.955 1.59678 39.7199 2.7508C40.3305 3.68341 40.9276 5.00517 41.2362 6.0921C41.2899 6.27325 41.4174 6.64227 41.518 6.92406C41.6791 7.32663 42.0414 8.46723 42.4037 9.64809C42.4372 9.76886 42.2494 9.76886 38.5592 9.74202C33.829 9.70848 32.0779 9.76886 26.4218 10.205C25.9656 10.2385 25.3752 10.2922 25.1068 10.319L24.6237 10.3727L24.6573 9.84266C24.6774 9.55416 24.7109 9.29249 24.7311 9.26565C24.7445 9.23882 24.8116 8.95031 24.872 8.62155C25.033 7.76274 25.5697 6.01829 26.0595 4.75692C26.5091 3.62303 27.0391 2.63674 27.4417 2.22076C28.2133 1.41563 29.4277 1.12041 32.5744 0.979517C34.2584 0.905713 35.9626 0.952679 36.9087 1.08687H36.9154Z" fill="black"/>
<path fill-rule="evenodd" clip-rule="evenodd" d="M33.9767 1.58332C33.9767 1.58332 33.5741 1.637 33.1179 1.66384C32.2121 1.71751 31.9639 1.80473 31.9639 2.09324C31.9639 2.34149 32.1316 2.40187 32.9904 2.51593C33.6278 2.60315 35.8352 2.73063 36.5598 2.73063C36.8483 2.72392 37.0832 2.52264 37.0832 2.27439C37.0832 2.05298 37.0228 1.95905 36.8215 1.8517C36.6672 1.77119 36.5464 1.74435 35.7815 1.61687C35.3924 1.54977 34.0304 1.52294 33.97 1.58332H33.9767Z" fill="black"/>
<path fill-rule="evenodd" clip-rule="evenodd" d="M38.0156 2.58976C37.9485 2.71724 37.9619 2.81788 38.0558 3.01916C38.2168 3.34792 38.3779 3.44186 38.6395 3.34792C38.814 3.28083 38.8274 3.24728 38.7939 3.01245C38.7066 2.50254 38.1833 2.21403 38.0156 2.58976Z" fill="black"/>
<path fill-rule="evenodd" clip-rule="evenodd" d="M20.35 15.2102C17.6126 15.5121 15.9956 16.0153 15.1703 16.8473C14.9825 17.0351 14.7074 17.3706 14.5665 17.592C14.1908 18.1556 13.7211 19.1352 13.7681 19.256C13.7882 19.3163 13.7614 19.3566 13.701 19.3566C13.6406 19.3566 13.5936 19.3834 13.5936 19.4237C13.5936 19.4639 13.4661 19.7592 13.3118 20.0946C12.916 20.9333 12.4396 22.0404 12.4396 22.1209C12.4396 22.2148 11.8961 23.4963 11.6881 23.8989C11.3661 24.5094 10.9971 25.5427 10.9971 25.8111C10.9971 26.0325 11.0507 26.1264 11.3057 26.3612C11.4801 26.5223 11.715 26.6632 11.8626 26.69C12.0974 26.7303 14.8416 26.6766 15.6802 26.6028C15.8949 26.5894 16.7403 26.5357 17.5522 26.4954C18.364 26.4552 19.1624 26.4015 19.3168 26.3881C19.4778 26.3747 20.1219 26.3478 20.7593 26.3143C21.3967 26.2941 22.081 26.2539 22.2756 26.2405C22.4769 26.227 23.2082 26.1868 23.8993 26.1667C24.5904 26.1398 25.2613 26.1063 25.3754 26.0929C25.4961 26.0794 26.1469 26.0593 26.8179 26.0526C28.3678 26.0325 31.0918 25.8245 31.2998 25.7171C31.6151 25.5427 31.6084 25.3146 31.2595 23.8653C30.8435 22.1477 30.2061 20.363 29.5218 18.9473C28.7972 17.4377 28.3543 16.7399 27.7908 16.1965C27.2003 15.6194 26.5965 15.3578 25.4357 15.19C24.7447 15.0827 21.4034 15.1028 20.3567 15.2169L20.35 15.2102ZM25.7175 16.2904C26.5495 16.4648 27.1467 16.9077 27.5559 17.6591C27.623 17.7732 27.7639 18.0214 27.8713 18.2026C28.2738 18.8668 28.9179 20.4704 29.3272 21.8055C29.3943 22.0202 29.6291 22.7516 29.8438 23.4158C30.0652 24.0867 30.2263 24.6503 30.2061 24.6705C30.186 24.6906 29.5419 24.7443 28.777 24.7711C28.0122 24.7979 27.2406 24.8516 27.0594 24.8717C26.6099 24.9321 24.3287 25.0328 22.3024 25.0797C18.525 25.1804 14.4256 25.4152 12.4866 25.6635L12.0706 25.7171L12.1846 25.442C12.2517 25.281 12.4799 24.7979 12.6946 24.3685C12.9093 23.9257 13.2514 23.1676 13.4393 22.6576C14.2243 20.6113 15.3783 18.2361 15.8547 17.7128C16.8074 16.6594 18.9746 16.2166 23.2418 16.1897C24.7111 16.1897 25.3485 16.2099 25.7108 16.2904H25.7175Z" fill="black"/>
<path fill-rule="evenodd" clip-rule="evenodd" d="M22.7449 17.0151C22.6845 17.0285 22.1478 17.0821 21.5574 17.1157C20.4637 17.1962 19.8196 17.3237 19.7123 17.4981C19.6049 17.6592 19.6385 17.894 19.7794 17.9611C19.8465 17.9879 20.8126 18.0416 21.9197 18.0684C23.0267 18.0953 24.2076 18.1422 24.5296 18.1691L25.1201 18.2295L25.2006 18.0282C25.3549 17.6323 24.9859 17.3572 24.0466 17.1627C23.4897 17.0486 22.8992 16.9815 22.7516 17.0218L22.7449 17.0151Z" fill="black"/>
<path fill-rule="evenodd" clip-rule="evenodd" d="M26.3077 18.1623C26.0327 18.3636 26.2205 18.9809 26.6097 19.162C26.764 19.2359 26.8042 19.2224 26.8982 19.1017C27.1666 18.7326 26.6432 17.9074 26.3077 18.1556V18.1623Z" fill="black"/>
<path fill-rule="evenodd" clip-rule="evenodd" d="M44.7254 15.4383C42.7796 15.5323 40.4582 15.8677 39.5792 16.1965C38.8278 16.4716 38.4386 16.7332 37.8348 17.3572C37.0968 18.1221 36.5868 19.2426 35.7012 22.0605C34.9632 24.3954 34.8088 25.281 35.0235 25.791C35.0839 25.9319 35.1577 26.0593 35.2047 26.0593C35.2383 26.0593 35.3724 26.1466 35.4999 26.2472C35.6945 26.4216 35.8086 26.4418 36.6003 26.5089C37.922 26.6095 43.3097 26.5223 46.1276 26.3478C47.4964 26.2673 49.8983 26.1801 51.569 26.16C53.3805 26.1399 54.6419 26.0929 54.756 26.0459C55.1518 25.8916 55.4068 25.0798 55.1384 24.8114C55.078 24.751 55.0512 24.6906 55.0646 24.6772C55.1585 24.59 53.5013 20.8528 53.2463 20.571C53.186 20.5039 53.1591 20.4167 53.1792 20.3765C53.2463 20.2758 51.9246 17.686 51.522 17.109C50.4754 15.6329 50.0057 15.4517 47.0938 15.4316C46.0874 15.4249 45.0139 15.4316 44.712 15.4383H44.7254ZM49.1603 16.4112C49.6769 16.5051 49.952 16.6661 50.2607 17.0352C50.5223 17.3572 50.9584 18.1355 51.1798 18.6723C51.8239 20.1953 52.5351 21.7787 52.5821 21.7921C52.6089 21.8056 52.6224 21.8592 52.6022 21.9062C52.5821 21.9599 52.9109 22.6711 53.3269 23.4963C53.7428 24.3283 54.085 25.0127 54.085 25.0261C54.085 25.0395 53.1994 25.0462 52.1259 25.0462C51.0524 25.0462 49.4824 25.0999 48.6437 25.1536C46.1545 25.3347 44.6784 25.4018 41.8336 25.4421C40.3508 25.4622 38.9754 25.5025 38.7674 25.5159C38.5728 25.536 37.9354 25.5695 37.3651 25.5897C36.7948 25.6098 36.238 25.6568 36.144 25.6769C35.983 25.7104 35.9763 25.697 36.0233 25.5494C36.0836 25.328 36.2782 24.2545 36.2715 24.1941C36.2514 24.1136 36.3721 23.6507 36.8015 22.1679C37.9287 18.2965 38.3984 17.5451 40.1026 16.9815C40.7198 16.7802 41.4243 16.6661 43.5646 16.4313C45.0541 16.2703 48.3149 16.2569 49.1536 16.4112H49.1603Z" fill="black"/>
<path fill-rule="evenodd" clip-rule="evenodd" d="M44.041 17.1694C43.9605 17.1828 43.8263 17.2096 43.7391 17.2365C43.3902 17.3103 43.3566 17.7933 43.6787 17.9141C43.7659 17.9477 44.1349 17.9946 44.4771 18.0147C44.8327 18.0349 45.6244 18.0953 46.235 18.1288C47.4024 18.2093 47.9392 18.2965 48.2814 18.4643C48.6638 18.6589 49.0328 18.4106 48.9322 18.0147C48.7779 17.3975 47.5903 17.109 45.2621 17.1224C44.6717 17.1291 44.1148 17.1425 44.0343 17.1627L44.041 17.1694Z" fill="black"/>
<path fill-rule="evenodd" clip-rule="evenodd" d="M49.7841 18.7193C49.5895 18.9138 49.764 19.6049 50.0323 19.7257C50.4081 19.9001 50.5825 19.3634 50.3208 18.8535C50.2001 18.6186 49.9518 18.5515 49.7841 18.7193Z" fill="black"/>
<path fill-rule="evenodd" clip-rule="evenodd" d="M56.903 28.3943C55.9704 28.515 54.6688 28.8773 53.9911 29.1927C53.3805 29.4879 52.7163 30.0045 52.354 30.4876C52.0521 30.8902 51.361 32.1985 50.9651 33.1177C50.5022 34.1845 49.63 36.2644 48.8718 38.076C48.3418 39.3642 48.3552 39.5453 48.9993 39.8405C49.3616 40.0083 49.4958 40.0217 51.0054 40.062C51.891 40.0888 52.7364 40.1291 52.8706 40.1425C53.4007 40.2029 58.0235 40.2096 61.1232 40.1492C62.9079 40.1223 65.0281 40.0821 65.8399 40.0754L67.3093 40.0552L67.4972 39.8271C67.5978 39.7064 67.7186 39.6057 67.7655 39.6057C67.7991 39.6057 67.9601 39.4984 68.101 39.3575C68.3694 39.1092 68.3962 39.0086 68.3761 38.4852C68.3493 37.9753 67.8192 36.2778 67.2154 34.7749C66.8665 33.9027 65.6319 31.4001 65.1422 30.5681C64.5517 29.5818 63.5923 28.6626 62.9348 28.4681C62.445 28.3138 57.9161 28.2601 56.903 28.3876V28.3943ZM60.4053 29.347C60.7206 29.3671 60.9957 29.4007 61.0159 29.4141C61.036 29.4275 61.2977 29.4544 61.5929 29.4812C62.8207 29.5885 63.0287 29.6691 63.5789 30.2528C64.4846 31.2189 65.6118 33.641 66.8464 37.2977C67.0946 38.029 67.2892 38.653 67.269 38.6932C67.2489 38.7469 67.0476 38.8274 66.8061 38.8945C66.4706 38.9884 66.2761 39.0019 65.8399 38.9549C65.377 38.9012 63.3172 38.9348 62.3443 39.0086C62.1833 39.022 60.2242 39.0623 57.9832 39.0824C55.7423 39.1092 52.9511 39.1562 51.7837 39.1897C50.6163 39.2166 49.6434 39.23 49.6367 39.2233C49.5696 39.1629 51.8038 33.9027 52.4882 32.4736C53.3738 30.6285 54.0984 30.0045 55.8228 29.5617C56.9969 29.2598 58.3053 29.1994 60.3919 29.3537L60.4053 29.347Z" fill="black"/>
<path fill-rule="evenodd" clip-rule="evenodd" d="M57.4126 30.2326C57.2851 30.2661 57.2314 30.3332 57.2314 30.4473C57.2314 30.5815 57.2918 30.6419 57.5065 30.7157C57.8219 30.8297 59.6066 31.1384 60.3312 31.2189C60.6063 31.2457 60.935 31.3128 61.0759 31.3732C61.3913 31.5007 61.6932 31.3732 61.7268 31.0914C61.7603 30.7626 61.4315 30.4741 60.8411 30.34C60.2976 30.2192 57.7481 30.1387 57.4193 30.2326H57.4126Z" fill="black"/>
<path fill-rule="evenodd" clip-rule="evenodd" d="M62.7669 31.3732C62.579 31.447 62.579 31.863 62.7669 32.2387C62.9883 32.6681 63.2701 32.8359 63.4714 32.648C63.6525 32.487 63.6458 32.1783 63.4646 31.8295C63.2634 31.4336 63.0084 31.2726 62.7669 31.3732Z" fill="black"/>
<path fill-rule="evenodd" clip-rule="evenodd" d="M8.46074 28.6894C5.99167 29.092 5.05907 29.6421 3.91175 31.353C3.40184 32.1179 2.42897 33.9764 1.91235 35.1707C1.7379 35.5666 1.51649 36.0698 1.42256 36.2912C1.32192 36.5059 1.16089 36.8816 1.07367 37.1231C0.979736 37.358 0.724778 37.9283 0.510077 38.3845C0.00687005 39.4379 -0.0803524 39.7532 0.0337077 40.0954C0.141059 40.4309 0.483239 40.5785 1.50307 40.6993C2.59 40.8335 19.7527 40.8267 20.1888 40.6926C20.5444 40.5785 20.786 40.3571 20.786 40.1357C20.786 40.0417 20.8128 39.9679 20.853 39.9679C20.9604 39.9679 21.0745 39.5452 21.0745 39.1628C21.0745 38.9011 21.0543 38.8273 20.9872 38.8609C20.9134 38.8944 20.9134 38.8877 20.9738 38.8273C21.1751 38.6126 20.5645 37.0896 19.1019 34.1509C17.9344 31.8093 16.0759 29.3268 15.15 28.884C14.7475 28.6894 14.5596 28.676 11.594 28.629C9.61477 28.6022 8.93711 28.6156 8.45403 28.6961L8.46074 28.6894ZM14.1839 29.6556C14.7676 29.7495 15.0226 29.8703 15.3714 30.2259C15.7069 30.5613 16.2571 31.2859 16.4919 31.6885C16.5859 31.863 16.7737 32.185 16.9012 32.3997C17.2031 32.9029 18.1022 34.6675 18.3706 35.2848C18.4846 35.5464 18.6524 35.9289 18.7463 36.1369C18.8402 36.3449 18.9207 36.526 18.9207 36.5394C18.9207 36.5528 19.0348 36.8145 19.1757 37.1164C19.3166 37.4184 19.4307 37.6934 19.4441 37.7203C19.4508 37.7471 19.5984 38.0759 19.7594 38.4315C19.9339 38.8005 20.0748 39.1829 20.0882 39.2836C20.1083 39.4647 20.1016 39.4647 19.4642 39.4916C19.1086 39.505 17.552 39.5452 16.0021 39.5654C11.4666 39.6392 9.98378 39.6861 9.98378 39.7667C9.98378 39.8069 9.93011 39.8002 9.87643 39.7532C9.78921 39.6794 9.35981 39.666 7.91057 39.6996C3.75073 39.8069 1.40914 39.8405 1.40914 39.7935C1.40914 39.7734 1.67081 39.2299 1.97944 38.6059C2.29478 37.982 2.6638 37.1768 2.81141 36.8279C3.10662 36.0563 3.88492 34.2113 4.07949 33.8087C5.09261 31.655 5.32073 31.2323 5.69646 30.8364C5.91116 30.6016 6.24663 30.3265 6.44121 30.2192C6.93099 29.9508 7.89044 29.7629 9.19878 29.6623C9.80934 29.622 10.3931 29.5683 10.4937 29.5616C10.8761 29.508 13.7276 29.5818 14.1906 29.6556H14.1839Z" fill="black"/>
<path fill-rule="evenodd" clip-rule="evenodd" d="M11.1712 30.3198C10.4063 30.454 9.8293 30.5748 9.57434 30.6352C9.40661 30.6687 9.34622 30.9103 9.4737 30.9908C9.50054 31.0109 10.2855 31.0646 11.2047 31.0981C12.7882 31.1719 12.8955 31.1786 13.3182 31.3732L13.761 31.5678L13.8885 31.4001C13.969 31.3061 14.0227 31.1854 14.0227 31.125C14.0227 30.9036 13.7275 30.6151 13.3249 30.4406C12.7412 30.1789 12.077 30.1454 11.1779 30.3198H11.1712Z" fill="black"/>
<path fill-rule="evenodd" clip-rule="evenodd" d="M14.7406 31.4269C14.6198 31.5812 14.7003 31.816 14.9754 32.1313C15.4048 32.5943 15.8476 32.4333 15.5658 31.9166C15.2706 31.3732 14.9418 31.1786 14.7339 31.4269H14.7406Z" fill="black"/>
<path fill-rule="evenodd" clip-rule="evenodd" d="M32.6148 28.9444C29.0655 29.4208 28.8642 29.5818 27.3882 33.0909C27.2338 33.4465 26.9587 34.1174 26.7642 34.5669C25.174 38.2504 24.9459 38.8274 24.8587 39.3776C24.7983 39.7869 24.9325 39.9814 25.429 40.223L25.8114 40.4108L30.2732 40.337C32.7289 40.3035 35.8957 40.2364 37.298 40.1961C38.7002 40.1559 40.8003 40.0955 41.9543 40.062C44.2892 39.9881 44.3898 39.9747 44.5978 39.5319C44.6649 39.391 44.7521 39.2635 44.7857 39.2635C44.8192 39.2635 44.9534 39.1696 45.0742 39.0555C45.4499 38.6999 45.3828 38.2974 44.571 35.8417C44.1885 34.681 43.2694 32.7218 42.4508 31.3397C41.7732 30.1924 40.807 29.4074 39.8207 29.186C38.9418 28.9914 33.6346 28.8304 32.6148 28.9646V28.9444ZM37.412 29.9978C39.8073 30.1588 40.3172 30.3065 41.0284 31.0512C41.6188 31.655 41.9677 32.2522 42.8131 34.1778C43.3365 35.3519 44.2154 37.9485 44.2154 38.3175C44.2154 38.4249 44.108 38.5121 43.8061 38.6463C43.3566 38.8475 43.2425 38.861 41.4444 38.8945C40.854 38.9012 39.6329 38.9348 38.7405 38.975C37.8481 39.0086 34.6343 39.0555 31.595 39.0623L26.0731 39.0757L26.1939 38.7872C26.2677 38.6261 26.5025 38.076 26.7373 37.5593C26.9655 37.0427 27.3613 36.1168 27.623 35.5063C27.8779 34.8957 28.2067 34.0906 28.361 33.7417C28.8307 32.6212 29.0588 32.1314 29.4412 31.5141C30.0317 30.5346 30.2397 30.4071 31.7828 30.0917C33.2119 29.81 34.2854 29.7898 37.4053 29.9978H37.412Z" fill="black"/>
<path fill-rule="evenodd" clip-rule="evenodd" d="M34.6476 30.8029C34.4597 30.9908 34.5268 31.2457 34.7885 31.3732C34.9763 31.4672 36.8147 31.7624 37.0965 31.7422C37.3515 31.7288 38.4988 31.9637 38.9685 32.1314C39.3643 32.2589 39.3979 32.2656 39.5656 32.1582C39.8273 31.9905 39.787 31.7758 39.4582 31.4604C38.9685 30.9908 37.9151 30.7627 36.0364 30.6956C34.8422 30.6553 34.7885 30.662 34.6476 30.8029Z" fill="black"/>
<path fill-rule="evenodd" clip-rule="evenodd" d="M40.4713 32.5809C40.3506 32.7352 40.4378 32.8828 40.8068 33.225C41.1557 33.5336 41.4241 33.5538 41.4643 33.2854C41.4844 33.1579 41.3972 33.0304 41.149 32.7956C40.78 32.4601 40.6189 32.4065 40.4713 32.5876V32.5809Z" fill="black"/>
</g>
<defs>
<clipPath id="clip0_1381_2000">
<rect width="68.3824" height="40.8" fill="black"/>
</clipPath>
</defs>
</svg>
