<svg width="112" height="29" viewBox="0 0 112 29" fill="none" xmlns="http://www.w3.org/2000/svg">
<path fill-rule="evenodd" clip-rule="evenodd" d="M77.2866 26.4953C77.2886 26.9293 77.1486 27.3123 76.8669 27.6441C76.5382 28.0313 75.9655 28.2251 75.1487 28.2251H72.5401L72.5105 21.9836H74.8275C75.2302 21.9836 75.5786 22.0337 75.8721 22.1341C76.1656 22.2346 76.3864 22.3708 76.5346 22.5427C76.8027 22.8659 76.9378 23.2298 76.9397 23.6345C76.9421 24.1238 76.7937 24.4879 76.4948 24.7266C76.3924 24.808 76.3211 24.8591 76.2808 24.8794C76.2406 24.8998 76.1707 24.9346 76.071 24.9842C76.4407 25.0658 76.7355 25.2397 76.9548 25.5062C77.174 25.7724 77.2847 26.1025 77.2866 26.4953ZM75.3212 23.2938C75.154 23.2066 74.8748 23.1629 74.483 23.1629H73.8455L73.8542 25.0279L75.3141 24.434C75.4888 24.3495 75.5754 24.1632 75.5739 23.8748C75.5727 23.5895 75.4883 23.3958 75.3212 23.2938ZM75.6079 25.7485L73.8608 26.3949L73.8637 27.0458H74.7763C75.1569 27.0458 75.4422 26.997 75.6319 26.8993C75.8219 26.8019 75.916 26.6089 75.9148 26.3206C75.9133 26.0295 75.8112 25.8388 75.6079 25.7485ZM67.1139 26.6527L64.1626 28.2207H62.75L65.2916 21.9793H66.5793L69.1839 28.2207H67.7672L67.1139 26.6527ZM65.9505 23.8354L64.8753 26.4691L66.6501 25.5258L65.9505 23.8354ZM57.5907 24.4841C58.1569 24.6313 58.5967 24.8502 58.9106 25.1413C59.2245 25.4327 59.3829 25.8578 59.3856 26.4167C59.3883 26.9789 59.1896 27.4338 58.7898 27.7816C58.39 28.1297 57.8636 28.3036 57.2108 28.3036C56.2691 28.3036 55.4186 27.9367 54.6595 27.2029L55.4464 26.1853C56.091 26.7765 56.6856 27.072 57.23 27.072C57.4745 27.072 57.6666 27.0165 57.8063 26.9059C57.9461 26.7953 58.0157 26.6468 58.0147 26.4605C58.0138 26.2713 57.9388 26.1213 57.7896 26.0107C57.6404 25.9001 57.3476 25.7895 56.9109 25.6786C56.2155 25.5039 55.7067 25.2784 55.3846 25.0017C55.0624 24.7251 54.8999 24.2898 54.8972 23.6956C54.8943 23.1047 55.0952 22.6482 55.4991 22.3263C55.9032 22.0047 56.4095 21.8438 57.0179 21.8438C57.418 21.8438 57.8168 21.9152 58.2149 22.0578C58.6127 22.2005 58.9596 22.4029 59.2553 22.665L58.5892 23.6826C58.0705 23.272 57.5349 23.0668 56.982 23.0668C56.7598 23.0668 56.5849 23.1222 56.4578 23.2328C56.3304 23.3434 56.2671 23.4891 56.2681 23.6696C56.2688 23.853 56.3481 23.9979 56.5056 24.1042C56.663 24.2105 57.0247 24.3371 57.5907 24.4841ZM46.9947 24.5212H48.1448L46.9886 23.2371L46.9828 21.9966H51.279L51.2849 23.2371H48.6096L49.7658 24.5212H51.2909L51.2965 25.7091H48.3297L48.3357 27.0064H51.3026L51.3084 28.238H47.0122L46.9947 24.5212ZM42.3132 25.3425L39.9514 26.4038L39.9599 28.238H38.6308L38.6012 21.9966H39.9305L39.9441 24.8881L42.3062 23.8268L42.2975 21.9966H43.6266L43.6562 28.238H42.3268L42.3132 25.3425ZM28.2723 21.9922H29.6014L29.6308 28.2337H28.3016L28.2723 21.9922ZM21.4244 28.2337L19.0031 21.9879H20.4407L21.9763 25.9626L23.4785 21.9879H24.9161L22.5495 28.2337H21.4244ZM15.7316 26.6527L12.7803 28.2207H11.3677L13.9094 21.9793H15.197L17.8016 28.2207H16.3848L15.7316 26.6527ZM14.5681 23.8354L13.4929 26.4691L15.2679 25.5258L14.5681 23.8354ZM6.37404 28.2337L5.1696 26.4299H5.15293L5.02705 26.2377H4.12281L4.13217 28.2337H2.80284L2.78775 25.0322H4.22127C3.3931 23.8006 2.91193 23.0828 2.77766 22.8789L2.77344 21.9879H5.64871C6.29899 22.0403 6.75401 22.2035 7.01365 22.4771C7.42668 22.8702 7.63463 23.3754 7.63751 23.9928C7.6421 24.9565 7.26048 25.6247 6.49267 25.9974C6.99623 26.7429 7.50254 27.4885 8.0117 28.2337H6.37404ZM5.91332 23.3157C5.75457 23.2458 5.58636 23.2051 5.4085 23.1934C5.23066 23.1817 5.07363 23.1758 4.93754 23.1758L4.60844 23.1847L5.78349 24.9361C5.88055 24.9013 5.95808 24.856 6.01618 24.8006C6.1847 24.6173 6.26828 24.3668 6.26682 24.0495C6.26522 23.7116 6.14739 23.4672 5.91332 23.3157Z" fill="black"/>
<path fill-rule="evenodd" clip-rule="evenodd" d="M43.9803 12.1379C43.5034 12.5033 43.0425 12.889 42.567 13.2519C41.3759 14.1871 40.1846 15.1225 38.9935 16.0577C38.2349 16.6354 37.5112 17.2525 36.6867 17.7666C36.5052 17.8798 36.3116 17.9571 36.1101 18.0473C35.2819 18.4168 33.6017 18.7984 32.715 18.2172C31.8337 17.64 31.3515 16.3323 31.1149 15.0714C31.1096 14.7907 31.104 14.5102 31.0987 14.2295C31.0933 13.6429 31.0878 13.0563 31.0824 12.4695C31.0824 12.0522 31.1004 11.6983 30.7414 11.6533C30.5631 11.6312 30.2203 11.9864 30.0997 12.0784C29.5192 12.5221 28.9564 12.9887 28.3778 13.4304C27.2246 14.3315 26.0708 15.2331 24.9178 16.1342C24.1478 16.7208 23.4246 17.3717 22.546 17.8432C22.2118 18.0224 21.8491 18.1765 21.4577 18.3024C21.2263 18.3766 20.9787 18.3746 20.7267 18.4384C20.5179 18.491 20.0707 18.5785 19.7845 18.5233C19.6221 18.5007 19.4597 18.4781 19.2972 18.4554C18.8515 18.3395 18.4457 18.1335 18.1276 17.8772C17.9919 17.7676 17.897 17.6146 17.7946 17.4691C17.6904 17.3209 17.5716 17.1823 17.4779 17.0183C17.2036 16.5388 17.0598 15.9031 16.9418 15.2753C16.9391 14.0882 16.9364 12.9002 16.9337 11.7128C16.9309 9.53374 16.9282 7.35392 16.9256 5.1746C17.7323 4.60199 18.5392 4.02938 19.3459 3.45703C19.3432 4.25619 19.3405 5.0556 19.3378 5.85476C19.3378 6.58578 19.3378 7.3173 19.3378 8.04832C19.3324 9.38321 19.327 10.7184 19.3216 12.053C19.3215 13.1301 19.3074 13.9768 19.752 14.5868C19.9577 14.8688 20.7094 15.2906 21.214 15.0884C21.5013 14.9733 21.7125 14.7599 21.945 14.5868C22.37 14.2636 22.7952 13.9404 23.2202 13.6175C23.6588 13.2745 24.0974 12.9315 24.536 12.5887C26.0708 11.4097 27.6064 10.2304 29.1412 9.05165C29.754 8.59626 30.3452 8.10604 30.9607 7.64887C31.1676 7.49478 31.3682 7.32849 31.5778 7.17262C31.6586 7.11262 31.7343 7.01829 31.8296 6.97709C31.8296 7.52961 31.8296 8.08239 31.8296 8.63516C31.8323 8.80222 31.8352 8.96952 31.8378 9.13658C31.8405 9.51645 31.8432 9.89632 31.8459 10.2759C31.8485 11.0326 31.8512 11.7896 31.8541 12.546C31.8539 13.1044 31.8364 13.6673 31.9759 14.0767C32.1207 14.5021 32.3924 14.7879 32.7393 15.0033C33.3363 15.3737 34.7923 15.3651 35.3871 14.9949C35.6045 14.8596 35.7942 14.6862 35.9963 14.5357C36.3936 14.2397 36.7791 13.9285 37.174 13.6345C38.5772 12.5898 39.94 11.4888 41.3407 10.446C41.9404 9.99955 42.5258 9.53577 43.1194 9.08572C43.2739 8.96851 43.6768 8.76077 43.6635 8.49888C43.6502 8.23419 43.3658 8.00026 43.2006 7.87821C42.5677 7.41087 41.4169 7.3084 40.5853 7.65726C40.2547 7.79609 40.0164 8.01069 39.7486 8.21003C39.3556 8.50269 38.9699 8.80349 38.5791 9.09411C37.2311 10.1114 35.8825 11.1293 34.5342 12.1466C34.5342 11.7357 34.5342 11.3245 34.5342 10.9136C34.5315 10.0748 34.5289 9.23574 34.5262 8.39692C34.6344 8.31199 34.7428 8.22681 34.851 8.14189C35.1079 7.94559 35.3578 7.73811 35.6144 7.54665C36.3932 6.96692 37.1379 6.35541 37.9212 5.77823C38.5464 5.31775 39.0623 4.93788 39.8381 4.61343C40.5378 4.32077 41.9872 4.02481 42.8108 4.40087C43.8035 4.85423 44.3636 6.25727 44.614 7.50419C44.614 8.88155 44.614 10.2592 44.614 11.6363C44.3842 11.7626 44.1873 11.9795 43.9803 12.1379ZM8.5435 15.2583C7.89538 15.7358 7.25393 16.2242 6.60229 16.7038C6.17231 17.0204 5.71542 17.3753 5.21343 17.6052C4.92325 17.7379 4.61487 17.8221 4.27127 17.9027C4.05757 17.9527 3.82537 17.9263 3.59712 17.9708C3.38422 18.012 2.92792 17.9499 2.75245 17.9113C1.54486 17.6443 1.12037 16.8538 0.705651 15.7686C0.53357 15.318 0.355358 14.767 0.332031 14.1871C0.627096 13.9547 0.922296 13.7223 1.21736 13.4899C1.24789 13.6673 1.36736 13.8138 1.45289 13.9407C1.90924 14.6163 3.05317 14.9359 4.08445 14.6292C4.3488 14.5507 4.58768 14.4812 4.79109 14.3401C8.47548 11.648 12.1609 8.95503 15.8453 6.26286C15.848 7.49834 15.8507 8.73433 15.8534 9.9698C15.0007 10.5877 14.1477 11.2055 13.2949 11.8234C11.7196 12.9846 10.1158 14.1001 8.5435 15.2583ZM12.6289 17.4521C11.8249 18.0217 11.0207 18.5915 10.2167 19.1191C10.2167 18.5574 10.2167 17.9535 10.2167 17.3501C10.214 16.9362 10.2112 16.5225 10.2086 16.1086C11.0153 15.5362 11.8222 14.9636 12.6289 14.3912C12.6289 15.4114 12.6289 16.432 12.6289 17.4521Z" fill="#FFC600"/>
<path fill-rule="evenodd" clip-rule="evenodd" d="M74.0798 16.5835C73.2203 17.2217 72.4414 17.8942 71.3832 18.3349C71.0921 18.4561 70.7838 18.5461 70.4652 18.624C70.2731 18.6552 70.0807 18.6863 69.8886 18.7175C69.517 18.7915 68.9852 18.6957 68.7271 18.5985C67.7466 18.2296 67.3519 17.5154 66.9727 16.524C66.8209 16.1266 66.6193 15.5168 66.5991 15.0106C66.9242 14.7525 67.249 14.4947 67.5738 14.2368C67.6088 14.4331 67.7514 14.6152 67.8499 14.7553C68.2024 15.2567 69.2506 15.7075 70.1567 15.4866C70.4269 15.4207 70.6501 15.3104 70.8713 15.1891C71.054 15.0891 71.2114 14.9447 71.375 14.8234C71.677 14.5994 71.9766 14.3731 72.2767 14.1517C73.2172 13.4575 74.1487 12.7524 75.0868 12.0601C76.3645 11.1109 77.6427 10.1612 78.9204 9.21179C78.9233 10.4417 78.926 11.6721 78.9286 12.9019C77.3125 14.129 75.6959 15.3564 74.0798 16.5835ZM69.8806 14.0667C69.8806 10.2522 69.8806 6.43698 69.8806 2.62248C69.8779 2.50908 69.875 2.39568 69.8724 2.28227C69.9677 2.2421 70.0448 2.14039 70.1242 2.07835C70.2923 1.9469 70.4536 1.80857 70.6198 1.67865C70.9902 1.38878 71.3475 1.08265 71.716 0.794562C71.8487 0.690822 71.9756 0.581742 72.1061 0.479781C72.1629 0.435539 72.2332 0.401977 72.2767 0.34375C72.282 0.34375 72.2873 0.34375 72.2929 0.34375C72.2929 2.79513 72.2929 5.24727 72.2929 7.6984C72.2929 8.38695 72.2929 9.07576 72.2929 9.76456C72.2929 10.3834 72.2946 10.9136 72.1549 11.3715C71.7218 12.7885 70.9871 13.3693 69.8806 14.0667ZM65.8032 13.2251C65.4352 13.5135 65.0895 13.831 64.723 14.1178C64.3127 14.4387 63.9025 14.7411 63.4804 15.053C62.9805 15.4225 62.5106 15.842 62.0184 16.2262C61.1965 16.868 60.3962 17.6608 59.411 18.1139C59.0583 18.2761 58.6949 18.3987 58.282 18.505C58.0601 18.5446 57.8381 18.5843 57.6161 18.624C57.1634 18.715 56.5063 18.6529 56.1785 18.505C55.8804 18.3705 55.6116 18.1533 55.4231 17.9013C55.3455 17.7973 55.2455 17.7048 55.1713 17.5952C54.7148 16.9196 54.3701 15.9615 54.2374 14.9595C54.4484 14.7866 54.6597 14.6137 54.8707 14.4408C54.9467 14.3808 55.0236 14.2651 55.1226 14.2368C55.1531 14.4199 55.2783 14.5666 55.3664 14.6958C55.7511 15.261 56.7139 15.5656 57.6649 15.3676C58.0945 15.2781 58.3167 15.2547 58.6233 15.0444C58.7087 14.9859 58.8274 14.9274 58.8669 14.8234C58.9584 14.5827 58.7931 14.3996 58.7126 14.2368C58.5117 13.831 58.3587 13.3894 58.2172 12.919C58.1035 12.5409 58.1035 12.113 58.1035 11.6011C58.1061 11.3969 58.1088 11.193 58.1115 10.9889C58.1115 10.0056 58.1115 9.02185 58.1115 8.0386C58.2563 7.97707 58.3793 7.81129 58.5013 7.71543C58.8031 7.47871 59.0872 7.2191 59.3868 6.98416C60.3338 6.2417 61.2265 5.43314 62.1971 4.71407C62.7223 4.32479 63.3009 4.03467 63.9675 3.78727C64.1682 3.71303 64.3938 3.68353 64.6092 3.62582C64.6824 3.61437 64.7555 3.60319 64.8285 3.59174C65.0645 3.58768 65.304 3.58107 65.4946 3.63421C66.8694 4.01866 67.6141 5.57782 67.9232 7.09477C67.9312 8.54561 67.9394 9.99696 67.9474 11.4481C67.7041 11.6032 67.4996 11.8317 67.2733 12.0092C66.7726 12.4018 66.302 12.8341 65.8032 13.2251ZM67.2083 7.43498C66.8631 6.93789 66.294 6.8044 65.5271 6.73753C65.3484 6.74897 65.1696 6.76041 64.991 6.77159C64.6868 6.83313 64.3976 6.87686 64.1706 7.01823C63.6745 7.32691 63.2427 7.7378 62.7818 8.08946C61.8662 8.78843 60.9743 9.51792 60.0609 10.2151C59.6832 10.5035 59.3157 10.804 58.9399 11.0908C58.7837 11.2103 58.586 11.2965 58.5583 11.55C58.5387 11.7295 58.7638 12.0369 58.8426 12.1453C59.306 12.7832 60.7258 12.9828 61.6285 12.6042C61.8842 12.4972 62.0732 12.3273 62.2782 12.1707C62.5557 11.9586 62.823 11.7349 63.0986 11.5246C64.0663 10.7857 65 10 65.9657 9.26289C66.3231 8.99007 66.6695 8.70504 67.0215 8.42967C67.1457 8.33254 67.3601 8.23134 67.4196 8.07242C67.5166 7.81358 67.316 7.58982 67.2083 7.43498ZM54.2616 13.7352C52.8269 14.8206 51.3918 15.9061 49.9569 16.9916C49.0909 17.6336 48.3585 18.3285 47.1548 18.6326C46.6351 18.7638 45.9789 18.6593 45.6034 18.4879C44.734 18.0913 44.2481 17.3707 43.8735 16.4558C43.7353 16.1182 43.6288 15.765 43.5242 15.3762C43.5104 15.3243 43.4294 15.0167 43.4429 14.9935C43.6705 14.8123 43.8978 14.6307 44.1253 14.4494C44.1957 14.3955 44.266 14.3416 44.3364 14.2877C44.342 14.2877 44.3473 14.2877 44.3526 14.2877C44.4067 14.3757 44.4611 14.4637 44.5152 14.5514C44.6338 14.7266 44.8077 14.8733 44.9863 14.9849C45.5622 15.346 46.7889 15.3589 47.4716 15.0701C47.9458 14.8695 48.3175 14.4812 48.7144 14.1857C49.4957 13.604 50.2582 12.997 51.0371 12.4173C51.5517 12.0344 52.0524 11.6334 52.5642 11.2525C52.7093 11.1442 53.0251 11.01 53.0028 10.7422C52.9781 10.4488 52.6649 10.3102 52.3124 10.3766C52.1256 10.3908 51.9388 10.4051 51.752 10.4193C51.155 10.5307 50.452 10.4295 50.0382 10.2405C49.243 9.87771 48.578 8.89217 48.357 7.928C48.357 7.20258 48.357 6.4769 48.357 5.75148C48.4441 5.70241 48.5084 5.61697 48.5843 5.55595C48.7762 5.40187 48.9548 5.23202 49.1447 5.07971C49.7529 4.59152 50.3123 4.03722 50.9396 3.57471C51.4032 3.23323 51.9219 2.92963 52.4667 2.68198C52.7969 2.54315 53.1273 2.40432 53.4577 2.26549C53.4987 2.28685 53.4819 2.38347 53.4819 2.44399C53.4819 2.62248 53.4819 2.80097 53.4819 2.97947C53.4793 3.84118 53.4766 4.70289 53.4739 5.56434C53.202 5.6068 52.924 5.86692 52.7348 6.0149C52.3391 6.32459 51.9524 6.64446 51.557 6.95009C51.3692 7.09553 51.0362 7.25318 51.1672 7.62186C51.2931 7.97631 51.7404 7.81129 52.1174 7.90257C52.5698 8.0119 52.9077 8.27431 53.2221 8.53163C53.7005 8.9232 54.0886 9.69362 54.2454 10.4193C54.3079 10.7087 54.2616 11.2182 54.2616 11.55C54.2616 12.3009 54.2616 12.9909 54.2616 13.7352Z" fill="black"/>
<path fill-rule="evenodd" clip-rule="evenodd" d="M99.0836 19.4071C98.801 19.6128 98.4975 19.7444 98.1263 19.9075C96.4833 20.2113 95.5627 19.4684 95.2832 19.0596C95.0685 18.7457 94.8021 17.9515 94.8021 17.9515L94.7597 18.0085L92.8156 19.555L92.8908 20.0244C93.0174 20.8257 93.22 21.5735 93.4982 22.2677C93.776 22.9623 94.1088 23.5646 94.5302 24.0434C96.0146 25.7317 98.2857 25.1122 98.2857 25.1122C98.8002 25.0403 99.1782 24.8963 99.5811 24.7616C100.009 24.6187 100.412 24.4454 100.79 24.2419C101.168 24.0387 101.539 23.8023 101.904 23.5334C102.269 23.2646 102.679 22.9599 103.132 22.6192L109.988 17.1839V27.5657C109.988 28.1195 109.559 28.5686 109.031 28.5686H83.7695C83.2409 28.5686 82.8125 28.1195 82.8125 27.5657V26.2199L99.5981 13.5134V10.8331V8.98147V7.76674C99.4705 7.06031 99.2823 6.39645 99.0334 5.77568C98.7549 5.0807 98.4213 4.47819 97.999 3.99912C97.0786 2.9544 96.1374 2.71645 94.3172 2.95394V2.97275C93.8012 3.04489 93.3393 3.14693 92.9352 3.28189C92.5061 3.42497 92.1017 3.59845 91.723 3.80227C91.3441 4.00573 90.9719 4.24228 90.6056 4.51139C90.2396 4.78048 89.8291 5.0855 89.3747 5.42652L85.1624 8.70696L85.1654 14.8982L93.4325 8.63953C93.5754 8.53587 94.7561 7.79921 96.3304 8.29487C96.7982 8.44169 97.1395 8.67228 97.3544 8.98627C97.3731 9.01384 97.3906 9.04239 97.408 9.07079C94.2393 11.4584 87.7247 16.3324 82.8125 20.0045V1.09262C82.8125 0.538811 83.2409 0.0898438 83.7695 0.0898438H109.031C109.559 0.0898438 109.988 0.538811 109.988 1.09262V10.964L99.0836 19.4071Z" fill="#FFC600"/>
<path fill-rule="evenodd" clip-rule="evenodd" d="M111.356 15.572L103.094 22.1538C102.64 22.4944 102.231 22.7992 101.866 23.068C101.501 23.3368 101.13 23.5732 100.752 23.7764C100.374 23.98 99.971 24.1532 99.5429 24.2961C99.1399 24.4309 98.762 24.5748 98.2474 24.6467C98.2474 24.6467 95.9763 25.2661 94.492 23.578C94.0706 23.0991 93.7377 22.4969 93.46 21.8023C93.182 21.108 92.9794 20.3603 92.8525 19.5589L92.7773 19.0896L94.7214 17.5431L94.7641 17.4861C94.7641 17.4861 95.0303 18.2803 95.2449 18.5941C95.5244 19.0029 96.445 19.7459 98.0883 19.4421C98.4592 19.2789 98.7627 19.1473 99.0456 18.9417L111.356 9.37891V15.572Z" fill="black"/>
</svg>
