<svg width="20" height="20" viewBox="0 0 20 20" fill="none" xmlns="http://www.w3.org/2000/svg">
<path d="M10.0001 13.3334C11.841 13.3334 13.3334 11.841 13.3334 10.0001C13.3334 8.15913 11.841 6.66675 10.0001 6.66675C8.15913 6.66675 6.66675 8.15913 6.66675 10.0001C6.66675 11.841 8.15913 13.3334 10.0001 13.3334Z" stroke="#0C0D0F" stroke-width="1.2" stroke-linecap="round" stroke-linejoin="round"/>
<path d="M2.5 13.3333V6.66667C2.5 4.36548 4.36548 2.5 6.66667 2.5H13.3333C15.6345 2.5 17.5 4.36548 17.5 6.66667V13.3333C17.5 15.6345 15.6345 17.5 13.3333 17.5H6.66667C4.36548 17.5 2.5 15.6345 2.5 13.3333Z" stroke="#0C0D0F" stroke-width="1.2"/>
<path d="M14.5833 5.42503L14.5916 5.41577" stroke="#0C0D0F" stroke-width="1.2" stroke-linecap="round" stroke-linejoin="round"/>
</svg>
