<svg width="44" height="51" viewBox="0 0 44 51" fill="none" xmlns="http://www.w3.org/2000/svg">
<g clip-path="url(#clip0_1381_2091)">
<path fill-rule="evenodd" clip-rule="evenodd" d="M23.1392 0.0277739C23.0068 0.0333228 22.4773 0.0721651 21.9533 0.105459C19.4546 0.271926 18.8203 0.382904 18.4893 0.738034C18.3073 0.921148 18.2962 0.971088 18.2466 1.51488C18.219 1.83117 18.1859 2.46374 18.1804 2.91321C18.1639 3.66786 18.1528 3.73999 18.0535 3.73999C17.9046 3.73999 14.6558 4.01189 13.0617 4.15616C11.2635 4.32263 10.1328 4.43361 9.09028 4.57233C8.60488 4.63891 7.54032 4.76654 6.71846 4.87197C3.69025 5.2382 2.50434 5.41576 1.36808 5.65436C1.04816 5.72095 0.662048 5.79309 0.507604 5.80973C0.0773668 5.86522 -0.00537109 5.9984 -0.00537109 6.71421C-0.00537109 7.03049 0.0222082 7.46886 0.0553034 7.70191C0.0773668 7.92942 0.121494 8.35668 0.143557 8.65632C0.231811 9.97696 0.369707 10.1379 1.41772 10.2655L1.74316 10.2988V11.5307C1.73212 12.2076 1.74867 13.0455 1.77074 13.3895C1.83693 14.2885 1.94173 16.1418 1.98034 17.1129C2.01343 17.9063 2.06308 18.6832 2.18994 20.481C2.25613 21.3911 2.35542 22.7783 2.39403 23.311C2.41058 23.5052 2.44367 23.8936 2.46022 24.1766C2.54847 25.4473 2.73049 27.6114 2.76359 27.6891C2.77462 27.739 2.80772 27.961 2.81875 28.194C2.84633 28.5991 2.94561 29.6478 2.99526 30.1195C3.36482 33.4655 3.37585 33.5376 3.602 33.7152C3.77299 33.8484 3.97708 33.8706 4.08188 33.7651C4.13704 33.7096 4.18668 33.7096 4.30251 33.7651C4.49005 33.8539 4.92581 33.8539 5.78628 33.7762C6.15033 33.7485 6.60814 33.7041 6.82326 33.6874C7.03838 33.6708 7.30314 33.6375 7.41346 33.6264C7.52378 33.6098 7.94298 33.5709 8.33461 33.5376C8.72623 33.5099 9.68599 33.4266 10.4692 33.3601C11.2525 33.2935 12.8411 33.1547 13.9939 33.0604C16.0072 32.8939 16.8235 32.8218 19.063 32.6054C19.6201 32.5499 20.3261 32.5 20.6405 32.4778L21.2141 32.45L21.2472 32.9161C21.3906 34.7806 21.4789 35.9181 21.5782 37.322C21.6499 38.2043 21.7161 39.0255 21.7271 39.142C21.7768 39.5193 21.8154 39.93 21.9367 41.2284C22.0029 41.9331 22.0856 42.7266 22.1132 42.9819C22.1463 43.2427 22.1739 43.5978 22.1739 43.7643V44.075L21.7492 44.1083C20.7453 44.1971 18.8037 44.6798 18.572 44.9018C18.3459 45.1182 16.9504 47.3377 16.3381 48.4531C16.0292 49.0135 15.963 49.0912 15.7976 49.1189C15.4997 49.18 15.0915 49.5351 15.0088 49.8126C14.8985 50.1843 14.9757 50.434 15.2791 50.7059C15.61 51 15.8582 51.05 16.2719 50.9223C16.4981 50.8502 16.658 50.7503 16.829 50.5561C16.9614 50.4118 17.0717 50.2565 17.0772 50.2176C17.0772 50.1732 17.0883 50.0845 17.0993 50.029C17.1214 49.8902 17.0441 49.7182 16.8787 49.5351L16.7628 49.4019L17.1434 48.786C17.3586 48.4475 17.6233 47.987 17.7502 47.765C17.866 47.5431 18.0591 47.2157 18.1694 47.0437C18.2742 46.8716 18.5224 46.4055 18.7155 46.006C18.9581 45.4955 19.096 45.268 19.1788 45.2514C19.245 45.2347 19.6311 45.1959 20.0393 45.1626C20.4474 45.1293 21.0873 45.046 21.4623 44.9795C21.8374 44.9073 22.3339 44.8407 22.56 44.8352C22.7917 44.8241 23.3819 44.8019 23.8893 44.7742C24.4133 44.752 24.7829 44.7575 24.7663 44.7853C24.7498 44.813 24.7663 45.1959 24.816 45.6398C24.8656 46.0781 24.9263 47.0326 24.9649 47.7539C24.998 48.4753 25.0421 49.0746 25.0532 49.0968C25.0642 49.1134 25.0256 49.2466 24.9594 49.3908C24.816 49.7182 24.816 50.029 24.9649 50.2787C25.3124 50.8558 26.3549 50.5839 26.5535 49.8625C26.5976 49.7071 26.5976 49.6073 26.5425 49.5074C26.4983 49.4297 26.4707 49.3409 26.4707 49.3132C26.4763 49.2799 26.3439 49.1633 26.1784 49.0579C25.8254 48.8138 25.8144 48.8082 25.7647 48.3587C25.7482 48.1645 25.7151 47.9481 25.6985 47.8815C25.6875 47.815 25.6213 47.2767 25.5496 46.6885C25.4834 46.1003 25.4007 45.4178 25.3731 45.1737C25.351 44.9295 25.329 44.7187 25.34 44.7131C25.3455 44.702 25.6709 44.6798 26.0626 44.6521C26.4542 44.6354 26.8789 44.5744 27.0113 44.5356C27.1823 44.4745 27.7394 44.4468 29.0246 44.4357L30.8007 44.4135L31.1151 44.7464C31.4019 45.0516 32.2845 46.2557 32.9022 47.199C33.0457 47.4154 33.3325 47.8094 33.5421 48.0813L33.9282 48.5807L33.851 48.897C33.7407 49.3631 33.8013 49.6017 34.0992 49.8126C34.2922 49.9568 34.4081 49.9957 34.6287 49.9957C35.1251 49.9957 35.434 49.807 35.6381 49.3686C35.8201 48.9691 35.787 48.7638 35.4947 48.4697C35.3513 48.331 35.1693 48.2034 35.081 48.1812C34.9927 48.1645 34.8604 48.1312 34.7887 48.1146C34.7004 48.0924 34.4908 47.8593 34.226 47.4709C33.9889 47.138 33.6414 46.6608 33.4483 46.4166C33.2608 46.1725 32.8967 45.6731 32.6375 45.3124C31.8597 44.2193 31.3799 43.6755 31.0765 43.5423C30.8228 43.4258 30.7842 43.4258 29.5596 43.5201C28.8701 43.5756 28.0759 43.6144 27.7946 43.6144C27.2209 43.6144 27.2816 43.6699 27.1878 43.0762C27.1382 42.771 26.8844 40.4127 26.8238 39.7357C26.741 38.7536 26.6031 37.322 26.5259 36.6672C26.4763 36.2399 26.3715 35.2189 26.2887 34.4032C26.206 33.582 26.1177 32.7219 26.0846 32.4944C26.0571 32.2614 26.0515 32.0616 26.0736 32.0339C26.1177 31.9895 26.9341 31.8896 27.6511 31.8397C27.9104 31.823 28.1917 31.7897 28.2744 31.7786C28.3572 31.7675 28.6385 31.7342 28.8977 31.7176C29.157 31.7009 29.7582 31.6454 30.2326 31.6011C30.7069 31.5511 31.5729 31.4734 32.1576 31.4235C32.7423 31.3735 33.6634 31.2903 34.204 31.2459C34.7445 31.1904 35.5112 31.1294 35.9249 31.0906C36.3331 31.0628 36.7082 31.0184 36.7523 31.0073C36.802 30.9962 37.0667 30.974 37.3425 30.9518C38.1313 30.9019 40.459 30.6966 40.7844 30.6411C40.9002 30.6244 41.6173 30.5745 42.3785 30.5357C43.7519 30.4635 43.7575 30.4635 43.8898 30.3026C44.0222 30.1528 44.0277 30.1084 44.0001 29.4425C43.9891 29.0541 43.945 27.8666 43.9174 26.8012C43.8843 25.7359 43.8292 24.5983 43.8016 24.2654C43.7464 23.7272 43.6582 22.7394 43.5037 20.8972C43.4761 20.5532 43.4375 20.1648 43.421 20.0316C43.3934 19.8096 43.3713 19.571 43.2886 18.4501C43.2776 18.2337 43.2334 17.751 43.2059 17.3792C43.1783 17.0074 43.1342 16.447 43.1176 16.1584C43.0955 15.8588 43.068 15.537 43.0569 15.4426C43.0459 15.3428 43.0128 15.0487 42.9963 14.7879C42.9797 14.5271 42.9246 13.95 42.8804 13.5061C42.8308 13.0622 42.737 12.191 42.6708 11.5695C42.6046 10.9425 42.5109 10.1157 42.4612 9.72171C42.4116 9.32774 42.3288 8.60638 42.2847 8.12363C42.2296 7.63532 42.1799 7.20806 42.1579 7.16367C42.1413 7.11928 42.3068 7.01385 42.5881 6.89177C43.1507 6.64207 43.5203 6.30359 43.6196 5.92626C43.7133 5.58223 43.6361 2.53588 43.5258 2.26398L43.4541 2.08642L42.3619 2.10306C41.2257 2.11971 38.7766 2.28063 36.6475 2.48039C35.9635 2.54698 35.0424 2.62466 34.6011 2.65796C34.1654 2.6857 33.4593 2.74674 33.0291 2.77448C32.6099 2.80778 31.5398 2.87436 30.6573 2.9243C28.5999 3.04083 27.3036 3.11851 26.2998 3.19065C25.864 3.21839 25.351 3.25169 25.169 3.25169H24.8381L24.7939 2.96315C24.7719 2.80778 24.7388 2.4249 24.7167 2.11416C24.7002 1.80342 24.6505 1.53153 24.6174 1.49823C24.5678 1.47049 24.5733 1.4372 24.6285 1.4039C24.7057 1.35396 24.7002 1.19859 24.6064 0.710289C24.5457 0.421746 24.3471 0.138752 24.132 0.0499695C23.95 -0.0277152 23.6963 -0.038813 23.1281 0.00557824L23.1392 0.0277739ZM23.7569 1.39835C23.8397 2.09752 23.9941 3.07412 24.0327 3.2184C24.0658 3.34602 23.9721 3.35712 20.7674 3.56243C20.2433 3.59017 19.5925 3.64011 19.3222 3.65676C18.8589 3.6845 18.8313 3.67895 18.8699 3.57907C18.8975 3.51804 18.9361 3.05193 18.9637 2.54698C19.0243 1.27628 19.0078 1.32622 19.4766 1.20969C20.0613 1.06542 22.2952 0.837914 23.255 0.821267H23.6797L23.7459 1.3928L23.7569 1.39835ZM42.7425 3.32382C42.7315 3.4348 42.715 3.97305 42.6929 4.51684C42.6708 5.06063 42.6432 5.55448 42.6322 5.62107C42.6212 5.68766 42.4943 5.80973 42.3564 5.89852C42.1634 6.03169 42.0365 6.06498 41.7828 6.06498C41.4739 6.06498 40.6741 6.13712 38.7546 6.33133C38.2802 6.38127 37.6404 6.44231 37.3315 6.48115C37.0226 6.5089 36.5537 6.55329 36.2945 6.56993C36.0353 6.59213 35.4781 6.64762 35.0479 6.68646C34.0385 6.79744 30.9607 7.04159 27.1988 7.31349C26.7631 7.34678 25.9081 7.41337 25.3014 7.46331C24.6946 7.51325 23.8342 7.57984 23.3764 7.61313C22.9185 7.64642 22.4276 7.68526 22.2787 7.70191C21.9588 7.7352 15.9741 8.19022 14.7551 8.2679C14.2807 8.29564 13.7677 8.34004 13.6023 8.35113C13.4423 8.36778 12.8797 8.41217 12.3557 8.44547C11.3683 8.51205 7.62858 8.84499 7.31969 8.89493C7.22592 8.91157 7.0108 8.93932 6.84533 8.95596C6.26064 9.01145 4.4018 9.22786 3.79506 9.31109C2.61466 9.47201 1.17502 9.45537 1.06471 9.2778C1.03713 9.22786 1.00955 9.10024 1.00955 8.98371C1.00955 8.86718 0.954388 8.40107 0.893714 7.94051C0.755817 6.96946 0.73927 6.36462 0.849587 6.33133C0.926809 6.30359 3.10006 6.03169 3.7068 5.98175C3.89986 5.9651 4.47902 5.90961 4.98097 5.85413C5.48291 5.80419 6.32683 5.72095 6.84533 5.67656C7.36933 5.62107 8.2629 5.53229 8.83103 5.4657C10.723 5.25484 12.5928 5.09392 15.1136 4.92746C15.588 4.89416 16.4926 4.82758 17.1269 4.77764C17.7612 4.7277 18.561 4.67776 18.903 4.66111C19.245 4.64446 19.8572 4.60007 20.2654 4.57233C21.4403 4.48355 22.6924 4.40031 23.9114 4.33373C26.1619 4.2172 27.2926 4.15061 27.6125 4.12287C27.789 4.10622 28.462 4.06738 29.0963 4.03408C29.7306 4.00634 31.4681 3.88981 32.9464 3.79548C34.4301 3.6956 36.0297 3.58462 36.5041 3.55688C36.9785 3.52913 37.6955 3.47364 38.1037 3.4459C38.5119 3.41261 38.9918 3.36822 39.1683 3.35157C39.3448 3.34047 39.8246 3.29608 40.2328 3.26279C41.1926 3.17955 42.4116 3.09632 42.6046 3.10742C42.737 3.11297 42.7536 3.13516 42.7425 3.32382ZM40.983 7.29684L41.347 7.33013L41.3911 8.11253C41.4077 8.54534 41.4573 9.10024 41.4849 9.34439C41.5511 9.83269 41.6945 11.1422 41.7607 11.8469C41.7828 12.0911 41.8048 12.3075 41.8104 12.3241C41.8159 12.3408 41.8379 12.5794 41.8655 12.8624C41.8876 13.1398 41.9317 13.5838 41.9593 13.8446C42.02 14.3717 42.1137 15.3594 42.1965 16.3194C42.2847 17.3293 42.4226 18.6499 42.6708 20.9083C42.8915 22.856 42.9742 23.6994 43.0569 24.726C43.0735 24.9424 43.1176 25.4529 43.1507 25.869C43.1838 26.2852 43.2059 26.6681 43.1838 26.718C43.1397 26.8234 42.6543 26.9011 41.3029 27.0232C40.7348 27.0731 39.764 27.1675 39.1407 27.2341C38.1313 27.3395 34.4081 27.6946 31.9425 27.9221C31.4405 27.9721 30.8945 28.022 30.729 28.0331C30.569 28.0498 30.2712 28.083 30.0781 28.0997C29.8851 28.1163 29.0687 28.194 28.2689 28.2773C27.4691 28.3549 26.4542 28.4493 26.0184 28.4881C25.5827 28.5214 25.0973 28.5658 24.9539 28.5824C24.805 28.6046 24.5898 28.6268 24.4795 28.6379C24.3692 28.6435 23.9665 28.6879 23.5915 28.7212C23.2164 28.7545 22.047 28.871 20.9825 28.9653C19.9234 29.0652 18.5003 29.1984 17.8109 29.265C17.1269 29.3371 16.2885 29.4148 15.9465 29.4425C15.6045 29.4703 14.8985 29.5424 14.3745 29.5923C13.8505 29.6478 13.1058 29.7089 12.7142 29.7422C12.3226 29.7755 11.7489 29.8254 11.44 29.8587C11.1311 29.8864 10.2762 29.9697 9.54258 30.0363C7.07148 30.2582 6.85084 30.2749 5.46636 30.4302C4.70517 30.5135 4.06533 30.569 4.04879 30.5468C4.03224 30.5246 3.94398 29.6867 3.8447 28.6823C3.75644 27.6724 3.66819 26.6958 3.65164 26.5183C3.6351 26.3407 3.59097 25.8135 3.55787 25.3585C3.52478 24.898 3.48065 24.4263 3.46962 24.3153C3.45859 24.2044 3.42549 23.8603 3.40895 23.5718C3.3924 23.2721 3.34827 22.7228 3.32069 22.351C3.01732 18.4779 2.96768 17.7399 2.9401 17.1961C2.92907 17.0019 2.91803 16.841 2.91252 16.841C2.907 16.841 2.89597 16.6135 2.88494 16.336C2.85736 15.5703 2.66982 11.8858 2.62569 11.0146C2.60363 10.5929 2.60363 10.2322 2.62569 10.2156C2.65327 10.2045 2.93458 10.1601 3.2545 10.1323C3.56891 10.1046 4.23081 10.038 4.7162 9.98806C6.09517 9.84934 8.13052 9.66622 9.01306 9.59964C9.44881 9.57189 9.98385 9.5275 10.199 9.51085C10.7671 9.46646 14.6392 9.20012 16.2113 9.09469C16.9614 9.04475 17.695 8.99481 17.8384 8.97816C17.9874 8.96706 18.732 8.91157 19.4987 8.86163C20.2654 8.81169 21.0818 8.76175 21.3079 8.74511C21.5396 8.72846 21.8705 8.69516 22.047 8.68407C22.2235 8.67297 22.7365 8.62858 23.1723 8.59528C24.132 8.52315 24.6064 8.48986 25.3952 8.44547C25.7206 8.42327 26.0846 8.39552 26.195 8.38443C26.4266 8.36223 26.9892 8.31229 27.7063 8.2679C27.9655 8.25125 28.2965 8.21796 28.4454 8.20686C28.5944 8.19022 29.1128 8.14582 29.5982 8.11808C30.0892 8.08479 30.6463 8.04594 30.8448 8.0293C31.0379 8.01265 31.617 7.97381 32.119 7.94051C32.6209 7.90722 33.3159 7.85173 33.6579 7.82399C33.9999 7.79069 34.739 7.72411 35.2851 7.67417C35.8422 7.61868 36.6972 7.54099 37.1825 7.49105C39.7695 7.23025 39.9184 7.22471 40.983 7.32459V7.29684ZM43.079 27.7224C43.0018 27.7945 41.2864 28.0941 40.5693 28.1496C40.3652 28.1663 40.1335 28.1996 40.0287 28.2107C39.935 28.2273 39.3999 28.2939 38.8428 28.3605C38.2912 28.4215 37.53 28.5159 37.155 28.5714C36.7799 28.6268 36.1676 28.7045 35.7926 28.7489C35.4175 28.7933 34.4301 28.9154 33.6028 29.0153C32.7754 29.1151 31.2144 29.3038 30.1388 29.4314C29.0687 29.5646 27.767 29.7255 27.265 29.7866C26.7631 29.8531 25.4669 30.0141 24.3913 30.1417C23.3212 30.2749 21.5837 30.4857 20.5412 30.6189C18.4838 30.8686 15.8031 31.196 15.3287 31.2515C15.1688 31.2681 14.8488 31.307 14.6172 31.3347C13.9994 31.4179 13.3926 31.4901 10.5851 31.8175C7.10457 32.2225 7.31417 32.2003 5.73664 32.4001C4.9589 32.5 4.29148 32.5832 4.24736 32.5832C4.15359 32.5832 4.10394 32.2836 4.08188 31.6011C4.07085 31.2126 4.07636 31.1849 4.18117 31.196C4.31355 31.2071 7.5679 30.9518 8.5056 30.8575C8.83103 30.8242 9.3771 30.7743 9.71909 30.741C10.5134 30.6688 12.5542 30.4746 14.0766 30.3248C14.7275 30.2582 16.3271 30.1139 17.6343 29.9974C18.9361 29.8864 20.282 29.7588 20.6295 29.7255C20.9714 29.6978 21.6885 29.6312 22.2291 29.5813C24.1541 29.4148 25.2297 29.3149 25.4283 29.2816C25.5386 29.2705 25.7978 29.2372 25.9909 29.2206C26.1839 29.2039 26.7852 29.1484 27.3257 29.1096C29.8023 28.8876 31.071 28.7767 31.5343 28.7156C31.8101 28.6823 32.4113 28.6268 32.8691 28.5991C33.327 28.5658 33.7793 28.5214 33.8785 28.5103C33.9778 28.4937 34.5239 28.4382 35.092 28.3827C36.995 28.2162 37.3756 28.1774 37.6679 28.1496C38.0099 28.1219 39.2014 28.0165 39.8026 27.9721C40.5693 27.9166 41.6945 27.8167 42.0255 27.7779C42.4502 27.7224 43.1286 27.6891 43.09 27.7224H43.079ZM43.3382 28.7434C43.3548 28.8377 43.3713 29.043 43.3713 29.1984C43.3713 29.5147 43.3769 29.5147 42.8087 29.5868C42.6488 29.609 42.4723 29.6423 42.4226 29.6589C42.373 29.67 42.1854 29.6922 42.0089 29.7089C41.8324 29.72 41.2698 29.7755 40.7623 29.8199C39.8246 29.9142 38.7877 30.0085 38.0982 30.064C37.8831 30.0807 37.6459 30.1084 37.5631 30.125C37.4804 30.1361 37.1991 30.1694 36.9398 30.1861C36.4269 30.2194 34.8328 30.3581 33.8289 30.4524C32.0859 30.6133 31.1261 30.6966 30.4808 30.7521C29.8189 30.8076 28.0593 30.974 26.6859 31.1072C26.3604 31.1405 26.0184 31.1682 25.9136 31.1682C25.8199 31.1627 25.1635 31.2182 24.463 31.2792C23.7625 31.3514 22.5931 31.4568 21.854 31.5234C21.0431 31.5955 20.5136 31.6732 20.4971 31.7065C20.486 31.7564 20.4695 31.7564 20.4364 31.7065C20.4088 31.6565 20.2323 31.651 19.8021 31.6954C19.074 31.7731 17.4027 31.9284 16.8456 31.9728C16.6194 31.9895 15.9244 32.0561 15.3067 32.1171C14.6889 32.1781 13.9498 32.2447 13.6629 32.2669C13.3761 32.2836 13.0893 32.3169 13.0121 32.3335C12.8355 32.3668 11.7269 32.4223 11.8372 32.389C11.8868 32.3779 12.5653 32.2836 13.3485 32.1781C14.1318 32.0783 15.1743 31.9451 15.6597 31.8785C16.1506 31.8119 17.6454 31.6232 18.9802 31.4623C20.3206 31.2959 21.4899 31.1516 21.5892 31.1349C21.6885 31.1238 22.1408 31.0684 22.5986 31.0184C23.0564 30.9685 23.4812 30.913 23.5473 30.9019C23.6135 30.8908 23.8231 30.8575 24.0217 30.8409C24.2203 30.8242 24.6836 30.7687 25.0587 30.7243C25.9357 30.6133 26.3659 30.5579 28.1696 30.3359C28.986 30.236 29.7472 30.1472 29.8575 30.125C29.9678 30.1139 30.2105 30.0807 30.3925 30.064C30.569 30.0474 30.9055 30.003 31.1316 29.9697C31.8818 29.8698 36.802 29.265 37.679 29.1706C38.1533 29.1151 38.6994 29.0541 38.8925 29.0208C39.0855 28.9931 39.3668 28.9542 39.5158 28.9376C39.6647 28.9209 40.2218 28.8543 40.7623 28.7822C41.8324 28.649 42.6708 28.5714 43.0569 28.5714C43.2831 28.5714 43.3051 28.588 43.3327 28.7434H43.3382ZM25.3565 32.3557C25.3896 32.5222 25.4227 32.7386 25.4227 32.8385C25.4227 33.0049 25.6103 34.7917 25.8088 36.4397C25.853 36.8337 25.9192 37.4219 25.9578 37.7492C25.9909 38.0766 26.035 38.4429 26.046 38.5538C26.3935 41.4115 26.548 42.8709 26.548 43.2926V43.7254L26.2391 43.7532C26.0681 43.7753 25.6599 43.8086 25.3345 43.8253C25.009 43.8475 24.4244 43.903 24.0327 43.9529C23.0178 44.0694 23.0675 44.0861 23.0289 43.7809C23.0123 43.6422 22.9792 43.3259 22.9627 43.0817C22.9461 42.8376 22.902 42.3104 22.8744 41.922C22.8413 41.528 22.7862 40.8455 22.7586 40.4016C22.7255 39.9632 22.6593 39.1698 22.6096 38.6426C22.56 38.1155 22.5104 37.5273 22.4938 37.3331C22.4773 37.1389 22.4111 36.4952 22.3449 35.9015C22.207 34.6418 22.1794 34.3755 22.1353 33.8151C22.1187 33.582 22.0801 33.1769 22.0581 32.905C22.0305 32.6331 22.0305 32.4001 22.047 32.389C22.0967 32.3613 23.0895 32.2558 24.0327 32.1781C24.4906 32.1448 24.9153 32.1005 24.9815 32.0949C25.2904 32.045 25.2959 32.0505 25.3621 32.3557H25.3565ZM11.6331 32.4556C11.5559 32.4667 11.44 32.4667 11.3683 32.4556C11.2911 32.4445 11.3518 32.4334 11.5007 32.4334C11.6496 32.4334 11.7103 32.4445 11.6386 32.4556H11.6331ZM11.0981 32.5166C11.0539 32.5277 10.9877 32.5277 10.9491 32.5166C10.905 32.5 10.9381 32.4889 11.0208 32.4889C11.1036 32.4889 11.1311 32.5 11.0981 32.5166Z" fill="#0C0D0F"/>
<path fill-rule="evenodd" clip-rule="evenodd" d="M36.8901 10.7261C36.6861 10.9369 36.2944 11.3753 36.0021 11.7138C35.4229 12.3908 33.7957 13.9888 33.6909 13.9888C33.6579 13.9888 33.531 13.9056 33.4207 13.8057C33.3104 13.7114 32.9573 13.4339 32.6484 13.2009C32.3396 12.9623 31.9645 12.6682 31.8266 12.5461C31.3136 12.0911 31.0544 11.9635 30.7179 11.9635C30.2877 11.9635 30.1553 12.0911 29.2838 13.3507C28.8866 13.9112 28.5171 14.4272 28.4619 14.4938C28.3185 14.6547 27.7007 15.4205 27.4084 15.7978C26.8954 16.4636 25.886 17.6234 25.8198 17.6234C25.7536 17.6234 24.4022 16.8021 23.437 16.1751C22.8854 15.8089 22.3228 15.4704 22.1904 15.4094C21.6167 15.143 21.363 15.3095 20.6184 16.4026C19.5703 17.9785 18.4561 19.4268 17.8163 20.0482L17.5515 20.309L17 19.9872C16.6911 19.8096 15.9906 19.4101 15.439 19.1049C13.7732 18.1783 13.8283 18.1505 11.7654 21.0748C10.6678 22.6174 10.6016 22.7339 10.6016 23.0668C10.6016 23.422 10.9546 23.594 11.2855 23.3776C11.3683 23.3221 11.622 23.0225 11.8592 22.7006C13.6298 20.2924 14.1538 19.6265 14.2862 19.5988C14.4406 19.571 15.4059 19.9817 15.974 20.309C17.6343 21.2912 17.7281 21.3078 18.2355 20.7918C18.4175 20.6087 18.9471 19.9817 19.4049 19.4101C19.8627 18.8386 20.486 18.0562 20.7894 17.6733C21.0982 17.2904 21.4623 16.8243 21.6057 16.6412C21.7491 16.4581 21.9036 16.3083 21.9477 16.3083C22.1573 16.3083 23.0453 16.8465 24.0106 17.5457C25.5551 18.6666 25.7702 18.7775 26.1177 18.6333C26.3328 18.5445 26.7465 18.095 27.0829 17.5901C27.7669 16.5691 29.532 14.3551 30.4697 13.3396L30.7841 13.0011L31.1978 13.3008C31.4239 13.4617 31.8211 13.7558 32.0748 13.9389C32.334 14.122 32.7146 14.4217 32.9187 14.5992C33.349 14.9821 33.6358 15.0653 33.9281 14.9155C34.0274 14.86 34.3859 14.5271 34.7169 14.1664C35.0534 13.8113 35.7704 13.1066 36.3055 12.6072C37.519 11.4696 37.8499 11.0812 37.8499 10.7927C37.8499 10.5374 37.6789 10.3488 37.4252 10.3488C37.2763 10.3488 37.1715 10.4209 36.8791 10.7205L36.8901 10.7261Z" fill="#0C0D0F"/>
<path fill-rule="evenodd" clip-rule="evenodd" d="M6.83965 11.9968L6.67969 12.1577L6.72381 12.9679C6.76794 13.7336 7.10992 17.9896 7.22576 19.2381C7.25885 19.5489 7.31401 20.126 7.34159 20.5199C7.37469 20.9139 7.44639 21.7074 7.49603 22.2789C7.55119 22.8505 7.61187 23.644 7.64496 24.0379C7.75528 25.4585 7.88766 27.0232 7.90972 27.1953C7.92076 27.2896 7.93179 27.4339 7.93179 27.5116C7.94282 27.8944 8.50544 27.9499 10.425 27.7613C11.0924 27.6947 12.2121 27.5892 12.9126 27.5226C13.6131 27.4505 14.5729 27.3617 15.0472 27.3118C15.5216 27.2619 16.0953 27.2119 16.3214 27.1953C17.1212 27.1287 19.3551 26.9289 20.5576 26.8124C21.225 26.7458 22.0138 26.6792 22.3061 26.657C22.604 26.6404 22.9018 26.6071 22.9901 26.596C23.0728 26.5793 23.5968 26.5238 24.1429 26.4795C25.5219 26.3629 26.956 26.2242 27.2649 26.1798C27.4083 26.1687 28.1915 26.0966 29.0024 26.03C29.8187 25.9634 30.5247 25.8913 30.5744 25.8802C30.624 25.8691 30.9439 25.8358 31.2859 25.8191C32.0692 25.7692 34.6561 25.5306 36.024 25.3697C38.3131 25.1144 38.8702 25.0589 39.499 25.0478C40.2051 25.0423 40.3154 24.9979 40.4202 24.7205C40.4533 24.6317 40.4533 24.504 40.4147 24.382C40.3154 24.0879 40.023 24.0102 39.5156 24.1434C39.1626 24.2321 38.0704 24.3376 36.002 24.4763C35.478 24.5096 34.8547 24.5651 34.612 24.5873C34.3693 24.615 34.088 24.6428 33.9887 24.6483C33.8949 24.6539 33.5419 24.6761 33.2165 24.7149C32.891 24.7426 32.3339 24.7981 31.9699 24.8314C31.6169 24.8592 31.0267 24.9147 30.6682 24.948C30.3151 24.9813 29.1237 25.0922 28.0316 25.1866C26.9394 25.2864 25.9521 25.3752 25.8418 25.3974C25.7315 25.4196 24.9703 25.4807 24.1539 25.5472C23.3431 25.6138 22.2896 25.7082 21.8152 25.7581C21.3408 25.808 20.3039 25.9024 19.5041 25.969C18.1472 26.0799 17.5073 26.141 15.2679 26.3574C14.7825 26.4073 14.1647 26.4573 13.9055 26.4739C13.6462 26.4906 13.1939 26.5349 12.8961 26.5627C12.6037 26.5904 11.9639 26.6459 11.473 26.6792C10.9876 26.7125 10.1767 26.7846 9.66928 26.8346C9.16734 26.8845 8.74813 26.9123 8.7371 26.9067C8.73159 26.8956 8.69298 26.4573 8.65988 25.9357C8.62679 25.4085 8.57163 24.726 8.53302 24.4153C8.50544 24.1045 8.43925 23.2611 8.38409 22.5397C8.32893 21.8184 8.23516 20.5033 8.17448 19.621C8.0421 17.8787 7.95385 16.5192 7.90972 15.7146C7.89318 15.4371 7.84905 15.0043 7.82147 14.7602C7.79389 14.516 7.73873 13.95 7.70564 13.5061C7.59532 12.1522 7.52913 11.958 7.15957 11.8692C7.0327 11.8414 6.96651 11.8636 6.83965 11.9857V11.9968Z" fill="#0C0D0F"/>
</g>
<defs>
<clipPath id="clip0_1381_2091">
<rect width="44" height="51" fill="white"/>
</clipPath>
</defs>
</svg>
