<svg width="40" height="40" viewBox="0 0 40 40" fill="none" xmlns="http://www.w3.org/2000/svg">
<path d="M34.232 31.7353C33.982 31.9853 33.6653 32.102 33.3487 32.102C33.032 32.102 32.7153 31.9853 32.4653 31.7353L24.2153 23.4853L25.0987 22.602L25.982 21.7187L34.232 29.9687C34.7153 30.452 34.7153 31.252 34.232 31.7353Z" fill="white"/>
<path opacity="0.4" d="M10.7825 15.4635L20.4492 25.1302C21.0992 25.7802 21.0992 26.8301 20.4492 27.4802L18.9492 28.9968C17.5992 30.3302 15.4658 30.3302 14.1324 28.9968L6.89912 21.7635C5.58245 20.4468 5.58245 18.2968 6.89912 16.9635L8.41579 15.4469C9.06579 14.8136 10.1325 14.8135 10.7825 15.4635Z" fill="white"/>
<path d="M30.9823 16.9857L24.6323 23.319C23.9657 23.9857 22.899 23.9857 22.2323 23.319L12.6157 13.7023C11.9491 13.0357 11.9491 11.969 12.6157 11.3023L18.9657 4.95234C20.2823 3.63568 22.4323 3.63568 23.7657 4.95234L30.999 12.1857C32.299 13.5023 32.299 15.6357 30.9823 16.9857Z" fill="white"/>
<path d="M13.3335 36.25H3.3335C2.65016 36.25 2.0835 35.6833 2.0835 35C2.0835 34.3167 2.65016 33.75 3.3335 33.75H13.3335C14.0168 33.75 14.5835 34.3167 14.5835 35C14.5835 35.6833 14.0168 36.25 13.3335 36.25Z" fill="white"/>
</svg>
