<svg width="75" height="43" viewBox="0 0 75 43" fill="none" xmlns="http://www.w3.org/2000/svg">
<path d="M12.2158 1.86095L12.4555 18.4738L2.37893 15.2505L12.2158 1.86095Z" fill="#B48C04"/>
<path d="M1 19C1 15.134 4.13401 12 8 12H59.5C68.0604 12 75 18.9396 75 27.5C75 36.0604 68.0604 43 59.5 43H8C4.13401 43 1 39.866 1 36V19Z" fill="#FFBB00"/>
<path d="M22.3899 30.048C22.3899 29.712 22.1619 29.544 21.7779 29.544H19.4859V27.192C19.4859 25.776 20.3979 24.804 21.8379 24.804H23.4699L23.5659 26.352H21.8499C21.3579 26.352 21.0219 26.676 21.0219 27.168V27.948H22.0299C23.3739 27.948 23.9139 28.692 23.9139 29.952C23.9139 31.536 22.4859 32.868 20.5419 32.868H19.6419C17.5419 32.868 16.3899 31.596 16.3899 29.472V27.072H17.9139V29.436C17.9139 30.636 18.4419 31.272 19.6419 31.272H20.5539C21.7779 31.272 22.3899 30.768 22.3899 30.048ZM26.8028 24.804L27.9068 23.712L30.0428 26.232C30.6548 26.94 30.8468 27.456 30.8468 28.056C30.8468 29.16 30.0428 30 28.5548 30H25.3028L25.1828 28.404H28.4828C28.9868 28.404 29.2628 28.236 29.2628 27.948C29.2628 27.732 29.1548 27.564 28.8668 27.228L26.8028 24.804ZM35.0366 28.404C35.0966 28.404 35.1566 28.464 35.1566 29.232C35.1566 29.952 35.0966 30 35.0366 30H34.6046C33.2366 30 32.5526 29.172 32.5526 27.756V22.272H34.0886V27.648C34.0886 28.164 34.2806 28.404 34.7126 28.404H35.0366ZM35.6151 28.404C36.1671 28.404 36.4431 28.128 36.4431 27.684V25.872H37.9791V27.588C37.9791 27.96 38.0271 28.068 38.2431 28.176C39.5871 25.86 40.7271 24.864 42.0831 24.864C43.4751 24.864 44.4351 25.896 44.4351 27.396C44.4351 27.732 44.3991 28.008 44.2911 28.284C44.4711 28.392 44.7351 28.404 45.0591 28.404H45.3591C45.4071 28.404 45.4791 28.464 45.4791 29.232C45.4791 29.952 45.4071 30 45.3591 30H45.0591C44.3391 30 43.8711 29.88 43.4751 29.496C43.0311 29.82 42.4431 30 41.7831 30H38.7351C37.9311 30 37.4271 29.808 37.1511 29.424C36.8511 29.832 36.3831 30 35.6151 30H35.0391C34.9911 30 34.9191 29.964 34.9191 29.232C34.9191 28.464 34.9911 28.404 35.0391 28.404H35.6151ZM41.7831 28.404C42.5031 28.404 42.9111 28.032 42.9111 27.396C42.9111 26.796 42.5031 26.4 41.9631 26.4C41.2911 26.4 40.6071 27.072 39.7191 28.404H41.7831ZM45.6273 24.624V23.256H49.0113V24.624H45.6273ZM50.0793 28.404C50.1273 28.404 50.1993 28.464 50.1993 29.208C50.1993 29.952 50.1273 30 50.0793 30H49.5513C48.9153 30 48.4353 29.832 48.1833 29.424C47.8833 29.832 47.4153 30 46.7553 30H45.3633C45.3153 30 45.2433 29.964 45.2433 29.232C45.2433 28.464 45.3153 28.404 45.3633 28.404H46.7553C47.1513 28.404 47.4273 28.176 47.4273 27.792V25.872H48.9513V27.744C48.9513 28.176 49.1793 28.404 49.6233 28.404H50.0793ZM51.6222 23.424V22.056H55.0182V23.424H51.6222ZM53.3742 24.516C54.9462 24.516 55.8342 25.524 55.8342 27.18V27.588C55.8342 29.208 54.7062 30 52.5822 30H50.0742C50.0262 30 49.9542 29.964 49.9542 29.232C49.9542 28.464 50.0262 28.404 50.0742 28.404H51.4422H51.8022C51.2262 28.056 50.9502 27.6 50.9502 26.928C50.9502 25.572 51.9582 24.516 53.3742 24.516ZM54.3222 27.42V27.24C54.3222 26.436 53.9862 26.04 53.3622 26.04C52.8582 26.04 52.4742 26.436 52.4742 26.928C52.4742 27.504 52.8702 27.864 54.0462 28.284C54.2502 28.068 54.3222 27.792 54.3222 27.42ZM57.5487 30V22.272H59.0847V30H57.5487Z" fill="white"/>
</svg>
