<svg width="26" height="26" viewBox="0 0 26 26" fill="none" xmlns="http://www.w3.org/2000/svg">
<path opacity="0.4" d="M23.4556 10.8666C23.0331 10.26 22.2856 9.91331 21.4298 9.91331H16.9881C16.6956 9.91331 16.4248 9.79414 16.2406 9.57747C16.0456 9.36081 15.9698 9.05747 16.0131 8.74331L16.5656 5.18997C16.804 4.12831 16.0998 2.93664 15.0381 2.57914C14.0523 2.21081 12.8931 2.70914 12.4273 3.41331L7.85559 10.2058L7.72559 10.4225V19.9991L7.88809 20.1616L11.3223 22.8158C11.7773 23.2708 12.8065 23.52 13.5323 23.52H17.7573C19.209 23.52 20.6715 22.4258 20.9965 21.0933L23.6615 12.9791C23.9431 12.21 23.8673 11.4625 23.4556 10.8666Z" fill="#0C0D0F"/>
<path d="M5.64449 6.91052H4.52866C2.84949 6.91052 2.16699 7.56052 2.16699 9.16386V20.0622C2.16699 21.6655 2.84949 22.3155 4.52866 22.3155H5.64449C7.32366 22.3155 8.00616 21.6655 8.00616 20.0622V9.16386C8.00616 7.56052 7.32366 6.91052 5.64449 6.91052Z" fill="#0C0D0F"/>
</svg>
