<svg width="28" height="28" viewBox="0 0 28 28" fill="none" xmlns="http://www.w3.org/2000/svg">
<path opacity="0.4" d="M24.0578 9.85841C22.8328 4.46841 18.1311 2.04175 14.0011 2.04175C14.0011 2.04175 14.0011 2.04175 13.9895 2.04175C9.87109 2.04175 5.15775 4.45675 3.93275 9.84675C2.56775 15.8667 6.25442 20.9651 9.59109 24.1734C10.8278 25.3634 12.4145 25.9584 14.0011 25.9584C15.5878 25.9584 17.1745 25.3634 18.3995 24.1734C21.7361 20.9651 25.4228 15.8784 24.0578 9.85841Z" fill="#0C0D0F"/>
<path d="M14.0017 15.7036C16.0314 15.7036 17.6767 14.0582 17.6767 12.0286C17.6767 9.99887 16.0314 8.35352 14.0017 8.35352C11.9721 8.35352 10.3267 9.99887 10.3267 12.0286C10.3267 14.0582 11.9721 15.7036 14.0017 15.7036Z" fill="#0C0D0F"/>
</svg>
