<svg width="44" height="51" viewBox="0 0 44 51" fill="none" xmlns="http://www.w3.org/2000/svg">
<g clip-path="url(#clip0_1381_2021)">
<path fill-rule="evenodd" clip-rule="evenodd" d="M22.2534 0.0405843C18.6115 0.324775 15.0581 2.19231 12.397 5.21285C11.4645 6.27653 11.3358 6.45517 10.6444 7.54321C9.24557 9.77614 8.30495 12.3338 7.86278 15.1676C7.71807 16.1014 7.66983 17.1001 7.7663 17.36C7.83062 17.5142 7.77434 17.5467 7.16334 17.6441C6.30312 17.7903 4.59072 18.4318 4.07619 18.7809C2.72556 19.7147 1.64827 21.4361 1.06943 23.5228C0.723732 24.7814 0.30568 28.6951 0.177048 31.8293C0.15293 32.5033 0.0886141 33.502 0.0403773 34.0541C-0.0480568 34.9716 -0.0078595 37.505 0.104693 38.723C0.45843 42.458 1.28649 44.5204 3.06322 46.0713C3.9154 46.8021 4.99269 47.4679 5.96546 47.8577C7.1955 48.353 10.9821 49.3923 12.2282 49.5872C13.2653 49.7414 15.4601 50.0094 16.9313 50.1555C17.7433 50.2367 18.9251 50.3585 19.5682 50.4154C21.0716 50.5696 23.3227 50.6914 26.7796 50.8051C28.2991 50.8457 30.3974 50.9188 31.4425 50.9513C32.4877 50.9919 33.774 51.0162 34.3046 51C36.6039 50.9675 38.4931 50.3423 39.5865 49.2786C40.3342 48.5559 41.2185 47.0538 41.0979 46.7209C41.0658 46.6316 41.0819 46.5991 41.1301 46.6316C41.2989 46.7452 41.8938 44.5042 42.1029 42.8965C42.2074 42.1576 42.6737 38.1221 42.738 37.3994C42.7701 37.1153 42.8988 35.8405 43.0435 34.5657C43.1882 33.2909 43.349 31.7968 43.3972 31.2528C43.4455 30.7007 43.6143 29.3447 43.759 28.2323C44.0082 26.381 44.0243 26.1699 43.9198 25.6989C43.6384 24.4322 43.2605 23.4822 43.0354 23.4822C42.9952 23.4822 42.9551 23.4416 42.9551 23.3848C42.9551 23.2386 42.0546 22.1425 41.6527 21.8177C41.0256 21.298 40.3503 20.892 39.5463 20.5673C39.1202 20.3967 38.7424 20.2506 38.7102 20.2506C38.67 20.2506 38.4931 20.1856 38.3243 20.1207C38.0831 20.0151 38.0429 19.9664 38.1153 19.869C38.252 19.7066 38.469 18.1557 38.469 17.36C38.469 16.5642 38.26 14.6561 38.0831 13.7873C38.0108 13.4544 37.9545 13.0971 37.9545 12.9834C37.9545 12.6099 37.3596 10.6855 36.9174 9.66246C35.9848 7.45389 34.8754 5.80559 33.2273 4.21412C32.2626 3.26412 31.7963 2.88249 30.8315 2.25727C28.2911 0.600845 25.2361 -0.194888 22.2534 0.0405843ZM26.2249 1.77821C26.6269 1.87564 27.1253 2.0218 27.3183 2.10299C27.5193 2.17607 27.7203 2.20855 27.7926 2.16795C27.8569 2.13547 27.8811 2.13547 27.8409 2.17607C27.8087 2.20855 28.2107 2.46026 28.7493 2.73633C30.526 3.65386 31.6757 4.58763 33.2836 6.44705C33.4846 6.68252 33.6453 6.89363 33.6453 6.90987C33.6453 6.92611 33.7901 7.1697 33.975 7.44578C35.1085 9.13468 36.0331 11.2864 36.5396 13.3975C36.8853 14.8266 36.9335 15.4031 36.9576 18.0095L36.9737 19.7796L36.5878 19.7309C36.3707 19.7066 35.7356 19.5929 35.1648 19.4792L34.1277 19.2843L34.1438 18.9352C34.2965 15.7685 34.1599 14.039 33.6373 12.3907C32.962 10.2958 32.0375 8.67997 30.6547 7.20218C25.9194 2.12735 18.5713 2.82565 14.222 8.76929C12.8472 10.6531 11.6976 13.6817 11.3439 16.3775L11.2313 17.1894L10.4193 17.2544C9.96912 17.2788 9.40636 17.3356 9.18125 17.3681C8.88379 17.4006 8.77928 17.3924 8.81948 17.3275C8.85163 17.2788 8.91595 16.8322 8.95615 16.345C9.44655 10.9454 12.4614 5.89491 16.7464 3.32095C19.6486 1.57521 23.1458 1.01495 26.2169 1.80256L26.2249 1.77821ZM24.3276 5.18849C25.1878 5.29405 25.831 5.50516 26.8761 6.00046C29.8105 7.42142 31.8123 10.4176 32.7128 14.7292C32.9057 15.6467 33.0424 18.3587 32.9298 18.8296C32.8816 19.0489 32.8414 19.0651 32.552 19.0164C31.8445 18.8946 29.5211 18.5779 28.2187 18.4399C27.7685 18.3993 27.1012 18.31 26.7475 18.2694C24.9949 18.0258 22.3338 17.7335 21.1761 17.6523C19.9702 17.5711 16.8831 17.3194 16.2077 17.2544C16.047 17.2382 15.0983 17.2057 14.1175 17.1732L12.3408 17.1245L12.381 16.7997C12.8633 13.2433 14.1094 10.6043 16.4168 8.29023C17.8237 6.87739 18.9814 6.10602 20.4847 5.58636C21.7791 5.13977 22.9529 5.0261 24.3276 5.20473V5.18849ZM15.653 18.6997C16.264 18.7403 17.076 18.8215 17.4619 18.8621C17.8398 18.9108 18.7161 18.992 19.4075 19.0489C20.8867 19.1625 23.0493 19.3737 24.0301 19.4873C24.9466 19.601 26.6751 19.804 27.7444 19.9258C28.7574 20.0314 31.4586 20.4049 32.5841 20.5835C33.0183 20.6566 33.8222 20.7702 34.3769 20.8433C35.8482 21.0463 37.649 21.3873 38.4529 21.6228C39.9403 22.0613 40.8568 22.6621 41.6205 23.6933C42.5772 24.9925 42.8184 25.8207 42.6496 27.3391C42.529 28.3703 42.5129 29.3122 42.5852 29.6776C42.6335 29.9131 42.5933 30.449 42.336 32.5357C42.2556 33.1366 42.0948 34.6225 41.9903 35.6212C41.9662 35.8729 41.9019 36.3601 41.8536 36.7093C41.8134 37.0503 41.6687 38.114 41.5562 39.0721C40.9532 44.0333 40.4467 46.0226 39.4338 47.541C39.2971 47.744 39.0398 48.02 38.863 48.1581C37.4963 49.2218 36.2019 49.579 33.6051 49.579C32.7047 49.5872 31.5229 49.5709 30.9762 49.5466C30.4296 49.5222 28.9985 49.4735 27.8087 49.4491C26.6108 49.4166 25.5576 49.376 25.4773 49.3679C25.3888 49.3517 24.7457 49.303 24.0301 49.2705C22.5187 49.1974 21.0957 49.0675 17.9443 48.7102C16.6821 48.5641 15.436 48.426 15.1787 48.3936C14.9214 48.3692 14.4551 48.3042 14.1416 48.2636C13.8281 48.223 13.3618 48.1581 13.1045 48.1256C12.188 48.02 8.24867 46.997 7.01863 46.5585C5.3625 45.9576 3.61794 44.6016 2.9587 43.4243C2.35574 42.3281 1.86534 40.3631 1.63219 38.1059C1.52768 37.1315 1.56788 34.3058 1.72063 32.3652L1.82514 30.9037L2.05024 30.9524C2.42006 31.0498 3.16773 31.1716 4.2209 31.3015C10.3148 32.0567 10.4997 32.081 10.8374 31.7319C11.0062 31.5695 11.0464 31.4639 11.0062 31.2772C10.9178 30.928 10.6686 30.7656 10.1138 30.7007C9.84049 30.6682 9.51891 30.6195 9.39832 30.6032C8.74712 30.4977 5.90115 30.2054 4.77562 30.1242C4.06815 30.0836 3.11949 29.9943 2.68536 29.9374L1.88142 29.84L1.94573 29.6045C1.96985 29.4827 2.01005 29.369 2.01809 29.3528C2.02613 29.3447 2.95066 29.3772 4.07619 29.434C6.3996 29.5395 6.5845 29.5152 6.6247 29.0118C6.6649 28.5652 6.43175 28.4028 5.62781 28.3216C4.95249 28.2566 4.17534 28.2187 3.29636 28.2079H2.05828V27.7776C2.05828 27.4365 2.35574 25.3417 2.53261 24.3998C2.63713 23.8882 3.02302 22.8083 3.40087 22.045C4.1807 20.4292 5.15348 19.6984 7.2759 19.1219C7.8467 18.9758 9.60734 18.7241 10.556 18.6591C11.6011 18.586 14.64 18.6104 15.6611 18.6835L15.653 18.6997Z" fill="#0C0D0F"/>
<path fill-rule="evenodd" clip-rule="evenodd" d="M28.2105 3.39399C28.0256 3.61323 28.1945 3.84058 28.9743 4.4252C29.8586 5.09914 31.1128 6.17906 31.9811 7.02351C32.6162 7.64061 32.8895 7.75429 33.0503 7.46198C33.2031 7.15343 33.1468 7.00727 32.584 6.32522C31.5389 5.06666 30.7189 4.37648 29.4084 3.67006C28.6045 3.2316 28.3874 3.18288 28.2186 3.39399H28.2105Z" fill="#0C0D0F"/>
<path fill-rule="evenodd" clip-rule="evenodd" d="M33.5328 8.4282C33.3077 8.5906 33.3318 8.86667 33.6453 9.67052C33.983 10.5556 34.2 10.9128 34.4734 11.0428C34.7789 11.1808 35.0361 10.9372 35.0361 10.5069C35.0361 10.1577 34.4171 8.86667 34.0955 8.52564C33.8704 8.29017 33.7498 8.27393 33.5328 8.4282Z" fill="#0C0D0F"/>
<path fill-rule="evenodd" clip-rule="evenodd" d="M23.6524 20.8108C23.4997 20.9651 23.5319 21.2899 23.7328 21.4766C23.9419 21.6796 24.5207 21.8501 26.1206 22.1912C26.7798 22.3292 27.6802 22.5241 28.1304 22.6215C30.6789 23.1737 33.8626 23.5796 34.1922 23.4091C34.2806 23.3685 34.3771 23.2224 34.4012 23.1006C34.5298 22.5972 34.1037 22.2561 33.1873 22.11C32.9541 22.0694 32.2547 21.9638 31.6356 21.8583C31.0246 21.7608 29.8911 21.5822 29.1273 21.4604C28.3636 21.3305 27.5757 21.2006 27.3586 21.1437C26.7959 21.03 24.4323 20.7134 24.0785 20.7134C23.9097 20.7134 23.7248 20.754 23.6605 20.8189L23.6524 20.8108Z" fill="#0C0D0F"/>
<path fill-rule="evenodd" clip-rule="evenodd" d="M7.71786 22.6053C7.41236 22.6378 6.82547 23.198 6.74508 23.5309C6.68076 23.7989 6.84155 24.4566 6.97822 24.4566C7.02646 24.4566 7.12293 24.5215 7.19529 24.5865C7.50079 24.8869 8.39317 24.6271 8.77906 24.1399C9.11672 23.7014 8.93985 22.9138 8.46553 22.7271C8.09571 22.589 7.98316 22.5728 7.72589 22.6053H7.71786Z" fill="#0C0D0F"/>
<path fill-rule="evenodd" clip-rule="evenodd" d="M37.3195 23.0113C37.1748 23.0763 37.022 23.1981 36.9979 23.2711C36.9175 23.4741 37.0703 23.8233 37.2713 23.9288C37.5366 24.075 38.5093 24.0506 38.7345 23.8882C38.9756 23.7258 38.9837 23.3198 38.7505 23.1087C38.5174 22.8976 37.6893 22.8408 37.3195 23.0113Z" fill="#0C0D0F"/>
<path fill-rule="evenodd" clip-rule="evenodd" d="M37.8016 25.5121C36.869 25.8856 36.6198 27.2092 37.3835 27.6801C37.9302 28.013 38.6698 27.8263 39.0557 27.2498C39.4416 26.6733 39.2648 25.8938 38.6618 25.5771C38.3322 25.3903 38.1232 25.3741 37.8016 25.504V25.5121Z" fill="#0C0D0F"/>
<path fill-rule="evenodd" clip-rule="evenodd" d="M19.9783 31.87C19.311 31.9836 18.684 32.349 18.1855 32.9012C17.5343 33.6157 17.3735 34.0217 17.3735 34.923C17.3735 35.5725 17.4057 35.7349 17.6388 36.2302C17.9443 36.8636 18.4428 37.4969 19.0699 38.0166C19.4236 38.3008 19.496 38.3982 19.4477 38.585C19.4236 38.7068 19.3352 39.0721 19.2628 39.4132C19.1422 39.9572 18.9412 41.029 18.8126 41.7679C18.7885 41.9059 18.7161 42.1901 18.6518 42.3769C18.4589 42.929 18.4991 43.2619 18.7724 43.538C18.901 43.676 19.0859 43.8141 19.1744 43.8547C19.5281 43.9927 21.7631 44.3419 22.2776 44.3419C22.8806 44.3419 23.0816 44.2363 23.3629 43.7654C23.58 43.4162 23.58 43.3837 23.2745 41.1995C23.1861 40.5499 23.0896 39.7786 23.0655 39.4863L23.0253 38.9422L23.3388 38.8773C23.773 38.7961 24.2955 38.5362 24.6894 38.2115C24.9869 37.9679 25.421 37.3264 25.4773 37.0666C25.4934 37.0016 25.5256 36.8798 25.5738 36.7986C25.6059 36.7093 25.622 36.279 25.5979 35.8324C25.5738 35.1341 25.5256 34.9392 25.2844 34.4439C24.9467 33.7537 23.9016 32.7225 23.178 32.349C22.1972 31.8618 21.0315 31.6751 19.9703 31.8537L19.9783 31.87ZM22.0605 33.3883C23.3227 33.7294 24.2714 34.72 24.3839 35.8324C24.4885 36.8149 24.0222 37.3751 22.3982 38.2115C22.0203 38.4145 21.9641 38.6093 22.0284 39.535C22.1007 40.5905 22.3419 42.7829 22.3902 42.8641C22.4786 43.0102 22.2294 43.0265 21.6746 42.9047C21.3531 42.8316 20.7903 42.7341 20.4366 42.6692C20.0828 42.6042 19.7773 42.5555 19.7613 42.5393C19.7211 42.5149 20.0909 40.5905 20.2597 39.9328C20.4285 39.2751 20.5813 38.1465 20.533 37.8136C20.517 37.6918 20.2919 37.4482 19.9542 37.1803C19.2226 36.6038 18.8769 35.9298 18.8769 35.1178C18.8769 34.2003 19.2146 33.7375 20.1391 33.3965C20.5813 33.2341 21.4817 33.2341 22.0525 33.3802L22.0605 33.3883Z" fill="#0C0D0F"/>
<path fill-rule="evenodd" clip-rule="evenodd" d="M6.56037 40.7773C6.18252 40.8585 6.01369 41.0046 5.82878 41.435C5.55544 42.0602 5.79663 42.7016 6.37547 42.8803C7.30001 43.1563 8.14415 42.1576 7.71806 41.305C7.49295 40.8747 7.05078 40.6798 6.56841 40.7854L6.56037 40.7773Z" fill="#0C0D0F"/>
<path fill-rule="evenodd" clip-rule="evenodd" d="M34.8836 43.9115C34.353 44.2363 34.1118 44.9427 34.353 45.4217C34.4012 45.5273 34.554 45.7222 34.6746 45.8521C35.1087 46.323 35.9368 46.0794 36.2503 45.373C36.5317 44.7559 36.4352 44.2687 35.9689 43.9358C35.6152 43.7004 35.2614 43.6922 34.8916 43.9196L34.8836 43.9115Z" fill="#0C0D0F"/>
</g>
<defs>
<clipPath id="clip0_1381_2021">
<rect width="44" height="51" fill="white"/>
</clipPath>
</defs>
</svg>
