<svg width="37" height="36" viewBox="0 0 37 36" fill="none" xmlns="http://www.w3.org/2000/svg">
<path d="M24.3672 6.375C24.3672 8.235 22.8522 9.75 20.9922 9.75H15.7422C14.8122 9.75 13.9722 9.375 13.3572 8.76C12.7422 8.145 12.3672 7.305 12.3672 6.375C12.3672 4.515 13.8822 3 15.7422 3H20.9922C21.9222 3 22.7622 3.375 23.3772 3.99C23.9922 4.605 24.3672 5.445 24.3672 6.375Z" fill="white"/>
<path d="M28.6122 7.54116C28.2672 7.25616 27.8772 7.03116 27.4572 6.86616C27.0222 6.70116 26.5872 7.04616 26.4972 7.49616C25.9872 10.0612 23.7222 11.9962 20.9922 11.9962H15.7422C14.2422 11.9962 12.8322 11.4112 11.7672 10.3462C10.9872 9.56616 10.4472 8.57616 10.2372 7.51116C10.1472 7.06116 9.69719 6.70116 9.26219 6.88116C7.52219 7.58616 6.36719 9.17616 6.36719 12.3712V26.9961C6.36719 31.4961 9.05219 32.9961 12.3672 32.9961H24.3672C27.6822 32.9961 30.3672 31.4961 30.3672 26.9961V12.3712C30.3672 9.92616 29.6922 8.42616 28.6122 7.54116ZM12.3672 18.3711H18.3672C18.9822 18.3711 19.4922 18.8811 19.4922 19.4961C19.4922 20.1111 18.9822 20.6211 18.3672 20.6211H12.3672C11.7522 20.6211 11.2422 20.1111 11.2422 19.4961C11.2422 18.8811 11.7522 18.3711 12.3672 18.3711ZM24.3672 26.6211H12.3672C11.7522 26.6211 11.2422 26.1111 11.2422 25.4961C11.2422 24.8811 11.7522 24.3711 12.3672 24.3711H24.3672C24.9822 24.3711 25.4922 24.8811 25.4922 25.4961C25.4922 26.1111 24.9822 26.6211 24.3672 26.6211Z" fill="white"/>
</svg>
