<svg width="40" height="40" viewBox="0 0 40 40" fill="none" xmlns="http://www.w3.org/2000/svg">
<path opacity="0.4" d="M36.1005 17.3975L34.4672 24.3642C33.0672 30.3808 30.3005 32.8142 25.1005 32.3142C24.2672 32.2475 23.3672 32.0975 22.4005 31.8642L19.6005 31.1975C12.6505 29.5475 10.5005 26.1142 12.1338 19.1475L13.7671 12.1642C14.1005 10.7476 14.5005 9.51423 15.0005 8.49756C16.9505 4.46423 20.2672 3.3809 25.8338 4.69756L28.6172 5.34756C35.6005 6.9809 37.7338 10.4309 36.1005 17.3975Z" fill="white"/>
<path d="M25.0972 32.3193C24.0638 33.0193 22.7638 33.6027 21.1805 34.1193L18.5472 34.986C11.9305 37.1193 8.44715 35.336 6.29715 28.7193L4.16382 22.136C2.03048 15.5193 3.79715 12.0193 10.4138 9.88593L13.0472 9.01926C13.7305 8.80259 14.3805 8.61926 14.9972 8.50259C14.4972 9.51926 14.0972 10.7526 13.7638 12.1693L12.1305 19.1527C10.4972 26.1193 12.6472 29.5527 19.5972 31.2027L22.3972 31.8693C23.3638 32.1027 24.2638 32.2527 25.0972 32.3193Z" fill="white"/>
<path d="M29.1488 17.5195C29.0488 17.5195 28.9488 17.5028 28.8321 17.4862L20.7488 15.4362C20.0821 15.2696 19.6821 14.5862 19.8488 13.9196C20.0155 13.2529 20.6988 12.8529 21.3655 13.0196L29.4488 15.0696C30.1155 15.2362 30.5155 15.9196 30.3488 16.5862C30.2155 17.1362 29.6988 17.5195 29.1488 17.5195Z" fill="white"/>
<path d="M24.2685 23.1482C24.1685 23.1482 24.0685 23.1315 23.9518 23.1148L19.1018 21.8815C18.4352 21.7148 18.0352 21.0315 18.2018 20.3648C18.3685 19.6982 19.0518 19.2982 19.7185 19.4648L24.5685 20.6982C25.2352 20.8648 25.6352 21.5482 25.4685 22.2148C25.3352 22.7815 24.8352 23.1482 24.2685 23.1482Z" fill="white"/>
</svg>
