<svg width="26" height="26" viewBox="0 0 26 26" fill="none" xmlns="http://www.w3.org/2000/svg">
<path opacity="0.4" d="M20.9517 15.6958L19.8684 13.8975C19.6409 13.4966 19.4351 12.7383 19.4351 12.2941V9.55335C19.4351 6.02168 16.5642 3.14001 13.0217 3.14001C9.47927 3.14001 6.60843 6.02168 6.60843 9.55335V12.2941C6.60843 12.7383 6.4026 13.4966 6.1751 13.8866L5.08093 15.6958C4.6476 16.4216 4.5501 17.2233 4.82093 17.96C5.08093 18.6858 5.69843 19.2491 6.5001 19.52C8.60177 20.235 10.8118 20.5816 13.0217 20.5816C15.2317 20.5816 17.4417 20.235 19.5434 19.5308C20.3017 19.2816 20.8867 18.7075 21.1684 17.96C21.4501 17.2125 21.3742 16.3891 20.9517 15.6958Z" fill="#0C0D0F"/>
<path d="M15.438 3.59663C14.6905 3.30413 13.878 3.14163 13.0222 3.14163C12.1772 3.14163 11.3647 3.29329 10.6172 3.59663C11.083 2.71913 12.0039 2.16663 13.0222 2.16663C14.0514 2.16663 14.9614 2.71913 15.438 3.59663Z" fill="#0C0D0F"/>
<path d="M16.0652 21.6775C15.6102 22.9341 14.4077 23.8333 12.9993 23.8333C12.1435 23.8333 11.2985 23.4866 10.7027 22.8691C10.356 22.5441 10.096 22.1108 9.94434 21.6666C10.0852 21.6883 10.226 21.6991 10.3777 21.7208C10.6268 21.7533 10.8868 21.7858 11.1468 21.8075C11.7643 21.8616 12.3927 21.8941 13.021 21.8941C13.6385 21.8941 14.256 21.8616 14.8627 21.8075C15.0902 21.7858 15.3177 21.775 15.5343 21.7425C15.7077 21.7208 15.881 21.6991 16.0652 21.6775Z" fill="#0C0D0F"/>
</svg>
