<svg width="32" height="32" viewBox="0 0 32 32" fill="none" xmlns="http://www.w3.org/2000/svg">
<path d="M12.2134 14.4934C12.0801 14.48 11.9201 14.48 11.7734 14.4934C8.60008 14.3867 6.08008 11.7867 6.08008 8.58669C6.08008 5.32002 8.72008 2.66669 12.0001 2.66669C15.2667 2.66669 17.9201 5.32002 17.9201 8.58669C17.9067 11.7867 15.3867 14.3867 12.2134 14.4934Z" stroke="#0C0D0F" stroke-width="1.5" stroke-linecap="round" stroke-linejoin="round"/>
<path d="M21.8804 5.33331C24.467 5.33331 26.547 7.42665 26.547 9.99998C26.547 12.52 24.547 14.5733 22.0537 14.6666C21.947 14.6533 21.827 14.6533 21.707 14.6666" stroke="#0C0D0F" stroke-width="1.5" stroke-linecap="round" stroke-linejoin="round"/>
<path d="M5.54695 19.4133C2.32029 21.5733 2.32029 25.0933 5.54695 27.24C9.21362 29.6933 15.227 29.6933 18.8936 27.24C22.1203 25.08 22.1203 21.56 18.8936 19.4133C15.2403 16.9733 9.22695 16.9733 5.54695 19.4133Z" stroke="#0C0D0F" stroke-width="1.5" stroke-linecap="round" stroke-linejoin="round"/>
<path d="M24.4531 26.6667C25.4131 26.4667 26.3198 26.08 27.0665 25.5067C29.1465 23.9467 29.1465 21.3734 27.0665 19.8134C26.3331 19.2534 25.4398 18.88 24.4931 18.6667" stroke="#0C0D0F" stroke-width="1.5" stroke-linecap="round" stroke-linejoin="round"/>
</svg>
