<svg width="68" height="53" viewBox="0 0 68 53" fill="none" xmlns="http://www.w3.org/2000/svg">
<g clip-path="url(#clip0_1381_1916)">
<path fill-rule="evenodd" clip-rule="evenodd" d="M38.1715 0.165934C37.8302 0.254452 36.9662 0.497876 36.2508 0.702573C35.5353 0.912803 34.8309 1.10644 34.6823 1.15069C34.3301 1.25028 31.5288 2.06353 31.1931 2.16312C31.0445 2.21291 30.6813 2.31249 30.3731 2.39547C30.0704 2.48399 29.8008 2.56698 29.7678 2.58358C29.7402 2.59464 29.5146 2.66656 29.2614 2.73295C29.0083 2.79934 28.3094 2.9985 27.704 3.18107C26.4217 3.56833 26.1025 3.66238 25.0734 3.95007C24.6551 4.06625 23.9452 4.27094 23.5049 4.39819C23.0701 4.53097 22.1235 4.79652 21.4081 5.00122C20.6927 5.19485 19.5094 5.53785 18.7775 5.74808C18.0455 5.95831 17.0879 6.24046 16.6477 6.36771C16.2129 6.50049 15.646 6.66646 15.4039 6.74391C15.1617 6.82689 14.5454 7.01499 14.0445 7.16437C13.087 7.45758 12.6302 7.59589 11.2048 8.04955C10.7315 8.19892 10.0271 8.42021 9.63633 8.53639C8.22746 8.96239 8.02934 9.02877 7.09376 9.34965C6.0371 9.72032 5.11253 10.0965 4.49065 10.4174C4.26501 10.5336 3.95682 10.6719 3.80823 10.7272C3.34044 10.8932 3.07077 11.0979 2.4709 11.723C1.18861 13.0729 0.60525 14.3454 0.231019 16.597C0.0273929 17.8418 -0.0441513 18.8376 -0.00562749 19.7616C0.0714201 21.5264 0.186991 21.9136 0.726325 22.1515C1.018 22.2843 2.03613 22.3064 2.68553 22.2013C4.11642 21.9579 4.60622 21.8638 6.58744 21.4379C6.96168 21.3549 7.56155 21.2276 7.91927 21.1612C8.28249 21.0893 8.80531 20.9731 9.09699 20.8902C9.39418 20.8127 9.63633 20.7518 9.64183 20.7629C9.66935 20.7906 10.0381 22.2843 10.1702 22.915C10.2472 23.2691 10.3793 23.8887 10.4673 24.2815C10.5499 24.6743 10.6434 25.1279 10.6765 25.2939C10.7315 25.5927 11.0947 27.3409 11.3589 28.5303C11.4304 28.8733 11.601 29.6589 11.7386 30.2841C11.9918 31.4846 12.0853 31.8664 12.311 32.7183C12.3935 33.0116 12.4596 33.2937 12.4651 33.3435C12.4651 33.432 12.5421 33.7142 13.131 35.8718C13.4777 37.1276 14.3142 39.667 14.4683 39.9325C14.5288 40.0376 14.5784 40.1704 14.5784 40.2202C14.5784 40.27 14.6334 40.4138 14.6884 40.5577C14.7545 40.696 14.9526 41.1718 15.1397 41.6088C16.4881 44.8453 18.062 47.534 19.7131 49.4261C20.1478 49.924 21.3421 51.0802 21.7053 51.3513C22.3162 51.816 23.4333 52.3416 24.1818 52.5297C24.545 52.6127 24.9083 52.7178 24.9963 52.7676C25.2385 52.8948 26.1135 53.0221 26.7299 53.0221C27.3463 53.0221 28.7992 52.8838 29.6522 52.751C30.5492 52.6072 31.7545 52.3859 34.4401 51.8714C35.3702 51.6943 36.636 51.4509 37.2469 51.3292C39.3382 50.9309 42.7833 50.2061 44.3132 49.8465C44.9461 49.6916 45.8267 49.4924 46.2669 49.3818C47.6263 49.0665 51.3356 48.1094 52.5904 47.7608C52.9976 47.6446 53.5535 47.4897 53.8341 47.4123C54.401 47.2518 56.5473 46.6267 56.8225 46.5437C56.9215 46.516 57.4664 46.3556 58.0332 46.1896C59.0899 45.8798 60.8179 45.3044 60.873 45.2436C60.8895 45.227 60.9555 45.1938 61.0216 45.1883C61.2362 45.144 62.4249 44.6406 63.1514 44.2754C63.9659 43.866 64.907 43.2796 65.1491 43.0251C65.2372 42.9366 65.3362 42.8591 65.3692 42.8591C65.4518 42.8591 65.9966 42.2838 66.2113 41.9795C66.3048 41.8412 66.4699 41.5314 66.5855 41.2935C66.6901 41.0556 66.8607 40.6739 66.9707 40.447C67.2569 39.8329 67.7192 38.5716 67.8678 38.0183C67.9779 37.62 67.9999 37.3766 68.0054 36.5854C68.0054 35.7722 67.9834 35.5509 67.8623 35.0751C67.6752 34.3227 67.5761 34.2176 67.0423 34.1899C66.7176 34.1733 66.5305 34.1955 66.1617 34.3172C65.6279 34.4887 63.4871 35.1028 62.6286 35.3351C62.3039 35.4181 61.803 35.5564 61.5059 35.6394C61.2142 35.7224 60.2786 35.9769 59.4201 36.2092L57.8626 36.6297L57.4333 36.2978C57.1912 36.1207 56.7619 35.6947 56.4758 35.3573C56.1841 35.0198 55.7273 34.4998 55.4466 34.2121C55.1714 33.9133 54.7257 33.3988 54.467 33.0558C53.9332 32.3587 53.2618 31.3795 53.2618 31.3021C53.2618 31.2799 53.1737 31.1195 53.0692 30.9535C52.6454 30.3062 51.4622 27.8775 51.1705 27.0643C51.1265 26.937 50.9558 26.511 50.7962 26.1016C49.2883 22.3562 48.1821 18.987 46.9053 14.2458C46.7953 13.8198 46.6467 13.2832 46.5861 13.0563C46.5201 12.824 46.4155 12.4256 46.3495 12.1656C45.2488 7.96103 45.0617 7.36353 44.2912 5.51019C43.8455 4.45351 42.9374 2.79934 42.4091 2.12439C41.9633 1.54902 41.1488 0.746832 40.8076 0.553199C40.5049 0.381696 40.3233 0.32084 39.3932 0.105078C38.8869 -0.0111013 38.9364 -0.0111013 38.1825 0.188064L38.1715 0.165934ZM39.949 1.17836C41.3029 1.75925 42.8769 4.39266 44.2967 8.44234C44.4728 8.95132 44.6214 9.39944 44.6214 9.42157C44.6214 9.4437 44.6875 9.66499 44.7645 9.90842C44.9021 10.3565 45.2268 11.4907 45.8047 13.593C45.9698 14.2015 46.2119 15.0812 46.3495 15.557C46.4816 16.0327 46.6412 16.6026 46.7017 16.8349C47.1475 18.4946 48.2041 21.8141 48.76 23.3133C48.8205 23.4738 49.0187 24.0104 49.1948 24.5028C50.3175 27.5622 50.9999 29.1942 51.7759 30.7101C52.2326 31.5897 52.3262 31.7391 53.1242 32.9452C53.8286 34.0018 54.445 34.7376 55.2595 35.4956C55.4356 35.6615 55.6392 35.8607 55.7163 35.9271C55.7878 35.999 56.041 36.1982 56.2831 36.3863C56.8995 36.851 56.916 36.8787 56.6354 36.9506C56.5088 36.9782 55.6558 37.2106 54.7257 37.4596C53.7956 37.7085 52.838 37.9685 52.5959 38.0294C52.3537 38.0958 52.1336 38.1677 52.1006 38.1843C52.073 38.2064 51.9465 38.2396 51.8364 38.2618C51.5447 38.3226 49.3709 38.8924 48.7875 39.0639C48.5288 39.1414 47.995 39.2852 47.6043 39.3848C47.2135 39.4899 46.8008 39.6006 46.6852 39.6282C46.5751 39.6614 46.2394 39.7555 45.9478 39.8329C45.6561 39.9159 44.9681 40.0985 44.4123 40.2534C43.862 40.4028 43.152 40.5964 42.8438 40.6794C42.5356 40.7624 41.6826 41.0003 40.9507 41.205C40.2187 41.4152 39.5143 41.6088 39.3822 41.6365C39.2501 41.6697 38.9089 41.7637 38.6117 41.8467C38.32 41.9297 37.4395 42.1787 36.658 42.3944C35.8765 42.6157 34.974 42.8702 34.6493 42.9587C32.1287 43.6779 31.6774 43.8162 31.5399 43.8882C31.3142 43.9988 31.2152 44.2699 30.951 45.3874C30.6098 46.848 30.3566 47.6059 29.8998 48.5022C29.1404 50.0125 28.6175 50.6598 27.781 51.0913C27.0711 51.462 26.7244 51.5449 25.8989 51.5449C25.1064 51.5394 24.6496 51.4398 23.758 51.0636C23.0921 50.776 22.5308 50.4053 21.8209 49.7525C20.5826 48.6183 19.5865 47.3293 18.6069 45.6087C18.2822 45.0389 17.1099 42.7153 16.9063 42.2229C16.8348 42.057 16.6091 41.5203 16.4 41.0335C15.8056 39.6448 15.3213 38.3115 14.9581 37.0502C14.848 36.6574 14.716 36.2203 14.6609 36.0709C14.6114 35.9216 14.5068 35.5343 14.4298 35.2079C14.3527 34.8815 14.2482 34.4942 14.1986 34.3448C14.0501 33.8691 13.6483 32.32 13.4612 31.4902C13.3566 31.0476 13.1695 30.2288 13.0429 29.6755C12.6467 27.9439 12.5091 27.3464 12.1624 25.6646C11.7882 23.8942 10.9131 20.3148 10.649 19.4849C10.5719 19.2415 10.5059 19.0091 10.5059 18.9704C10.5059 18.9317 10.4839 18.893 10.4453 18.893C10.4178 18.893 10.3848 18.8432 10.3848 18.7879C10.3848 18.3674 9.24559 15.6455 8.60169 14.539C7.9798 13.4657 6.44986 11.7396 5.64086 11.1975C5.45925 11.0702 5.30515 10.954 5.30515 10.9374C5.30515 10.8102 8.69525 9.69266 10.9516 9.0841C11.4194 8.95132 12.9549 8.5198 13.8464 8.25978C14.1711 8.16573 15.1067 7.89464 15.9267 7.66781C16.7412 7.44099 17.4842 7.22522 17.5667 7.19203C17.6493 7.16437 17.9299 7.08692 18.1776 7.02053C18.4308 6.95414 19.5755 6.64433 20.7092 6.32898C21.8484 6.01364 23.0536 5.67616 23.4003 5.58765C23.7415 5.4936 24.49 5.27783 25.0569 5.11186C25.6237 4.94036 26.2786 4.74673 26.5042 4.68587C27.1206 4.51437 29.2614 3.89474 30.3786 3.56833C30.918 3.4079 31.7655 3.15894 32.2718 3.0151C34.0824 2.48399 34.6658 2.30696 34.6933 2.29036C34.7153 2.2793 35.1831 2.13545 35.7334 1.96948C36.2838 1.80904 37.1863 1.52689 37.7367 1.34433C38.6613 1.04005 38.7768 1.01792 39.1896 1.03451C39.4868 1.05111 39.7399 1.10644 39.9546 1.19495L39.949 1.17836ZM4.68327 11.9333C5.26113 12.2209 6.57093 13.5598 7.22584 14.5501C7.8147 15.4463 8.48612 16.8903 8.96491 18.3231C9.31163 19.3522 9.39418 19.673 9.34465 19.7284C9.31163 19.7615 7.35242 20.1986 7.22034 20.1986C7.20382 20.1986 7.20933 20.2263 7.23134 20.2705C7.25336 20.3148 7.24785 20.3203 7.20382 20.2927C7.1598 20.2705 7.08825 20.265 7.03322 20.2871C6.97819 20.3093 6.81308 20.3424 6.66449 20.3535C6.5159 20.3646 5.98207 20.4863 5.48126 20.6135C3.47802 21.1446 2.52043 21.3327 1.66741 21.3659C0.63827 21.4102 0.720821 21.5706 0.720821 19.5569C0.720821 17.7146 0.748338 17.4933 1.1666 16.0327C1.62338 14.4284 2.1407 13.5045 3.12581 12.5639C3.98434 11.7341 4.13843 11.6732 4.68877 11.9333H4.68327ZM66.9817 35.5564C67.0313 36.0377 66.9212 37.3766 66.7891 37.8966C66.6075 38.6214 66.0847 40.1372 65.8646 40.6019C65.7545 40.8343 65.5619 41.1607 65.4408 41.3212C64.8574 42.1067 63.3385 43.0251 60.994 44.0154C59.6457 44.5852 58.424 45.0002 56.4427 45.57C51.3796 47.025 49.7671 47.4565 45.5075 48.48C44.5499 48.7124 43.6143 48.9392 43.4382 48.9835C43.2621 49.0277 43.0199 49.083 42.9044 49.0996C42.6622 49.1439 41.5946 49.3873 40.0646 49.7525C38.5787 50.1065 37.5276 50.3444 36.9607 50.4606C36.702 50.5159 36.0912 50.6376 35.6014 50.7428C35.1171 50.8423 34.4346 50.9751 34.0934 51.0415C33.0258 51.2296 32.1893 51.3845 31.727 51.473C30.995 51.6169 29.0358 51.9267 28.8652 51.9267C28.7111 51.9267 28.7166 51.9156 29.0303 51.6224C29.4761 51.213 29.9714 50.5325 30.3676 49.8023L30.6923 49.1937L30.9345 49.2269C31.1766 49.2546 32.2223 49.1162 33.323 48.8894C33.8678 48.7843 35.2767 48.5077 35.5683 48.4579C36.3388 48.314 37.0157 48.1591 37.1038 48.1038C37.2469 48.0208 37.3514 47.7774 37.3129 47.6446C37.2359 47.3957 36.8506 47.3957 35.4693 47.6391C35.1226 47.7055 34.3521 47.8327 33.7687 47.9434C33.1909 48.043 32.3434 48.22 31.9031 48.3362C31.4573 48.4468 31.0721 48.5409 31.039 48.5409C31.006 48.5409 31.0445 48.3472 31.1271 48.0983L31.2757 47.6502L31.5509 47.6834C31.7325 47.7 32.0462 47.6668 32.503 47.5672C32.8717 47.4842 33.444 47.3736 33.7687 47.3182C34.4622 47.2076 34.7098 47.0859 34.7318 46.8535C34.7483 46.7207 34.7208 46.682 34.5832 46.6267C34.3961 46.5492 33.4495 46.5935 33.0258 46.6875C32.8772 46.7207 32.5029 46.8037 32.2003 46.8756C31.8921 46.942 31.6059 47.014 31.5674 47.0305C31.4628 47.0748 31.4738 46.9254 31.6334 46.2118C31.7105 45.8743 31.793 45.4206 31.815 45.2215C31.8425 44.9725 31.8866 44.8342 31.9581 44.801C32.0131 44.7733 32.3709 44.6627 32.7616 44.5686C33.1524 44.4691 33.7797 44.3031 34.1485 44.198C34.5227 44.0984 34.974 43.9767 35.1556 43.938C35.4693 43.8605 36.7626 43.512 39.03 42.8868C39.6133 42.7264 40.3948 42.5106 40.7691 42.4166C42.2054 42.0348 43.4822 41.6863 43.906 41.5535C44.1481 41.4761 44.4673 41.3875 44.6159 41.3599C44.9021 41.2935 47.8244 40.4858 48.6059 40.2479C48.8646 40.1704 49.4809 39.9989 49.9652 39.8661C50.455 39.7278 51.0439 39.5674 51.264 39.501C51.7373 39.3627 52.4308 39.1746 52.86 39.0529C53.1572 38.9699 53.6745 38.8261 55.8484 38.2064C56.4813 38.0294 57.1086 37.8579 57.2352 37.8192C57.3673 37.786 57.9507 37.6255 58.534 37.454C59.1174 37.2936 59.7888 37.1166 60.0144 37.0557C60.2456 36.9948 60.7079 36.8731 61.0491 36.768C62.0342 36.4803 63.1734 36.1595 63.6192 36.0433C65.6664 35.4956 66.6901 35.2411 66.8772 35.219C66.9102 35.219 66.9597 35.3573 66.9762 35.5398L66.9817 35.5564Z" fill="#0C0D0F"/>
<path fill-rule="evenodd" clip-rule="evenodd" d="M30.1312 6.41748C29.6029 6.56686 25.7725 7.91122 23.0043 8.91811C21.7605 9.37176 20.5443 9.87521 20.2636 10.0522C19.9389 10.2625 19.8013 10.4672 19.9114 10.5999C20.0765 10.8046 20.8305 10.6055 23.4501 9.67051C23.9234 9.50454 24.4132 9.33303 24.5453 9.28878C24.6773 9.24452 25.1561 9.07301 25.6074 8.90704C26.0587 8.74107 27.286 8.29295 28.3316 7.92228C30.5825 7.10903 30.7806 7.03157 30.9072 6.86007C31.2154 6.46727 30.7916 6.22385 30.1257 6.41195L30.1312 6.41748Z" fill="#0C0D0F"/>
<path fill-rule="evenodd" clip-rule="evenodd" d="M39.2063 7.20864C39.1788 7.21971 38.7881 7.34142 38.3478 7.47419C37.2251 7.82273 36.185 8.16574 32.3766 9.44371C27.6877 11.0149 26.7907 11.3192 24.16 12.2597C22.8282 12.7355 18.9978 14.0743 17.8641 14.456C14.2759 15.6732 14.3089 15.6621 14.2374 15.817C14.1493 16.0106 14.2484 16.1489 14.4796 16.1489C14.7107 16.1489 16.1471 15.7783 17.2973 15.4297C19.7903 14.6663 20.836 14.3288 25.2497 12.8516C27.9133 11.9609 30.9787 10.943 32.0464 10.5944C33.1251 10.2459 34.6385 9.72586 35.4145 9.45478C36.196 9.17816 37.3792 8.76323 38.0451 8.53087C38.711 8.30405 39.2669 8.09382 39.2724 8.06062C39.2834 8.03296 39.3219 8.01637 39.3439 8.03849C39.421 8.08829 39.8227 7.90572 39.9108 7.78401C40.1309 7.49632 39.9053 7.17545 39.509 7.18098C39.3659 7.18098 39.2338 7.19204 39.1953 7.20311L39.2063 7.20864Z" fill="#0C0D0F"/>
<path fill-rule="evenodd" clip-rule="evenodd" d="M40.3347 11.1642C38.3535 11.723 37.5224 11.9664 36.1961 12.3758C35.8054 12.5031 35.2881 12.6635 35.0459 12.7409C34.8038 12.8129 33.9507 13.0784 33.1527 13.3274C32.3548 13.5763 31.1495 13.9581 30.4616 14.1628C27.7429 15.0092 26.1084 15.5127 25.3489 15.7616C24.9142 15.9055 23.7639 16.2651 22.8064 16.5583C20.0657 17.4047 19.851 17.4711 19.884 17.5209C19.9006 17.5486 19.8785 17.5541 19.829 17.5375C19.6859 17.4822 16.3123 18.6606 15.8776 18.9151C15.7785 18.9814 15.6519 19.0866 15.6079 19.1529C15.5364 19.2636 15.5364 19.2968 15.6244 19.3853C15.8005 19.5568 16.2408 19.4628 18.3981 18.7933C18.7614 18.6827 19.5373 18.4393 20.1427 18.2567C20.7481 18.0741 21.5131 17.8362 21.8598 17.7201C22.201 17.615 22.7238 17.4545 23.01 17.366C23.3072 17.283 23.786 17.1336 24.0721 17.0451C24.3693 16.9511 24.7931 16.8183 25.0187 16.7519C25.2499 16.68 26.1249 16.4089 26.9724 16.1433C27.8199 15.8778 28.8601 15.5569 29.2784 15.4241C29.7021 15.2914 30.6872 14.9816 31.4632 14.7381C32.2447 14.4892 33.2298 14.1794 33.6481 14.0466C34.0718 13.9138 34.5231 13.7755 34.6552 13.7257C34.7873 13.6814 35.3816 13.4933 35.987 13.3163C36.5924 13.1337 37.2693 12.918 37.4949 12.8405C38.1333 12.6248 39.4706 12.1988 40.4503 11.889C41.5179 11.557 41.6005 11.5072 41.6005 11.2417C41.6005 11.0923 41.5674 11.0314 41.4519 10.9817C41.2593 10.8931 41.2923 10.8876 40.3292 11.1532L40.3347 11.1642Z" fill="#0C0D0F"/>
<path fill-rule="evenodd" clip-rule="evenodd" d="M40.9837 15.3854C40.5269 15.5182 39.5693 15.7837 38.8539 15.9774C38.1384 16.171 37.1588 16.4532 36.669 16.597C34.275 17.2996 28.2048 19.0202 26.2071 19.5679C25.4256 19.7836 24.5615 20.0271 24.2864 20.1045C24.0112 20.1875 23.1031 20.442 22.2776 20.6743C19.9662 21.3216 17.9024 21.9081 17.6052 22.0132C17.4567 22.063 17.2916 22.1128 17.2255 22.1238C16.9338 22.1902 16.8623 22.4447 17.0934 22.5719C17.1925 22.6273 17.3411 22.6328 17.5832 22.5996C17.9575 22.5553 19.0196 22.3341 19.581 22.1847C19.7736 22.1294 20.1478 22.0353 20.4065 21.9689C20.6651 21.9025 21.4962 21.6757 22.2391 21.4655C22.9876 21.2552 23.9452 20.9842 24.3689 20.8735C24.7927 20.7573 25.5412 20.5416 26.0255 20.4033C26.5153 20.265 27.3243 20.0326 27.8306 19.8998C28.8927 19.6066 31.2317 18.9427 31.793 18.7823C32.2608 18.6384 32.514 18.5665 33.8898 18.1737C34.4732 18.0133 35.2712 17.7809 35.6619 17.6758C36.0526 17.5652 36.7186 17.3715 37.1423 17.2553C37.5661 17.1392 38.1109 16.9787 38.3531 16.9013C39.3272 16.597 39.7674 16.4587 40.3343 16.2872C42.332 15.6676 42.376 15.651 42.376 15.4131C42.376 15.2471 42.222 15.1475 41.9798 15.1531C41.8918 15.1531 41.4405 15.2582 40.9892 15.3909L40.9837 15.3854Z" fill="#0C0D0F"/>
<path fill-rule="evenodd" clip-rule="evenodd" d="M43.0204 18.3232C42.8718 18.3674 42.1453 18.5776 41.3969 18.7989C40.6539 19.0202 39.7844 19.2637 39.4762 19.3466C39.168 19.4241 38.2654 19.6675 37.4674 19.8833C36.6694 20.099 35.4092 20.431 34.6607 20.6246C33.9177 20.8127 32.9932 21.0561 32.6189 21.1557C32.2447 21.2553 31.8099 21.377 31.6448 21.4157C31.3587 21.4877 30.9129 21.6204 28.2437 22.3728C27.6108 22.5554 26.7743 22.7933 26.3836 22.9039C25.6736 23.0976 22.0084 24.1543 20.8857 24.4807C20.561 24.5747 19.9886 24.7352 19.6144 24.8347C18.6568 25.0948 18.5522 25.1501 18.5522 25.3714C18.5522 25.5097 18.5853 25.565 18.6953 25.6203C19.031 25.7697 20.7646 25.4046 23.5493 24.5968C23.874 24.5028 24.2868 24.3811 24.4684 24.3368C24.6445 24.287 25.1563 24.1487 25.5911 24.0159C26.0259 23.8832 26.6037 23.7227 26.8624 23.6508C27.121 23.5789 27.5503 23.4572 27.809 23.3797C28.0676 23.3023 28.717 23.1142 29.2564 22.9648C29.7957 22.8099 30.6432 22.572 31.1495 22.4282C32.3493 22.0907 35.6293 21.2055 35.8219 21.1668C35.9045 21.1502 36.1851 21.0727 36.4438 20.9953C36.7025 20.9234 37.2473 20.774 37.6545 20.6744C39.3386 20.2595 42.2279 19.4407 43.301 19.0756C43.5927 18.9815 43.8624 18.8487 43.9119 18.7879C43.9835 18.6883 43.978 18.4338 43.8954 18.301C43.8459 18.218 43.3726 18.2291 43.0369 18.3232H43.0204Z" fill="#0C0D0F"/>
<path fill-rule="evenodd" clip-rule="evenodd" d="M40.7639 26.2565C39.278 26.4335 37.9737 27.3021 37.2307 28.6077C36.4933 29.9078 36.4328 31.6727 37.0877 33.1332C37.5499 34.1622 38.4305 35.1415 39.2945 35.584C39.4816 35.6836 39.5367 35.739 39.5092 35.8164C39.4926 35.8717 39.4211 36.1539 39.3551 36.4526C39.289 36.7458 39.201 37.1165 39.1514 37.2825C39.0194 37.7417 38.8598 38.9367 38.9093 39.1137C38.9808 39.4014 39.3055 39.512 40.0815 39.5065C41.4133 39.5065 42.3599 39.2741 42.7727 38.8481C43.0974 38.5107 43.1579 38.2396 43.1414 37.0612L43.1304 36.1152L43.5376 35.9768C43.7633 35.8994 44.066 35.7666 44.2091 35.6836C44.5393 35.4955 44.5778 35.4955 44.5062 35.6726C44.4787 35.75 44.4732 35.8773 44.4897 35.9492C44.5393 36.1318 44.9575 36.7846 45.2712 37.1608C45.4198 37.3378 45.5134 37.5148 45.5134 37.6144C45.5134 38.0017 45.9371 38.0681 46.592 37.7749C47.3515 37.4429 48.5347 36.7514 48.7714 36.5135C48.9805 36.3033 49.0025 36.2479 49.0025 35.9879C49.0025 35.8109 48.9805 35.7113 48.942 35.7334C48.9145 35.75 48.8814 35.7168 48.8814 35.6449C48.8814 35.5619 48.5457 35.1747 47.8633 34.4886C47.302 33.9243 46.7736 33.4209 46.6966 33.3656L46.548 33.2715L46.6581 32.934C46.9608 31.9825 47.0213 30.8318 46.8067 30.0351C46.4214 28.6022 45.4858 27.4459 44.176 26.771C43.2735 26.3118 41.9747 26.1237 40.7639 26.262V26.2565ZM42.7837 26.7599C43.6367 26.9812 44.3742 27.4294 45.0346 28.1375C46.2728 29.4653 46.5425 31.2301 45.7555 32.8511C45.2327 33.9188 44.1925 34.7542 43.0478 35.0197C42.8222 35.0751 42.5966 35.1304 42.558 35.1581C42.514 35.1802 42.1453 35.1747 41.7325 35.1525C40.6704 35.0861 40.6539 35.0861 40.6539 35.0419C40.6539 35.0253 40.5273 34.9589 40.3787 34.898C39.6082 34.6104 38.7277 33.9243 38.2984 33.2715C37.7921 32.5081 37.6105 31.8276 37.6545 30.8152C37.682 30.2453 37.715 30.0794 37.8856 29.6478C38.2544 28.7073 38.6836 28.132 39.4486 27.5511C40.5108 26.7378 41.661 26.4612 42.7892 26.7599H42.7837ZM46.3939 34.1678C46.3939 34.1678 46.559 34.378 46.7681 34.5882C46.9718 34.804 47.3295 35.1913 47.5606 35.4513L47.9899 35.9271L47.6487 36.1373C47.4671 36.2535 47.1534 36.4305 46.9553 36.5301C46.7626 36.6297 46.5205 36.768 46.4159 36.8399L46.2343 36.9561L45.6289 36.2147C45.0841 35.5509 45.0071 35.4734 44.8364 35.4734H44.6493L44.886 35.2853C45.2162 35.0197 45.8876 34.3448 46.0032 34.1622C46.0912 34.0184 46.1187 34.0129 46.2453 34.0737C46.3279 34.1069 46.3939 34.1567 46.3939 34.1733V34.1678ZM40.896 36.1539C41.1106 36.1981 41.5399 36.2369 41.8646 36.2369H42.4425L42.4149 36.4858C42.3929 36.6297 42.3599 37.028 42.3379 37.3765C42.3214 37.7251 42.2719 38.0515 42.2333 38.1068C42.2003 38.1566 42.0132 38.2506 41.8261 38.317C41.4519 38.4498 39.9109 38.7098 39.8504 38.6545C39.8339 38.6324 39.8724 38.234 39.9494 37.7693C40.021 37.2991 40.0925 36.8012 40.1035 36.6518C40.1641 36.0211 40.1806 35.9824 40.3512 36.0266C40.4392 36.0488 40.6814 36.1041 40.896 36.1539Z" fill="#0C0D0F"/>
<path fill-rule="evenodd" clip-rule="evenodd" d="M41.2206 28.4473C39.9603 28.8124 39.0247 30.2177 39.2228 31.4735C39.4264 32.7847 40.5491 33.6367 41.958 33.5481C43.1027 33.4762 43.9833 32.8787 44.4511 31.8497C44.5996 31.5344 44.6272 31.3739 44.6547 30.8705C44.6767 30.3283 44.6657 30.2232 44.5171 29.8027L44.352 29.3325L43.8292 28.9563C43.1853 28.486 42.7395 28.3367 42.0516 28.3422C41.7874 28.3422 41.4132 28.392 41.2206 28.4473ZM43.1908 29.2163C43.4935 29.3657 43.5705 29.4431 43.9943 30.0351C44.1098 30.2011 44.2199 30.7986 44.1649 31.0254C44.1043 31.3131 43.8787 31.728 43.6586 31.9604C43.4109 32.2204 43.1247 32.4583 43.0477 32.4693C43.0202 32.4749 42.822 32.5357 42.6239 32.6076C41.3196 33.0558 40.0318 32.2702 40.0428 31.0364C40.0483 29.6312 41.8975 28.5635 43.1963 29.2108L43.1908 29.2163Z" fill="#0C0D0F"/>
<path fill-rule="evenodd" clip-rule="evenodd" d="M13.6319 26.3506C13.5658 26.4281 13.5823 26.5996 13.7474 27.4018C14.2262 29.7862 14.6005 31.3685 15.2334 33.8027C15.6571 35.4237 16.9174 39.1912 17.11 39.4014C17.2586 39.5619 17.5173 39.5398 17.6439 39.3461C17.8365 39.0474 17.8365 39.0418 16.8624 36.0599C16.5597 35.1249 16.235 34.0959 16.1524 33.7695C15.7342 32.2149 15.5856 31.6451 15.4425 31.1527C15.3599 30.854 15.2114 30.2952 15.1178 29.9024C14.562 27.7171 14.1547 26.5055 13.9181 26.334C13.7585 26.2234 13.7364 26.2234 13.6319 26.3395V26.3506Z" fill="#0C0D0F"/>
<path fill-rule="evenodd" clip-rule="evenodd" d="M30.6374 31.6451C29.6082 31.8829 27.0712 32.5247 26.8235 32.6077C26.6474 32.6741 26.4218 32.7405 26.3227 32.7571C26.0805 32.8124 24.8973 33.1886 23.1913 33.7639C22.2887 34.0627 21.7384 34.2729 21.6723 34.3504C21.5292 34.5108 21.5347 34.7155 21.6833 34.8428C21.7934 34.9423 21.8429 34.9479 22.2227 34.887C22.4538 34.8428 22.8005 34.7598 23.0041 34.7044C23.2078 34.6381 24.2864 34.3172 25.4091 33.9852C26.5318 33.6533 28.0343 33.1941 28.7497 32.9618C29.4651 32.7349 30.2741 32.4804 30.5493 32.3919C31.0886 32.2204 31.3253 32.0766 31.3253 31.9106C31.3253 31.6727 31.0281 31.5621 30.6429 31.6506L30.6374 31.6451Z" fill="#0C0D0F"/>
<path fill-rule="evenodd" clip-rule="evenodd" d="M29.2781 34.6878C28.381 34.9534 26.1191 35.7169 25.0239 36.1262C24.6057 36.2812 24.0003 36.4969 23.6921 36.5965C22.685 36.9229 22.63 36.9506 22.5914 37.1055C22.4649 37.6034 23.1198 37.5315 25.7889 36.7569C26.3117 36.602 26.8841 36.4361 27.0602 36.3807C28.9644 35.8275 30.4338 35.3351 30.6209 35.1802C30.8245 35.0087 30.841 34.7487 30.6704 34.5717C30.4998 34.4001 30.1696 34.4223 29.2836 34.6823L29.2781 34.6878Z" fill="#0C0D0F"/>
<path fill-rule="evenodd" clip-rule="evenodd" d="M18.1613 41.0003C18.0952 41.0943 18.1117 41.4152 18.1888 41.6974C18.3154 42.1676 18.6456 42.826 18.7722 42.8702C18.9538 42.9256 19.1024 42.8592 19.1794 42.6932C19.2399 42.5659 19.2234 42.4608 19.0803 42.0514C18.8932 41.5093 18.7006 41.122 18.552 41.0114C18.4419 40.9228 18.2108 40.9173 18.1558 41.0058L18.1613 41.0003Z" fill="#0C0D0F"/>
<path fill-rule="evenodd" clip-rule="evenodd" d="M20.0602 44.8121C19.9887 44.9117 19.9887 44.967 20.0547 45.1828C20.2969 45.9684 20.6821 46.7153 21.1939 47.44C21.5957 48.0043 22.7184 49.1661 23.1201 49.4316C23.3788 49.6032 24.0777 49.9794 24.1107 49.9683C24.1217 49.9683 24.2098 49.996 24.3033 50.0347C24.7326 50.2006 25.2885 50.2892 25.9158 50.2947C26.5542 50.3002 26.5983 50.2947 26.7028 50.1564C26.7634 50.0789 26.8129 49.9683 26.8129 49.9074C26.8129 49.7747 26.5707 49.5976 26.4167 49.6198C26.3561 49.6253 26.158 49.6032 25.9599 49.5589C25.6682 49.4925 25.6077 49.4925 25.5636 49.5644C25.5361 49.6142 25.5086 49.6197 25.5086 49.5755C25.5086 49.5312 25.2995 49.4593 25.0518 49.404C24.1437 49.1993 23.5219 48.8176 22.6964 47.9379C21.8929 47.0749 21.2985 46.3114 20.7812 45.4373C20.6106 45.1496 20.4455 44.9228 20.4124 44.9228C20.3794 44.9228 20.3629 44.8951 20.3794 44.8564C20.3849 44.8232 20.3299 44.7679 20.2639 44.7402C20.1648 44.707 20.1098 44.7181 20.0437 44.8177L20.0602 44.8121Z" fill="#0C0D0F"/>
<path fill-rule="evenodd" clip-rule="evenodd" d="M64.8687 36.9672C64.2524 37.1221 63.8341 37.2659 63.8341 37.3157C63.8341 37.3489 63.8066 37.36 63.7736 37.3379C63.702 37.2936 62.9811 37.5204 62.7884 37.6477C62.7169 37.6975 62.6454 37.7749 62.6288 37.8192C62.5738 37.9575 62.7004 38.14 62.849 38.14C63.1682 38.14 65.3255 37.5868 65.5401 37.4485C65.6832 37.3545 65.7163 37.0778 65.6007 36.9617C65.5181 36.8787 65.2099 36.8787 64.8742 36.9617L64.8687 36.9672Z" fill="#0C0D0F"/>
<path fill-rule="evenodd" clip-rule="evenodd" d="M58.6276 38.8925C57.7635 39.1359 56.8335 39.3959 56.5583 39.4734C56.2831 39.5564 55.6062 39.7611 55.0504 39.927C54.5 40.0985 53.8231 40.3032 53.5424 40.3862C53.2673 40.4637 52.9756 40.5522 52.893 40.5799C52.8105 40.6075 52.3922 40.7403 51.9575 40.8786C51.0384 41.1718 50.8953 41.2714 51.0549 41.5259C51.132 41.6421 51.3136 41.6089 53.1902 41.1442C53.2398 41.1331 53.4819 41.0778 53.7241 41.028C53.9662 40.9727 54.39 40.8675 54.6706 40.7846C54.9458 40.7016 55.7493 40.4747 56.4427 40.2811C58.2148 39.7832 60.2401 39.1746 60.5208 39.064C60.7739 38.9644 60.8895 38.7487 60.7739 38.5716C60.6473 38.378 60.2456 38.4333 58.6276 38.898V38.8925Z" fill="#0C0D0F"/>
</g>
<defs>
<clipPath id="clip0_1381_1916">
<rect width="68" height="53" fill="white"/>
</clipPath>
</defs>
</svg>
