<svg width="28" height="28" viewBox="0 0 28 28" fill="none" xmlns="http://www.w3.org/2000/svg">
<path opacity="0.4" d="M19.8335 23.9166H8.16683C4.66683 23.9166 2.3335 22.1666 2.3335 18.0833V9.91659C2.3335 5.83325 4.66683 4.08325 8.16683 4.08325H19.8335C23.3335 4.08325 25.6668 5.83325 25.6668 9.91659V18.0833C25.6668 22.1666 23.3335 23.9166 19.8335 23.9166Z" fill="#0C0D0F"/>
<path d="M13.9986 15.0171C13.0186 15.0171 12.0269 14.7138 11.2686 14.0955L7.61693 11.1788C7.2436 10.8755 7.17361 10.3272 7.47693 9.95382C7.78027 9.58049 8.32861 9.5105 8.70194 9.81384L12.3536 12.7305C13.2403 13.4421 14.7453 13.4421 15.6319 12.7305L19.2836 9.81384C19.6569 9.5105 20.2169 9.56882 20.5086 9.95382C20.8119 10.3272 20.7536 10.8872 20.3686 11.1788L16.7169 14.0955C15.9703 14.7138 14.9786 15.0171 13.9986 15.0171Z" fill="#0C0D0F"/>
</svg>
