<svg width="16" height="16" viewBox="0 0 16 16" fill="none" xmlns="http://www.w3.org/2000/svg">
<path opacity="0.4" d="M3.82592 10.6666C3.89926 10.3399 3.76592 9.87325 3.53259 9.63992L1.91259 8.01992C1.40592 7.51325 1.20592 6.97325 1.35259 6.50659C1.50592 6.03992 1.97925 5.71992 2.68592 5.59992L4.76592 5.25325C5.06592 5.19992 5.43259 4.93325 5.57259 4.65992L6.71928 2.35992C7.05261 1.69992 7.50594 1.33325 7.99928 1.33325C8.49261 1.33325 8.94594 1.69992 9.27928 2.35992L10.4259 4.65992C10.5126 4.83325 10.6926 4.99992 10.8859 5.11325L3.70592 12.2933C3.61259 12.3866 3.45259 12.2999 3.47925 12.1666L3.82592 10.6666Z" fill="#FFBB00"/>
<path d="M12.4672 9.64127C12.2272 9.88127 12.0939 10.3413 12.1739 10.6679L12.6339 12.6746C12.8272 13.5079 12.7072 14.1346 12.2939 14.4346C12.1272 14.5546 11.9272 14.6146 11.6939 14.6146C11.3539 14.6146 10.9539 14.4879 10.5139 14.2279L8.56053 13.0679C8.25387 12.8879 7.7472 12.8879 7.44053 13.0679L5.48719 14.2279C4.74719 14.6613 4.11385 14.7346 3.70719 14.4346C3.55385 14.3213 3.44052 14.1679 3.36719 13.9679L11.4739 5.86123C11.7805 5.55457 12.2139 5.41457 12.6339 5.4879L13.3072 5.60123C14.0139 5.72123 14.4872 6.04123 14.6405 6.5079C14.7872 6.9746 14.5872 7.5146 14.0805 8.02127L12.4672 9.64127Z" fill="#FFBB00"/>
</svg>
