<svg width="25" height="25" viewBox="0 0 25 25" fill="none" xmlns="http://www.w3.org/2000/svg">
<path d="M20.8333 20.0636H11.3854C10.9167 20.0636 10.5312 19.6781 10.5312 19.2094C10.5312 18.7406 10.9167 18.3552 11.3854 18.3552H20.8333C21.3021 18.3552 21.6875 18.7406 21.6875 19.2094C21.6875 19.6886 21.3021 20.0636 20.8333 20.0636Z" fill="#FFBB00"/>
<path d="M20.8333 13.5084H11.3854C10.9167 13.5084 10.5312 13.123 10.5312 12.6542C10.5312 12.1855 10.9167 11.8 11.3854 11.8H20.8333C21.3021 11.8 21.6875 12.1855 21.6875 12.6542C21.6875 13.123 21.3021 13.5084 20.8333 13.5084Z" fill="#FFBB00"/>
<path d="M20.8333 6.9493H11.3854C10.9167 6.9493 10.5312 6.56388 10.5312 6.09513C10.5312 5.62638 10.9167 5.24097 11.3854 5.24097H20.8333C21.3021 5.24097 21.6875 5.62638 21.6875 6.09513C21.6875 6.56388 21.3021 6.9493 20.8333 6.9493Z" fill="#FFBB00"/>
<path opacity="0.4" d="M5.11458 8.36661C4.88542 8.36661 4.66667 8.27286 4.51042 8.11661L3.5625 7.1687C3.22917 6.83537 3.22917 6.29369 3.5625 5.96036C3.89583 5.62703 4.4375 5.62703 4.77083 5.96036L5.11458 6.30412L7.34375 4.07494C7.67708 3.74162 8.21875 3.74162 8.55208 4.07494C8.88542 4.40828 8.88542 4.94995 8.55208 5.28329L5.71875 8.11661C5.55208 8.27286 5.34375 8.36661 5.11458 8.36661Z" fill="#FFBB00"/>
<path opacity="0.4" d="M5.11458 14.9257C4.89583 14.9257 4.67708 14.8423 4.51042 14.6757L3.5625 13.7278C3.22917 13.3945 3.22917 12.8528 3.5625 12.5195C3.89583 12.1862 4.4375 12.1862 4.77083 12.5195L5.11458 12.8633L7.34375 10.634C7.67708 10.3007 8.21875 10.3007 8.55208 10.634C8.88542 10.9673 8.88542 11.509 8.55208 11.8423L5.71875 14.6757C5.55208 14.8423 5.33333 14.9257 5.11458 14.9257Z" fill="#FFBB00"/>
<path opacity="0.4" d="M5.11458 21.1757C4.89583 21.1757 4.67708 21.0924 4.51042 20.9257L3.5625 19.9778C3.22917 19.6445 3.22917 19.1028 3.5625 18.7695C3.89583 18.4361 4.4375 18.4361 4.77083 18.7695L5.11458 19.1132L7.34375 16.884C7.67708 16.5507 8.21875 16.5507 8.55208 16.884C8.88542 17.2173 8.88542 17.7591 8.55208 18.0924L5.71875 20.9257C5.55208 21.0924 5.33333 21.1757 5.11458 21.1757Z" fill="#FFBB00"/>
</svg>
