<svg width="64" height="43" viewBox="0 0 64 43" fill="none" xmlns="http://www.w3.org/2000/svg">
<g clip-path="url(#clip0_1381_1970)">
<path fill-rule="evenodd" clip-rule="evenodd" d="M17.7784 0.0451782C17.241 0.0751695 16.4766 0.165143 16.0679 0.240121C15.6667 0.3151 15.2277 0.390078 15.0915 0.412571C14.9628 0.427567 14.4633 0.55503 13.9865 0.689991C9.70267 1.89714 5.95622 4.63384 3.34506 8.47273C2.13408 10.2572 0.832284 13.3538 0.42358 15.3932C-0.492219 20.0644 0.0754251 24.5256 2.14165 28.8068C2.45196 29.4516 2.79255 30.0889 2.90608 30.2314C3.01204 30.3664 3.10286 30.5088 3.10286 30.5313C3.10286 30.5688 3.46615 31.1386 3.80674 31.626C4.29113 32.3158 5.25991 33.4405 6.01677 34.1903C8.46142 36.612 11.5343 38.344 14.7282 39.0863C16.3328 39.4537 16.908 39.5212 18.7925 39.5587C21.1237 39.5962 22.872 39.3263 24.9685 38.5765C28.768 37.2269 31.8559 34.8051 34.2703 31.2886C34.4747 30.9887 34.6185 30.8462 34.679 30.8837C34.7244 30.9212 34.9136 31.0637 35.0953 31.1986C35.2769 31.3336 35.5494 31.521 35.7084 31.611C36.4122 32.0159 37.5475 32.6682 38.592 33.2755C39.2202 33.6429 40.2571 34.2352 40.908 34.5876C42.9136 35.6823 43.9051 36.2372 45.3356 37.0769C50.24 39.9261 54.6071 42.0555 57.0442 42.7903C57.5816 42.9477 57.9524 43.0077 58.4671 43.0152C59.4132 43.0152 59.7084 42.9177 60.2306 42.4004C60.7301 41.9205 61.1464 41.1632 61.8276 39.5137C62.0773 38.9214 62.4557 38.0441 62.6601 37.5793C63.6819 35.2924 63.9997 34.4002 63.9997 33.7629C63.9997 32.9906 63.6289 32.6307 62.3876 32.2333C61.9108 32.0759 60.5485 31.6185 59.3602 31.2286C58.1719 30.8387 57.0745 30.4863 56.9231 30.4563C56.7717 30.4263 56.6052 30.3664 56.5598 30.3364C56.522 30.3064 56.083 30.1564 55.5835 30.0215C55.0991 29.879 54.2363 29.6166 53.6762 29.4516C53.1161 29.2792 52.4047 29.0767 52.0944 28.9868C51.784 28.8968 51.2164 28.7393 50.8304 28.6269C49.854 28.342 48.2192 27.8846 47.4548 27.6821C47.0991 27.5772 46.6601 27.4572 46.4785 27.3897C45.6005 27.0973 42.6715 26.3175 42.6109 26.355C42.5731 26.3775 42.5352 26.3625 42.5352 26.3325C42.5352 26.2426 42.4066 26.2126 39.6516 25.5078C38.4482 25.2004 37.3886 24.9304 37.3205 24.893C37.1312 24.818 37.1312 24.698 37.3432 23.9632C37.6383 22.8985 37.7065 18.8347 37.4567 16.8553C37.2826 15.4607 36.662 12.9339 36.382 12.4991C36.3517 12.4391 36.3063 12.3416 36.2987 12.2666C36.2609 12.0042 35.5343 10.4522 35.0272 9.55991C34.7471 9.05756 34.1946 8.18781 33.7935 7.62547C32.4463 5.73602 30.0092 3.52417 28.0868 2.44448C25.7178 1.11737 22.9099 0.240121 20.5031 0.0751695C19.0499 -0.0223022 18.732 -0.0223022 17.7784 0.0451782ZM20.7452 1.20734C21.8503 1.3348 22.5768 1.46976 23.2656 1.6872C24.7112 2.12957 25.1123 2.27203 26.0735 2.7294C27.9581 3.62164 29.4264 4.61885 30.9023 6.04343C34.5201 9.49243 36.6014 14.1636 36.7982 19.2546C36.8436 20.6267 36.7225 22.1937 36.5182 22.6361C36.4349 22.8161 36.329 23.2509 36.276 23.6033C36.0792 24.9379 35.3072 27.1348 34.5049 28.6344C32.6128 32.1883 29.4189 35.1725 25.8692 36.732C24.575 37.2943 23.0991 37.7367 21.5627 38.0216C20.4652 38.2241 18.066 38.2691 16.8474 38.1116C14.0092 37.7442 10.9591 36.4996 8.62793 34.7601C7.77268 34.1228 6.00163 32.3683 5.26748 31.4311C3.48886 29.1442 2.15679 26.1451 1.64212 23.2809C1.1653 20.5592 1.27883 17.5826 1.96757 14.8609C2.81525 11.5618 4.48791 8.59269 6.88716 6.19339C8.39331 4.68633 9.73295 3.72661 11.6175 2.81937C14.5617 1.39479 17.6724 0.847445 20.7452 1.20734ZM37.4718 25.9651C37.7746 26.1001 39.3791 26.625 39.977 26.7824C40.1133 26.8124 40.6733 26.9773 41.241 27.1423C41.8011 27.2998 42.3006 27.4497 42.3384 27.4647C42.3838 27.4722 42.4747 27.5022 42.5428 27.5322C42.6109 27.5547 42.9439 27.6522 43.2769 27.7496C43.61 27.8471 44.2306 28.0345 44.6317 28.162C45.048 28.2895 45.6686 28.4694 46.0168 28.5594C46.3649 28.6494 46.7206 28.7618 46.8115 28.7993C46.9023 28.8368 48.5295 29.3242 50.4293 29.8865C52.329 30.4413 54.1908 30.9887 54.5768 31.1011C54.9628 31.2136 55.3564 31.3336 55.4699 31.3786C55.5835 31.4236 56.1284 31.581 56.6885 31.7385C57.2486 31.8884 57.9222 32.0909 58.1946 32.1808C58.4595 32.2633 59.2542 32.4882 59.943 32.6607C60.6317 32.8481 61.5702 33.1106 62.0168 33.253C62.6979 33.4705 62.8342 33.5379 62.8569 33.6879C62.8872 33.9203 62.6979 34.5277 62.2665 35.4724C61.328 37.5268 60.9118 38.509 60.4879 39.5662C60.0262 40.7508 59.5873 41.5231 59.3148 41.6656C58.7926 41.943 58.1871 41.838 56.3706 41.1332C54.5087 40.4134 51.2694 38.8764 48.6885 37.4818C48.4236 37.3393 47.9241 37.0694 47.591 36.897C47.258 36.717 46.3952 36.2596 45.6838 35.8773C43.2013 34.5426 42.9591 34.4227 42.9591 34.4827C42.9591 34.5127 42.9288 34.5052 42.8909 34.4527C42.8531 34.4002 41.9751 33.8978 40.9231 33.343C39.8711 32.7807 38.3952 31.9634 37.6308 31.5285C36.8739 31.1011 35.9733 30.6138 35.6402 30.4413C35.3072 30.2839 35.012 30.1264 34.9969 30.1114C34.9818 30.0964 35.0877 29.9015 35.224 29.6841C35.557 29.1367 36.223 27.6896 36.4955 26.8949C36.9193 25.6427 36.8739 25.6877 37.487 25.9576L37.4718 25.9651Z" fill="#0C0D0F"/>
<path fill-rule="evenodd" clip-rule="evenodd" d="M18.2628 1.7995C17.2411 1.90447 16.9459 1.97195 16.7945 2.1369C16.681 2.25687 16.6659 2.33184 16.7264 2.43681C16.8021 2.54928 17.0216 2.57927 17.9904 2.63176C18.997 2.67674 20.102 2.78921 20.8286 2.91667C21.3887 3.00665 23.2354 3.53149 23.9166 3.78642C24.8021 4.12382 25.1502 4.30377 26.7396 5.28598C27.3754 5.68337 27.9658 6.00578 28.0566 6.00578C28.2382 6.00578 28.4729 5.72086 28.4729 5.49592C28.4729 5.241 28.2231 4.96358 27.5041 4.44623C25.6119 3.06663 23.9695 2.31685 21.9639 1.93446C21.1767 1.7845 19.2392 1.71702 18.2628 1.807V1.7995Z" fill="#0C0D0F"/>
<path fill-rule="evenodd" clip-rule="evenodd" d="M18.1038 5.96826C17.1275 6.04324 15.6592 6.38814 14.6298 6.77053C14.2136 6.92798 13.7216 7.10793 13.5248 7.16791C13.1464 7.28788 12.2987 7.75274 11.4737 8.32258C8.52954 10.3245 6.41034 13.2786 5.54752 16.5627C5.28262 17.5749 5.25234 17.7098 5.12368 18.812C5.01015 19.7643 5.08583 21.7812 5.25991 22.5609C5.72916 24.6153 5.8881 25.0727 6.56171 26.3998C7.68186 28.6267 9.59671 30.5536 12.0035 31.9107C13.275 32.6305 15.1521 33.1928 16.9307 33.4028C17.9978 33.5228 20.2911 33.4628 21.2221 33.2753C25.1804 32.5105 28.3441 30.3212 30.5163 26.8572C31.9695 24.5329 32.7112 21.7887 32.6431 18.9395C32.5674 15.558 31.1823 12.2814 28.8285 9.91212C28.0111 9.08736 27.4737 8.64498 26.5655 8.06765C24.4236 6.68805 22.2741 6.03574 19.7159 5.98326C19.0499 5.96826 18.3157 5.96826 18.0887 5.98326L18.1038 5.96826ZM20.8285 7.2054C21.5021 7.34036 22.2892 7.53531 22.6979 7.66277C23.4018 7.8877 25.188 8.80994 25.8692 9.30479C26.8909 10.0471 28.0868 11.2842 28.8058 12.3639C29.3356 13.1512 30.0697 14.5983 30.2136 15.1381C30.2438 15.2656 29.9941 15.543 28.9193 16.4877C28.1171 17.2075 27.557 17.7698 27.5267 17.8823C27.4586 18.1297 27.6856 18.3996 27.9505 18.3996C28.1549 18.3996 29.0631 17.7098 29.9562 16.8776C30.259 16.5927 30.5239 16.3827 30.5541 16.4127C30.5768 16.4427 30.6298 16.6377 30.6601 16.8476C30.7358 17.29 30.872 17.1325 28.9572 18.752C26.9439 20.4541 25.6346 21.6162 25.5816 21.7587C25.4453 22.1111 25.68 22.4335 26.0811 22.4335C26.3309 22.4335 27.7462 21.2713 29.9562 19.2619C30.3952 18.857 30.7888 18.5196 30.819 18.5046C30.8569 18.4896 30.9099 18.782 30.9401 19.1494C30.9855 19.7867 30.8645 21.0914 30.6601 22.1561C30.5314 22.8309 30.0925 24.038 29.6383 24.9827C28.1927 27.9744 25.7784 30.1712 22.486 31.4833C19.6554 32.6155 16.2495 32.4506 13.381 31.0335C11.4056 30.0588 9.2864 28.0718 8.30248 26.2649C7.76511 25.2826 7.74241 25.2302 7.77268 25.1702C7.79539 25.1402 8.3706 24.7353 9.05177 24.2704C11.1634 22.8234 13.0556 21.3688 13.1388 21.1214C13.2372 20.8439 13.1237 20.664 12.8209 20.5515C12.556 20.4615 12.4274 20.5215 10.9818 21.5112C9.25613 22.6809 8.53711 23.1983 7.93919 23.6706C7.62131 23.9255 7.34127 24.1055 7.29586 24.068C7.26559 24.038 7.22017 23.918 7.21261 23.8056C7.19747 23.6331 7.41696 23.4082 8.55225 22.4185C9.91459 21.2338 10.1189 20.9789 9.94487 20.6865C9.85404 20.544 9.58914 20.484 9.31667 20.5515C9.13503 20.589 8.65064 20.9564 7.53806 21.8636C7.20504 22.1486 6.88716 22.3735 6.84931 22.3735C6.81147 22.3735 6.71308 21.8486 6.63739 21.2038C6.34222 18.7296 6.73578 16.5027 7.87107 14.1559C8.99123 11.8541 10.7093 10.0021 12.8436 8.80244C13.2221 8.5925 13.7367 8.29259 13.9865 8.15763C14.2287 8.01517 14.6525 7.83522 14.925 7.75274C15.1823 7.67776 15.4926 7.58029 15.6062 7.5428C15.9468 7.43034 16.9534 7.2204 17.5437 7.14542C18.2249 7.05545 20.2154 7.10793 20.8134 7.2279L20.8285 7.2054Z" fill="#0C0D0F"/>
<path fill-rule="evenodd" clip-rule="evenodd" d="M19.2316 12.7764C19.2013 12.8213 19.1332 13.2112 19.0878 13.6386C19.0121 14.2684 18.9667 14.4109 18.8532 14.4334C18.7396 14.4559 18.7169 14.4034 18.7169 14.0735C18.7169 13.6761 18.6185 13.4887 18.4142 13.4887C18.2628 13.4887 18.1493 13.7511 18.0887 14.2834L18.0433 14.7783L17.5741 15.0332C16.9762 15.3631 16.295 15.9254 15.9998 16.3378C15.7349 16.6977 15.6517 17.2676 15.7955 17.7099C15.9317 18.1373 16.7945 18.9771 17.4151 19.277L17.9298 19.5394L17.8844 20.2292C17.8617 20.6191 17.8087 21.6388 17.786 22.501C17.7557 23.3633 17.7179 24.0906 17.7027 24.1056C17.6876 24.1206 17.347 23.9856 16.9383 23.7982C15.9847 23.3483 15.6365 23.2958 15.364 23.5732C15.031 23.9031 15.0764 24.158 15.5835 24.6379C15.9847 25.0278 16.3782 25.2377 17.4605 25.6426L17.6725 25.7251V26.7448C17.6725 27.3146 17.7027 27.8245 17.7482 27.892C17.8541 28.0644 18.2325 27.9369 18.2855 27.712C18.3082 27.6145 18.3612 27.1722 18.3915 26.7298C18.452 25.98 18.4596 25.9275 18.6337 25.8975C18.8078 25.8751 18.8153 25.8975 18.8153 26.4599C18.8153 27.1722 18.9364 27.4421 19.2467 27.4721C19.663 27.5171 19.7311 27.3821 19.8295 26.3399L19.8901 25.7926L20.3896 25.5526C21.4643 25.0203 22.0017 24.4805 22.3272 23.6257C22.5315 23.0934 22.5466 22.2011 22.3499 21.6538C22.1001 20.904 21.2675 19.9818 20.3442 19.3969L19.9733 19.157V17.1251L19.9658 15.0857H20.2685C20.821 15.0632 21.0556 15.0932 21.4038 15.2431C21.7671 15.4006 21.9487 15.663 22.0395 16.1729C22.1304 16.6302 22.2212 16.7802 22.4482 16.7802C22.698 16.7802 22.8948 16.4953 22.8948 16.1429C22.8948 15.4006 22.4255 14.7483 21.6157 14.3884C21.2146 14.2009 20.8967 14.1635 19.9582 14.1635C19.9582 14.1635 19.9355 13.901 19.9203 13.5711C19.8976 13.2412 19.8371 12.9038 19.7992 12.8213C19.7084 12.6639 19.3603 12.6264 19.2694 12.7764H19.2316ZM19.0197 16.9976C19.0045 17.8674 18.9743 18.6097 18.944 18.6546C18.9137 18.6996 18.8456 18.7296 18.7926 18.6996C18.7169 18.6771 18.6942 18.2723 18.7018 17.1026C18.7094 15.573 18.7321 15.4156 18.9818 15.4081C19.0121 15.4081 19.0424 16.1204 19.0197 16.9901V16.9976ZM17.9676 17.1101C17.9525 18.3997 17.9449 18.4222 17.5589 18.2123C16.8929 17.8749 16.5145 17.3725 16.6431 17.0051C16.7188 16.7727 17.7103 15.9179 17.9222 15.9029C17.9525 15.9029 17.9828 16.4428 17.9676 17.1101ZM18.8986 21.5038C18.8759 24.9003 18.8986 24.5404 18.6942 24.5104C18.505 24.488 18.505 24.4805 18.5429 23.2808C18.558 22.6135 18.5807 21.9837 18.5883 21.8712C18.6034 21.7587 18.6185 21.2564 18.6185 20.7615C18.6261 19.9368 18.6412 19.8543 18.7699 19.8768C18.8986 19.8993 18.9061 20.0342 18.891 21.5113L18.8986 21.5038ZM20.5788 20.949C21.3659 21.6913 21.646 22.6885 21.2448 23.3333C20.9951 23.7382 20.102 24.398 19.9733 24.278C19.9355 24.248 19.8976 22.3361 19.9128 21.1589C19.9203 20.7465 19.9506 20.4991 20.0112 20.4991C20.0566 20.4991 20.3139 20.7016 20.5712 20.949H20.5788Z" fill="#0C0D0F"/>
<path fill-rule="evenodd" clip-rule="evenodd" d="M29.8504 7.04801C29.6536 7.24295 29.646 7.32543 29.8201 7.59535C30.0017 7.88776 31.0992 8.83249 31.349 8.92996C31.6139 9.03493 31.8863 8.8025 31.8863 8.48009C31.8863 8.07521 30.5997 6.88306 30.1607 6.88306C30.0774 6.88306 29.9412 6.95803 29.8504 7.04051V7.04801Z" fill="#0C0D0F"/>
<path fill-rule="evenodd" clip-rule="evenodd" d="M32.9157 10.482C32.7871 10.602 32.8854 10.9994 33.2941 12.0266C33.7331 13.0988 33.8694 13.5261 34.2856 15.0932C34.6035 16.2928 34.7322 17.0651 34.77 18.1148C34.8003 18.9096 34.8381 19.1045 34.9592 19.232C35.156 19.4194 35.4361 19.337 35.542 19.0595C35.6404 18.8046 35.6631 16.9676 35.5799 16.0529C35.5496 15.678 35.4436 15.0782 35.3528 14.7258C35.2695 14.3734 35.1712 13.991 35.156 13.886C34.9971 13.0913 34.0888 11.2093 33.6196 10.707C33.3698 10.4295 33.0444 10.3321 32.9006 10.4745L32.9157 10.482Z" fill="#0C0D0F"/>
<path fill-rule="evenodd" clip-rule="evenodd" d="M44.2608 29.129C44.0413 29.3465 44.1473 29.5864 44.556 29.7888C45.3507 30.1862 49.3999 31.5658 51.0953 32.0307C52.4501 32.3831 52.8512 32.3981 53.0026 32.1057C53.1161 31.8732 52.9723 31.5133 52.7225 31.4159C51.784 31.041 44.7982 29.0391 44.4122 29.0391C44.3819 29.0391 44.3138 29.0766 44.2608 29.1365V29.129Z" fill="#0C0D0F"/>
<path fill-rule="evenodd" clip-rule="evenodd" d="M54.6524 32.3831C54.3572 32.7205 54.9021 33.1554 55.9693 33.4403C56.7413 33.6428 57.1273 33.4628 56.9683 32.983C56.9002 32.773 56.7186 32.683 55.8785 32.4506C55.0535 32.2257 54.7886 32.2107 54.6524 32.3831Z" fill="#0C0D0F"/>
<path fill-rule="evenodd" clip-rule="evenodd" d="M58.9288 33.6502C58.7245 33.7927 58.7926 34.1751 59.0424 34.3625C59.3376 34.5799 60.6393 34.9398 60.8815 34.8874C60.9951 34.8574 61.1237 34.7524 61.1767 34.6399C61.3357 34.2875 61.101 34.0776 60.2231 33.8002C59.3678 33.5228 59.1408 33.5003 58.9288 33.6577V33.6502Z" fill="#0C0D0F"/>
</g>
<defs>
<clipPath id="clip0_1381_1970">
<rect width="64" height="43" fill="white"/>
</clipPath>
</defs>
</svg>
