<svg width="54" height="29" viewBox="0 0 54 29" fill="none" xmlns="http://www.w3.org/2000/svg">
<path d="M0.120492 22.338V15.156H6.37849V9.066H13.3925V15.156H19.6505V22.338H13.3925V28.428H6.37849V22.338H0.120492ZM24.9235 27V16.584C24.9235 11.292 24.5035 8.268 22.8235 2.766L29.7955 0.329998C31.6855 5.832 32.1055 9.36 32.1055 16.416V27H24.9235ZM46.4544 16.248C45.7824 16.248 45.2784 16.122 44.9844 15.996V16.458V27H37.8024V16.584C37.8024 11.292 37.3824 8.268 35.7024 2.766L42.6744 0.329998L44.3964 7.512C44.6484 8.394 45.0684 8.73 45.6984 8.73C46.3704 8.73 46.8324 8.352 46.8324 7.596C46.8324 7.134 46.6224 5.622 45.9924 1.674L53.1324 0.329998C53.7624 4.404 53.9724 6.672 53.9724 8.352C53.9724 13.014 50.8644 16.248 46.4544 16.248Z" fill="#0C0D0F"/>
</svg>
