<svg width="49" height="30" viewBox="0 0 49 30" fill="none" xmlns="http://www.w3.org/2000/svg">
<path d="M0.409555 23.338V16.156H6.66756V10.066H13.6816V16.156H19.9396V23.338H13.6816V29.428H6.66756V23.338H0.409555ZM23.9525 19.936C23.9525 15.988 26.0525 12.04 31.0925 7.126L29.6645 5.908L33.8645 0.741998C44.9945 8.386 48.6065 13.342 48.6065 19.138C48.6065 25.06 44.4485 28 40.7945 28C38.6525 28 37.0985 27.538 36.1325 26.488C34.9985 27.538 33.4445 28 31.6385 28C26.8085 28 23.9525 25.06 23.9525 19.936ZM41.7605 18.676C41.7605 16.408 40.1225 14.056 36.0485 11.032C32.4785 14.098 30.8405 16.66 30.8405 18.97C30.8405 20.104 31.2185 20.608 32.0585 20.608C32.9825 20.608 33.4025 19.936 33.4025 18.97V16.366H39.3245V19.642C39.3245 19.894 39.2825 20.062 39.2825 20.188C39.4925 20.524 39.9125 20.608 40.4585 20.608C41.1305 20.608 41.7605 20.02 41.7605 18.676Z" fill="#0C0D0F"/>
</svg>
