<svg width="67" height="29" viewBox="0 0 67 29" fill="none" xmlns="http://www.w3.org/2000/svg">
<path d="M0.357797 22.338V15.156H6.6158V9.066H13.6298V15.156H19.8878V22.338H13.6298V28.428H6.6158V22.338H0.357797ZM33.9808 27V17.76C33.0148 18.012 32.0908 18.054 31.2928 18.054C26.2108 18.054 23.8168 14.694 23.8168 10.242C23.8168 5.412 27.1768 0.329998 32.6368 0.329998C38.0548 0.329998 41.1628 4.488 41.1628 12.048V27H33.9808ZM34.4428 10.662C34.4428 8.31 33.6868 7.344 32.4268 7.344C31.2928 7.344 30.6628 8.268 30.6628 9.528C30.6628 10.578 31.2508 10.956 32.3848 10.956C33.0568 10.956 33.8128 10.914 34.4428 10.662ZM58.8799 0.707998C60.5599 10.2 62.5759 15.66 66.9019 23.556L60.4339 27.588C57.4519 22.296 56.2339 18.222 55.3939 12.552C54.7219 18.222 53.4199 22.296 50.4799 27.588L43.9279 23.556C48.2119 15.828 50.2279 10.326 51.9499 0.707998H58.8799Z" fill="#0C0D0F"/>
</svg>
