<svg width="15" height="14" viewBox="0 0 15 14" fill="none" xmlns="http://www.w3.org/2000/svg">
<path d="M1.74263 14C0.686625 14 0.114625 13.516 0.114625 12.284C0.114625 11.052 0.686625 10.634 1.74263 10.634C2.82063 10.634 3.39263 11.052 3.39263 12.284C3.39263 13.516 2.82063 14 1.74263 14ZM11.0531 7.818C10.4371 7.818 10.0191 7.708 9.79909 7.576V8.346V14H7.00509V8.39C7.00509 5.574 6.78509 3.924 5.90509 0.976L8.58909 0.0299989L9.57909 3.858C9.75509 4.584 10.1731 4.892 10.7891 4.892C11.4051 4.892 11.9111 4.496 11.9111 3.88C11.9111 3.462 11.8011 2.604 11.4711 0.601999L14.2871 0.0299989C14.6171 2.032 14.7271 3.154 14.7271 4.034C14.7271 6.256 13.1651 7.818 11.0531 7.818Z" fill="#FFBB00"/>
</svg>
