<svg width="20" height="14" viewBox="0 0 20 14" fill="none" xmlns="http://www.w3.org/2000/svg">
<path d="M1.80122 14C0.745219 14 0.173219 13.516 0.173219 12.284C0.173219 11.052 0.745219 10.634 1.80122 10.634C2.87922 10.634 3.45122 11.052 3.45122 12.284C3.45122 13.516 2.87922 14 1.80122 14ZM14.3237 0.0299989C14.6537 1.966 14.7637 3.132 14.7637 3.99C14.7637 4.1 14.7417 4.298 14.7197 4.408C14.9617 4.738 15.2697 4.892 15.7977 4.892C16.4137 4.892 16.8977 4.496 16.8977 3.88C16.8977 3.418 16.7877 2.538 16.4797 0.601999L19.2957 0.0299989C19.6037 1.988 19.7137 3.088 19.7137 4.034C19.7137 6.256 18.1737 7.818 16.0617 7.818C14.9617 7.818 13.9717 7.4 13.5757 6.85C13.0917 7.488 12.1017 7.818 11.1117 7.818C10.4957 7.818 10.0777 7.708 9.85769 7.576V8.346V14H7.06369V8.39C7.06369 5.574 6.84369 3.924 5.96369 0.976L8.64769 0.0299989L9.63769 3.858C9.81369 4.584 10.2317 4.892 10.8477 4.892C11.4637 4.892 11.9697 4.496 11.9697 3.88C11.9697 3.462 11.8597 2.604 11.5297 0.601999L14.3237 0.0299989Z" fill="#FFBB00"/>
</svg>
