<svg width="24" height="24" viewBox="0 0 24 24" fill="none" xmlns="http://www.w3.org/2000/svg">
<path d="M12.92 2.26009L19.43 5.77009C20.19 6.18009 20.19 7.35009 19.43 7.76009L12.92 11.2701C12.34 11.5801 11.66 11.5801 11.08 11.2701L4.57 7.76009C3.81 7.35009 3.81 6.18009 4.57 5.77009L11.08 2.26009C11.66 1.95009 12.34 1.95009 12.92 2.26009Z" stroke="#FFBB00" stroke-width="1.5" stroke-linecap="round" stroke-linejoin="round"/>
<path d="M3.61 10.1298L9.66 13.1598C10.41 13.5398 10.89 14.3098 10.89 15.1498V20.8698C10.89 21.6998 10.02 22.2298 9.28 21.8598L3.23 18.8298C2.48 18.4498 2 17.6798 2 16.8398V11.1198C2 10.2898 2.87 9.75978 3.61 10.1298Z" stroke="#FFBB00" stroke-width="1.5" stroke-linecap="round" stroke-linejoin="round"/>
<path d="M20.3894 10.1298L14.3394 13.1598C13.5894 13.5398 13.1094 14.3098 13.1094 15.1498V20.8698C13.1094 21.6998 13.9794 22.2298 14.7194 21.8598L20.7694 18.8298C21.5194 18.4498 21.9994 17.6798 21.9994 16.8398V11.1198C21.9994 10.2898 21.1294 9.75978 20.3894 10.1298Z" stroke="#FFBB00" stroke-width="1.5" stroke-linecap="round" stroke-linejoin="round"/>
</svg>
