<svg width="19" height="14" viewBox="0 0 19 14" fill="none" xmlns="http://www.w3.org/2000/svg">
<path d="M1.85395 14C0.797953 14 0.225953 13.516 0.225953 12.284C0.225953 11.052 0.797953 10.634 1.85395 10.634C2.93195 10.634 3.50395 11.052 3.50395 12.284C3.50395 13.516 2.93195 14 1.85395 14ZM11.2964 5.596C11.0764 5.134 10.9884 4.518 10.9884 3.99C10.9884 1.79 12.8364 0.0299989 15.2564 0.0299989C16.1364 0.0299989 17.1484 0.25 18.1384 0.69L17.4344 3.264C16.5764 2.934 15.9164 2.824 15.3664 2.824C14.3324 2.824 13.7164 3.528 13.7164 4.364C13.7164 5.376 14.3324 5.882 15.0584 5.882C15.9164 5.882 17.0164 5.574 18.0944 5.134L18.7764 7.708C17.1044 8.456 15.4544 8.786 14.0244 8.786C12.4404 8.786 11.1644 8.478 10.3504 7.994V8.698V14H7.55642V8.39C7.55642 5.574 7.33642 3.924 6.45642 0.976L9.14042 0.0299989C9.47042 1.086 9.91042 3.154 10.1304 4.474C10.2404 5.068 10.4604 5.376 11.2964 5.596Z" fill="#FFBB00"/>
</svg>
