<svg width="20" height="20" viewBox="0 0 20 20" fill="none" xmlns="http://www.w3.org/2000/svg">
<path d="M7.97617 15.6842C7.81784 15.6842 7.65951 15.6259 7.53451 15.5009L2.47617 10.4426C2.23451 10.2009 2.23451 9.8009 2.47617 9.55923L7.53451 4.50089C7.77617 4.25922 8.17617 4.25922 8.41783 4.50089C8.6595 4.74256 8.6595 5.14256 8.41783 5.38422L3.80117 10.0009L8.41783 14.6176C8.6595 14.8592 8.6595 15.2592 8.41783 15.5009C8.30117 15.6259 8.13451 15.6842 7.97617 15.6842Z" fill="#949494"/>
<path d="M17.0856 10.625H3.06055C2.71888 10.625 2.43555 10.3417 2.43555 10C2.43555 9.65833 2.71888 9.375 3.06055 9.375H17.0856C17.4272 9.375 17.7106 9.65833 17.7106 10C17.7106 10.3417 17.4272 10.625 17.0856 10.625Z" fill="#949494"/>
</svg>
