<svg width="20" height="20" viewBox="0 0 20 20" fill="none" xmlns="http://www.w3.org/2000/svg">
<path d="M12.0253 15.6842C11.8669 15.6842 11.7086 15.6259 11.5836 15.5009C11.3419 15.2592 11.3419 14.8592 11.5836 14.6176L16.2003 10.0009L11.5836 5.38422C11.3419 5.14256 11.3419 4.74256 11.5836 4.50089C11.8253 4.25922 12.2253 4.25922 12.4669 4.50089L17.5253 9.55923C17.7669 9.8009 17.7669 10.2009 17.5253 10.4426L12.4669 15.5009C12.3419 15.6259 12.1836 15.6842 12.0253 15.6842Z" fill="#949494"/>
<path d="M16.941 10.625H2.91602C2.57435 10.625 2.29102 10.3417 2.29102 10C2.29102 9.65833 2.57435 9.375 2.91602 9.375H16.941C17.2827 9.375 17.566 9.65833 17.566 10C17.566 10.3417 17.2827 10.625 16.941 10.625Z" fill="#949494"/>
</svg>
