<svg width="43" height="36" viewBox="0 0 43 36" fill="none" xmlns="http://www.w3.org/2000/svg">
<g clip-path="url(#clip0_1710_3275)">
<path d="M19.8863 4.53285L19.6545 4.23947C19.4732 4.0088 19.2 3.87554 18.9056 3.87554L1.30977 3.87554C0.97953 3.87554 0.678398 3.99983 0.447788 4.20252L0.447788 1.31123C0.447788 0.835319 0.835119 0.447873 1.30977 0.447873L12.7978 0.447874C12.9836 0.447874 13.1549 0.549775 13.2433 0.714384L14.6908 3.40635L31.3485 3.40635L31.3485 4.53286L19.8863 4.53285Z" fill="#FFE9A7"/>
<path d="M41.7496 6.83292L41.7496 5.17115C41.7496 4.81954 41.463 4.53288 41.1115 4.53288L40.3144 4.53288L40.3144 3.40637L41.4641 3.40637C42.0641 3.40637 42.5522 3.8946 42.5522 4.4948L42.5522 7.02104C42.3832 6.90346 42.1783 6.83404 41.9578 6.83404L41.7496 6.83404L41.7496 6.83292Z" fill="#FFE9A7"/>
<path d="M1.31091 4.32348L18.9067 4.32348C19.0624 4.32348 19.2079 4.39403 19.3042 4.51609L21.4804 7.28084L41.9578 7.28084C42.2858 7.28084 42.5522 7.54735 42.5522 7.87545L42.5522 35.5521L0.447793 35.5521L0.447796 5.18572C0.447796 4.70981 0.835129 4.32348 1.30978 4.32348L1.31091 4.32348ZM4.56968 18.257L15.3883 18.257C15.7834 18.257 16.1058 17.9356 16.1058 17.5392L16.1058 7.34691C16.1058 6.95162 15.7845 6.62912 15.3894 6.62912L4.5708 6.62912C4.17563 6.62912 3.85434 6.9505 3.85434 7.34691L3.85434 17.5392C3.85434 17.9345 4.17563 18.257 4.5708 18.257L4.56968 18.257Z" fill="#FFE9A7"/>
<path d="M35.1503 3.40637L36.5127 3.40637L36.5127 4.53288L35.1503 4.53288L35.1503 3.40637Z" fill="#FFE9A7"/>
<path d="M0.44779 35.5521L42.5522 35.5521L42.5522 8.45547L43 8.45547L43 36L1.32974e-06 36L3.8147e-06 7.57531L0.447792 7.57531L0.44779 35.5521Z" fill="#0C0D0F"/>
<path d="M18.9068 3.87563C19.2012 3.87563 19.4743 4.00776 19.6557 4.23956L19.8874 4.53294L19.7195 4.53294L19.7195 4.98086L20.24 4.98086L21.6976 6.83299L41.3018 6.83299L41.3018 7.05694L41.7496 7.05694L41.7496 6.83299L41.9578 6.83299C42.1783 6.83299 42.3832 6.90241 42.5522 7.01999L42.5522 7.87551C42.5522 7.54741 42.2858 7.2809 41.9578 7.2809L21.4804 7.2809L19.3042 4.51615C19.2079 4.39409 19.0635 4.32354 18.9068 4.32354L1.31091 4.32354C0.835133 4.32354 0.448914 4.71099 0.448913 5.18578L0.448914 4.20149C0.679527 3.9988 0.980663 3.87451 1.31091 3.87451L18.9068 3.87451L18.9068 3.87563Z" fill="#0C0D0F"/>
<path d="M42.5522 7.8755L42.5522 4.49374C42.5522 3.89354 42.0641 3.40531 41.4641 3.40531L40.3144 3.40531L40.3144 2.9574L41.4641 2.9574C42.3115 2.9574 43 3.64719 43 4.49374L43 8.45555L42.5522 8.45555L42.5522 7.8755Z" fill="#0C0D0F"/>
<path d="M35.1503 2.9585L36.5127 2.9585L36.5127 3.40641L35.1503 3.40641L35.1503 2.9585Z" fill="#0C0D0F"/>
<path d="M1.31089 -2.62597e-06L12.7989 -1.62166e-06C13.1504 -1.59093e-06 13.4717 0.192602 13.6385 0.501663L14.9595 2.95847L31.3485 2.95847L31.3485 3.40639L14.6908 3.40639L13.2433 0.714422C13.1549 0.549813 12.9847 0.447913 12.7978 0.447913L1.30977 0.447912C0.833998 0.447912 0.447786 0.835358 0.447786 1.31127L0.447786 7.57647L-2.5697e-06 7.57647L-2.02198e-06 1.31127C-1.95884e-06 0.589005 0.587713 -2.6892e-06 1.30977 -2.62607e-06L1.31089 -2.62597e-06Z" fill="#0C0D0F"/>
<path d="M41.7496 5.17112L41.7496 7.05684L41.3018 7.05684L41.3018 5.17112C41.3018 5.06586 41.2167 4.98075 41.1115 4.98075L40.3144 4.98075L40.3144 4.53284L41.1115 4.53284C41.463 4.53284 41.7496 4.8195 41.7496 5.17112Z" fill="#0C0D0F"/>
<path d="M35.1503 4.53284L36.5127 4.53284L36.5127 4.98075L35.1503 4.98075L35.1503 4.53284Z" fill="#0C0D0F"/>
<path d="M19.7184 4.98075L19.7184 4.53284L19.8863 4.53284L31.3485 4.53284L31.3485 4.98075L20.2389 4.98075L19.7184 4.98075Z" fill="#0C0D0F"/>
<path d="M4.56968 6.63025L15.3882 6.63025C15.7834 6.63025 16.1047 6.95163 16.1047 7.34803L16.1047 17.5403C16.1047 17.9356 15.7834 18.2581 15.3871 18.2581L4.56856 18.2581C4.17338 18.2581 3.85098 17.9367 3.85098 17.5403L3.85098 7.34803C3.85098 6.95275 4.17227 6.63025 4.56856 6.63025L4.56968 6.63025ZM4.56968 17.8091L15.3882 17.8091C15.5371 17.8091 15.658 17.6881 15.658 17.5392L15.658 7.34691C15.658 7.19798 15.5371 7.07704 15.3894 7.07704L4.5708 7.07704C4.42191 7.07704 4.30212 7.19798 4.30212 7.34691L4.30212 17.5392C4.30212 17.6881 4.42303 17.8091 4.5708 17.8091L4.56968 17.8091Z" fill="#0C0D0F"/>
<path d="M5.71603 8.85083L14.2139 8.85083L14.2139 9.84184L5.71603 9.84184L5.71603 8.85083Z" fill="#0C0D0F"/>
<path d="M5.71603 10.8328L14.2139 10.8328L14.2139 11.8238L5.71603 11.8238L5.71603 10.8328Z" fill="#0C0D0F"/>
<path d="M8.84047 12.8159L14.2139 12.8159L14.2139 13.8069L8.84047 13.8069L8.84047 12.8159Z" fill="#0C0D0F"/>
<path d="M40.3144 4.5329L40.3144 4.98081L36.5127 4.98081L36.5127 2.29445C36.5127 2.06601 36.6985 1.88013 36.9269 1.88013L39.8991 1.88013C40.1274 1.88013 40.3133 2.06601 40.3133 2.29445L40.3133 4.5329L40.3144 4.5329ZM39.8666 2.32804L36.9605 2.32804L36.9605 4.5329L39.8666 4.5329L39.8666 2.32804Z" fill="#0C0D0F"/>
<path d="M35.1503 4.5329L35.1503 4.98081L31.3485 4.98081L31.3485 2.29445C31.3485 2.06601 31.5344 1.88013 31.7628 1.88013L34.7349 1.88013C34.9633 1.88013 35.1491 2.06601 35.1491 2.29445L35.1491 4.5329L35.1503 4.5329ZM34.7025 2.32804L31.7963 2.32804L31.7963 4.5329L34.7025 4.5329L34.7025 2.32804Z" fill="#0C0D0F"/>
<path d="M16.9678 34.2631L40.3144 34.2631C40.4375 34.2631 40.5383 34.1623 40.5383 34.0391C40.5383 33.916 40.4375 33.8152 40.3144 33.8152L16.9678 33.8152C16.8447 33.8152 16.7439 33.916 16.7439 34.0391C16.7439 34.1623 16.8447 34.2631 16.9678 34.2631Z" fill="white"/>
<path d="M1.73407 29.709C1.85721 29.709 1.95796 29.6082 1.95796 29.485L1.95796 6.13301C1.95796 6.00984 1.85721 5.90906 1.73407 5.90906C1.61093 5.90906 1.51017 6.00984 1.51017 6.13301L1.51017 29.4862C1.51017 29.6093 1.61092 29.7101 1.73407 29.7101L1.73407 29.709Z" fill="white"/>
</g>
<defs>
<clipPath id="clip0_1710_3275">
<rect width="43" height="36" fill="white" transform="matrix(-1 -8.74228e-08 -8.74228e-08 1 43 0)"/>
</clipPath>
</defs>
</svg>
