<svg width="16" height="17" viewBox="0 0 16 17" fill="none" xmlns="http://www.w3.org/2000/svg">
<path d="M8.13391 7.9018L7.19389 8.8418C6.67389 9.3618 6.67389 10.2085 7.19389 10.7285C7.71389 11.2485 8.56056 11.2485 9.08056 10.7285L10.5606 9.24848C11.6006 8.20848 11.6006 6.52181 10.5606 5.47514C9.52058 4.43514 7.8339 4.43514 6.78723 5.47514L5.17391 7.08847C4.28057 7.9818 4.28057 9.42847 5.17391 10.3218" stroke="#FFBB00" stroke-linecap="round" stroke-linejoin="round"/>
<path d="M5.99967 14.7018H9.99967C13.333 14.7018 14.6663 13.3685 14.6663 10.0352V6.03516C14.6663 2.70183 13.333 1.36849 9.99967 1.36849H5.99967C2.66634 1.36849 1.33301 2.70183 1.33301 6.03516V10.0352C1.33301 13.3685 2.66634 14.7018 5.99967 14.7018Z" stroke="#FFBB00" stroke-linecap="round" stroke-linejoin="round"/>
</svg>
