<svg width="26" height="26" viewBox="0 0 26 26" fill="none" xmlns="http://www.w3.org/2000/svg">
<path opacity="0.4" d="M19.4476 8.35415L19.2959 8.26749L17.7901 7.40082L14.6809 5.60249C13.7276 5.04999 12.2759 5.04999 11.3226 5.60249L8.21336 7.40082L6.70753 8.27832L6.51253 8.38665C4.57336 9.68665 4.44336 9.92499 4.44336 12.0159V17.01C4.44336 19.1009 4.57336 19.3392 6.55586 20.6717L11.3226 23.4234C11.7992 23.705 12.3951 23.835 13.0017 23.835C13.5976 23.835 14.2042 23.705 14.6809 23.4234L19.4909 20.6392C21.4301 19.3392 21.5601 19.1009 21.5601 17.01V12.0159C21.5601 9.92499 21.4301 9.68665 19.4476 8.35415Z" fill="#0C0D0F"/>
<path d="M6.70703 8.27663L8.21286 7.39913L11.1812 5.68746L11.322 5.60079C12.2754 5.04829 13.727 5.04829 14.6804 5.60079L14.8212 5.68746L17.7895 7.39913L19.2954 8.26579V5.94746C19.2954 3.50996 17.952 2.16663 15.5145 2.16663H10.477C8.03953 2.16663 6.70703 3.50996 6.70703 5.94746V8.27663Z" fill="#0C0D0F"/>
<path d="M16.0767 14.453L15.405 15.2763C15.2967 15.3955 15.2208 15.6338 15.2317 15.7963L15.2967 16.8581C15.34 17.5081 14.8742 17.8438 14.2675 17.6055L13.2817 17.2156C13.13 17.1614 12.87 17.1614 12.7183 17.2156L11.7325 17.6055C11.1258 17.8438 10.6601 17.5081 10.7034 16.8581L10.7684 15.7963C10.7792 15.6338 10.7034 15.3955 10.5951 15.2763L9.92338 14.453C9.50088 13.9546 9.68505 13.4021 10.3134 13.2396L11.3425 12.9796C11.505 12.9363 11.7 12.7846 11.7867 12.6438L12.3608 11.7555C12.7183 11.2031 13.2817 11.2031 13.6392 11.7555L14.2133 12.6438C14.3 12.7846 14.495 12.9363 14.6575 12.9796L15.6867 13.2396C16.315 13.4021 16.4992 13.9546 16.0767 14.453Z" fill="#0C0D0F"/>
</svg>
