<svg width="36" height="36" viewBox="0 0 36 36" fill="none" xmlns="http://www.w3.org/2000/svg">
<path d="M33.0001 7.27468V25.1097C33.0001 26.5647 31.8151 27.8997 30.3601 28.0797L29.8951 28.1397C27.4351 28.4697 23.9701 29.4897 21.1801 30.6597C20.2051 31.0647 19.1251 30.3297 19.1251 29.2647V8.39968C19.1251 7.84468 19.4401 7.33468 19.9351 7.06468C22.6801 5.57968 26.8351 4.25968 29.6551 4.01968H29.7451C31.5451 4.01968 33.0001 5.47468 33.0001 7.27468Z" fill="#FFBB00"/>
<path d="M16.0657 7.06468C13.3207 5.57968 9.16569 4.25968 6.34569 4.01968H6.24069C4.44069 4.01968 2.98569 5.47468 2.98569 7.27468V25.1097C2.98569 26.5647 4.17069 27.8997 5.62569 28.0797L6.09069 28.1397C8.55069 28.4697 12.0157 29.4897 14.8057 30.6597C15.7807 31.0647 16.8607 30.3297 16.8607 29.2647V8.39968C16.8607 7.82968 16.5607 7.33468 16.0657 7.06468ZM7.50069 11.6097H10.8757C11.4907 11.6097 12.0007 12.1197 12.0007 12.7347C12.0007 13.3647 11.4907 13.8597 10.8757 13.8597H7.50069C6.88569 13.8597 6.37569 13.3647 6.37569 12.7347C6.37569 12.1197 6.88569 11.6097 7.50069 11.6097ZM12.0007 18.3597H7.50069C6.88569 18.3597 6.37569 17.8647 6.37569 17.2347C6.37569 16.6197 6.88569 16.1097 7.50069 16.1097H12.0007C12.6157 16.1097 13.1257 16.6197 13.1257 17.2347C13.1257 17.8647 12.6157 18.3597 12.0007 18.3597Z" fill="#FFBB00"/>
</svg>
