<svg width="34" height="34" viewBox="0 0 34 34" fill="none" xmlns="http://www.w3.org/2000/svg">
<path d="M24.9617 15.2314C24.3525 15.2314 23.8708 14.7356 23.8708 14.1405C23.8708 13.6164 23.3467 12.5255 22.4683 11.5764C21.6042 10.6555 20.655 10.1172 19.8617 10.1172C19.2525 10.1172 18.7708 9.62138 18.7708 9.02638C18.7708 8.43138 19.2667 7.93555 19.8617 7.93555C21.2783 7.93555 22.7658 8.70055 24.0692 10.0747C25.2875 11.3639 26.0667 12.9647 26.0667 14.1264C26.0667 14.7356 25.5708 15.2314 24.9617 15.2314Z" fill="#FFBB00"/>
<path d="M30.0755 15.2292C29.4664 15.2292 28.9847 14.7333 28.9847 14.1383C28.9847 9.10918 24.8905 5.02918 19.8755 5.02918C19.2664 5.02918 18.7847 4.53334 18.7847 3.93834C18.7847 3.34334 19.2664 2.83334 19.8614 2.83334C26.0947 2.83334 31.1664 7.90501 31.1664 14.1383C31.1664 14.7333 30.6705 15.2292 30.0755 15.2292Z" fill="#FFBB00"/>
<path opacity="0.4" d="M16.7025 20.1308L12.07 24.7633C11.56 24.31 11.0642 23.8425 10.5825 23.3608C9.12333 21.8875 7.80583 20.3433 6.62999 18.7283C5.46833 17.1133 4.53333 15.4983 3.85333 13.8975C3.17333 12.2825 2.83333 10.7383 2.83333 9.26501C2.83333 8.30168 3.00333 7.38084 3.34333 6.53084C3.68333 5.66668 4.22166 4.87334 4.97249 4.16501C5.87916 3.27251 6.87083 2.83334 7.91916 2.83334C8.31583 2.83334 8.71249 2.91834 9.06666 3.08834C9.43499 3.25834 9.76083 3.51334 10.0158 3.88168L13.3025 8.51418C13.5575 8.86834 13.7417 9.19418 13.8692 9.50584C13.9967 9.80334 14.0675 10.1008 14.0675 10.37C14.0675 10.71 13.9683 11.05 13.77 11.3758C13.5858 11.7017 13.3167 12.0417 12.9767 12.3817L11.9 13.5008C11.7442 13.6567 11.6733 13.8408 11.6733 14.0675C11.6733 14.1808 11.6875 14.28 11.7158 14.3933C11.7583 14.5067 11.8008 14.5917 11.8292 14.6767C12.0842 15.1442 12.5233 15.7533 13.1467 16.49C13.7842 17.2267 14.4642 17.9775 15.2008 18.7283C15.7108 19.2242 16.2067 19.7058 16.7025 20.1308Z" fill="#FFBB00"/>
<path d="M31.1236 25.9662C31.1236 26.3629 31.0528 26.7737 30.9111 27.1704C30.8686 27.2837 30.8261 27.3971 30.7694 27.5104C30.5286 28.0204 30.2169 28.5021 29.8061 28.9554C29.1119 29.7204 28.3469 30.2729 27.4828 30.6271C27.4686 30.6271 27.4544 30.6412 27.4403 30.6412C26.6044 30.9812 25.6978 31.1654 24.7203 31.1654C23.2753 31.1654 21.7311 30.8254 20.1019 30.1312C18.4728 29.4371 16.8436 28.5021 15.2286 27.3262C14.6761 26.9154 14.1236 26.5046 13.5995 26.0654L18.2319 21.4329C18.6286 21.7304 18.9828 21.9571 19.2803 22.1129C19.3511 22.1412 19.4361 22.1837 19.5353 22.2262C19.6486 22.2687 19.7619 22.2829 19.8894 22.2829C20.1303 22.2829 20.3144 22.1979 20.4703 22.0421L21.5469 20.9796C21.9011 20.6254 22.2411 20.3562 22.5669 20.1862C22.8928 19.9879 23.2186 19.8887 23.5728 19.8887C23.8419 19.8887 24.1253 19.9454 24.4369 20.0729C24.7486 20.2004 25.0744 20.3846 25.4286 20.6254L30.1178 23.9546C30.4861 24.2096 30.7411 24.5071 30.8969 24.8612C31.0386 25.2154 31.1236 25.5696 31.1236 25.9662Z" fill="#FFBB00"/>
</svg>
