<svg width="36" height="36" viewBox="0 0 36 36" fill="none" xmlns="http://www.w3.org/2000/svg">
<path opacity="0.4" d="M28.0042 3H25.1542C21.8842 3 20.1592 4.725 20.1592 7.995V10.845C20.1592 14.115 21.8842 15.84 25.1542 15.84H28.0042C31.2742 15.84 32.9992 14.115 32.9992 10.845V7.995C32.9992 4.725 31.2742 3 28.0042 3Z" fill="#FFBB00"/>
<path opacity="0.4" d="M10.86 20.1446H8.01C4.725 20.1446 3 21.8696 3 25.1396V27.9896C3 31.2746 4.725 32.9996 7.995 32.9996H10.845C14.115 32.9996 15.84 31.2746 15.84 28.0046V25.1545C15.855 21.8695 14.13 20.1446 10.86 20.1446Z" fill="#FFBB00"/>
<path d="M9.435 15.87C12.9889 15.87 15.87 12.9889 15.87 9.435C15.87 5.88105 12.9889 3 9.435 3C5.88105 3 3 5.88105 3 9.435C3 12.9889 5.88105 15.87 9.435 15.87Z" fill="#FFBB00"/>
<path d="M26.5649 33.0029C30.1188 33.0029 32.9999 30.1218 32.9999 26.5679C32.9999 23.0139 30.1188 20.1329 26.5649 20.1329C23.0109 20.1329 20.1299 23.0139 20.1299 26.5679C20.1299 30.1218 23.0109 33.0029 26.5649 33.0029Z" fill="#FFBB00"/>
</svg>
