<svg width="36" height="36" viewBox="0 0 36 36" fill="none" xmlns="http://www.w3.org/2000/svg">
<path d="M24.285 3H11.715C6.255 3 3 6.255 3 11.715V24.27C3 29.745 6.255 33 11.715 33H24.27C29.73 33 32.985 29.745 32.985 24.285V11.715C33 6.255 29.745 3 24.285 3ZM13.665 25.35C13.665 25.77 13.335 26.1 12.915 26.1H8.73C8.31 26.1 7.98 25.77 7.98 25.35V18.42C7.98 17.475 8.745 16.71 9.69 16.71H12.915C13.335 16.71 13.665 17.04 13.665 17.46V25.35ZM20.835 25.35C20.835 25.77 20.505 26.1 20.085 26.1H15.9C15.48 26.1 15.15 25.77 15.15 25.35V11.61C15.15 10.665 15.915 9.9 16.86 9.9H19.14C20.085 9.9 20.85 10.665 20.85 11.61V25.35H20.835ZM28.02 25.35C28.02 25.77 27.69 26.1 27.27 26.1H23.085C22.665 26.1 22.335 25.77 22.335 25.35V20.025C22.335 19.605 22.665 19.275 23.085 19.275H26.31C27.255 19.275 28.02 20.04 28.02 20.985V25.35Z" fill="#FFBB00"/>
</svg>
