<svg width="36" height="36" viewBox="0 0 36 36" fill="none" xmlns="http://www.w3.org/2000/svg">
<path d="M18 34.1246C12 34.1246 7.125 29.8196 7.125 24.5246V18.9746C7.125 18.3596 7.635 17.8496 8.25 17.8496C8.865 17.8496 9.375 18.3596 9.375 18.9746C9.375 22.9046 13.08 25.8746 18 25.8746C22.92 25.8746 26.625 22.9046 26.625 18.9746C26.625 18.3596 27.135 17.8496 27.75 17.8496C28.365 17.8496 28.875 18.3596 28.875 18.9746V24.5246C28.875 29.8196 24 34.1246 18 34.1246ZM9.375 24.6896C9.48 28.6646 13.305 31.8746 18 31.8746C22.695 31.8746 26.52 28.6646 26.625 24.6896C24.675 26.8046 21.585 28.1246 18 28.1246C14.415 28.1246 11.34 26.8046 9.375 24.6896Z" fill="#FFBB00"/>
<path d="M18 20.625C13.86 20.625 10.14 18.765 8.32498 15.765C7.54498 14.49 7.125 13.005 7.125 11.475C7.125 8.895 8.28001 6.465 10.365 4.635C12.405 2.85 15.12 1.875 18 1.875C20.88 1.875 23.58 2.85 25.635 4.62C27.72 6.465 28.875 8.895 28.875 11.475C28.875 13.005 28.455 14.475 27.675 15.765C25.86 18.765 22.14 20.625 18 20.625ZM18 4.125C15.66 4.125 13.47 4.905 11.835 6.345C10.245 7.725 9.375 9.555 9.375 11.475C9.375 12.6 9.67498 13.65 10.245 14.595C11.67 16.935 14.64 18.375 18 18.375C21.36 18.375 24.33 16.92 25.755 14.595C26.34 13.65 26.625 12.6 26.625 11.475C26.625 9.555 25.755 7.725 24.15 6.315C22.515 4.905 20.34 4.125 18 4.125Z" fill="#FFBB00"/>
<path d="M18 28.125C11.805 28.125 7.125 24.195 7.125 18.975V11.475C7.125 6.18 12 1.875 18 1.875C20.88 1.875 23.58 2.85 25.635 4.62C27.72 6.465 28.875 8.895 28.875 11.475V18.975C28.875 24.195 24.195 28.125 18 28.125ZM18 4.125C13.245 4.125 9.375 7.425 9.375 11.475V18.975C9.375 22.905 13.08 25.875 18 25.875C22.92 25.875 26.625 22.905 26.625 18.975V11.475C26.625 9.555 25.755 7.725 24.15 6.315C22.515 4.905 20.34 4.125 18 4.125Z" fill="#FFBB00"/>
</svg>
