<svg width="44" height="44" viewBox="0 0 44 44" fill="none" xmlns="http://www.w3.org/2000/svg">
<path opacity="0.4" d="M33 37.5851H31.1667V37.1267C31.1667 35.1101 29.5167 33.4601 27.5 33.4601H23.375V29.2617C22.9167 29.3167 22.4583 29.3351 22 29.3351C21.5417 29.3351 21.0833 29.3167 20.625 29.2617V33.4601H16.5C14.4833 33.4601 12.8333 35.1101 12.8333 37.1267V37.5851H11C10.2483 37.5851 9.625 38.2084 9.625 38.9601C9.625 39.7117 10.2483 40.3351 11 40.3351H33C33.7517 40.3351 34.375 39.7117 34.375 38.9601C34.375 38.2084 33.7517 37.5851 33 37.5851Z" fill="#0C0D0F"/>
<path opacity="0.4" d="M10.1187 21.3401C8.90871 20.8817 7.84538 20.1301 7.00204 19.2867C5.29704 17.3984 4.17871 15.1434 4.17871 12.5034C4.17871 9.86342 6.25038 7.79175 8.89038 7.79175H9.91704C9.44038 8.76341 9.16538 9.84508 9.16538 11.0001V16.5001C9.16538 18.2234 9.49538 19.8551 10.1187 21.3401Z" fill="#0C0D0F"/>
<path opacity="0.4" d="M39.8209 12.5034C39.8209 15.1434 38.7026 17.3984 36.9976 19.2867C36.1543 20.1301 35.0909 20.8817 33.8809 21.3401C34.5043 19.8551 34.8343 18.2234 34.8343 16.5001V11.0001C34.8343 9.84508 34.5593 8.76341 34.0826 7.79175H35.1093C37.7493 7.79175 39.8209 9.86342 39.8209 12.5034Z" fill="#0C0D0F"/>
<path d="M27.5 3.66675H16.5C12.4483 3.66675 9.16666 6.94841 9.16666 11.0001V16.5001C9.16666 23.5951 14.905 29.3334 22 29.3334C29.095 29.3334 34.8333 23.5951 34.8333 16.5001V11.0001C34.8333 6.94841 31.5517 3.66675 27.5 3.66675ZM27.2067 15.4917L26.07 16.8851C25.8867 17.0867 25.7583 17.4901 25.7767 17.7651L25.8867 19.5617C25.96 20.6617 25.1717 21.2301 24.145 20.8267L22.4767 20.1667C22.22 20.0751 21.78 20.0751 21.5233 20.1667L19.855 20.8267C18.8283 21.2301 18.04 20.6617 18.1133 19.5617L18.2233 17.7651C18.2417 17.4901 18.1133 17.0867 17.93 16.8851L16.7933 15.4917C16.0783 14.6484 16.39 13.7134 17.4533 13.4384L19.195 12.9984C19.47 12.9251 19.8 12.6684 19.9467 12.4301L20.9183 10.9267C21.5233 9.99175 22.4767 9.99175 23.0817 10.9267L24.0533 12.4301C24.2 12.6684 24.53 12.9251 24.805 12.9984L26.5467 13.4384C27.61 13.7134 27.9217 14.6484 27.2067 15.4917Z" fill="#0C0D0F"/>
<path opacity="0.4" d="M27.2061 15.4928L26.0695 16.8861C25.8861 17.0878 25.7578 17.4911 25.7761 17.7661L25.8861 19.5628C25.9595 20.6628 25.1711 21.2311 24.1445 20.8278L22.4761 20.1678C22.2195 20.0761 21.7795 20.0761 21.5228 20.1678L19.8545 20.8278C18.8278 21.2311 18.0396 20.6628 18.1129 19.5628L18.2229 17.7661C18.2412 17.4911 18.1129 17.0878 17.9296 16.8861L16.7929 15.4928C16.0779 14.6495 16.3896 13.7145 17.4529 13.4395L19.1945 12.9995C19.4695 12.9262 19.7995 12.6695 19.9461 12.4312L20.9178 10.9278C21.5228 9.99282 22.4761 9.99282 23.0811 10.9278L24.0528 12.4312C24.1995 12.6695 24.5295 12.9262 24.8045 12.9995L26.5461 13.4395C27.6095 13.7145 27.9211 14.6495 27.2061 15.4928Z" fill="#0C0D0F"/>
</svg>
