<svg width="36" height="37" viewBox="0 0 36 37" fill="none" xmlns="http://www.w3.org/2000/svg">
<path d="M24 3.50015H12C6.75 3.50015 4.5 6.50015 4.5 11.0002V26.0002C4.5 30.5002 6.75 33.5002 12 33.5002H24C29.25 33.5002 31.5 30.5002 31.5 26.0002V11.0002C31.5 6.50015 29.25 3.50015 24 3.50015ZM12 18.8752H18C18.615 18.8752 19.125 19.3852 19.125 20.0002C19.125 20.6152 18.615 21.1252 18 21.1252H12C11.385 21.1252 10.875 20.6152 10.875 20.0002C10.875 19.3852 11.385 18.8752 12 18.8752ZM24 27.1252H12C11.385 27.1252 10.875 26.6152 10.875 26.0002C10.875 25.3852 11.385 24.8752 12 24.8752H24C24.615 24.8752 25.125 25.3852 25.125 26.0002C25.125 26.6152 24.615 27.1252 24 27.1252ZM27.75 14.3752H24.75C22.47 14.3752 20.625 12.5302 20.625 10.2502V7.25015C20.625 6.63515 21.135 6.12515 21.75 6.12515C22.365 6.12515 22.875 6.63515 22.875 7.25015V10.2502C22.875 11.2852 23.715 12.1252 24.75 12.1252H27.75C28.365 12.1252 28.875 12.6352 28.875 13.2502C28.875 13.8652 28.365 14.3752 27.75 14.3752Z" fill="#FFBB00"/>
</svg>
