<svg width="24" height="24" viewBox="0 0 24 24" fill="none" xmlns="http://www.w3.org/2000/svg">
<path d="M8.68055 12.7201H10.4205V16.7701C10.4205 17.3701 11.1605 17.6501 11.5605 17.2001L15.8205 12.3601C16.1905 11.9401 15.8905 11.2801 15.3305 11.2801H13.5905V7.23009C13.5905 6.63009 12.8505 6.35009 12.4505 6.80009L8.19055 11.6401C7.82055 12.0601 8.12055 12.7201 8.68055 12.7201Z" stroke="#FFBB00" stroke-width="1.5" stroke-miterlimit="10" stroke-linecap="round" stroke-linejoin="round"/>
<path d="M11.9707 22.0001C17.4936 22.0001 21.9707 17.5229 21.9707 12.0001C21.9707 6.47724 17.4936 2.00009 11.9707 2.00009C6.44786 2.00009 1.9707 6.47724 1.9707 12.0001C1.9707 17.5229 6.44786 22.0001 11.9707 22.0001Z" stroke="#FFBB00" stroke-width="1.5" stroke-miterlimit="10" stroke-linecap="round" stroke-linejoin="round"/>
</svg>
