<svg width="36" height="36" viewBox="0 0 36 36" fill="none" xmlns="http://www.w3.org/2000/svg">
<path opacity="0.4" d="M33 11.715V20.85L30.555 18.75C29.385 17.745 27.495 17.745 26.325 18.75L20.085 24.105C18.915 25.11 17.025 25.11 15.855 24.105L15.345 23.685C14.28 22.755 12.585 22.665 11.385 23.475L4.005 28.425L3.84 28.545C3.285 27.345 3 25.92 3 24.285V11.715C3 6.255 6.255 3 11.715 3H24.285C29.745 3 33 6.255 33 11.715Z" fill="#0C0D0F"/>
<path d="M13.5016 15.5717C15.4733 15.5717 17.0717 13.9733 17.0717 12.0016C17.0717 10.03 15.4733 8.43164 13.5016 8.43164C11.53 8.43164 9.93164 10.03 9.93164 12.0016C9.93164 13.9733 11.53 15.5717 13.5016 15.5717Z" fill="#0C0D0F"/>
<path d="M32.9979 20.8479V24.2829C32.9979 29.7429 29.7429 32.9979 24.2829 32.9979H11.7129C7.88789 32.9979 5.12789 31.3929 3.83789 28.5429L4.00289 28.4229L11.3829 23.4729C12.5829 22.6629 14.2779 22.7529 15.3429 23.6829L15.8529 24.1029C17.0229 25.1079 18.9129 25.1079 20.0829 24.1029L26.3229 18.7479C27.4929 17.7429 29.3829 17.7429 30.5529 18.7479L32.9979 20.8479Z" fill="#0C0D0F"/>
</svg>
