<svg width="68" height="66" viewBox="0 0 68 66" fill="none" xmlns="http://www.w3.org/2000/svg">
<path fill-rule="evenodd" clip-rule="evenodd" d="M38.6907 44.7681C38.0186 45.2448 37.297 45.5498 36.4144 45.9279C32.5075 46.6319 30.3183 44.9101 29.6538 43.9627C29.1433 43.2353 28.5099 41.3948 28.5099 41.3948L28.409 41.5269L23.7862 45.111L23.965 46.1987C24.2661 48.0558 24.7478 49.7889 25.4094 51.3977C26.0699 53.0074 26.8613 54.4032 27.8633 55.5129C31.393 59.4255 36.7934 57.9897 36.7934 57.9897C38.0169 57.8231 38.9156 57.4896 39.8738 57.1772C40.8913 56.846 41.85 56.4445 42.7488 55.9729C43.6469 55.5019 44.5295 54.9541 45.3982 54.331C46.2664 53.7081 47.2395 53.0017 48.317 52.2123L64.6192 39.6157V63.6759C64.6192 64.9594 63.6005 66 62.3442 66H2.27565C1.01871 66 0 64.9594 0 63.6759V60.5569L39.9142 31.1094V24.8978V20.6065V17.7914C39.6107 16.1542 39.1631 14.6157 38.5713 13.177C37.909 11.5664 37.1159 10.1701 36.1116 9.05984C33.923 6.63866 31.6849 6.08722 27.3568 6.6376V6.6812C26.1299 6.84838 25.0316 7.08485 24.0705 7.39763C23.0501 7.72921 22.0885 8.13127 21.1881 8.60363C20.287 9.07516 19.4022 9.62335 18.5311 10.247C17.6607 10.8707 16.6846 11.5775 15.6042 12.3679L5.58789 19.9704L5.59481 34.3186L25.2531 19.8141C25.5928 19.5738 28.4003 17.8666 32.1441 19.0153C33.2562 19.3556 34.0678 19.89 34.5789 20.6177C34.6233 20.6815 34.6649 20.7477 34.7064 20.8135C27.1717 26.3469 11.6805 37.6425 0 46.1526V2.32395C0 1.04049 1.01871 0 2.27565 0H62.3442C63.6005 0 64.6192 1.04049 64.6192 2.32395V25.2011L38.6907 44.7681Z" fill="#FFC600"/>
<path fill-rule="evenodd" clip-rule="evenodd" d="M67.8736 35.8795L48.2275 51.133C47.1499 51.9225 46.1768 52.6288 45.3086 53.2518C44.4399 53.8748 43.5573 54.4226 42.6592 54.8936C41.761 55.3653 40.8023 55.7668 39.7842 56.0979C38.8261 56.4103 37.9273 56.7438 36.7039 56.9105C36.7039 56.9105 31.3034 58.346 27.7737 54.4337C26.7717 53.3239 25.9803 51.9282 25.3198 50.3185C24.6588 48.7095 24.1771 46.9766 23.8754 45.1194L23.6966 44.0318L28.3194 40.4477L28.4209 40.3156C28.4209 40.3156 29.0537 42.1561 29.5643 42.8835C30.2288 43.8309 32.4179 45.5527 36.3254 44.8486C37.2074 44.4705 37.9291 44.1655 38.6017 43.6889L67.8736 21.527V35.8795Z" fill="white"/>
</svg>
