<svg width="80" height="16" viewBox="0 0 80 16" fill="none" xmlns="http://www.w3.org/2000/svg">
<path opacity="0.4" d="M3.82617 10.6666C3.8995 10.3399 3.76617 9.87325 3.53283 9.63992L1.91283 8.01992C1.40617 7.51325 1.20617 6.97325 1.35283 6.50659C1.50617 6.03992 1.9795 5.71992 2.68617 5.59992L4.76617 5.25325C5.06617 5.19992 5.43283 4.93325 5.57283 4.65992L6.71952 2.35992C7.05285 1.69992 7.50619 1.33325 7.99952 1.33325C8.49285 1.33325 8.94619 1.69992 9.27952 2.35992L10.4262 4.65992C10.5129 4.83325 10.6929 4.99992 10.8862 5.11325L3.70617 12.2933C3.61283 12.3866 3.45283 12.2999 3.4795 12.1666L3.82617 10.6666Z" fill="#FFBB00"/>
<path d="M12.4672 9.64127C12.2272 9.88127 12.0939 10.3413 12.1739 10.6679L12.6339 12.6746C12.8272 13.5079 12.7072 14.1346 12.2939 14.4346C12.1272 14.5546 11.9272 14.6146 11.6939 14.6146C11.3539 14.6146 10.9539 14.4879 10.5139 14.2279L8.56053 13.0679C8.25387 12.8879 7.7472 12.8879 7.44053 13.0679L5.48719 14.2279C4.74719 14.6613 4.11385 14.7346 3.70719 14.4346C3.55385 14.3213 3.44052 14.1679 3.36719 13.9679L11.4739 5.86123C11.7805 5.55457 12.2139 5.41457 12.6339 5.4879L13.3072 5.60123C14.0139 5.72123 14.4872 6.04123 14.6405 6.5079C14.7872 6.9746 14.5872 7.5146 14.0805 8.02127L12.4672 9.64127Z" fill="#FFBB00"/>
<path opacity="0.4" d="M19.8262 10.6666C19.8995 10.3399 19.7662 9.87325 19.5328 9.63992L17.9128 8.01992C17.4062 7.51325 17.2062 6.97325 17.3528 6.50659C17.5062 6.03992 17.9795 5.71992 18.6862 5.59992L20.7662 5.25325C21.0662 5.19992 21.4328 4.93325 21.5728 4.65992L22.7195 2.35992C23.0529 1.69992 23.5062 1.33325 23.9995 1.33325C24.4929 1.33325 24.9462 1.69992 25.2795 2.35992L26.4262 4.65992C26.5129 4.83325 26.6929 4.99992 26.8862 5.11325L19.7062 12.2933C19.6128 12.3866 19.4528 12.2999 19.4795 12.1666L19.8262 10.6666Z" fill="#FFBB00"/>
<path d="M28.4672 9.64127C28.2272 9.88127 28.0939 10.3413 28.1739 10.6679L28.6339 12.6746C28.8272 13.5079 28.7072 14.1346 28.2939 14.4346C28.1272 14.5546 27.9272 14.6146 27.6939 14.6146C27.3539 14.6146 26.9539 14.4879 26.5139 14.2279L24.5605 13.0679C24.2539 12.8879 23.7472 12.8879 23.4405 13.0679L21.4872 14.2279C20.7472 14.6613 20.1139 14.7346 19.7072 14.4346C19.5539 14.3213 19.4405 14.1679 19.3672 13.9679L27.4739 5.86123C27.7805 5.55457 28.2139 5.41457 28.6339 5.4879L29.3072 5.60123C30.0139 5.72123 30.4872 6.04123 30.6405 6.5079C30.7872 6.9746 30.5872 7.5146 30.0805 8.02127L28.4672 9.64127Z" fill="#FFBB00"/>
<path opacity="0.4" d="M35.8262 10.6666C35.8995 10.3399 35.7662 9.87325 35.5328 9.63992L33.9128 8.01992C33.4062 7.51325 33.2062 6.97325 33.3528 6.50659C33.5062 6.03992 33.9795 5.71992 34.6862 5.59992L36.7662 5.25325C37.0662 5.19992 37.4328 4.93325 37.5728 4.65992L38.7195 2.35992C39.0529 1.69992 39.5062 1.33325 39.9995 1.33325C40.4929 1.33325 40.9462 1.69992 41.2795 2.35992L42.4262 4.65992C42.5129 4.83325 42.6929 4.99992 42.8862 5.11325L35.7062 12.2933C35.6128 12.3866 35.4528 12.2999 35.4795 12.1666L35.8262 10.6666Z" fill="#FFBB00"/>
<path d="M44.4672 9.64127C44.2272 9.88127 44.0939 10.3413 44.1739 10.6679L44.6339 12.6746C44.8272 13.5079 44.7072 14.1346 44.2939 14.4346C44.1272 14.5546 43.9272 14.6146 43.6939 14.6146C43.3539 14.6146 42.9539 14.4879 42.5139 14.2279L40.5605 13.0679C40.2539 12.8879 39.7472 12.8879 39.4405 13.0679L37.4872 14.2279C36.7472 14.6613 36.1139 14.7346 35.7072 14.4346C35.5539 14.3213 35.4405 14.1679 35.3672 13.9679L43.4739 5.86123C43.7805 5.55457 44.2139 5.41457 44.6339 5.4879L45.3072 5.60123C46.0139 5.72123 46.4872 6.04123 46.6405 6.5079C46.7872 6.9746 46.5872 7.5146 46.0805 8.02127L44.4672 9.64127Z" fill="#FFBB00"/>
<g opacity="0.6">
<path opacity="0.4" d="M51.8262 10.6666C51.8995 10.3399 51.7662 9.87325 51.5328 9.63992L49.9128 8.01992C49.4062 7.51325 49.2062 6.97325 49.3528 6.50659C49.5062 6.03992 49.9795 5.71992 50.6862 5.59992L52.7662 5.25325C53.0662 5.19992 53.4328 4.93325 53.5728 4.65992L54.7195 2.35992C55.0529 1.69992 55.5062 1.33325 55.9995 1.33325C56.4929 1.33325 56.9462 1.69992 57.2795 2.35992L58.4262 4.65992C58.5129 4.83325 58.6929 4.99992 58.8862 5.11325L51.7062 12.2933C51.6128 12.3866 51.4528 12.2999 51.4795 12.1666L51.8262 10.6666Z" fill="#949494"/>
<path d="M60.4672 9.64127C60.2272 9.88127 60.0939 10.3413 60.1739 10.6679L60.6339 12.6746C60.8272 13.5079 60.7072 14.1346 60.2939 14.4346C60.1272 14.5546 59.9272 14.6146 59.6939 14.6146C59.3539 14.6146 58.9539 14.4879 58.5139 14.2279L56.5605 13.0679C56.2539 12.8879 55.7472 12.8879 55.4405 13.0679L53.4872 14.2279C52.7472 14.6613 52.1139 14.7346 51.7072 14.4346C51.5539 14.3213 51.4405 14.1679 51.3672 13.9679L59.4739 5.86123C59.7805 5.55457 60.2139 5.41457 60.6339 5.4879L61.3072 5.60123C62.0139 5.72123 62.4872 6.04123 62.6405 6.5079C62.7872 6.9746 62.5872 7.5146 62.0805 8.02127L60.4672 9.64127Z" fill="#949494"/>
</g>
<g opacity="0.6">
<path opacity="0.4" d="M67.8262 10.6666C67.8995 10.3399 67.7662 9.87325 67.5328 9.63992L65.9128 8.01992C65.4062 7.51325 65.2062 6.97325 65.3528 6.50659C65.5062 6.03992 65.9795 5.71992 66.6862 5.59992L68.7662 5.25325C69.0662 5.19992 69.4328 4.93325 69.5728 4.65992L70.7195 2.35992C71.0529 1.69992 71.5062 1.33325 71.9995 1.33325C72.4929 1.33325 72.9462 1.69992 73.2795 2.35992L74.4262 4.65992C74.5129 4.83325 74.6929 4.99992 74.8862 5.11325L67.7062 12.2933C67.6128 12.3866 67.4528 12.2999 67.4795 12.1666L67.8262 10.6666Z" fill="#949494"/>
<path d="M76.4672 9.64127C76.2272 9.88127 76.0939 10.3413 76.1739 10.6679L76.6339 12.6746C76.8272 13.5079 76.7072 14.1346 76.2939 14.4346C76.1272 14.5546 75.9272 14.6146 75.6939 14.6146C75.3539 14.6146 74.9539 14.4879 74.5139 14.2279L72.5605 13.0679C72.2539 12.8879 71.7472 12.8879 71.4405 13.0679L69.4872 14.2279C68.7472 14.6613 68.1139 14.7346 67.7072 14.4346C67.5539 14.3213 67.4405 14.1679 67.3672 13.9679L75.4739 5.86123C75.7805 5.55457 76.2139 5.41457 76.6339 5.4879L77.3072 5.60123C78.0139 5.72123 78.4872 6.04123 78.6405 6.5079C78.7872 6.9746 78.5872 7.5146 78.0805 8.02127L76.4672 9.64127Z" fill="#949494"/>
</g>
</svg>
