<svg width="22" height="22" viewBox="0 0 22 22" fill="none" xmlns="http://www.w3.org/2000/svg">
<path d="M17.1875 7.33337V9.25838C16.7842 9.20337 16.3258 9.17587 15.8125 9.16671V7.33337C15.8125 4.44587 14.9967 2.52087 11 2.52087C7.00333 2.52087 6.1875 4.44587 6.1875 7.33337V9.16671C5.67417 9.17587 5.21583 9.20337 4.8125 9.25838V7.33337C4.8125 4.67504 5.45417 1.14587 11 1.14587C16.5458 1.14587 17.1875 4.67504 17.1875 7.33337Z" fill="#FF3431"/>
<path d="M17.1872 9.25829C16.7838 9.20329 16.3255 9.17579 15.8122 9.16663H6.18717C5.67384 9.17579 5.21551 9.20329 4.81217 9.25829C2.47467 9.54246 1.83301 10.6883 1.83301 13.75V15.5833C1.83301 19.25 2.74967 20.1666 6.41634 20.1666H15.583C19.2497 20.1666 20.1663 19.25 20.1663 15.5833V13.75C20.1663 10.6883 19.5247 9.54246 17.1872 9.25829ZM7.98384 15.3175C7.80967 15.4825 7.57134 15.5833 7.33301 15.5833C7.21384 15.5833 7.09467 15.5558 6.98467 15.51C6.86551 15.4641 6.77384 15.4 6.68217 15.3175C6.51717 15.1433 6.41634 14.905 6.41634 14.6666C6.41634 14.5475 6.44384 14.4283 6.48967 14.3183C6.53551 14.2083 6.59967 14.1075 6.68217 14.0158C6.77384 13.9333 6.86551 13.8691 6.98467 13.8233C7.32384 13.6766 7.72717 13.7591 7.98384 14.0158C8.06634 14.1075 8.13051 14.2083 8.17634 14.3183C8.22217 14.4283 8.24967 14.5475 8.24967 14.6666C8.24967 14.905 8.14884 15.1433 7.98384 15.3175ZM11.843 15.015C11.7972 15.125 11.733 15.2258 11.6505 15.3175C11.4763 15.4825 11.238 15.5833 10.9997 15.5833C10.7522 15.5833 10.523 15.4825 10.3488 15.3175C10.2663 15.2258 10.2022 15.125 10.1563 15.015C10.1105 14.905 10.083 14.7858 10.083 14.6666C10.083 14.4191 10.1838 14.19 10.3488 14.0158C10.688 13.6766 11.3022 13.6766 11.6505 14.0158C11.8155 14.19 11.9163 14.4191 11.9163 14.6666C11.9163 14.7858 11.8888 14.905 11.843 15.015ZM15.3172 15.3175C15.143 15.4825 14.9047 15.5833 14.6663 15.5833C14.428 15.5833 14.1897 15.4825 14.0155 15.3175C13.8505 15.1433 13.7497 14.9141 13.7497 14.6666C13.7497 14.4191 13.8505 14.19 14.0155 14.0158C14.3638 13.6766 14.978 13.6766 15.3172 14.0158C15.3538 14.0616 15.3905 14.1075 15.4272 14.1625C15.4638 14.2083 15.4913 14.2633 15.5097 14.3183C15.5372 14.3733 15.5555 14.4283 15.5647 14.4833C15.5738 14.5475 15.583 14.6116 15.583 14.6666C15.583 14.905 15.4822 15.1433 15.3172 15.3175Z" fill="#FF3431"/>
</svg>
