<svg width="36" height="36" viewBox="0 0 36 36" fill="none" xmlns="http://www.w3.org/2000/svg">
<path d="M18 22.5C20.4853 22.5 22.5 20.4853 22.5 18C22.5 15.5147 20.4853 13.5 18 13.5C15.5147 13.5 13.5 15.5147 13.5 18C13.5 20.4853 15.5147 22.5 18 22.5Z" fill="#FFBB00"/>
<path d="M25.5 5.25H10.5C6 5.25 3 7.5 3 12.75V13.5V22.5V23.25C3 28.5 6 30.75 10.5 30.75H25.5C30 30.75 33 28.5 33 23.25V22.5V13.5V12.75C33 7.5 30 5.25 25.5 5.25ZM10.5 28.5C10.5 24.27 9.135 22.71 5.25 22.53V22.5V13.5V13.47C9.135 13.29 10.5 11.73 10.5 7.5H25.5C25.5 11.73 26.865 13.29 30.75 13.47V13.5V22.5V22.53C26.865 22.71 25.5 24.27 25.5 28.5H10.5Z" fill="#FFBB00"/>
</svg>
