<svg width="22" height="22" viewBox="0 0 22 22" fill="none" xmlns="http://www.w3.org/2000/svg">
<path d="M16.0328 8.79968L5.13366 15.3721C4.49199 15.7571 3.66699 15.2988 3.66699 14.5471V7.21384C3.66699 4.01468 7.12283 2.01634 9.90033 3.61134L14.1078 6.03134L16.0237 7.13134C16.6562 7.50718 16.6653 8.42384 16.0328 8.79968Z" fill="#14AE5C"/>
<path d="M16.5814 14.1722L12.8689 16.3172L9.1656 18.4531C7.83643 19.2139 6.3331 19.0581 5.24226 18.2881C4.7106 17.9214 4.77476 17.1056 5.33393 16.7756L16.9847 9.79057C17.5347 9.46057 18.2589 9.77224 18.3597 10.4047C18.5889 11.8256 18.0022 13.3564 16.5814 14.1722Z" fill="#14AE5C"/>
</svg>
