<svg width="16" height="16" viewBox="0 0 16 16" fill="none" xmlns="http://www.w3.org/2000/svg">
<path d="M8.10771 7.24671C8.04104 7.24004 7.96104 7.24004 7.88771 7.24671C6.30102 7.19337 5.04102 5.89337 5.04102 4.29337C5.04102 2.66004 6.36102 1.33337 8.00104 1.33337C9.63438 1.33337 10.961 2.66004 10.961 4.29337C10.9544 5.89337 9.69438 7.19337 8.10771 7.24671Z" stroke="#949494" stroke-linecap="round" stroke-linejoin="round"/>
<path d="M4.7725 9.70663C3.15917 10.7866 3.15917 12.5466 4.7725 13.62C6.60583 14.8466 9.61252 14.8466 11.4459 13.62C13.0592 12.54 13.0592 10.78 11.4459 9.70663C9.61919 8.48663 6.6125 8.48663 4.7725 9.70663Z" stroke="#949494" stroke-linecap="round" stroke-linejoin="round"/>
</svg>
