<svg width="60" height="60" viewBox="0 0 60 60" fill="none" xmlns="http://www.w3.org/2000/svg">
<path d="M23.8931 49.0433C18.6652 53.9041 9.76204 52.6189 5.59349 47.4721C0.659837 41.3935 -0.325269 29.8727 8.26981 19.567C12.5331 14.4553 17.671 10.5796 23.6783 7.93994L26.4489 12.4022C17.9033 16.5433 11.5161 22.1579 10.6109 31.5712C14.4666 31.5712 17.6656 31.4316 20.5149 32.4511C23.7589 33.6119 25.7293 35.7646 26.5379 38.2332C27.8208 42.0984 27.1989 45.9696 23.8931 49.0433ZM54.8777 49.0433C49.6498 53.9041 40.7467 52.6189 36.5781 47.4721C31.6445 41.3935 30.6594 29.8727 39.2545 19.567C43.5177 14.4553 48.6557 10.5796 54.663 7.93994L57.4336 12.4022C48.8879 16.5433 42.5007 22.1579 41.5956 31.5712C45.4513 31.5712 48.6503 31.4316 51.4996 32.4511C54.7435 33.6119 56.7139 35.7646 57.5226 38.2332C58.8054 42.0984 58.1836 45.9696 54.8777 49.0433Z" fill="#FFBB00"/>
</svg>
