<svg width="60" height="60" viewBox="0 0 60 60" fill="none" xmlns="http://www.w3.org/2000/svg">
<path d="M36.1069 10.9567C41.3348 6.09592 50.238 7.38113 54.4065 12.5279C59.3402 18.6065 60.3253 30.1273 51.7302 40.433C47.4669 45.5447 42.329 49.4204 36.3217 52.0601L33.5511 47.5978C42.0967 43.4567 48.4839 37.8421 49.3891 28.4288C45.5334 28.4288 42.3344 28.5684 39.4851 27.5489C36.2411 26.3881 34.2707 24.2354 33.4621 21.7668C32.1792 17.9016 32.8011 14.0304 36.1069 10.9567ZM5.12229 10.9567C10.3502 6.09592 19.2533 7.38113 23.4219 12.5279C28.3555 18.6065 29.3406 30.1273 20.7455 40.433C16.4823 45.5447 11.3443 49.4204 5.33701 52.0601L2.56642 47.5978C11.1121 43.4567 17.4993 37.8421 18.4044 28.4288C14.5487 28.4288 11.3497 28.5684 8.50044 27.5489C5.25648 26.3881 3.28606 24.2354 2.47739 21.7668C1.19458 17.9016 1.81644 14.0304 5.12229 10.9567Z" fill="#FFBB00"/>
</svg>
