<svg width="21" height="21" viewBox="0 0 21 21" fill="none" xmlns="http://www.w3.org/2000/svg">
<path d="M18.7904 5.50008V7.51675C18.7904 8.83341 17.9571 9.66675 16.6404 9.66675H13.7904V3.84175C13.7904 2.91675 14.5487 2.16675 15.4737 2.16675C16.3821 2.17508 17.2154 2.54175 17.8154 3.14175C18.4154 3.75008 18.7904 4.58341 18.7904 5.50008Z" stroke="white" stroke-width="1.25" stroke-miterlimit="10" stroke-linecap="round" stroke-linejoin="round"/>
<path d="M2.12366 6.33341V18.0001C2.12366 18.6917 2.90699 19.0834 3.45699 18.6668L4.88199 17.6001C5.21532 17.3501 5.68199 17.3834 5.98199 17.6834L7.36532 19.0751C7.69032 19.4001 8.22366 19.4001 8.54866 19.0751L9.94866 17.6751C10.2403 17.3834 10.707 17.3501 11.032 17.6001L12.457 18.6668C13.007 19.0751 13.7903 18.6834 13.7903 18.0001V3.83341C13.7903 2.91675 14.5403 2.16675 15.457 2.16675H6.29032H5.45699C2.95699 2.16675 2.12366 3.65841 2.12366 5.50008V6.33341Z" stroke="white" stroke-width="1.25" stroke-miterlimit="10" stroke-linecap="round" stroke-linejoin="round"/>
<path d="M7.95703 11.3418H10.457" stroke="white" stroke-width="1.25" stroke-linecap="round" stroke-linejoin="round"/>
<path d="M7.95703 8.00842H10.457" stroke="white" stroke-width="1.25" stroke-linecap="round" stroke-linejoin="round"/>
<path d="M5.45374 11.3334H5.46122" stroke="white" stroke-width="1.66667" stroke-linecap="round" stroke-linejoin="round"/>
<path d="M5.45374 8.00009H5.46122" stroke="white" stroke-width="1.66667" stroke-linecap="round" stroke-linejoin="round"/>
</svg>
