<svg width="26" height="26" viewBox="0 0 26 26" fill="none" xmlns="http://www.w3.org/2000/svg">
<path opacity="0.4" d="M11.8742 2.23021L5.91585 4.46187C4.77835 4.89521 3.84668 6.23854 3.84668 7.46271V16.2377C3.84668 17.1152 4.42085 18.2744 5.12501 18.7944L11.0834 23.2469C12.1342 24.0377 13.8567 24.0377 14.9075 23.2469L20.8659 18.7944C21.57 18.2635 22.1442 17.1152 22.1442 16.2377V7.46271C22.1442 6.24937 21.2125 4.89521 20.075 4.47271L14.1167 2.24104C13.51 2.00271 12.4917 2.00271 11.8742 2.23021Z" fill="#0C0D0F"/>
<path d="M11.5462 15.417C11.3403 15.417 11.1345 15.3412 10.972 15.1787L9.22781 13.4345C8.91365 13.1203 8.91365 12.6003 9.22781 12.2862C9.54198 11.972 10.062 11.972 10.3761 12.2862L11.5462 13.4562L15.6303 9.37198C15.9445 9.05781 16.4645 9.05781 16.7787 9.37198C17.0928 9.68614 17.0928 10.2061 16.7787 10.5203L12.1203 15.1787C11.9578 15.3412 11.752 15.417 11.5462 15.417Z" fill="#0C0D0F"/>
</svg>
