<svg width="36" height="37" viewBox="0 0 36 37" fill="none" xmlns="http://www.w3.org/2000/svg">
<path d="M33 16.625C33.615 16.625 34.125 16.115 34.125 15.5V14C34.125 7.385 32.115 5.375 25.5 5.375H16.125V8.75C16.125 9.365 15.615 9.875 15 9.875C14.385 9.875 13.875 9.365 13.875 8.75V5.375H10.5C3.885 5.375 1.875 7.385 1.875 14V14.75C1.875 15.365 2.385 15.875 3 15.875C4.44 15.875 5.625 17.06 5.625 18.5C5.625 19.94 4.44 21.125 3 21.125C2.385 21.125 1.875 21.635 1.875 22.25V23C1.875 29.615 3.885 31.625 10.5 31.625H13.875V28.25C13.875 27.635 14.385 27.125 15 27.125C15.615 27.125 16.125 27.635 16.125 28.25V31.625H25.5C32.115 31.625 34.125 29.615 34.125 23C34.125 22.385 33.615 21.875 33 21.875C31.56 21.875 30.375 20.69 30.375 19.25C30.375 17.81 31.56 16.625 33 16.625ZM16.125 21.755C16.125 22.37 15.615 22.88 15 22.88C14.385 22.88 13.875 22.37 13.875 21.755V15.245C13.875 14.63 14.385 14.12 15 14.12C15.615 14.12 16.125 14.63 16.125 15.245V21.755Z" fill="#FFBB00"/>
</svg>
