<svg width="16" height="17" viewBox="0 0 16 17" fill="none" xmlns="http://www.w3.org/2000/svg">
<path d="M14.0002 4.4869C11.7802 4.2669 9.54691 4.15357 7.32024 4.15357C6.00024 4.15357 4.68024 4.22023 3.36024 4.35357L2.00024 4.4869" stroke="#FF3431" stroke-linecap="round" stroke-linejoin="round"/>
<path d="M5.66675 3.81326L5.81341 2.93992C5.92008 2.30659 6.00008 1.83326 7.12675 1.83326H8.87341C10.0001 1.83326 10.0867 2.33326 10.1867 2.94659L10.3334 3.81326" stroke="#FF3431" stroke-linecap="round" stroke-linejoin="round"/>
<path d="M12.5667 6.59302L12.1334 13.3064C12.06 14.353 12 15.1664 10.14 15.1664H5.86002C4.00002 15.1664 3.94002 14.353 3.86668 13.3064L3.43335 6.59302" stroke="#FF3431" stroke-linecap="round" stroke-linejoin="round"/>
<path d="M6.88696 11.4999H9.10696" stroke="#FF3431" stroke-linecap="round" stroke-linejoin="round"/>
<path d="M6.3335 8.83326H9.66683" stroke="#FF3431" stroke-linecap="round" stroke-linejoin="round"/>
</svg>
