<svg width="154" height="11" viewBox="0 0 154 11" fill="none" xmlns="http://www.w3.org/2000/svg">
<path d="M10.551 1.8354C28.0763 3.16746 45.6615 3.27846 63.2279 3.27212C80.6962 3.2626 98.1772 3.13574 115.63 3.99206C125.454 4.47413 135.263 5.27019 145.014 6.56418V5.61272C126.585 4.36947 108.141 3.418 89.6832 2.75832C71.2258 2.09863 52.7589 1.73074 34.2888 1.65462C23.9241 1.61022 13.5562 1.66097 3.1946 1.80369C2.56892 1.8132 2.60368 2.68538 3.1946 2.75515C20.486 4.84521 37.9228 5.27019 55.3248 5.1465C72.7742 5.02281 90.2173 4.35679 107.667 4.29336C112.514 4.27433 117.365 4.30604 122.212 4.40436C126.92 4.50267 131.787 4.43608 136.28 6.04723C136.855 6.25338 137.105 5.33362 136.533 5.13064C132.659 3.7415 128.519 3.6083 124.449 3.50681C120.07 3.39581 115.687 3.34823 111.304 3.33872C102.532 3.32603 93.7596 3.48461 84.9907 3.67173C67.516 4.0428 50.0318 4.5217 32.5571 3.95717C22.7454 3.64001 12.94 2.9835 3.19144 1.80685V2.75832C21.6584 2.50777 40.1316 2.54583 58.5985 2.87884C77.0654 3.21185 95.526 3.83665 113.974 4.75323C124.326 5.26702 134.675 5.87279 145.018 6.57053C145.64 6.61176 145.605 5.69835 145.018 5.61907C127.619 3.31335 110.062 2.59975 92.5272 2.39677C74.9925 2.19379 57.5557 2.48557 40.0716 2.1811C30.2219 2.00984 20.3754 1.64193 10.5542 0.896618C9.94431 0.849044 9.94747 1.80368 10.5542 1.84808L10.551 1.8354Z" fill="#FFBB00"/>
<path d="M137.039 6.78622C140.689 6.41197 144.335 6.03773 147.985 5.66032C148.585 5.60006 148.592 4.64542 147.985 4.70885C144.335 5.08309 140.689 5.45733 137.039 5.83475C136.438 5.89501 136.432 6.84965 137.039 6.78622ZM5.49199 0.91884C8.77837 3.36728 12.8231 4.29338 16.8174 4.77863C21.4783 5.34633 26.1962 5.55566 30.8856 5.73961C40.7605 6.12971 50.6512 6.15191 60.5325 6.28194C70.3853 6.41197 80.2381 6.55786 90.0909 6.80524C99.9438 7.05263 109.781 7.40784 119.615 7.95335C129.448 8.49885 139.361 9.241 149.202 10.2622C150.409 10.3859 151.613 10.516 152.82 10.6492C153.344 10.7063 153.474 9.78968 152.946 9.71356C134.245 7.08752 115.538 4.46147 96.7332 2.71394C77.9124 0.963243 58.981 0.11009 40.0874 1.0235C29.4857 1.53412 18.9156 2.54268 8.35177 3.54806C7.74822 3.60515 7.74506 4.55662 8.35177 4.49953C17.7527 3.60198 27.16 2.7076 36.5893 2.15892C45.9871 1.61341 55.4007 1.47703 64.8111 1.70855C83.6288 2.1716 102.386 4.01428 121.059 6.34854C131.619 7.66791 142.158 9.14902 152.696 10.6301L152.823 9.69454C143.084 8.61621 133.316 7.82014 123.539 7.22389C113.756 6.63081 103.963 6.23754 94.1673 5.95844C84.4156 5.68252 74.6576 5.51759 64.9028 5.38438C55.1131 5.24801 45.3172 5.20679 35.5307 4.9372C30.6454 4.804 25.7633 4.5915 20.8906 4.20774C16.7194 3.88107 12.3523 3.51 8.53189 1.65147C7.63204 1.21266 6.77511 0.69025 5.97231 0.0910692C5.48251 -0.27366 5.00852 0.550943 5.49515 0.912501L5.49199 0.91884Z" fill="#FFBB00"/>
<path d="M4.1172 3.6464C12.6397 6.47225 21.633 7.392 30.5694 7.57595C39.5058 7.7599 49.1216 7.3254 58.3867 7.10339C67.9488 6.87504 77.5109 6.69743 87.0761 6.70377C96.6761 6.71011 106.279 6.89724 115.87 7.40152C120.638 7.65207 125.403 7.97874 130.159 8.40055C134.915 8.82237 139.636 9.19662 144.278 10.1608C145.403 10.3955 146.515 10.6682 147.618 10.9885L147.871 10.072C132.485 6.92895 116.932 4.61372 101.299 3.13895C85.6162 1.661 69.8542 1.02986 54.1017 1.25504C45.2728 1.3819 36.4501 1.77835 27.6464 2.43804C27.027 2.48561 27.046 3.31973 27.6464 3.3895C34.7437 4.21093 41.8947 4.03966 49.0205 3.84937C56.1336 3.65908 63.2436 3.58931 70.3598 3.74471C84.5734 4.05235 98.768 5.12434 112.868 6.9575C120.894 8.00094 128.889 9.2981 136.839 10.83C137.434 10.9441 137.693 10.0434 137.092 9.91338C120.54 6.33445 103.81 3.64433 86.9718 1.85447C82.2143 1.3509 77.4496 0.918453 72.6793 0.557296V1.50876C82.3867 2.02573 92.0942 2.54269 101.789 3.26581C111.525 3.99209 121.248 4.9277 130.918 6.28196C136.372 7.0463 141.807 7.95019 147.211 9.01266L147.337 8.07706C132.788 6.78306 118.243 5.4859 103.694 4.1919C99.6054 3.82718 95.5164 3.46245 91.4306 3.10089C90.8239 3.04697 90.827 3.99844 91.4306 4.05236C105.979 5.34635 120.524 6.64352 135.073 7.93751C139.162 8.30224 143.251 8.66697 147.337 9.02852C147.865 9.0761 147.988 8.19757 147.463 8.09291C137.895 6.20901 128.232 4.84207 118.537 3.80814C108.779 2.76787 98.9892 2.05745 89.1965 1.46754C83.6918 1.1377 78.1839 0.84274 72.6793 0.550957C72.0662 0.519241 72.0757 1.45802 72.6793 1.50242C89.4745 2.77739 106.2 4.94039 122.768 8.00411C127.473 8.87311 132.166 9.81506 136.843 10.8268L137.095 9.91022C123.094 7.20805 108.949 5.25437 94.7391 4.07138C80.4749 2.88205 66.1507 2.47292 51.8455 2.82497C43.7812 3.0216 35.6885 3.37047 27.6527 2.43804V3.3895C43.3167 2.21603 59.0376 1.87984 74.7364 2.39998C90.3909 2.91694 106.02 4.27437 121.529 6.47225C130.273 7.71233 138.976 9.21881 147.628 10.9885C148.222 11.1091 148.471 10.2432 147.88 10.072C143.447 8.78748 138.846 8.29589 134.267 7.83602C129.515 7.36028 124.753 6.9797 119.987 6.68474C110.454 6.09166 100.901 5.82843 91.3484 5.76817C81.7863 5.70791 72.2211 5.84429 62.6621 6.05678C53.2738 6.26293 43.8792 6.67206 34.4878 6.66889C25.4534 6.66572 16.3305 6.12021 7.58053 3.70666C6.50614 3.4117 5.44123 3.08503 4.38579 2.73299C3.80436 2.53952 3.55472 3.45927 4.133 3.64956L4.1172 3.6464Z" fill="#FFBB00"/>
<path d="M130.981 7.78217C131.591 7.78217 131.591 6.83071 130.981 6.83071C130.371 6.83071 130.371 7.78217 130.981 7.78217ZM22.9695 2.35246L16.2546 4.15074C15.6668 4.30932 15.9164 5.22589 16.5073 5.06731L23.2223 3.26905C23.8101 3.11047 23.5604 2.19389 22.9695 2.35246Z" fill="#FFBB00"/>
<path d="M2.58152 8.80648L33.2776 3.85885C36.1847 3.38946 39.0951 2.92007 42.0023 2.45385C42.4984 2.37457 42.4036 1.67049 42.0023 1.53728C39.547 0.715848 36.9273 0.887107 34.3836 1.01714C31.6249 1.15669 28.8694 1.32796 26.1139 1.52777C20.6043 1.92692 15.1037 2.44188 9.61564 3.07231C6.51886 3.42752 3.4284 3.82397 0.337938 4.25213C-0.186618 4.32508 -0.0665386 5.23213 0.464338 5.18773C6.07962 4.69614 11.6949 4.24261 17.3165 3.83031C22.9381 3.41801 28.5597 3.04694 34.1876 2.71392C37.3792 2.5268 40.574 2.34919 43.7655 2.18744C44.3722 2.15573 44.3786 1.21061 43.7655 1.23598C35.2509 1.60897 26.749 2.23298 18.2708 3.10719C17.7779 3.15794 17.5819 3.91912 18.1444 4.04281C21.0895 4.68029 24.1168 4.87692 27.1188 4.60734C27.7223 4.55343 27.7286 3.60196 27.1188 3.65588C24.1989 3.91911 21.2633 3.74785 18.3972 3.12622L18.2708 4.06183C24.8752 3.37995 31.4953 2.8503 38.125 2.47288C40.0052 2.36505 41.8853 2.27308 43.7655 2.19062V1.23915C38.1376 1.52459 32.5097 1.85126 26.8881 2.21916C18.0741 2.79515 9.2667 3.46861 0.467497 4.23944L0.593897 5.17505C5.99746 4.42339 11.4168 3.78908 16.8488 3.26577C22.2682 2.74246 27.7002 2.33651 33.1385 2.03838C35.9857 1.88298 38.9971 1.53411 41.7558 2.45703V1.54044L11.0597 6.48807C8.15257 6.95746 5.24223 7.42685 2.33504 7.89307C1.73465 7.99139 1.99061 8.90797 2.58784 8.80965L2.58152 8.80648Z" fill="#FFBB00"/>
</svg>
