<svg width="34" height="34" viewBox="0 0 34 34" fill="none" xmlns="http://www.w3.org/2000/svg">
<path opacity="0.4" d="M15.2304 3.47127C16.2079 2.63543 17.8088 2.63543 18.8004 3.47127L21.0387 5.39793C21.4637 5.76627 22.2571 6.06377 22.8238 6.06377H25.2321C26.7337 6.06377 27.9662 7.29627 27.9662 8.79793V11.2063C27.9662 11.7588 28.2637 12.5663 28.6321 12.9913L30.5587 15.2296C31.3946 16.2071 31.3946 17.8079 30.5587 18.7996L28.6321 21.0379C28.2637 21.4629 27.9662 22.2563 27.9662 22.8229V25.2313C27.9662 26.7329 26.7337 27.9654 25.2321 27.9654H22.8238C22.2713 27.9654 21.4637 28.2629 21.0387 28.6313L18.8004 30.5579C17.8229 31.3938 16.2221 31.3938 15.2304 30.5579L12.992 28.6313C12.567 28.2629 11.7737 27.9654 11.207 27.9654H8.7562C7.25453 27.9654 6.02203 26.7329 6.02203 25.2313V22.8088C6.02203 22.2563 5.72453 21.4629 5.37036 21.0379L3.45786 18.7854C2.6362 17.8079 2.6362 16.2213 3.45786 15.2438L5.37036 12.9913C5.72453 12.5663 6.02203 11.7729 6.02203 11.2204V8.78377C6.02203 7.2821 7.25453 6.0496 8.7562 6.0496H11.207C11.7595 6.0496 12.567 5.7521 12.992 5.38377L15.2304 3.47127Z" fill="#FFBB00"/>
<path d="M15.2865 21.4925C15.0032 21.4925 14.734 21.3792 14.5357 21.1809L11.1074 17.7525C10.6966 17.3417 10.6966 16.6617 11.1074 16.2509C11.5183 15.84 12.1983 15.84 12.6091 16.2509L15.2865 18.9284L21.3782 12.8368C21.789 12.4259 22.469 12.4259 22.8799 12.8368C23.2907 13.2476 23.2907 13.9276 22.8799 14.3384L16.0374 21.1809C15.839 21.3792 15.5699 21.4925 15.2865 21.4925Z" fill="#FFBB00"/>
</svg>
